<?xml version="1.0" encoding="utf-8"?>
<!-- Generator: Adobe Illustrator 25.0.1, SVG Export Plug-In . SVG Version: 6.00 Build 0)  -->
<svg version="1.1" id="Layer_1" xmlns="http://www.w3.org/2000/svg" xmlns:xlink="http://www.w3.org/1999/xlink" x="0px" y="0px"
	 viewBox="0 0 1200 1000.7" style="enable-background:new 0 0 1200 1000.7;" xml:space="preserve">
<style type="text/css">
	.st0{fill:#D1C8CE;}
	.st1{fill:#9E8FAE;}
	.st2{fill:#2191F2;}
	.st3{fill:#4F5569;}
	.st4{fill:#FFCB30;}
	.st5{fill:#E4464A;}
	.st6{fill:#1957C2;}
	.st7{fill:#0C97B3;}
	.st8{fill:#F5AB35;}
	.st9{fill:#031162;}
	.st10{fill:#7DADFF;}
	.st11{fill:#F8F8F8;}
	.st12{opacity:0.15;enable-background:new    ;}
	.st13{fill:#FF654D;}
	.st14{fill:#000D41;}
	.st15{fill:#FEBAC7;}
	.st16{fill:#746980;}
	.st17{fill:#2C4B80;}
	.st18{fill:#F2F2F2;}
	.st19{fill:#E57F0E;}
	.st20{fill:url(#SVGID_1_);}
	.st21{fill:url(#SVGID_2_);}
</style>
<g>
	<path class="st0" d="M421.8,660.1v-30L384,619.6c-2.1-7.7-5.1-15.2-9.1-22.2l19.3-34.1L373,542.1l-33.9,19.2
		c-7.1-4.1-14.6-7.2-22.5-9.4l-10.4-37.4h-30l-10.4,37.4c-7.9,2.2-15.4,5.3-22.5,9.4l-33.9-19.2l-21.2,21.2l19.3,34.1
		c-3.9,7-7,14.4-9.1,22.2l-37.8,10.5v30l38.1,10.6c2.1,7.5,5.2,14.8,9.1,21.6l-19.5,34.6l21.2,21.2l34.8-19.7
		c6.7,3.8,13.9,6.7,21.3,8.8l10.7,38.5h30l10.7-38.5c7.4-2.1,14.6-5,21.3-8.8L373,748l21.2-21.2l-19.5-34.6c3.9-6.8,6.9-14,9.1-21.6
		L421.8,660.1z M291.2,701.6c-31.5,0-57-25.6-56.9-57c0-31.5,25.6-57,57-56.9c31.5,0,57,25.5,57,57
		C348.2,676.1,322.7,701.6,291.2,701.6C291.2,701.6,291.2,701.6,291.2,701.6z"/>
	<path class="st0" d="M184.8,613.4l3-12.8l-15-8.2c-0.1-3.5-0.7-7-1.7-10.3l11.6-12.6l-6.9-11.2l-16.3,4.8c-2.6-2.4-5.5-4.5-8.6-6.2
		l-0.7-17l-12.8-3l-8.2,14.9c-3.6,0.1-7.1,0.7-10.5,1.7L106.3,542l-11.2,6.9l4.8,16.4c-2.4,2.6-4.4,5.4-6.1,8.5l-17.1,0.7l-3,12.8
		l15.2,8.3c0.2,3.4,0.7,6.8,1.7,10.1l-11.8,12.7l6.9,11.2l16.7-4.9c2.5,2.3,5.2,4.2,8.2,5.9l0.7,17.4l12.8,3l8.4-15.3
		c3.4-0.1,6.7-0.7,9.9-1.6l12.8,11.8l11.1-6.9l-4.9-16.7c2.3-2.5,4.4-5.3,6-8.3L184.8,613.4z M125.1,618
		c-13.4-3.2-21.7-16.6-18.5-30c3.2-13.4,16.6-21.7,30-18.5c13.4,3.2,21.7,16.6,18.5,29.9C152,612.8,138.6,621.2,125.1,618
		C125.2,618,125.2,618,125.1,618z"/>
</g>
<g>
	<rect x="403.8" y="160.4" class="st1" width="1.5" height="589.7"/>
	<g>
		<path class="st2" d="M231.3,194.3L231.3,194.3c-3.3,0-6-2.7-6-5.9l0,0c0-3.3,2.7-5.9,6-5.9l0,0c3.3,0,5.9,2.7,5.9,5.9l0,0
			C237.2,191.6,234.5,194.3,231.3,194.3z"/>
		<path class="st1" d="M244.2,185.1h49.6c1.3,0,2.4,1.1,2.4,2.4v1.3c0,1.3-1.1,2.4-2.4,2.4h-49.6c-1.3,0-2.4-1.1-2.4-2.4v-1.3
			C241.8,186.2,242.9,185.1,244.2,185.1z"/>
		<path class="st2" d="M231.3,261L231.3,261c-3.3,0-6-2.6-6-5.9l0,0c0-3.3,2.7-6,6-5.9l0,0c3.3,0,5.9,2.7,5.9,5.9l0,0
			C237.2,258.3,234.5,261,231.3,261z"/>
		<path class="st1" d="M244.2,251.8h49.6c1.3,0,2.4,1.1,2.4,2.4v1.3c0,1.3-1.1,2.4-2.4,2.4h-49.6c-1.3,0-2.4-1.1-2.4-2.4v-1.3
			C241.8,252.9,242.9,251.8,244.2,251.8z"/>
		<path class="st2" d="M231.3,347.9L231.3,347.9c-3.3,0-6-2.7-6-6l0,0c0-3.3,2.7-5.9,6-5.9l0,0c3.3,0,5.9,2.7,5.9,5.9l0,0
			C237.2,345.2,234.5,347.9,231.3,347.9z"/>
		<path class="st1" d="M244.2,338.7h49.6c1.3,0,2.4,1.1,2.4,2.4v1.3c0,1.3-1.1,2.4-2.4,2.4h-49.6c-1.3,0-2.4-1.1-2.4-2.4v-1.3
			C241.8,339.8,242.9,338.7,244.2,338.7z"/>
		<path class="st2" d="M231.3,370.4L231.3,370.4c-3.3,0-6-2.6-6-5.9l0,0c0-3.3,2.7-6,6-6l0,0c3.3,0,5.9,2.7,5.9,6l0,0
			C237.2,367.7,234.5,370.3,231.3,370.4z"/>
		<path class="st1" d="M244.2,361.1h49.6c1.3,0,2.4,1.1,2.4,2.4v1.3c0,1.3-1.1,2.4-2.4,2.4h-49.6c-1.3,0-2.4-1.1-2.4-2.4v-1.3
			C241.8,362.2,242.9,361.1,244.2,361.1z"/>
		<path class="st2" d="M247.8,211.8L247.8,211.8c-3.3,0-5.9-2.7-5.9-5.9l0,0l0,0c0-3.3,2.6-6,5.9-6c0,0,0,0,0.1,0l0,0
			c3.3,0,6,2.7,5.9,6l0,0C253.7,209.1,251,211.8,247.8,211.8z"/>
		<path class="st1" d="M260.7,202.6h49.6c1.3,0,2.4,1.1,2.4,2.4v1.3c0,1.3-1.1,2.4-2.4,2.4h-49.6c-1.3,0-2.4-1.1-2.4-2.4v-1.3
			C258.3,203.6,259.4,202.6,260.7,202.6z"/>
		<path class="st2" d="M247.8,229.2L247.8,229.2c-3.3,0-5.9-2.7-5.9-5.9l0,0l0,0c0-3.3,2.6-5.9,5.9-5.9c0,0,0,0,0,0l0,0
			c3.3,0,5.9,2.7,5.9,5.9l0,0C253.7,226.6,251,229.2,247.8,229.2z"/>
		<path class="st1" d="M260.7,220h70.2c1.3,0,2.4,1.1,2.4,2.4v1.3c0,1.3-1.1,2.4-2.4,2.4h-70.2c-1.3,0-2.4-1.1-2.4-2.4v-1.3
			C258.3,221.1,259.4,220,260.7,220z"/>
		<path class="st2" d="M247.8,277.8L247.8,277.8c-3.3,0-5.9-2.7-5.9-6l0,0c0-3.3,2.7-5.9,5.9-5.9l0,0l0,0c3.3,0,5.9,2.7,5.9,5.9l0,0
			C253.7,275.1,251.1,277.8,247.8,277.8z"/>
		<path class="st1" d="M260.7,268.6h86.5c1.3,0,2.4,1.1,2.4,2.4v1.3c0,1.3-1.1,2.4-2.4,2.4h-86.5c-1.3,0-2.4-1.1-2.4-2.4V271
			C258.3,269.6,259.4,268.6,260.7,268.6z"/>
		<path class="st2" d="M247.8,295.3L247.8,295.3c-3.3,0-5.9-2.7-5.9-5.9c0,0,0,0,0,0l0,0c0-3.3,2.7-5.9,5.9-5.9l0,0l0,0
			c3.3,0,5.9,2.7,5.9,5.9l0,0C253.7,292.6,251,295.2,247.8,295.3z"/>
		<path class="st1" d="M260.7,286h56.9c1.3,0,2.4,1.1,2.4,2.4v1.3c0,1.3-1.1,2.4-2.4,2.4h-56.9c-1.3,0-2.4-1.1-2.4-2.4v-1.3
			C258.3,287.1,259.4,286,260.7,286z"/>
		<path class="st2" d="M263,311.2L263,311.2c-2.6,0-4.7-2.1-4.7-4.7l0,0l0,0c0-2.6,2.1-4.7,4.7-4.7l0,0l0,0c2.6,0,4.7,2.1,4.7,4.7
			l0,0l0,0C267.7,309.1,265.6,311.2,263,311.2L263,311.2z"/>
		<path class="st1" d="M370.5,308.7h-96.7c-1.3,0-2.4-1.1-2.4-2.4v0l0,0c0-1.3,1.1-2.4,2.4-2.4h0h96.7c1.3,0,2.4,1.1,2.4,2.4v0l0,0
			C372.9,307.6,371.8,308.7,370.5,308.7L370.5,308.7z"/>
		<path class="st2" d="M263,325L263,325c-2.6,0-4.7-2.1-4.7-4.7l0,0l0,0c0-2.6,2.1-4.7,4.7-4.7c0,0,0,0,0,0l0,0
			c2.6,0,4.7,2.1,4.7,4.7l0,0l0,0C267.7,322.9,265.6,325,263,325C263,325,263,325,263,325z"/>
		<path class="st1" d="M330.9,322.5h-57.2c-1.3,0-2.4-1.1-2.4-2.4v0l0,0c0-1.3,1.1-2.4,2.4-2.4h0h57.2c1.3,0,2.4,1.1,2.4,2.4v0l0,0
			C333.3,321.4,332.2,322.5,330.9,322.5z"/>
	</g>
	<g>
		<path class="st2" d="M231.3,395.5L231.3,395.5c-3.3,0-6-2.7-6-6l0,0c0-3.3,2.7-5.9,6-5.9l0,0c3.3,0,5.9,2.7,5.9,5.9l0,0
			C237.2,392.8,234.6,395.5,231.3,395.5z"/>
		<path class="st1" d="M244.2,386.3h49.6c1.3,0,2.4,1.1,2.4,2.4v1.3c0,1.3-1.1,2.4-2.4,2.4h-49.6c-1.3,0-2.4-1.1-2.4-2.4v-1.3
			C241.8,387.3,242.9,386.3,244.2,386.3z"/>
		<path class="st2" d="M231.3,462.2L231.3,462.2c-3.3,0-6-2.6-6-5.9l0,0c0-3.3,2.7-6,6-6l0,0c3.3,0,5.9,2.7,5.9,6l0,0
			C237.2,459.5,234.5,462.2,231.3,462.2z"/>
		<path class="st1" d="M244.2,453h49.6c1.3,0,2.4,1.1,2.4,2.4v1.3c0,1.3-1.1,2.4-2.4,2.4h-49.6c-1.3,0-2.4-1.1-2.4-2.4v-1.3
			C241.8,454.1,242.9,453,244.2,453z"/>
		<path class="st2" d="M231.3,549.1L231.3,549.1c-3.3,0-6-2.7-6-6l0,0c0-3.3,2.7-5.9,6-5.9l0,0c3.3,0,5.9,2.7,5.9,5.9l0,0
			C237.2,546.4,234.6,549.1,231.3,549.1z"/>
		<path class="st1" d="M244.2,539.9h49.6c1.3,0,2.4,1.1,2.4,2.4v1.3c0,1.3-1.1,2.4-2.4,2.4h-49.6c-1.3,0-2.4-1.1-2.4-2.4v-1.3
			C241.8,540.9,242.9,539.9,244.2,539.9z"/>
		<path class="st2" d="M231.3,571.5L231.3,571.5c-3.3,0-6-2.6-6-5.9l0,0c0-3.3,2.7-6,6-6l0,0c3.3,0,6,2.7,5.9,6l0,0
			C237.2,568.9,234.5,571.5,231.3,571.5z"/>
		<path class="st1" d="M244.2,562.3h49.6c1.3,0,2.4,1.1,2.4,2.4v1.3c0,1.3-1.1,2.4-2.4,2.4h-49.6c-1.3,0-2.4-1.1-2.4-2.4v-1.3
			C241.8,563.4,242.9,562.3,244.2,562.3z"/>
		<path class="st2" d="M247.8,413L247.8,413c-3.3,0-5.9-2.7-5.9-5.9l0,0l0,0c0-3.3,2.6-5.9,5.9-6c0,0,0,0,0,0l0,0
			c3.3,0,5.9,2.7,5.9,6l0,0C253.7,410.3,251,413,247.8,413z"/>
		<path class="st1" d="M260.7,403.7h49.6c1.3,0,2.4,1.1,2.4,2.4v1.3c0,1.3-1.1,2.4-2.4,2.4h-49.6c-1.3,0-2.4-1.1-2.4-2.4v-1.3
			C258.3,404.8,259.4,403.7,260.7,403.7z"/>
		<path class="st2" d="M247.8,430.4L247.8,430.4c-3.3,0-5.9-2.7-5.9-5.9l0,0l0,0c0-3.3,2.6-6,5.9-6c0,0,0,0,0.1,0l0,0
			c3.3,0,6,2.7,5.9,6l0,0C253.7,427.8,251,430.4,247.8,430.4z"/>
		<path class="st1" d="M260.7,421.2h70.2c1.3,0,2.4,1.1,2.4,2.4v1.3c0,1.3-1.1,2.4-2.4,2.4h-70.2c-1.3,0-2.4-1.1-2.4-2.4v-1.3
			C258.3,422.3,259.4,421.2,260.7,421.2z"/>
		<path class="st2" d="M247.8,479L247.8,479c-3.3,0-5.9-2.7-5.9-6l0,0c0-3.3,2.7-5.9,5.9-5.9l0,0l0,0c3.3,0,5.9,2.7,5.9,5.9l0,0
			C253.7,476.3,251,479,247.8,479z"/>
		<path class="st1" d="M260.7,469.7h86.5c1.3,0,2.4,1.1,2.4,2.4v1.3c0,1.3-1.1,2.4-2.4,2.4h-86.5c-1.3,0-2.4-1.1-2.4-2.4v-1.3
			C258.3,470.8,259.4,469.7,260.7,469.7z"/>
		<path class="st2" d="M247.8,496.4L247.8,496.4c-3.3,0-5.9-2.7-5.9-5.9c0,0,0,0,0,0l0,0c0-3.3,2.7-5.9,5.9-5.9l0,0l0,0
			c3.3,0,5.9,2.7,5.9,5.9l0,0C253.7,493.8,251,496.4,247.8,496.4z"/>
		<path class="st1" d="M260.7,487.2h56.9c1.3,0,2.4,1.1,2.4,2.4v1.3c0,1.3-1.1,2.4-2.4,2.4h-56.9c-1.3,0-2.4-1.1-2.4-2.4v-1.3
			C258.3,488.3,259.4,487.2,260.7,487.2z"/>
		<path class="st2" d="M263,512.4L263,512.4c-2.6,0-4.7-2.1-4.7-4.7l0,0l0,0c0-2.6,2.1-4.7,4.7-4.7l0,0c2.6,0,4.7,2.1,4.7,4.7l0,0
			l0,0C267.7,510.3,265.6,512.4,263,512.4z"/>
		<path class="st1" d="M370.5,509.9h-96.7c-1.3,0-2.4-1.1-2.4-2.4v0l0,0c0-1.3,1.1-2.4,2.4-2.4h0h96.7c1.3,0,2.4,1.1,2.4,2.4v0l0,0
			C372.9,508.8,371.8,509.9,370.5,509.9L370.5,509.9z"/>
		<path class="st2" d="M263,526.2L263,526.2c-2.6,0-4.7-2.1-4.7-4.7l0,0l0,0c0-2.6,2.1-4.7,4.7-4.7l0,0l0,0c2.6,0,4.7,2.1,4.7,4.7
			l0,0l0,0C267.7,524.1,265.6,526.2,263,526.2L263,526.2z"/>
		<path class="st1" d="M330.9,523.7h-57.2c-1.3,0-2.4-1.1-2.4-2.4l0,0l0,0c0-1.3,1.1-2.4,2.4-2.4h0h57.2c1.3,0,2.4,1.1,2.4,2.4l0,0
			l0,0C333.3,522.6,332.2,523.7,330.9,523.7z"/>
	</g>
	<path class="st3" d="M424.5,188.1L424.5,188.1c-2.7,0-4.8-2.2-4.8-4.8l0,0c0-2.7,2.2-4.8,4.8-4.8l0,0c2.7,0,4.8,2.2,4.9,4.8
		c0,0,0,0,0,0l0,0C429.4,186,427.2,188.1,424.5,188.1z"/>
	<path class="st4" d="M497.2,188.1h-48.5c-2.7,0-4.8-2.2-4.8-4.8l0,0c0-2.7,2.2-4.8,4.8-4.8h48.5c2.7,0,4.8,2.2,4.8,4.8l0,0
		C502,186,499.9,188.1,497.2,188.1z"/>
	<path class="st5" d="M617.8,188.1h-96.5c-2.7,0-4.8-2.2-4.8-4.8v0l0,0c0-2.7,2.2-4.8,4.8-4.8c0,0,0,0,0,0h96.5
		c2.7,0,4.8,2.2,4.8,4.8c0,0,0,0,0,0l0,0C622.6,186,620.4,188.1,617.8,188.1L617.8,188.1z"/>
	<path class="st3" d="M424.5,216.6L424.5,216.6c-2.7,0-4.8-2.2-4.8-4.8l0,0c0-2.7,2.2-4.8,4.8-4.8l0,0c2.7,0,4.8,2.2,4.9,4.8l0,0
		C429.4,214.5,427.2,216.6,424.5,216.6C424.5,216.6,424.5,216.6,424.5,216.6z"/>
	<path class="st6" d="M584.1,216.6H448.7c-2.7,0-4.8-2.2-4.8-4.8l0,0c0-2.7,2.2-4.8,4.8-4.8h135.4c2.7,0,4.8,2.2,4.8,4.8v0l0,0
		C588.9,214.5,586.8,216.6,584.1,216.6L584.1,216.6z"/>
	<path class="st4" d="M854.5,216.6H608.2c-2.7,0-4.8-2.2-4.8-4.8c0,0,0,0,0,0l0,0c0-2.7,2.2-4.8,4.8-4.8h246.3
		c2.7,0,4.8,2.2,4.8,4.8v0l0,0C859.3,214.4,857.2,216.6,854.5,216.6C854.5,216.6,854.5,216.6,854.5,216.6z"/>
	<path class="st3" d="M424.5,245.1L424.5,245.1c-2.7,0-4.8-2.2-4.8-4.9l0,0c0-2.7,2.2-4.8,4.8-4.8l0,0c2.7,0,4.8,2.2,4.9,4.8l0,0
		C429.4,243,427.2,245.1,424.5,245.1L424.5,245.1z"/>
	<path class="st6" d="M448.7,235.4h48.5c2.7,0,4.8,2.2,4.8,4.8l0,0c0,2.7-2.2,4.8-4.8,4.8h-48.5c-2.7,0-4.8-2.2-4.8-4.8l0,0
		C443.8,237.6,446,235.4,448.7,235.4z"/>
	<path class="st3" d="M424.5,273.6L424.5,273.6c-2.7,0-4.8-2.2-4.8-4.8l0,0c0-2.7,2.2-4.8,4.8-4.9l0,0c2.7,0,4.9,2.2,4.9,4.9l0,0
		l0,0C429.4,271.5,427.2,273.6,424.5,273.6z"/>
	<path class="st5" d="M472.7,273.6h-24c-2.7,0-4.8-2.2-4.8-4.8l0,0c0-2.7,2.2-4.8,4.8-4.9h24c2.7,0,4.8,2.2,4.8,4.8c0,0,0,0,0,0l0,0
		C477.5,271.5,475.3,273.6,472.7,273.6z"/>
	<path class="st1" d="M584.1,273.6h-87.3c-2.7,0-4.8-2.2-4.8-4.8l0,0c0-2.7,2.2-4.8,4.8-4.9h87.3c2.7,0,4.8,2.2,4.8,4.9l0,0
		C588.9,271.5,586.8,273.6,584.1,273.6z"/>
	<path class="st3" d="M424.5,302.1L424.5,302.1c-2.7,0-4.8-2.2-4.8-4.8l0,0c0-2.7,2.2-4.8,4.8-4.8l0,0c2.7,0,4.8,2.2,4.9,4.8
		c0,0,0,0,0,0l0,0C429.4,300,427.2,302.1,424.5,302.1z"/>
	<path class="st1" d="M526.3,302.1h-48.5c-2.7,0-4.8-2.2-4.8-4.8l0,0c0-2.7,2.2-4.8,4.8-4.8h48.5c2.7,0,4.8,2.2,4.8,4.8c0,0,0,0,0,0
		l0,0C531.2,300,529,302.1,526.3,302.1L526.3,302.1z"/>
	<path class="st7" d="M668.8,302.1H550.4c-2.7,0-4.8-2.2-4.8-4.8c0,0,0,0,0,0l0,0c0-2.7,2.2-4.8,4.8-4.8c0,0,0,0,0,0h118.4
		c2.7,0,4.8,2.2,4.8,4.8c0,0,0,0,0,0l0,0C673.7,300,671.5,302.1,668.8,302.1L668.8,302.1z"/>
	<path class="st3" d="M424.5,330.6L424.5,330.6c-2.7,0-4.8-2.2-4.8-4.8l0,0c0-2.7,2.2-4.8,4.8-4.8l0,0c2.7,0,4.8,2.2,4.9,4.8l0,0
		C429.4,328.5,427.2,330.6,424.5,330.6z"/>
	<path class="st4" d="M904.5,330.6H477.8c-2.7,0-4.8-2.2-4.8-4.8l0,0c0-2.7,2.2-4.8,4.8-4.8h426.7c2.7,0,4.8,2.2,4.8,4.8
		c0,0,0,0,0,0l0,0C909.3,328.5,907.2,330.6,904.5,330.6L904.5,330.6z"/>
	<path class="st8" d="M981.1,330.6h-49.2c-2.7,0-4.8-2.2-4.8-4.8c0,0,0,0,0,0l0,0c0-2.7,2.2-4.8,4.8-4.8l0,0h49.2
		c2.7,0,4.8,2.2,4.8,4.8c0,0,0,0,0,0l0,0C985.9,328.5,983.8,330.6,981.1,330.6L981.1,330.6z"/>
	<path class="st8" d="M981.1,329.8h-49.2c-2.7,0-4.8-2.2-4.8-4.8l0,0c0-2.7,2.2-4.8,4.8-4.8l0,0h49.2c2.7,0,4.8,2.2,4.8,4.8
		c0,0,0,0,0,0l0,0C985.9,327.7,983.7,329.8,981.1,329.8z"/>
	<path class="st3" d="M424.5,359.1L424.5,359.1c-2.7,0-4.8-2.2-4.8-4.8l0,0c0-2.7,2.2-4.8,4.8-4.8l0,0c2.7,0,4.8,2.2,4.9,4.8l0,0
		C429.4,357,427.2,359.1,424.5,359.1C424.5,359.1,424.5,359.1,424.5,359.1z"/>
	<path class="st3" d="M424.5,387.6L424.5,387.6c-2.7,0-4.8-2.2-4.8-4.9l0,0c0-2.7,2.2-4.8,4.8-4.8l0,0c2.7,0,4.8,2.2,4.9,4.8l0,0
		C429.4,385.5,427.2,387.6,424.5,387.6L424.5,387.6z"/>
	<path class="st7" d="M864.6,387.6H511.2c-2.7,0-4.8-2.2-4.8-4.8c0,0,0,0,0,0l0,0c0-2.7,2.2-4.8,4.8-4.8h353.4
		c2.7,0,4.8,2.2,4.8,4.8c0,0,0,0,0,0l0,0C869.4,385.5,867.3,387.6,864.6,387.6z"/>
	<path class="st4" d="M981.1,387.6h-91.3c-2.7,0-4.8-2.2-4.8-4.8c0,0,0,0,0,0l0,0c0-2.7,2.2-4.8,4.8-4.8l0,0h91.3
		c2.7,0,4.8,2.2,4.8,4.8c0,0,0,0,0,0l0,0C985.9,385.5,983.8,387.6,981.1,387.6z"/>
	<path class="st3" d="M424.5,416.1L424.5,416.1c-2.7,0-4.8-2.2-4.8-4.8l0,0c0-2.7,2.2-4.8,4.8-4.9l0,0c2.7,0,4.9,2.2,4.9,4.9l0,0
		l0,0C429.4,414,427.2,416.1,424.5,416.1z"/>
	<path class="st5" d="M501.5,416.1h-23.8c-2.7,0-4.8-2.2-4.8-4.8l0,0c0-2.7,2.2-4.8,4.8-4.9h23.8c2.7,0,4.9,2.2,4.9,4.9l0,0l0,0
		C506.4,414,504.2,416.1,501.5,416.1z"/>
	<path class="st3" d="M424.5,444.3L424.5,444.3c-2.7,0-4.8-2.2-4.8-4.9l0,0c0-2.7,2.2-4.8,4.8-4.8l0,0c2.7,0,4.8,2.2,4.9,4.8l0,0
		C429.4,442.1,427.2,444.3,424.5,444.3L424.5,444.3z"/>
	<path class="st1" d="M526.3,444.3h-48.5c-2.7,0-4.8-2.2-4.8-4.9l0,0c0-2.7,2.2-4.8,4.8-4.8h48.5c2.7,0,4.8,2.2,4.8,4.8c0,0,0,0,0,0
		l0,0C531.2,442.1,529,444.3,526.3,444.3z"/>
	<path class="st7" d="M668.8,444.3H550.4c-2.7,0-4.8-2.2-4.8-4.8c0,0,0,0,0,0l0,0c0-2.7,2.2-4.8,4.8-4.8l0,0h118.4
		c2.7,0,4.8,2.2,4.8,4.8c0,0,0,0,0,0l0,0C673.7,442.1,671.5,444.3,668.8,444.3C668.8,444.3,668.8,444.3,668.8,444.3z"/>
	<path class="st3" d="M424.5,472.8L424.5,472.8c-2.7,0-4.8-2.2-4.8-4.8l0,0c0-2.7,2.2-4.8,4.8-4.9l0,0c2.7,0,4.9,2.2,4.9,4.9l0,0
		l0,0C429.4,470.6,427.2,472.8,424.5,472.8z"/>
	<path class="st4" d="M904.5,472.8H477.8c-2.7,0-4.8-2.2-4.8-4.8l0,0c0-2.7,2.2-4.8,4.8-4.9h426.7c2.7,0,4.8,2.2,4.8,4.8
		c0,0,0,0,0,0l0,0C909.3,470.6,907.2,472.8,904.5,472.8L904.5,472.8z"/>
	<path class="st8" d="M981.1,472.8h-49.2c-2.7,0-4.8-2.2-4.8-4.8c0,0,0,0,0,0l0,0c0-2.7,2.2-4.8,4.8-4.9h49.2c2.7,0,4.8,2.2,4.8,4.9
		l0,0C985.9,470.6,983.8,472.8,981.1,472.8L981.1,472.8z"/>
	<path class="st8" d="M981.1,472h-49.2c-2.7,0-4.8-2.2-4.8-4.8c0,0,0,0,0,0l0,0c0-2.7,2.2-4.8,4.8-4.8l0,0h49.2
		c2.7,0,4.8,2.2,4.8,4.8c0,0,0,0,0,0l0,0C985.9,469.8,983.8,472,981.1,472L981.1,472z"/>
	<path class="st3" d="M424.5,501.3L424.5,501.3c-2.7,0-4.8-2.2-4.8-4.8l0,0c0-2.7,2.2-4.8,4.8-4.8l0,0c2.7,0,4.8,2.2,4.9,4.8
		c0,0,0,0,0,0l0,0C429.4,499.1,427.2,501.3,424.5,501.3z"/>
	<path class="st5" d="M1103,501.3H511.2c-2.7,0-4.8-2.2-4.8-4.8l0,0c0-2.7,2.2-4.8,4.8-4.8c0,0,0,0,0,0H1103c2.7,0,4.8,2.2,4.8,4.8
		c0,0,0,0,0,0l0,0C1107.8,499.1,1105.7,501.3,1103,501.3z"/>
	<path class="st3" d="M424.5,529.8L424.5,529.8c-2.7,0-4.8-2.2-4.8-4.8l0,0l0,0c0-2.7,2.2-4.8,4.8-4.8c0,0,0,0,0,0l0,0
		c2.7,0,4.8,2.2,4.9,4.8l0,0C429.4,527.6,427.2,529.8,424.5,529.8z"/>
	<path class="st7" d="M609.9,529.8h-98.7c-2.7,0-4.8-2.2-4.8-4.8l0,0l0,0c0-2.7,2.2-4.8,4.8-4.8c0,0,0,0,0,0h98.7
		c2.7,0,4.8,2.2,4.8,4.8v0l0,0C614.7,527.6,612.6,529.8,609.9,529.8L609.9,529.8z"/>
	<path class="st1" d="M864.6,529.8h-226c-2.7,0-4.8-2.2-4.8-4.8l0,0c0-2.7,2.2-4.8,4.8-4.8h226c2.7,0,4.8,2.2,4.8,4.8v0l0,0
		C869.4,527.6,867.3,529.8,864.6,529.8L864.6,529.8z"/>
	<path class="st4" d="M981.1,529.8h-91.3c-2.7,0-4.8-2.2-4.8-4.8v0l0,0c0-2.7,2.2-4.8,4.8-4.8h0h91.3c2.7,0,4.8,2.2,4.8,4.8v0l0,0
		C985.9,527.6,983.8,529.8,981.1,529.8L981.1,529.8z"/>
	<path class="st3" d="M424.5,558.3L424.5,558.3c-2.7,0-4.8-2.2-4.8-4.8l0,0l0,0c0-2.7,2.2-4.8,4.8-4.8c0,0,0,0,0,0l0,0
		c2.7,0,4.8,2.2,4.9,4.8l0,0C429.4,556.1,427.2,558.3,424.5,558.3C424.5,558.3,424.5,558.3,424.5,558.3z"/>
	<path class="st8" d="M477.8,548.6h23.8c2.7,0,4.8,2.2,4.8,4.8v0c0,2.7-2.2,4.8-4.8,4.8h-23.8c-2.7,0-4.8-2.2-4.8-4.8v0
		C472.9,550.8,475.1,548.6,477.8,548.6z"/>
	<path class="st3" d="M424.5,586.4L424.5,586.4c-2.7,0-4.8-2.2-4.8-4.8l0,0l0,0c0-2.7,2.2-4.8,4.8-4.8c0,0,0,0,0,0l0,0
		c2.7,0,4.8,2.2,4.9,4.8l0,0C429.4,584.2,427.2,586.4,424.5,586.4z"/>
	<path class="st1" d="M526.3,586.4h-48.5c-2.7,0-4.8-2.2-4.8-4.8l0,0l0,0c0-2.7,2.2-4.8,4.8-4.8c0,0,0,0,0,0h48.5
		c2.7,0,4.8,2.2,4.8,4.8v0l0,0C531.2,584.2,529,586.4,526.3,586.4L526.3,586.4z"/>
	<path class="st7" d="M668.8,586.4H550.4c-2.7,0-4.8-2.2-4.8-4.8v0l0,0c0-2.7,2.2-4.8,4.8-4.8h0h118.4c2.7,0,4.8,2.2,4.8,4.8v0l0,0
		C673.7,584.2,671.5,586.4,668.8,586.4L668.8,586.4z"/>
	<path class="st3" d="M424.5,614.9L424.5,614.9c-2.7,0-4.8-2.2-4.8-4.8l0,0l0,0c0-2.7,2.2-4.8,4.8-4.8c0,0,0,0,0,0l0,0
		c2.7,0,4.8,2.2,4.9,4.8l0,0C429.4,612.7,427.2,614.9,424.5,614.9C424.5,614.9,424.5,614.9,424.5,614.9z"/>
	<path class="st4" d="M904.5,614.9H477.8c-2.7,0-4.8-2.2-4.8-4.8l0,0l0,0c0-2.7,2.2-4.8,4.8-4.8c0,0,0,0,0,0h426.7
		c2.7,0,4.8,2.2,4.8,4.8v0l0,0C909.3,612.7,907.2,614.9,904.5,614.9C904.5,614.9,904.5,614.9,904.5,614.9z"/>
	<path class="st8" d="M981.1,614.9h-49.2c-2.7,0-4.8-2.2-4.8-4.8v0l0,0c0-2.7,2.2-4.8,4.8-4.8h0h49.2c2.7,0,4.8,2.2,4.8,4.8v0l0,0
		C985.9,612.7,983.8,614.9,981.1,614.9L981.1,614.9z"/>
	<path class="st4" d="M981.1,614.1h-49.2c-2.7,0-4.8-2.2-4.8-4.8v0l0,0c0-2.7,2.2-4.8,4.8-4.8h49.2c2.7,0,4.8,2.2,4.8,4.8l0,0
		C985.9,611.9,983.8,614.1,981.1,614.1L981.1,614.1z"/>
	<path class="st3" d="M424.5,643.4L424.5,643.4c-2.7,0-4.8-2.2-4.8-4.8l0,0c0-2.7,2.2-4.8,4.8-4.8c0,0,0,0,0,0l0,0
		c2.7,0,4.8,2.2,4.9,4.8l0,0C429.4,641.2,427.2,643.4,424.5,643.4z"/>
	<path class="st7" d="M1103,643.4H511.2c-2.7,0-4.8-2.2-4.8-4.8c0,0,0,0,0,0l0,0c0-2.7,2.2-4.8,4.8-4.8c0,0,0,0,0,0H1103
		c2.7,0,4.8,2.2,4.8,4.8l0,0C1107.8,641.2,1105.7,643.4,1103,643.4z"/>
	<path class="st3" d="M424.5,671.9L424.5,671.9c-2.7,0-4.8-2.2-4.8-4.8l0,0l0,0c0-2.7,2.2-4.8,4.8-4.8l0,0c2.7,0,4.9,2.2,4.9,4.8
		l0,0C429.4,669.7,427.2,671.9,424.5,671.9z"/>
	<path class="st1" d="M864.6,671.9H511.2c-2.7,0-4.8-2.2-4.8-4.8l0,0l0,0c0-2.7,2.2-4.8,4.8-4.8c0,0,0,0,0,0h353.4
		c2.7,0,4.8,2.2,4.8,4.8l0,0C869.4,669.7,867.3,671.9,864.6,671.9L864.6,671.9z"/>
	<path class="st5" d="M981.1,671.9h-91.3c-2.7,0-4.8-2.2-4.8-4.8v0l0,0c0-2.7,2.2-4.8,4.8-4.8c0,0,0,0,0,0h91.3
		c2.7,0,4.8,2.2,4.8,4.8l0,0C985.9,669.7,983.8,671.9,981.1,671.9L981.1,671.9z"/>
	<path class="st1" d="M1103,671.9h-91.3c-2.7,0-4.8-2.2-4.8-4.8l0,0c0-2.7,2.2-4.8,4.8-4.8h91.3c2.7,0,4.8,2.2,4.8,4.8l0,0
		C1107.8,669.7,1105.7,671.9,1103,671.9z"/>
	<path class="st3" d="M424.5,700.4L424.5,700.4c-2.7,0-4.8-2.2-4.8-4.8l0,0l0,0c0-2.7,2.2-4.8,4.8-4.8c0,0,0,0,0,0l0,0
		c2.7,0,4.8,2.2,4.9,4.8c0,0,0,0,0,0l0,0C429.4,698.2,427.2,700.4,424.5,700.4z"/>
	<path class="st8" d="M501.5,700.4h-23.8c-2.7,0-4.8-2.2-4.8-4.8l0,0l0,0c0-2.7,2.2-4.8,4.8-4.8c0,0,0,0,0,0h23.8
		c2.7,0,4.8,2.2,4.9,4.8c0,0,0,0,0,0l0,0C506.4,698.2,504.2,700.4,501.5,700.4z"/>
</g>
<g>
	<path class="st6" d="M395.8,654.2c-10.9-12.3-11-31.2-5.3-46.6s16.3-28.4,25.6-41.9s17.9-28.6,18.4-45c1-30.5-24.8-54.5-35.4-83.1
		c-2.6-7.2-4.4-14.7-5.1-22.3c-6.5-64.7,28.8-137,91.3-159c7.9-3.5,18.5,1.8,18.5,9.7c0.9,17.6-15.9,31.7-15.9,50.2
		c0,1.8,0.9,5.3,1.8,6.2c31.7,17.6,37.9,49.3,5.3,70.5c-2.6,2.6-3.5,6.2-5.4,9.4c-2.1,5.6-2.6,11.7-1.5,17.6c1.1,6,3,11.8,5.8,17.3
		c5.3,10.8,12.5,20.8,16.5,32.1c10.7,31.1-5.4,65-24.5,91.8s-42.4,52.6-48.7,85c-2,10.3-2.2,21.3-6.9,30.8s-16,16.9-25.7,12.8
		l-1.9-8.5"/>
	<path class="st9" d="M422.9,557.8l-0.9-1c44.1-36.5,31-91.3,18.3-144.2c-1.1-4.6-2.2-9.1-3.2-13.7c-7-30.2,2.5-56.4,11.7-73.1
		c5.9-10.7,13.3-20.5,21.9-29.2l0.9,1c-0.5,0.4-46.5,43.9-33.3,101c1.1,4.5,2.1,9.1,3.2,13.7C454.4,465.5,467.6,520.7,422.9,557.8z"
		/>
	<path class="st10" d="M305.3,469.7c-16.2-18.4-27-43.3-22.7-67.5s27.1-45.5,51.5-42.6c-13.6-21.2-27.5-43.6-28.8-68.7
		s15.3-53,40.4-54.7c10.6-0.7,20.9,4.2,28.2,11.9c7.5,8.1,11.9,18.7,11,29.2c-5.3-7,1.8-15.9,8.8-17.6c4.3-0.9,8.8,0,12.3,2.6
		c7,6.2,11.5,15,9.7,23.8c-5.3,21.1-20.3,40.5-9.7,62.5c16.7,33.5,31.7,66.1,39.3,102.4c1.5,5.9,2.9,11.8,4.1,17.8s2.3,12,3.1,18
		c2.3,16.1,3.3,33.1-3,48.1c-7.6,17.8-24.8,30.7-30.2,49.3c-8.5,29.5,15.5,63.4,1.1,90.6c-10.4,19.7-38.3,23.2-56.6,13.1
		c-26-14.4-26.6-48.6-20-74.1c6.3-24.2,20.1-45,16.2-71.3c-1.3-8.6-4.4-16.9-9.1-24.2C339.5,499.8,319.9,486.3,305.3,469.7z"/>
	<polygon class="st4" points="299,649.8 480.7,649.8 431.9,747 342,747 	"/>
	<path class="st9" d="M389.3,644.8c-0.2-0.4-4.5-9.8-5.4-28.2c-0.8-16.9,1.4-44.8,16.3-81.9c20.4-50.7-6.4-101.4-26-138.4
		c-8-15.1-14.9-28.1-16.9-38c-7-33.9,12.8-74.6,13-75l1.2,0.6c-0.2,0.4-19.8,40.7-12.9,74.2c2,9.7,8.9,22.7,16.8,37.7
		C395,433,422,484,401.4,535.2c-14.8,36.8-17,64.5-16.2,81.3c0.9,18.1,5.3,27.7,5.3,27.8L389.3,644.8z"/>
	<path class="st9" d="M401.4,535l-1.4-0.2c2.7-22.8-2.3-57-41.2-90.4c-14.6-12.4-30.8-22.6-48.3-30.5l0.5-1.2
		c17.6,7.9,34,18.2,48.6,30.7C381.5,462.1,406.3,493.1,401.4,535z"/>
	<path class="st9" d="M367.3,383.2c-8.5-28.3-0.7-50.4,7.4-63.9c5.2-8.7,11.9-16.5,19.8-22.8l0.8,1.1c-7.8,6.2-14.3,13.8-19.4,22.4
		c-7.9,13.3-15.6,35-7.2,62.8L367.3,383.2z"/>
	<path class="st9" d="M396.6,547.8l-1.4-0.1c1.5-21.5-1.9-50.9-26.2-69.3c-8.8-6.7-19.1-11.1-30-12.9l0.1-1.4
		c11.1,1.9,21.7,6.4,30.7,13.2C394.6,496.1,398.1,526.1,396.6,547.8z"/>
	<path class="st9" d="M443.1,418.7l-1.4-0.1c1.7-19.4,7.6-45.4,26-59.3c11-8.3,21.2-8.2,21.6-8.2v1.4c-0.1,0-10.2,0-20.9,8.1
		C450.6,374,444.8,399.6,443.1,418.7z"/>
	<path class="st9" d="M302.6,411c-2.4,0-4.3-1.9-4.3-4.3s1.9-4.3,4.3-4.3s4.3,1.9,4.3,4.3c0,0,0,0,0,0
		C306.9,409.1,305,411,302.6,411z M302.6,403.8c-1.6,0-2.9,1.3-2.9,2.9s1.3,2.9,2.9,2.9s2.9-1.3,2.9-2.9c0,0,0,0,0,0
		C305.6,405.1,304.3,403.8,302.6,403.8C302.6,403.8,302.6,403.8,302.6,403.8L302.6,403.8z"/>
	<path class="st9" d="M496.9,352.3c-1.9,0-3.5-1.6-3.5-3.5s1.6-3.5,3.5-3.5c1.9,0,3.5,1.6,3.5,3.5
		C500.4,350.8,498.8,352.3,496.9,352.3z M496.9,346.8c-1.2,0-2.1,0.9-2.1,2.1s0.9,2.1,2.1,2.1s2.1-0.9,2.1-2.1v0
		C499,347.7,498.1,346.8,496.9,346.8z"/>
	<path class="st9" d="M329.1,468.8c-2.2,0-4-1.8-4-4s1.8-4,4-4s4,1.8,4,4S331.3,468.8,329.1,468.8z M329.1,462.2
		c-1.5,0-2.6,1.2-2.6,2.6c0,1.5,1.2,2.6,2.6,2.6c1.5,0,2.6-1.2,2.6-2.6c0,0,0,0,0,0C331.8,463.3,330.6,462.2,329.1,462.2
		L329.1,462.2z"/>
	<path class="st9" d="M372.8,280.3c-1.9,0-3.4-1.5-3.4-3.4s1.5-3.4,3.4-3.4s3.4,1.5,3.4,3.4c0,0,0,0,0,0
		C376.2,278.8,374.7,280.3,372.8,280.3z M372.8,274.9c-1.1,0-2,0.9-2,2s0.9,2,2,2s2-0.9,2-2S373.9,274.9,372.8,274.9z"/>
	<path class="st9" d="M400.6,296.6c-1.9,0-3.4-1.5-3.4-3.4c0-1.9,1.5-3.4,3.4-3.4c1.9,0,3.4,1.5,3.4,3.4c0,0,0,0,0,0
		C403.9,295.1,402.4,296.6,400.6,296.6z M400.6,291.2c-1.1,0-2,0.9-2,2s0.9,2,2,2s2-0.9,2-2S401.7,291.2,400.6,291.2z"/>
	<path class="st9" d="M476.8,293.7c-2.7,0-4.9-2.2-4.9-5s2.2-4.9,5-4.9c2.7,0,4.9,2.2,4.9,4.9C481.7,291.5,479.5,293.7,476.8,293.7z
		 M476.8,285.2c-2,0-3.6,1.6-3.6,3.6c0,2,1.6,3.6,3.6,3.6c2,0,3.6-1.6,3.6-3.6c0,0,0,0,0,0C480.4,286.8,478.8,285.2,476.8,285.2z"/>
</g>
<g>
	<path class="st4" d="M785.8,465.8c0,21.8-17.7,39.5-39.5,39.5c-21.8,0-39.5-17.7-39.5-39.5s17.7-39.5,39.5-39.5l0,0
		C768.1,426.3,785.8,444,785.8,465.8z"/>
	<path class="st11" d="M725.8,492.1c1.3,0,2.3-1,2.3-2.3c0-0.6-0.3-1.2-0.7-1.7c-8.6-8.3-8.7-20.3-8.7-20.5c0.1-1.3-0.9-2.4-2.2-2.5
		c-1.3-0.1-2.4,0.9-2.5,2.2c0,0.1,0,0.2,0,0.3c0,0.6,0.1,14.1,10.1,23.8C724.6,491.9,725.2,492.1,725.8,492.1z"/>
	<polygon class="st9" points="911.8,700.3 944.1,533.9 819.8,400.4 826.3,391.3 957.2,529.8 924.5,698.5 	"/>
	<polygon class="st9" points="834.1,399.6 848.7,414.9 833.3,414.9 828.3,409.6 	"/>
	<polygon class="st9" points="950.7,563.1 940.8,551 941.4,547.8 953.9,546.8 	"/>
	<path class="st11" d="M875.9,721.2c0,0.9-0.7,1.6-1.6,1.6h-21.5c-0.9,0-1.6-0.7-1.6-1.6V705c0-0.9,0.7-1.6,1.6-1.6h21.5
		c0.9,0,1.6,0.7,1.6,1.6V721.2z"/>
	<path class="st9" d="M918.1,705.9c-52.9,0-95.8,12.3-95.8,34.5h191.5C1013.8,718.2,971,705.9,918.1,705.9z"/>
	<path class="st9" d="M918.1,719.7c-9.6,0-7.7-7.3-4.1-13.8c1.3,0,2.7,0,4.1,0c11.1,0,22.2,0.6,33.2,1.8
		C946,711.2,931.8,719.7,918.1,719.7z"/>
	<g>
		<path class="st6" d="M837.1,411.4c-8.1,7.8-20.9,7.5-28.7-0.5c-7.8-8.1-7.5-20.9,0.5-28.7c8.1-7.8,20.9-7.5,28.7,0.5c0,0,0,0,0,0
			C845.4,390.8,845.2,403.6,837.1,411.4C837.1,411.4,837.1,411.4,837.1,411.4z"/>
		<path class="st9" d="M829.8,403.9c-3.9,3.8-10.1,3.6-13.9-0.3c-3.8-3.9-3.6-10.1,0.3-13.9c3.9-3.8,10.1-3.6,13.9,0.3c0,0,0,0,0,0
			C833.9,393.9,833.7,400.1,829.8,403.9C829.8,403.8,829.8,403.8,829.8,403.9z"/>
	</g>
	<g>
		<path class="st6" d="M970.8,531.8c0,11.2-9.1,20.3-20.3,20.3c-11.2,0-20.3-9.1-20.3-20.3s9.1-20.3,20.3-20.3
			S970.8,520.6,970.8,531.8L970.8,531.8z"/>
		<path class="st9" d="M960.3,531.8c0,5.4-4.4,9.8-9.8,9.8s-9.8-4.4-9.8-9.8c0-5.4,4.4-9.8,9.8-9.8c0,0,0,0,0,0
			C955.9,522,960.3,526.4,960.3,531.8C960.3,531.8,960.3,531.8,960.3,531.8z"/>
	</g>
	<g>
		<path class="st6" d="M938.4,699.4c0,11.2-9.1,20.3-20.3,20.3s-20.3-9.1-20.3-20.3s9.1-20.3,20.3-20.3S938.4,688.2,938.4,699.4
			L938.4,699.4z"/>
		<path class="st9" d="M927.9,699.4c0,5.4-4.4,9.8-9.8,9.8c-5.4,0-9.8-4.4-9.8-9.8c0-5.4,4.4-9.8,9.8-9.8l0,0
			C923.5,689.6,927.9,694,927.9,699.4z"/>
	</g>
	
		<rect x="802.7" y="394.3" transform="matrix(0.7199 -0.694 0.694 0.7199 -57.8637 676.298)" class="st9" width="12.7" height="31"/>
	<path class="st6" d="M696.6,438.5c39.5-38,76.1-62.7,111.7-27.1c32.8,32.8,8.3,72.6-31.1,110.7L696.6,438.5z"/>
	<g>
		<path class="st11" d="M823,389.7c-3.7,0-6.8,3-6.8,6.7c0,3.7,3,6.8,6.7,6.8c3.7,0,6.8-3,6.8-6.7c0,0,0,0,0,0
			C829.7,392.8,826.7,389.7,823,389.7z"/>
		<path class="st11" d="M950.5,524.9c-3.7,0-6.8,3-6.8,6.7c0,3.7,3,6.8,6.7,6.8c3.7,0,6.8-3,6.8-6.7c0,0,0,0,0,0
			C957.2,527.9,954.2,524.9,950.5,524.9z"/>
		<path class="st11" d="M918.1,692.7c-3.7,0-6.8,3-6.8,6.7c0,3.7,3,6.8,6.7,6.8c3.7,0,6.8-3,6.8-6.7c0,0,0,0,0,0
			C924.8,695.7,921.8,692.7,918.1,692.7z"/>
	</g>
</g>
<g>
	<path class="st12" d="M864.4,788.1c-0.9-10.5-10.9-18.3-21.2-20.4s-21,0.3-31.2,2.5c-122.4,25.8-249,23.4-370.4-6.9
		c-11.8-3-23.6-6.2-35.8-5.7s-24.7,5.3-31.5,15.3c-10.5,15.6-2.6,38.3,12.7,49.3s35.3,12.5,54,11.2s37.4-5.1,56.1-3.4
		c18,1.6,37.6,10.4,43.2,27.7c3.3,10.4-7.8,71.2,20.7,56.9c9.3-4.6,9.2-20.7,16.2-28.6c7.8-8.9,19.4-14.5,31.3-14.5
		c16.8,0,33,11.3,38.8,27c4.4,12,5.1,28.2,17,32.7s23.5-7.4,30.8-17.9l19.5-27.9c5.9-8.5,12-17.5,13-27.7s-5.2-22-15.5-23.3
		c34.5-10.2,70.1-16.3,106-18c10.2-0.5,20.6-0.7,30-4.8S865.2,798.2,864.4,788.1z"/>
	<g>
		<polygon class="st9" points="485.8,704 774.3,691.4 756.5,756.6 588.5,827.1 481.5,779.4 		"/>
		<polygon class="st13" points="516.5,676.4 519,727.7 739.5,727.7 745.1,620.3 		"/>
		<path class="st13" d="M587.5,477.2c0,0-94.2,19.1-111.5,33.3s-34.5,188.7-28.6,196.7s358.2,16.3,366.4,1.2s-37.1-195.8-49.3-204.8
			S617.3,475.2,587.5,477.2z"/>
		<path class="st14" d="M739.6,661.8L739.6,661.8c-0.6,0-1.1-0.4-1.1-1c0,0,0-0.1,0-0.1c2.9-33.2,0-126.8,0-127.8
			c0-0.6,0.4-1,0.9-1.1c0,0,0,0,0.1,0c0.6,0,1,0.4,1.1,0.9c0,0,0,0,0,0.1c0,0.9,2.9,94.7,0,128C740.5,661.4,740.1,661.8,739.6,661.8
			z"/>
		<path class="st14" d="M506.9,658.4h-0.1c-0.6,0-1-0.5-0.9-1.1c0,0,0-0.1,0-0.1c4.5-39.3-3.6-120.2-3.7-121
			c-0.1-0.6,0.4-1.1,0.9-1.1s1.1,0.4,1.1,0.9c0.1,0.8,8.2,81.8,3.7,121.4C507.9,658,507.5,658.4,506.9,658.4z"/>
		<path class="st15" d="M539.6,700l-4.5-18c-0.3-1.2,0.4-2.5,1.6-2.9l6.1-1.9c0.9-0.3,1.5-1,1.7-1.9l1-5.6c0.2-1.1,1.2-2,2.3-2h5
			c0.8,0,1.6-0.4,2-1.1l3-4.8c0.7-1.1,2.1-1.5,3.3-0.8l5.8,3.5c0.7,0.4,1.7,0.4,2.4,0l3.4-1.9c1.1-0.6,2.5-0.3,3.2,0.8l12.1,18.3
			c0.7,1.1,0.4,2.6-0.7,3.3c0,0,0,0-0.1,0l-2.7,1.6c-1,0.6-2.2,0.4-3-0.5l0,0c-0.9-1-2.4-1.1-3.4-0.2c-0.6,0.6-0.9,1.4-0.8,2.2
			l0.1,0.8c0.2,1-0.4,2.1-1.3,2.5l-23.8,11.7c-0.2,0.1-0.3,0.1-0.5,0.2c-1.5,0.4-8.8,1.9-12-2.7C539.9,700.5,539.7,700.3,539.6,700z
			"/>
		<path class="st15" d="M707.2,700l4.4-18c0.3-1.2-0.4-2.5-1.6-2.9l-6.1-1.9c-0.9-0.3-1.5-1-1.7-1.9l-1-5.6c-0.2-1.2-1.2-2-2.4-2h-5
			c-0.8,0-1.6-0.4-2-1.1l-3-4.8c-0.7-1.1-2.1-1.5-3.2-0.8l-5.8,3.4c-0.7,0.4-1.7,0.4-2.4,0l-3.5-1.8c-1.1-0.6-2.5-0.3-3.2,0.8
			l-12.1,18.3c-0.7,1.1-0.4,2.6,0.7,3.3c0,0,0,0,0.1,0l2.7,1.6c1,0.6,2.2,0.4,3-0.5l0,0c0.9-1,2.4-1.1,3.4-0.2
			c0.6,0.6,0.9,1.4,0.8,2.2l-0.1,0.8c-0.2,1,0.4,2.1,1.3,2.5l23.8,11.7c0.2,0.1,0.3,0.1,0.5,0.2c1.5,0.4,8.8,1.9,12-2.7
			C706.9,700.6,707.1,700.3,707.2,700z"/>
		<path class="st14" d="M535.1,675.9H535l-56.4-8.3c-0.5-0.1-0.9-0.5-0.9-1.1c0,0,0-0.1,0-0.1c0.1-0.5,0.6-0.9,1.1-0.9
			c0,0,0,0,0.1,0l56.4,8.3c0.6,0,1,0.5,1,1.1C536.2,675.5,535.7,675.9,535.1,675.9L535.1,675.9L535.1,675.9z"/>
		<path class="st14" d="M716.6,678.9c-0.6,0-1.1-0.4-1.1-0.9s0.4-1.1,0.9-1.1l45.8-8.2c0.6-0.1,1.1,0.3,1.2,0.8s-0.3,1.1-0.8,1.2
			l-45.8,8.2C716.8,678.8,716.7,678.9,716.6,678.9z"/>
		<g>
			<g>
				<path class="st15" d="M572.4,436.9c0,0-7.9,68,40.5,68c44.1,0,42.5-58.5,42.5-58.5s4.4-36.2-29.8-40.3S570.3,424.6,572.4,436.9z
					"/>
				<path class="st9" d="M643.7,414.5c0,0-10.8,21.1,0.2,31.8c7,6.8,10,16.7,7.8,26.2l-0.1,0.5c0,0,18.3-14.5,21.7-43.9
					s-9.9-47.9-21.2-45.8c0,0-4.5-22.6-33.2-20.5s-52.3-0.2-62.7,22.5s7.7,42.6,7.7,42.6s1.4,24.1,11.2,45l-3.8-28.1
					C571.2,445,602.8,402.6,643.7,414.5z"/>
			</g>
			<path class="st15" d="M654.9,450l-3.3,23c0,0,16.3-8.6,16-20.4c-0.1-3.9-1.4-6.1-3.2-7.2c-3-1.8-6.8-0.8-8.6,2.2
				C655.3,448.3,655,449.2,654.9,450z"/>
			<path class="st15" d="M572.5,443.4l2.8,29.6c0,0-15.6-9.1-15.4-20.8S572.5,443.4,572.5,443.4z"/>
		</g>
		<g>
			<path class="st11" d="M537.5,602.3h163.1c7.2,0,13,5.8,13,13v107.7c0,7.2-5.8,13-13,13H537.5c-7.2,0-13-5.8-13-13V615.3
				C524.5,608.1,530.4,602.3,537.5,602.3z"/>
			<path class="st16" d="M710.5,742.2H527.7c-1.7,0-3.1-1.4-3.1-3.1l0,0l0,0c0-1.7,1.4-3.1,3.1-3.1l0,0h182.8c1.7,0,3.1,1.4,3.1,3.1
				l0,0l0,0C713.6,740.8,712.2,742.2,710.5,742.2L710.5,742.2z"/>
			<path class="st1" d="M683.3,738.8c0,0.7-0.6,1.3-1.3,1.3s-1.3-0.6-1.3-1.3s0.6-1.3,1.3-1.3S683.3,738.1,683.3,738.8L683.3,738.8z
				"/>
			<rect x="666.6" y="737.5" class="st1" width="10.8" height="2.7"/>
		</g>
		<g>
			<path class="st6" d="M425,660.3l250.5,152.1c-20.2,16.4-31.4,37.8-35.9,62.9L378.7,743.9c-23.6-11.9-33.1-40.6-21.2-64.2
				c1.1-2.2,2.4-4.4,3.9-6.4l0,0C376,653,403.7,647.4,425,660.3z"/>
			<path class="st9" d="M603.1,835.5l-15.9,13.4l31.5,15.8c9.4-8.1,27.8-23.7,30.5-24.8C652.9,838.5,603.1,835.5,603.1,835.5z"/>
			<path class="st9" d="M675.5,812.4l41.7,23.5c3.1,1.7,4.2,5.7,2.4,8.8c0,0,0,0,0,0c-11,19.2-47.7,81.2-67.1,89.6
				c0,0-15.7-5-9.7-25.5s-2.1-39.4-2.1-39.4S642.2,821.7,675.5,812.4z"/>
			<path class="st17" d="M652.6,934.3c19.4-8.4,56.1-70.5,67.1-89.6c1.4-2.4,1.1-5.4-0.7-7.4C711.5,841.7,679.2,864.1,652.6,934.3z"
				/>
		</g>
		<g>
			<path class="st6" d="M807,677.5L542.4,803.3c18.4,18.3,27.4,40.8,29.3,66.2l272.9-104.2c24.7-9.4,37-37.1,27.6-61.8
				c-0.9-2.3-2-4.6-3.2-6.8l0,0C856.6,675.2,829.5,666.8,807,677.5z"/>
			<path class="st9" d="M542.4,803.3l-43.9,19.1c-3.3,1.4-4.7,5.2-3.3,8.5c0,0,0,0,0,0c9,20.2,39.2,85.7,57.6,96
				c0,0,16.1-3.4,12.2-24.4s6.1-39,6.1-39S574.6,816,542.4,803.3z"/>
			<path class="st17" d="M552.8,927c-18.4-10.4-48.6-75.8-57.6-96c-1.1-2.5-0.5-5.4,1.5-7.3C503.6,828.8,533.5,854.4,552.8,927z"/>
		</g>
		<g>
			<path class="st13" d="M447.8,662.3c-1.9,24.3-2.2,42.4-0.4,44.9c1.6,2.3,30.7,4.5,71.8,6.3L447.8,662.3z"/>
			<path class="st13" d="M712.1,716.7c55.8-0.6,98.9-3.1,101.7-8.2c2-3.7,0.8-17.3-2.4-35.9L712.1,716.7z"/>
		</g>
		<path class="st14" d="M552.5,799.5c-0.6,0.1-1.1-0.2-1.2-0.8c-0.1-0.6,0.2-1.1,0.8-1.2l47.5-22.5c0.5-0.2,1.1,0,1.4,0.5
			s0,1.1-0.5,1.4L553,799.4C552.8,799.5,552.7,799.5,552.5,799.5z"/>
	</g>
</g>
<g>
	<circle class="st18" cx="793.7" cy="211.8" r="136.7"/>
	<path class="st19" d="M793.7,352.9c-77.8,0-141.2-63.3-141.2-141.2S715.9,70.6,793.7,70.6s141.2,63.3,141.2,141.2
		S871.6,352.9,793.7,352.9z M793.7,79.6c-72.9,0-132.2,59.3-132.2,132.2c0,72.9,59.3,132.2,132.2,132.2s132.2-59.3,132.2-132.2
		C925.9,138.9,866.6,79.6,793.7,79.6z"/>
</g>
<g>
	
		<linearGradient id="SVGID_1_" gradientUnits="userSpaceOnUse" x1="-710.4183" y1="38.3495" x2="-709.9483" y2="38.8194" gradientTransform="matrix(189.38 0 0 189.81 135258.2031 -7142.1606)">
		<stop  offset="0" style="stop-color:#387EB8"/>
		<stop  offset="1" style="stop-color:#366994"/>
	</linearGradient>
	<path class="st20" d="M793.1,121.5c-46.1,0-43.2,20-43.2,20v20.7h44v6.2h-61.4c0,0-29.5-3.4-29.5,43.1s25.7,44.8,25.7,44.8h15.4
		v-21.6c0,0-0.8-25.7,25.3-25.7H813c0,0,24.5,0.4,24.5-23.7v-39.8C837.5,145.6,841.2,121.5,793.1,121.5z M768.8,135.4
		c4.4,0,7.9,3.5,7.9,7.9s-3.5,7.9-7.9,7.9c-4.4,0-7.9-3.5-7.9-7.9v0C760.9,139,764.4,135.4,768.8,135.4
		C768.8,135.4,768.8,135.4,768.8,135.4z"/>
	
		<linearGradient id="SVGID_2_" gradientUnits="userSpaceOnUse" x1="-710.4796" y1="38.3118" x2="-709.9697" y2="38.7917" gradientTransform="matrix(189.38 0 0 189.81 135324.2031 -7077.8638)">
		<stop  offset="0" style="stop-color:#FFE052"/>
		<stop  offset="1" style="stop-color:#FFC331"/>
	</linearGradient>
	<path class="st21" d="M794.4,302c46.1,0,43.2-20,43.2-20l0-20.7h-44v-6.2H855c0,0,29.5,3.3,29.5-43.2s-25.7-44.8-25.7-44.8h-15.4
		v21.6c0,0,0.8,25.7-25.3,25.7h-43.6c0,0-24.5-0.4-24.5,23.7V278C750,278,746.2,302.1,794.4,302L794.4,302z M818.6,288.1
		c-4.4,0-7.9-3.5-7.9-7.9s3.5-7.9,7.9-7.9c4.4,0,7.9,3.5,7.9,7.9c0,0,0,0,0,0C826.5,284.6,823,288.1,818.6,288.1
		C818.6,288.1,818.6,288.1,818.6,288.1z"/>
</g>
</svg>
