<?xml version="1.0" encoding="utf-8"?>
<!-- Generator: Adobe Illustrator 25.0.1, SVG Export Plug-In . SVG Version: 6.00 Build 0)  -->
<svg version="1.1" id="Layer_1" xmlns="http://www.w3.org/2000/svg" xmlns:xlink="http://www.w3.org/1999/xlink" x="0px" y="0px"
	 viewBox="0 0 584.9 457.7" style="enable-background:new 0 0 584.9 457.7;" xml:space="preserve">
<style type="text/css">
	.st0{opacity:0.25;fill:#96D7EB;enable-background:new    ;}
	.st1{fill:#2D556B;}
	.st2{fill:#224050;}
	.st3{fill:#577789;}
	.st4{opacity:0.75;fill:#91D7E9;enable-background:new    ;}
	.st5{fill:#FFFFFF;}
	.st6{fill:#CCCCCC;}
	.st7{fill:#B3B9C1;}
	.st8{fill:#F2F2F2;}
	.st9{fill:#999999;}
	.st10{fill:#F7F7F7;}
	.st11{fill:#E6E6E6;}
	.st12{fill:#75D1DE;}
	.st13{fill:#D1F0F1;}
	.st14{fill:#19B2C8;}
</style>
<g id="Grupo_10798" transform="translate(-496.331 -438.309)">
	<path id="Trazado_9969" class="st0" d="M1056.9,803.6c0-51.1-114.4-92.4-255.4-92.4S546,752.5,546,803.6
		c0,51,114.4,92.4,255.4,92.4S1056.9,854.6,1056.9,803.6z"/>
	<g id="Grupo_10634" transform="translate(502.914 634.423)">
		<path id="Trazado_9970" class="st1" d="M31.3,11.5c-10.9,0-19.8,8.9-19.8,19.8c0,10.9,8.9,19.8,19.8,19.8
			c10.9,0,19.8-8.9,19.8-19.8c0-5.3-2.1-10.3-5.8-14C41.6,13.6,36.6,11.5,31.3,11.5z M40.4,40.4c-5,5-13.2,5-18.2,0s-5-13.2,0-18.2
			c5-5,13.2-5,18.2,0c0,0,0,0,0,0C45.5,27.3,45.5,35.4,40.4,40.4C40.5,40.4,40.4,40.4,40.4,40.4z"/>
		<path id="Trazado_9971" class="st2" d="M22.2,22.2c-5,5-5,13.2,0,18.2s13.2,5,18.2,0s5-13.2,0-18.2c0,0,0,0,0,0
			C35.4,17.2,27.3,17.2,22.2,22.2C22.3,22.2,22.2,22.2,22.2,22.2z M37.9,37.9c-3.6,3.6-9.4,3.6-13,0s-3.6-9.4,0-13
			c3.6-3.6,9.4-3.6,13,0C41.5,28.4,41.5,34.2,37.9,37.9C37.9,37.8,37.9,37.8,37.9,37.9z"/>
		<path id="Trazado_9972" class="st1" d="M60.4,43.2l2.3-8.9l-6.2-1.6c0.1-1.1,0.1-2.1,0-3.2l6.1-1.8l-2.7-8.8l-5.8,1.7
			c-0.6-1.2-1.2-2.4-2-3.5l4.1-4.1l-6.5-6.5l-4.1,4.1c-1.1-0.8-2.3-1.4-3.5-2l1.7-5.7L35,0.2l-1.8,6.1c-0.6-0.1-1.2,0-1.9,0v5.3
			c10.9,0,19.8,8.9,19.8,19.8s-8.9,19.8-19.8,19.8v5.3c0.5,0,0.9,0,1.4,0l1.6,6.2l8.9-2.3l-1.6-6.1c1.4-0.6,2.7-1.4,4-2.2l4.3,4.3
			l6.5-6.5l-4.3-4.3c0.9-1.3,1.6-2.6,2.2-4L60.4,43.2z"/>
		<path id="Trazado_9973" class="st3" d="M31.3,51.1c-10.9,0-19.8-8.9-19.8-19.8s8.9-19.8,19.8-19.8l0,0l0,0V6.2l0,0
			c-0.4,0-0.9,0-1.3,0L28.4,0l-8.9,2.3l1.6,6.1c-1.4,0.6-2.7,1.4-4,2.2l-4.3-4.3l-6.5,6.5l4.3,4.3c-0.9,1.3-1.6,2.6-2.2,4l-6.1-1.5
			L0,28.4L6.2,30c-0.1,1.1,0,2.1,0,3.2L0.2,35l2.6,8.8l5.8-1.7c0.6,1.2,1.2,2.4,2,3.5l-4.1,4.1l6.5,6.5l4.1-4.1
			c1.1,0.8,2.3,1.4,3.5,2l-1.7,5.8l8.8,2.7l1.8-6.1c0.6,0.1,1.2,0,1.8,0l0,0L31.3,51.1L31.3,51.1z"/>
	</g>
	<path id="Trazado_9974" class="st4" d="M686.6,625.2l4.9-19l-13.3-3.4c0.1-2.3,0.1-4.6-0.1-6.8l13-3.9l-5.7-18.8l-12.3,3.7
		c-1.2-2.6-2.7-5.1-4.3-7.5l8.8-8.8l-13.9-13.9l-8.8,8.8c-2.4-1.6-4.9-3.1-7.5-4.3l3.7-12.3l-18.8-5.7l-3.9,13
		c-2.3-0.2-4.6-0.2-6.9-0.1l-3.4-13.3l-19,4.9l3.3,13c-3,1.3-5.8,2.9-8.5,4.8l-9.2-9.2l-13.9,13.9l9.2,9.2c-1.8,2.7-3.4,5.5-4.8,8.5
		l-13-3.4l-4.9,19l13.3,3.4c-0.1,2.3-0.1,4.6,0.1,6.9l-13,3.9l5.7,18.8l12.3-3.7c1.2,2.6,2.7,5.1,4.3,7.5l-8.8,8.8l13.9,13.9
		l8.8-8.8c2.4,1.6,4.9,3.1,7.5,4.3l-3.7,12.3l18.8,5.7l4-13c2.3,0.2,4.6,0.2,6.8,0l3.4,13.3l19-4.9l-3.3-13c3-1.3,5.8-2.9,8.5-4.8
		l9.2,9.2l13.9-13.9l-9.2-9.2c1.8-2.7,3.4-5.5,4.8-8.5L686.6,625.2z M610.4,613.8c-7.7-7.7-7.7-20.2,0-27.9c7.7-7.7,20.2-7.7,27.9,0
		s7.7,20.2,0,27.9c0,0,0,0,0,0C630.7,621.5,618.2,621.5,610.4,613.8L610.4,613.8z"/>
	<path id="Trazado_9975" class="st1" d="M973.9,736.4H623.4v-224c0-5.1,4.6-9.3,10.2-9.3h330.1c5.7,0,10.2,4.1,10.2,9.3L973.9,736.4
		z"/>
	<g id="Grupo_10635" transform="translate(638.287 521.163)">
		<rect id="Rectángulo_3032" x="0" y="0" class="st5" width="321.7" height="184.1"/>
		<path id="Trazado_9976" class="st5" d="M321.7,0H0v184.2h321.7V0z"/>
	</g>
	<g id="Grupo_10785" transform="translate(594.183 718.79)">
		<g id="Grupo_10636" transform="translate(0.036 132.011)">
			<path id="Trazado_9977" class="st6" d="M11,3.5C12.2,3.8,13.3,4,14.5,4h387.1c1.1,0,2.2-0.2,3.2-0.5l9-3.5H0L11,3.5z"/>
			<path id="Trazado_9978" class="st7" d="M408.2,0.9l-4.6,1.8c-0.7,0.2-1.5,0.3-2.2,0.4H14.7c-0.9,0-1.8-0.2-2.6-0.4L6.5,0.9
				L408.2,0.9 M413.7,0L413.7,0z M413.7,0H0l11,3.5C12.2,3.8,13.3,4,14.5,4h387.1c1.1,0,2.2-0.2,3.2-0.5L413.7,0z"/>
		</g>
		<g id="Grupo_10637" transform="translate(0 125.909)">
			<path id="Trazado_9979" class="st5" d="M412.4,0.7c-0.1-0.4-1-0.7-2.1-0.7H3.3c-1.1,0-2,0.3-2.1,0.7L0,6.1h413.8L412.4,0.7z"/>
			<path id="Trazado_9980" class="st7" d="M2.9,0.9L2.9,0.9l407.6,0l0.2,0l1.1,4.2H2L2.9,0.9 M410.3,0H3.3c-1.1,0-2,0.3-2.1,0.7
				L0,6.1h413.8l-1.4-5.4C412.3,0.3,411.4,0,410.3,0z"/>
		</g>
		<g id="Grupo_10638" transform="translate(0.74 4.11)">
			<path id="Trazado_9981" class="st8" d="M409.2,125.1H3.5c-2,0-3.5-0.8-3.2-1.9L27.5,0h353l31.8,123.2
				C412.6,124.2,411.2,125.1,409.2,125.1z"/>
			<path id="Trazado_9982" class="st7" d="M379.2,0.9l31.5,123.2H1.9l27-123.2H379.2 M380.5,0h-353L0,124.4c-0.1,0.4,0.4,0.6,1,0.6
				h410.6c0.7,0,1.1-0.3,1-0.6L380.5,0L380.5,0z"/>
		</g>
		<g id="Grupo_10639" transform="translate(57.377 25.237)">
			<path id="Trazado_9983" class="st9" d="M0,12.4h21.4L23.2,0h-21L0,12.4z"/>
			<path id="Trazado_9984" class="st7" d="M21.5,0.9l-1.6,10.6H1.8L3.6,0.9L21.5,0.9 M23.2,0h-21L0,12.4h21.4L23.2,0L23.2,0z"/>
		</g>
		<g id="Grupo_10640" transform="translate(84.206 25.237)">
			<path id="Trazado_9985" class="st9" d="M0,12.4h21.4L22.8,0h-21L0,12.4z"/>
			<path id="Trazado_9986" class="st7" d="M21.1,0.9l-1.2,10.6H1.7L3.2,0.9L21.1,0.9 M22.8,0h-21L0,12.4h21.4L22.8,0L22.8,0z"/>
		</g>
		<g id="Grupo_10641" transform="translate(111.872 25.237)">
			<path id="Trazado_9987" class="st9" d="M0,12.4h21.4L22.3,0h-21L0,12.4z"/>
			<path id="Trazado_9988" class="st7" d="M20.7,0.9l-0.8,10.6H1.7L2.8,0.9L20.7,0.9 M22.3,0h-21L0,12.4h21.4L22.3,0L22.3,0z"/>
		</g>
		<g id="Grupo_10642" transform="translate(138.702 25.237)">
			<path id="Trazado_9989" class="st9" d="M0,12.4h21.4L21.9,0h-21L0,12.4z"/>
			<path id="Trazado_9990" class="st7" d="M20.3,0.9l-0.4,10.6H1.7L2.3,0.9L20.3,0.9 M21.9,0h-21L0,12.4h21.4L21.9,0L21.9,0z"/>
		</g>
		<g id="Grupo_10643" transform="translate(110.103 42.468)">
			<path id="Trazado_9991" class="st9" d="M0,12.4h21.9L22.8,0H1.3L0,12.4z"/>
			<path id="Trazado_9992" class="st7" d="M21.1,0.9l-0.8,10.6H1.7L2.8,0.9H21.1 M22.8,0H1.3L0,12.4h21.8L22.8,0L22.8,0z"/>
		</g>
		<g id="Grupo_10644" transform="translate(137.527 42.468)">
			<path id="Trazado_9993" class="st9" d="M0,12.4h21.9L22.4,0H0.8L0,12.4z"/>
			<path id="Trazado_9994" class="st7" d="M20.7,0.9l-0.4,10.6H1.7L2.4,0.9H20.7 M22.4,0H0.9L0,12.4h21.9L22.4,0L22.4,0z"/>
		</g>
		<g id="Grupo_10645" transform="translate(106.724 76.372)">
			<path id="Trazado_9995" class="st9" d="M0,12.4h22.8L23.7,0H1.3L0,12.4z"/>
			<path id="Trazado_9996" class="st7" d="M22,0.9l-0.8,10.6H1.8L2.9,0.9L22,0.9 M23.7,0H1.3L0,12.4h22.8L23.7,0z"/>
		</g>
		<g id="Grupo_10646" transform="translate(136.353 59.598)">
			<path id="Trazado_9997" class="st9" d="M0,12.4h22.3L22.8,0h-22L0,12.4z"/>
			<path id="Trazado_9998" class="st7" d="M21.2,0.9l-0.4,10.6h-19L2.4,0.9H21.2 M22.8,0h-22L0,12.4h22.3L22.8,0L22.8,0z"/>
		</g>
		<g id="Grupo_10647" transform="translate(54.388 42.468)">
			<path id="Trazado_9999" class="st9" d="M0,12.4h48.6L50,0H2.2L0,12.4z"/>
			<path id="Trazado_10000" class="st7" d="M48.3,0.9l-1.2,10.6H1.8L3.6,0.9L48.3,0.9 M50,0H2.2L0,12.4h48.6L50,0L50,0z"/>
		</g>
		<g id="Grupo_10648" transform="translate(165.762 25.237)">
			<path id="Trazado_10001" class="st9" d="M0,12.4h21.4L21.4,0h-21L0,12.4z"/>
			<path id="Trazado_10002" class="st7" d="M19.9,0.9l-0.1,10.6H1.6L1.9,0.9L19.9,0.9 M21.4,0h-21L0,12.4h21.4L21.4,0z"/>
		</g>
		<g id="Grupo_10649" transform="translate(192.568 25.237)">
			<path id="Trazado_10003" class="st9" d="M0,12.4h21.4L21,0H0L0,12.4z"/>
			<path id="Trazado_10004" class="st7" d="M19.5,0.9l0.3,10.6H1.6l0-10.6L19.5,0.9 M21,0H0l0,12.4h21.4L21,0z"/>
		</g>
		<g id="Grupo_10650" transform="translate(219.787 25.237)">
			<path id="Trazado_10005" class="st9" d="M0.5,12.4h21.4L21,0H0L0.5,12.4z"/>
			<path id="Trazado_10006" class="st7" d="M19.5,0.9l0.7,10.6H2L1.6,0.9L19.5,0.9 M21,0H0l0.5,12.4h21.4L21,0L21,0z"/>
		</g>
		<g id="Grupo_10651" transform="translate(246.178 25.237)">
			<path id="Trazado_10007" class="st9" d="M0.9,12.4h21.4L21,0H0L0.9,12.4z"/>
			<path id="Trazado_10008" class="st7" d="M19.6,0.9l1,10.6H2.4L1.6,0.9L19.6,0.9 M21,0H0l0.9,12.4h21.4L21,0L21,0z"/>
		</g>
		<g id="Grupo_10652" transform="translate(220.435 42.468)">
			<path id="Trazado_10009" class="st9" d="M0.5,12.4h21.9L21.5,0H0L0.5,12.4z"/>
			<path id="Trazado_10010" class="st7" d="M20,0.9l0.7,10.6H2.1L1.6,0.9H20 M21.5,0H0l0.5,12.4h21.9L21.5,0L21.5,0z"/>
		</g>
		<g id="Grupo_10653" transform="translate(247.424 42.468)">
			<path id="Trazado_10011" class="st9" d="M0.9,12.4h21.9L21.5,0H0L0.9,12.4z"/>
			<path id="Trazado_10012" class="st7" d="M20,0.9l1,10.6H2.5L1.7,0.9H20 M21.5,0H0l0.9,12.4h21.9L21.5,0L21.5,0z"/>
		</g>
		<g id="Grupo_10654" transform="translate(165.193 42.468)">
			<path id="Trazado_10013" class="st9" d="M0,12.4h21.9L21.9,0H0.4L0,12.4z"/>
			<path id="Trazado_10014" class="st7" d="M20.3,0.9l-0.1,10.6H1.7L2,0.9H20.3 M21.9,0H0.4L0,12.4h21.9L21.9,0z"/>
		</g>
		<g id="Grupo_10655" transform="translate(192.591 42.468)">
			<path id="Trazado_10015" class="st9" d="M0,12.4h21.9L21.5,0H0L0,12.4z"/>
			<path id="Trazado_10016" class="st7" d="M19.9,0.9l0.3,10.6H1.7L1.6,0.9H19.9 M21.5,0H0l0,12.4h21.8L21.5,0L21.5,0z"/>
		</g>
		<g id="Grupo_10656" transform="translate(272.984 25.237)">
			<path id="Trazado_10017" class="st9" d="M1.3,12.4h21.4L21,0H0L1.3,12.4z"/>
			<path id="Trazado_10018" class="st7" d="M19.6,0.9L21,11.5H2.8L1.7,0.9L19.6,0.9 M21,0H0l1.3,12.4h21.4L21,0L21,0z"/>
		</g>
		<g id="Grupo_10657" transform="translate(300.203 25.237)">
			<path id="Trazado_10019" class="st9" d="M1.8,12.4h21.4L21,0H0L1.8,12.4z"/>
			<path id="Trazado_10020" class="st7" d="M19.6,0.9l1.8,10.6H3.2L1.7,0.9H19.6 M21,0H0l1.8,12.4h21.4L21,0L21,0z"/>
		</g>
		<g id="Grupo_10658" transform="translate(326.595 25.237)">
			<path id="Trazado_10021" class="st9" d="M2.2,12.4h21.4L21,0H0L2.2,12.4z"/>
			<path id="Trazado_10022" class="st7" d="M19.7,0.9l2.2,10.6H3.6L1.7,0.9L19.7,0.9 M21,0H0l2.2,12.4h21.4L21,0L21,0z"/>
		</g>
		<g id="Grupo_10659" transform="translate(302.683 42.468)">
			<path id="Trazado_10023" class="st9" d="M1.8,12.4h21.9L21.5,0H0L1.8,12.4z"/>
			<path id="Trazado_10024" class="st7" d="M20.1,0.9l1.8,10.6H3.3L1.7,0.9H20.1 M21.5,0H0l1.8,12.4h21.8L21.5,0L21.5,0z"/>
		</g>
		<g id="Grupo_10660" transform="translate(329.674 42.468)">
			<path id="Trazado_10025" class="st9" d="M2.2,12.4h21.9L21.5,0H0L2.2,12.4z"/>
			<path id="Trazado_10026" class="st7" d="M20.1,0.9l2.2,10.6H3.7L1.8,0.9H20.1 M21.5,0H0l2.2,12.4h21.9L21.5,0L21.5,0z"/>
		</g>
		<g id="Grupo_10661" transform="translate(274.84 42.468)">
			<path id="Trazado_10027" class="st9" d="M1.3,12.4h21.9L21.5,0H0L1.3,12.4z"/>
			<path id="Trazado_10028" class="st7" d="M20.1,0.9l1.4,10.6H2.9L1.7,0.9H20.1 M21.5,0H0l1.4,12.4h21.8L21.5,0z"/>
		</g>
		<g id="Grupo_10662" transform="translate(221.298 59.598)">
			<path id="Trazado_10029" class="st9" d="M0.5,12.4h22.3L22,0H0L0.5,12.4z"/>
			<path id="Trazado_10030" class="st7" d="M20.4,0.9l0.7,10.6h-19L1.7,0.9H20.4 M22,0H0l0.5,12.4h22.3L22,0L22,0z"/>
		</g>
		<g id="Grupo_10663" transform="translate(248.883 59.598)">
			<path id="Trazado_10031" class="st9" d="M0.9,12.4h22.3L22,0H0L0.9,12.4z"/>
			<path id="Trazado_10032" class="st7" d="M20.5,0.9l1,10.6h-19L1.7,0.9H20.5 M22,0H0l0.9,12.4h22.3L22,0z"/>
		</g>
		<g id="Grupo_10664" transform="translate(164.848 59.598)">
			<path id="Trazado_10033" class="st9" d="M0,12.4h22.3L22.4,0h-22L0,12.4z"/>
			<path id="Trazado_10034" class="st7" d="M20.7,0.9l-0.1,10.6h-19L2,0.9H20.7 M22.4,0h-22L0,12.4h22.3L22.4,0L22.4,0z"/>
		</g>
		<g id="Grupo_10665" transform="translate(192.84 59.598)">
			<path id="Trazado_10035" class="st9" d="M0,12.4h22.3L22,0H0L0,12.4z"/>
			<path id="Trazado_10036" class="st7" d="M20.4,0.9l0.3,10.6h-19L1.6,0.9H20.4 M22,0H0l0,12.4h22.3L22,0z"/>
		</g>
		<g id="Grupo_10666" transform="translate(276.905 59.598)">
			<path id="Trazado_10037" class="st9" d="M1.3,12.4h22.3L22,0H0L1.3,12.4z"/>
			<path id="Trazado_10038" class="st7" d="M20.5,0.9l1.4,10.6h-19L1.7,0.9H20.5 M22,0H0l1.4,12.4h22.3L22,0L22,0z"/>
		</g>
		<g id="Grupo_10667" transform="translate(279.271 76.372)">
			<path id="Trazado_10039" class="st9" d="M1.4,12.4h22.8L22.5,0H0L1.4,12.4z"/>
			<path id="Trazado_10040" class="st7" d="M20.9,0.9l1.4,10.6H3L1.8,0.9H20.9 M22.5,0H0l1.4,12.4h22.8L22.5,0L22.5,0z"/>
		</g>
		<g id="Grupo_10668" transform="translate(307.449 76.372)">
			<path id="Trazado_10041" class="st9" d="M1.8,12.4h22.8L22.5,0H0L1.8,12.4z"/>
			<path id="Trazado_10042" class="st7" d="M20.9,0.9l1.8,10.6H3.3L1.8,0.9H20.9 M22.5,0H0l1.8,12.4h22.8L22.5,0L22.5,0z"/>
		</g>
		<g id="Grupo_10669" transform="translate(336.06 76.372)">
			<path id="Trazado_10043" class="st9" d="M2.2,12.4H25L22.5,0H0L2.2,12.4z"/>
			<path id="Trazado_10044" class="st7" d="M21,0.9l2.2,10.6H3.8L1.8,0.9H21 M22.5,0H0l2.2,12.4H25L22.5,0L22.5,0z"/>
		</g>
		<g id="Grupo_10670" transform="translate(77.23 76.372)">
			<path id="Trazado_10045" class="st9" d="M0,12.4h22.8L24.2,0H1.7L0,12.4z"/>
			<path id="Trazado_10046" class="st7" d="M22.4,0.9l-1.2,10.6H1.8L3.3,0.9H22.4 M24.2,0H1.7L0,12.4h22.8L24.2,0L24.2,0z"/>
		</g>
		<g id="Grupo_10671" transform="translate(48.606 76.372)">
			<path id="Trazado_10047" class="st9" d="M0,12.4h22.8L24.6,0H2.2L0,12.4z"/>
			<path id="Trazado_10048" class="st7" d="M22.8,0.9l-1.6,10.6H1.9L3.7,0.9H22.8 M24.6,0H2.2L0,12.4h22.8L24.6,0L24.6,0z"/>
		</g>
		<g id="Grupo_10672" transform="translate(51.416 59.598)">
			<path id="Trazado_10049" class="st9" d="M0,12.4h79.3L80.2,0h-78L0,12.4z"/>
			<path id="Trazado_10050" class="st7" d="M78.5,0.9l-0.8,10.6H1.8L3.6,0.9H78.5 M80.2,0h-78L0,12.4h79.3L80.2,0L80.2,0z"/>
		</g>
		<g id="Grupo_10673" transform="translate(305.139 59.598)">
			<path id="Trazado_10051" class="st9" d="M1.8,12.4h50.4L49.6,0H0L1.8,12.4z"/>
			<path id="Trazado_10052" class="st7" d="M48.1,0.9l2.2,10.6h-47L1.8,0.9H48.1 M49.6,0H0l1.8,12.4h50.3L49.6,0L49.6,0z"/>
		</g>
		<g id="Grupo_10674" transform="translate(135.321 76.372)">
			<path id="Trazado_10053" class="st9" d="M0,12.4h138.6L137.4,0H0.9L0,12.4z"/>
			<path id="Trazado_10054" class="st7" d="M135.8,0.9l1,10.6H1.8L2.5,0.9H135.8 M137.3,0H0.9L0,12.4h138.6L137.3,0L137.3,0z"/>
		</g>
		<g id="Grupo_10675" transform="translate(57.769 23.001)">
			<path id="Trazado_10055" class="st5" d="M0,12.4h21.3L23.1,0h-21L0,12.4z"/>
			<path id="Trazado_10056" class="st7" d="M21.4,0.9l-1.6,10.6H1.7L3.6,0.9H21.4 M23.1,0h-21L0,12.4h21.3L23.1,0L23.1,0z"/>
		</g>
		<g id="Grupo_10676" transform="translate(84.524 23.001)">
			<path id="Trazado_10057" class="st5" d="M0,12.4h21.3L22.7,0h-21L0,12.4z"/>
			<path id="Trazado_10058" class="st7" d="M21,0.9l-1.2,10.6H1.7L3.2,0.9H21 M22.7,0h-21L0,12.4h21.3L22.7,0L22.7,0z"/>
		</g>
		<g id="Grupo_10677" transform="translate(112.103 23.001)">
			<path id="Trazado_10059" class="st5" d="M0,12.4h21.3L22.3,0h-21L0,12.4z"/>
			<path id="Trazado_10060" class="st7" d="M20.6,0.9l-0.8,10.6H1.7L2.8,0.9H20.6 M22.3,0h-21L0,12.4h21.3L22.3,0L22.3,0z"/>
		</g>
		<g id="Grupo_10678" transform="translate(138.857 23.001)">
			<path id="Trazado_10061" class="st5" d="M0,12.4h21.3L21.8,0h-21L0,12.4z"/>
			<path id="Trazado_10062" class="st7" d="M20.2,0.9l-0.4,10.6H1.6L2.3,0.9H20.2 M21.8,0h-21L0,12.4h21.3L21.8,0L21.8,0z"/>
		</g>
		<g id="Grupo_10679" transform="translate(110.334 40.244)">
			<path id="Trazado_10063" class="st5" d="M0,12.4h21.8L22.7,0H1.3L0,12.4z"/>
			<path id="Trazado_10064" class="st7" d="M21.1,0.9l-0.8,10.6H1.7L2.8,0.9H21.1 M22.7,0H1.3L0,12.4h21.8L22.7,0L22.7,0z"/>
		</g>
		<g id="Grupo_10680" transform="translate(137.681 40.244)">
			<path id="Trazado_10065" class="st5" d="M0,12.4h21.8L22.3,0H0.9L0,12.4z"/>
			<path id="Trazado_10066" class="st7" d="M20.7,0.9l-0.4,10.6H1.7L2.4,0.9H20.7 M22.3,0H0.8L0,12.4h21.8L22.3,0L22.3,0z"/>
		</g>
		<g id="Grupo_10681" transform="translate(106.954 74.135)">
			<path id="Trazado_10067" class="st5" d="M0,12.4h22.7L23.7,0H1.3L0,12.4z"/>
			<path id="Trazado_10068" class="st7" d="M21.9,0.9l-0.8,10.6H1.8L2.9,0.9H21.9 M23.7,0H1.3L0,12.4h22.7L23.7,0L23.7,0z"/>
		</g>
		<g id="Grupo_10682" transform="translate(136.513 57.359)">
			<path id="Trazado_10069" class="st5" d="M0,12.4h22.3L22.8,0H0.8L0,12.4z"/>
			<path id="Trazado_10070" class="st7" d="M21.1,0.9l-0.4,10.6H1.7L2.4,0.9H21.1 M22.8,0H0.9L0,12.4h22.3L22.8,0L22.8,0z"/>
		</g>
		<g id="Grupo_10683" transform="translate(54.779 40.244)">
			<path id="Trazado_10071" class="st5" d="M0,12.4h48.5L49.9,0H2.2L0,12.4z"/>
			<path id="Trazado_10072" class="st7" d="M48.2,0.9L47,11.5H1.8L3.6,0.9H48.2 M49.9,0H2.2L0,12.4h48.5L49.9,0L49.9,0z"/>
		</g>
		<g id="Grupo_10684" transform="translate(165.833 23.001)">
			<path id="Trazado_10073" class="st5" d="M0,12.4h21.3L21.4,0h-21L0,12.4z"/>
			<path id="Trazado_10074" class="st7" d="M19.8,0.9l-0.1,10.6H1.6L1.9,0.9H19.8 M21.4,0h-21L0,12.4h21.3L21.4,0L21.4,0z"/>
		</g>
		<g id="Grupo_10685" transform="translate(192.556 23.001)">
			<path id="Trazado_10075" class="st5" d="M0,12.4h21.3L21,0H0L0,12.4z"/>
			<path id="Trazado_10076" class="st7" d="M19.4,0.9l0.3,10.6H1.6L1.6,0.9H19.4 M21,0H0l0,12.4h21.3L21,0L21,0z"/>
		</g>
		<g id="Grupo_10686" transform="translate(219.701 23.001)">
			<path id="Trazado_10077" class="st5" d="M0.5,12.4h21.3L21,0H0L0.5,12.4z"/>
			<path id="Trazado_10078" class="st7" d="M19.5,0.9l0.7,10.6H2L1.6,0.9H19.5 M21,0H0l0.5,12.4h21.3L21,0z"/>
		</g>
		<g id="Grupo_10687" transform="translate(246.018 23.001)">
			<path id="Trazado_10079" class="st5" d="M0.9,12.4h21.3L21,0H0L0.9,12.4z"/>
			<path id="Trazado_10080" class="st7" d="M19.5,0.9l1,10.6H2.4L1.6,0.9H19.5 M21,0H0l0.9,12.4h21.3L21,0L21,0z"/>
		</g>
		<g id="Grupo_10688" transform="translate(220.346 40.244)">
			<path id="Trazado_10081" class="st5" d="M0.5,12.4h21.8L21.5,0H0L0.5,12.4z"/>
			<path id="Trazado_10082" class="st7" d="M19.9,0.9l0.7,10.6H2.1L1.6,0.9H19.9 M21.5,0H0l0.5,12.4h21.8L21.5,0L21.5,0z"/>
		</g>
		<g id="Grupo_10689" transform="translate(247.264 40.244)">
			<path id="Trazado_10083" class="st5" d="M0.9,12.4h21.8L21.5,0H0L0.9,12.4z"/>
			<path id="Trazado_10084" class="st7" d="M20,0.9l1,10.6H2.5L1.7,0.9H20 M21.5,0H0l0.9,12.4h21.8L21.5,0L21.5,0z"/>
		</g>
		<g id="Grupo_10690" transform="translate(165.264 40.244)">
			<path id="Trazado_10085" class="st5" d="M0,12.4h21.8L21.9,0H0.4L0,12.4z"/>
			<path id="Trazado_10086" class="st7" d="M20.3,0.9l-0.1,10.6H1.7L2,0.9H20.3 M21.9,0H0.4L0,12.4h21.8L21.9,0L21.9,0z"/>
		</g>
		<g id="Grupo_10691" transform="translate(192.591 40.244)">
			<path id="Trazado_10087" class="st5" d="M0,12.4h21.8L21.5,0H0L0,12.4z"/>
			<path id="Trazado_10088" class="st7" d="M19.9,0.9l0.3,10.6H1.6l0-10.6H19.9 M21.5,0H0l0,12.4h21.8L21.5,0z"/>
		</g>
		<g id="Grupo_10692" transform="translate(272.741 23.001)">
			<path id="Trazado_10089" class="st5" d="M1.3,12.4h21.3L21,0H0L1.3,12.4z"/>
			<path id="Trazado_10090" class="st7" d="M19.5,0.9L21,11.5H2.8L1.7,0.9H19.5 M21,0H0l1.3,12.4h21.3L21,0L21,0z"/>
		</g>
		<g id="Grupo_10693" transform="translate(299.882 23.001)">
			<path id="Trazado_10091" class="st5" d="M1.8,12.4h21.3L21,0H0L1.8,12.4z"/>
			<path id="Trazado_10092" class="st7" d="M19.6,0.9l1.8,10.6H3.2L1.7,0.9H19.6 M21,0H0l1.8,12.4h21.3L21,0L21,0z"/>
		</g>
		<g id="Grupo_10694" transform="translate(326.198 23.001)">
			<path id="Trazado_10093" class="st5" d="M2.2,12.4h21.3L21,0H0L2.2,12.4z"/>
			<path id="Trazado_10094" class="st7" d="M19.6,0.9l2.2,10.6H3.6L1.7,0.9H19.6 M21,0H0l2.2,12.4h21.3L21,0L21,0z"/>
		</g>
		<g id="Grupo_10695" transform="translate(302.363 40.244)">
			<path id="Trazado_10095" class="st5" d="M1.8,12.4h21.8L21.5,0H0L1.8,12.4z"/>
			<path id="Trazado_10096" class="st7" d="M20,0.9l1.8,10.6H3.3L1.7,0.9H20 M21.5,0H0l1.8,12.4h21.8L21.5,0L21.5,0z"/>
		</g>
		<g id="Grupo_10696" transform="translate(329.28 40.244)">
			<path id="Trazado_10097" class="st5" d="M2.2,12.4H24L21.5,0H0L2.2,12.4z"/>
			<path id="Trazado_10098" class="st7" d="M20.1,0.9l2.2,10.6H3.7L1.8,0.9H20.1 M21.5,0H0l2.2,12.4H24L21.5,0L21.5,0z"/>
		</g>
		<g id="Grupo_10697" transform="translate(274.605 40.244)">
			<path id="Trazado_10099" class="st5" d="M1.3,12.4h21.8L21.5,0H0L1.3,12.4z"/>
			<path id="Trazado_10100" class="st7" d="M20,0.9l1.4,10.6H2.9L1.7,0.9H20 M21.5,0H0l1.3,12.4h21.8L21.5,0L21.5,0z"/>
		</g>
		<g id="Grupo_10698" transform="translate(221.211 57.359)">
			<path id="Trazado_10101" class="st5" d="M0.5,12.4h22.3L21.9,0H0L0.5,12.4z"/>
			<path id="Trazado_10102" class="st7" d="M20.4,0.9L21,11.5H2.1L1.7,0.9H20.4 M21.9,0H0l0.5,12.4h22.3L21.9,0L21.9,0z"/>
		</g>
		<g id="Grupo_10699" transform="translate(248.722 57.359)">
			<path id="Trazado_10103" class="st5" d="M0.9,12.4h22.3L21.9,0H0L0.9,12.4z"/>
			<path id="Trazado_10104" class="st7" d="M20.4,0.9l1,10.6h-19L1.7,0.9H20.4 M21.9,0H0l0.9,12.4h22.3L21.9,0L21.9,0z"/>
		</g>
		<g id="Grupo_10700" transform="translate(164.921 57.359)">
			<path id="Trazado_10105" class="st5" d="M0,12.4h22.3L22.3,0H0.4L0,12.4z"/>
			<path id="Trazado_10106" class="st7" d="M20.7,0.9l-0.1,10.6H1.7L2,0.9H20.7 M22.3,0H0.4L0,12.4h22.3L22.3,0L22.3,0z"/>
		</g>
		<g id="Grupo_10701" transform="translate(192.84 57.359)">
			<path id="Trazado_10107" class="st5" d="M0,12.4h22.3L21.9,0H0L0,12.4z"/>
			<path id="Trazado_10108" class="st7" d="M20.3,0.9l0.3,10.6H1.7l0-10.6H20.3 M21.9,0H0l0,12.4h22.3L21.9,0L21.9,0z"/>
		</g>
		<g id="Grupo_10702" transform="translate(276.667 57.359)">
			<path id="Trazado_10109" class="st5" d="M1.3,12.4h22.3L21.9,0H0L1.3,12.4z"/>
			<path id="Trazado_10110" class="st7" d="M20.4,0.9l1.4,10.6H2.9L1.7,0.9H20.4 M21.9,0H0l1.3,12.4h22.3L21.9,0L21.9,0z"/>
		</g>
		<g id="Grupo_10703" transform="translate(279.021 74.135)">
			<path id="Trazado_10111" class="st5" d="M1.4,12.4h22.7L22.4,0H0L1.4,12.4z"/>
			<path id="Trazado_10112" class="st7" d="M20.9,0.9l1.4,10.6H3L1.8,0.9H20.9 M22.4,0H0l1.4,12.4h22.7L22.4,0L22.4,0z"/>
		</g>
		<g id="Grupo_10704" transform="translate(307.127 74.135)">
			<path id="Trazado_10113" class="st5" d="M1.8,12.4h22.7L22.4,0H0L1.8,12.4z"/>
			<path id="Trazado_10114" class="st7" d="M20.9,0.9l1.8,10.6H3.3L1.8,0.9H20.9 M22.4,0H0l1.8,12.4h22.7L22.4,0z"/>
		</g>
		<g id="Grupo_10705" transform="translate(335.663 74.135)">
			<path id="Trazado_10115" class="st5" d="M2.2,12.4H25L22.4,0H0L2.2,12.4z"/>
			<path id="Trazado_10116" class="st7" d="M20.9,0.9l2.2,10.6H3.7L1.8,0.9H20.9 M22.4,0H0l2.2,12.4H25L22.4,0L22.4,0z"/>
		</g>
		<g id="Grupo_10706" transform="translate(77.535 74.135)">
			<path id="Trazado_10117" class="st5" d="M0,12.4h22.7L24.1,0H1.7L0,12.4z"/>
			<path id="Trazado_10118" class="st7" d="M22.3,0.9l-1.2,10.6H1.8L3.3,0.9H22.3 M24.1,0H1.7L0,12.4h22.7L24.1,0L24.1,0z"/>
		</g>
		<g id="Grupo_10707" transform="translate(48.997 74.135)">
			<path id="Trazado_10119" class="st5" d="M0,12.4h22.7L24.6,0H2.2L0,12.4z"/>
			<path id="Trazado_10120" class="st7" d="M22.8,0.9l-1.6,10.6H1.9L3.7,0.9H22.8 M24.6,0H2.2L0,12.4h22.7L24.6,0z"/>
		</g>
		<g id="Grupo_10708" transform="translate(51.804 57.359)">
			<path id="Trazado_10121" class="st5" d="M0,12.4h79L80,0H2.2L0,12.4z"/>
			<path id="Trazado_10122" class="st7" d="M78.3,0.9l-0.8,10.6H1.8L3.6,0.9H78.3 M80,0H2.2L0,12.4h79L80,0L80,0z"/>
		</g>
		<g id="Grupo_10709" transform="translate(304.819 57.359)">
			<path id="Trazado_10123" class="st5" d="M1.8,12.4H52L49.4,0H0L1.8,12.4z"/>
			<path id="Trazado_10124" class="st7" d="M48,0.9l2.2,10.6H3.3L1.8,0.9H48 M49.4,0H0l1.8,12.4H52L49.4,0L49.4,0z"/>
		</g>
		<g id="Grupo_10710" transform="translate(135.48 74.135)">
			<path id="Trazado_10125" class="st5" d="M0,12.4h138.2L137,0H0.8L0,12.4z"/>
			<path id="Trazado_10126" class="st7" d="M135.4,0.9l1,10.6H1.7L2.5,0.9H135.4 M137,0H0.9L0,12.4h138.2L137,0z"/>
		</g>
		<g id="Grupo_10711" transform="translate(57.608 23.911)">
			<path id="Trazado_10127" class="st5" d="M0,12.4h21.3L23.2,0h-21L0,12.4z"/>
			<path id="Trazado_10128" class="st7" d="M21.5,0.9l-1.6,10.6H1.7L3.6,0.9H21.5 M23.2,0h-21L0,12.4h21.4L23.2,0L23.2,0z"/>
		</g>
		<g id="Grupo_10712" transform="translate(84.396 23.911)">
			<path id="Trazado_10129" class="st5" d="M0,12.4h21.3L22.7,0h-21L0,12.4z"/>
			<path id="Trazado_10130" class="st7" d="M21.1,0.9l-1.2,10.6H1.7L3.2,0.9H21.1 M22.7,0h-21L0,12.4h21.3L22.7,0L22.7,0z"/>
		</g>
		<g id="Grupo_10713" transform="translate(112.015 23.911)">
			<path id="Trazado_10131" class="st5" d="M0,12.4h21.3L22.3,0h-21L0,12.4z"/>
			<path id="Trazado_10132" class="st7" d="M20.6,0.9l-0.8,10.6H1.7L2.8,0.9H20.6 M22.3,0h-21L0,12.4h21.4L22.3,0L22.3,0z"/>
		</g>
		<g id="Grupo_10714" transform="translate(138.79 23.911)">
			<path id="Trazado_10133" class="st5" d="M0,12.4h21.3L21.8,0h-21L0,12.4z"/>
			<path id="Trazado_10134" class="st7" d="M20.2,0.9l-0.4,10.6H1.7L2.3,0.9H20.2 M21.8,0h-21L0,12.4h21.3L21.8,0L21.8,0z"/>
		</g>
		<g id="Grupo_10715" transform="translate(110.235 41.151)">
			<path id="Trazado_10135" class="st5" d="M0,12.4h21.8L22.8,0H1.3L0,12.4z"/>
			<path id="Trazado_10136" class="st7" d="M21.1,0.9l-0.8,10.6H1.7L2.8,0.9H21.1 M22.8,0H1.3L0,12.4h21.8L22.8,0L22.8,0z"/>
		</g>
		<g id="Grupo_10716" transform="translate(137.616 41.151)">
			<path id="Trazado_10137" class="st5" d="M0,12.4h21.8L22.3,0H0.8L0,12.4z"/>
			<path id="Trazado_10138" class="st7" d="M20.7,0.9l-0.4,10.6H1.7L2.4,0.9H20.7 M22.3,0H0.9L0,12.4h21.8L22.3,0L22.3,0z"/>
		</g>
		<g id="Grupo_10717" transform="translate(106.855 75.044)">
			<path id="Trazado_10139" class="st5" d="M0,12.4h22.8L23.7,0H1.3L0,12.4z"/>
			<path id="Trazado_10140" class="st7" d="M22,0.9l-0.8,10.6H1.8l1-10.6H22 M23.7,0H1.3L0,12.4h22.8L23.7,0L23.7,0z"/>
		</g>
		<g id="Grupo_10718" transform="translate(136.442 58.276)">
			<path id="Trazado_10141" class="st5" d="M0,12.4h22.3L22.8,0H0.9L0,12.4z"/>
			<path id="Trazado_10142" class="st7" d="M21.1,0.9l-0.4,10.6h-19L2.4,0.9H21.1 M22.8,0h-22L0,12.4h22.3L22.8,0L22.8,0z"/>
		</g>
		<g id="Grupo_10719" transform="translate(54.62 41.151)">
			<path id="Trazado_10143" class="st5" d="M0,12.4h48.5L49.9,0H2.2L0,12.4z"/>
			<path id="Trazado_10144" class="st7" d="M48.2,0.9L47,11.5H1.8L3.6,0.9H48.2 M49.9,0H2.2L0,12.4h48.5L49.9,0L49.9,0z"/>
		</g>
		<g id="Grupo_10720" transform="translate(165.807 23.911)">
			<path id="Trazado_10145" class="st5" d="M0,12.4h21.3L21.4,0h-21L0,12.4z"/>
			<path id="Trazado_10146" class="st7" d="M19.8,0.9l-0.1,10.6H1.6L1.9,0.9H19.8 M21.4,0h-21L0,12.4h21.3L21.4,0L21.4,0z"/>
		</g>
		<g id="Grupo_10721" transform="translate(192.556 23.911)">
			<path id="Trazado_10147" class="st5" d="M0,12.4h21.3L21,0H0L0,12.4z"/>
			<path id="Trazado_10148" class="st7" d="M19.5,0.9l0.3,10.6H1.6L1.6,0.9H19.5 M21,0H0l0,12.4h21.3L21,0L21,0z"/>
		</g>
		<g id="Grupo_10722" transform="translate(219.738 23.911)">
			<path id="Trazado_10149" class="st5" d="M0.5,12.4h21.3L21,0H0L0.5,12.4z"/>
			<path id="Trazado_10150" class="st7" d="M19.5,0.9l0.7,10.6H2L1.6,0.9H19.5 M21,0H0l0.5,12.4h21.3L21,0L21,0z"/>
		</g>
		<g id="Grupo_10723" transform="translate(246.085 23.911)">
			<path id="Trazado_10151" class="st5" d="M0.9,12.4h21.3L21,0H0L0.9,12.4z"/>
			<path id="Trazado_10152" class="st7" d="M19.5,0.9l1,10.6H2.4L1.6,0.9H19.5 M21,0H0l0.9,12.4h21.3L21,0L21,0z"/>
		</g>
		<g id="Grupo_10724" transform="translate(220.382 41.151)">
			<path id="Trazado_10153" class="st5" d="M0.5,12.4h21.8L21.5,0H0L0.5,12.4z"/>
			<path id="Trazado_10154" class="st7" d="M19.9,0.9l0.7,10.6H2.1L1.6,0.9H19.9 M21.5,0H0l0.5,12.4h21.8L21.5,0L21.5,0z"/>
		</g>
		<g id="Grupo_10725" transform="translate(247.335 41.151)">
			<path id="Trazado_10155" class="st10" d="M0.9,12.4h21.8L21.5,0H0L0.9,12.4z"/>
			<path id="Trazado_10156" class="st7" d="M20,0.9l1,10.6H2.5L1.7,0.9H20 M21.5,0H0l0.9,12.4h21.8L21.5,0L21.5,0z"/>
		</g>
		<g id="Grupo_10726" transform="translate(165.238 41.151)">
			<path id="Trazado_10157" class="st5" d="M0,12.4h21.8L21.9,0H0.4L0,12.4z"/>
			<path id="Trazado_10158" class="st7" d="M20.3,0.9l-0.1,10.6H1.6L2,0.9H20.3 M21.9,0H0.4L0,12.4h21.8L21.9,0L21.9,0z"/>
		</g>
		<g id="Grupo_10727" transform="translate(192.591 41.151)">
			<path id="Trazado_10159" class="st5" d="M0,12.4h21.8L21.5,0H0L0,12.4z"/>
			<path id="Trazado_10160" class="st7" d="M19.9,0.9l0.3,10.6H1.7L1.6,0.9H19.9 M21.5,0H0l0,12.4h21.8L21.5,0L21.5,0z"/>
		</g>
		<g id="Grupo_10728" transform="translate(272.84 23.911)">
			<path id="Trazado_10161" class="st5" d="M1.3,12.4h21.3L21,0H0L1.3,12.4z"/>
			<path id="Trazado_10162" class="st7" d="M19.6,0.9L21,11.5H2.8L1.7,0.9H19.6 M21,0H0l1.3,12.4h21.3L21,0L21,0z"/>
		</g>
		<g id="Grupo_10729" transform="translate(300.015 23.911)">
			<path id="Trazado_10163" class="st5" d="M1.8,12.4h21.3L21,0H0L1.8,12.4z"/>
			<path id="Trazado_10164" class="st7" d="M19.6,0.9l1.8,10.6H3.2L1.7,0.9H19.6 M21,0H0l1.8,12.4h21.3L21,0L21,0z"/>
		</g>
		<g id="Grupo_10730" transform="translate(326.362 23.911)">
			<path id="Trazado_10165" class="st5" d="M2.2,12.4h21.3L21,0H0L2.2,12.4z"/>
			<path id="Trazado_10166" class="st7" d="M19.6,0.9l2.2,10.6H3.6L1.7,0.9H19.6 M21,0H0l2.2,12.4h21.3L21,0L21,0z"/>
		</g>
		<g id="Grupo_10731" transform="translate(60.596 13.161)">
			<path id="Trazado_10167" class="st9" d="M0,6h20.9l0.9-6H1L0,6z"/>
			<path id="Trazado_10168" class="st7" d="M20.1,0.9l-0.6,4.2H1.7l0.7-4.2H20.1 M21.7,0H1.1l-1,6h20.9L21.7,0L21.7,0z"/>
		</g>
		<g id="Grupo_10732" transform="translate(86.778 13.161)">
			<path id="Trazado_10169" class="st9" d="M0,6h20.9l0.7-6H0.8L0,6z"/>
			<path id="Trazado_10170" class="st7" d="M19.9,0.9l-0.5,4.2H1.7l0.6-4.2H19.9 M21.5,0H0.8L0,6.1h20.9L21.5,0L21.5,0z"/>
		</g>
		<g id="Grupo_10733" transform="translate(113.776 13.161)">
			<path id="Trazado_10171" class="st9" d="M0,6h20.9l0.5-6H0.6L0,6z"/>
			<path id="Trazado_10172" class="st7" d="M19.7,0.9l-0.3,4.2H1.7l0.4-4.2H19.7 M21.3,0H0.6L0,6.1h20.9L21.3,0L21.3,0z"/>
		</g>
		<g id="Grupo_10734" transform="translate(139.962 13.161)">
			<path id="Trazado_10173" class="st9" d="M0,6h20.9l0.2-6H0.4L0,6z"/>
			<path id="Trazado_10174" class="st7" d="M19.5,0.9l-0.2,4.2H1.6l0.3-4.2H19.5 M21.1,0H0.4L0,6.1h20.9L21.1,0L21.1,0z"/>
		</g>
		<g id="Grupo_10735" transform="translate(166.367 13.161)">
			<path id="Trazado_10175" class="st9" d="M0,6h20.9l0-6H0.2L0,6z"/>
			<path id="Trazado_10176" class="st7" d="M19.4,0.9l0,4.2H1.6l0.1-4.2H19.4 M20.9,0H0.2L0,6.1h20.9L20.9,0L20.9,0z"/>
		</g>
		<g id="Grupo_10736" transform="translate(192.538 13.161)">
			<path id="Trazado_10177" class="st9" d="M0,6h20.9l-0.2-6H0L0,6z"/>
			<path id="Trazado_10178" class="st7" d="M19.2,0.9l0.1,4.2H1.6l0-4.2H19.2 M20.7,0H0l0,6h20.9L20.7,0L20.7,0z"/>
		</g>
		<g id="Grupo_10737" transform="translate(219.329 13.161)">
			<path id="Trazado_10179" class="st9" d="M0.2,6h20.9l-0.4-6H0L0.2,6z"/>
			<path id="Trazado_10180" class="st7" d="M19.2,0.9l0.3,4.2H1.7L1.6,0.9H19.2 M20.7,0H0l0.2,6h20.9L20.7,0L20.7,0z"/>
		</g>
		<g id="Grupo_10738" transform="translate(245.304 13.161)">
			<path id="Trazado_10181" class="st9" d="M0.4,6h20.9l-0.6-6H0L0.4,6z"/>
			<path id="Trazado_10182" class="st7" d="M19.3,0.9l0.4,4.2H1.9L1.6,0.9H19.3 M20.7,0H0l0.4,6h20.9L20.7,0L20.7,0z"/>
		</g>
		<g id="Grupo_10739" transform="translate(271.674 13.161)">
			<path id="Trazado_10183" class="st9" d="M0.7,6h20.9l-0.8-6H0L0.7,6z"/>
			<path id="Trazado_10184" class="st7" d="M19.3,0.9l0.6,4.2H2.1L1.7,0.9H19.3 M20.7,0H0l0.7,6h20.9L20.7,0L20.7,0z"/>
		</g>
		<g id="Grupo_10740" transform="translate(298.465 13.161)">
			<path id="Trazado_10185" class="st9" d="M0.9,6h20.9l-1-6H0L0.9,6z"/>
			<path id="Trazado_10186" class="st7" d="M19.3,0.9L20,5.1H2.3L1.7,0.9H19.3 M20.7,0H0l0.9,6h20.9L20.7,0z"/>
		</g>
		<g id="Grupo_10741" transform="translate(324.439 13.161)">
			<path id="Trazado_10187" class="st9" d="M1.1,6H22l-1.2-6H0L1.1,6z"/>
			<path id="Trazado_10188" class="st7" d="M19.3,0.9l0.9,4.2H2.5L1.7,0.9H19.3 M20.7,0H0l1.1,6h20.9L20.7,0L20.7,0z"/>
		</g>
		<g id="Grupo_10742" transform="translate(60.775 12.074)">
			<path id="Trazado_10189" class="st5" d="M0,6h20.8l0.9-6H1.1L0,6z"/>
			<path id="Trazado_10190" class="st7" d="M20.1,0.9l-0.6,4.2H1.7l0.7-4.2H20.1 M21.7,0H1.1L0,6h20.9L21.7,0z"/>
		</g>
		<g id="Grupo_10743" transform="translate(86.929 12.074)">
			<path id="Trazado_10191" class="st5" d="M0,6h20.8l0.7-6H0.8L0,6z"/>
			<path id="Trazado_10192" class="st7" d="M19.9,0.9l-0.5,4.2H1.7l0.6-4.2H19.9 M21.5,0H0.8L0,6h20.8L21.5,0z"/>
		</g>
		<g id="Grupo_10744" transform="translate(113.894 12.074)">
			<path id="Trazado_10193" class="st5" d="M0,6h20.8l0.5-6H0.6L0,6z"/>
			<path id="Trazado_10194" class="st7" d="M19.7,0.9l-0.3,4.2H1.6l0.4-4.2H19.7 M21.3,0H0.6L0,6h20.8L21.3,0L21.3,0z"/>
		</g>
		<g id="Grupo_10745" transform="translate(140.035 12.074)">
			<path id="Trazado_10195" class="st5" d="M0,6h20.8l0.2-6H0.4L0,6z"/>
			<path id="Trazado_10196" class="st7" d="M19.5,0.9l-0.2,4.2H1.6l0.3-4.2H19.5 M21.1,0H0.4L0,6h20.8L21.1,0L21.1,0z"/>
		</g>
		<g id="Grupo_10746" transform="translate(166.412 12.074)">
			<path id="Trazado_10197" class="st5" d="M0,6h20.8l0-6H0.2L0,6z"/>
			<path id="Trazado_10198" class="st7" d="M19.3,0.9l0,4.2H1.6l0.1-4.2H19.3 M20.9,0H0.2L0,6h20.8L20.9,0L20.9,0z"/>
		</g>
		<g id="Grupo_10747" transform="translate(192.538 12.074)">
			<path id="Trazado_10199" class="st5" d="M0,6h20.8l-0.2-6H0L0,6z"/>
			<path id="Trazado_10200" class="st7" d="M19.2,0.9l0.1,4.2H1.6l0-4.2H19.2 M20.7,0H0l0,6h20.8L20.7,0L20.7,0z"/>
		</g>
		<g id="Grupo_10748" transform="translate(219.289 12.074)">
			<path id="Trazado_10201" class="st5" d="M0.2,6h20.8l-0.4-6H0L0.2,6z"/>
			<path id="Trazado_10202" class="st7" d="M19.2,0.9l0.3,4.2H1.7L1.6,0.9H19.2 M20.7,0H0l0.2,6h20.9L20.7,0z"/>
		</g>
		<g id="Grupo_10749" transform="translate(245.218 12.074)">
			<path id="Trazado_10203" class="st5" d="M0.4,6h20.8l-0.6-6H0L0.4,6z"/>
			<path id="Trazado_10204" class="st7" d="M19.2,0.9l0.4,4.2H1.9L1.6,0.9H19.2 M20.7,0H0l0.4,6h20.8L20.7,0L20.7,0z"/>
		</g>
		<g id="Grupo_10750" transform="translate(271.564 12.074)">
			<path id="Trazado_10205" class="st5" d="M0.7,6h20.8l-0.8-6H0L0.7,6z"/>
			<path id="Trazado_10206" class="st7" d="M19.3,0.9l0.6,4.2H2.1L1.6,0.9H19.3 M20.7,0H0l0.7,6h20.8L20.7,0z"/>
		</g>
		<g id="Grupo_10751" transform="translate(298.308 12.074)">
			<path id="Trazado_10207" class="st5" d="M0.9,6h20.8l-1-6H0L0.9,6z"/>
			<path id="Trazado_10208" class="st7" d="M19.3,0.9L20,5.1H2.3L1.7,0.9H19.3 M20.7,0H0l0.9,6h20.8L20.7,0L20.7,0z"/>
		</g>
		<g id="Grupo_10752" transform="translate(324.244 12.074)">
			<path id="Trazado_10209" class="st5" d="M1.1,6h20.8l-1.2-6H0L1.1,6z"/>
			<path id="Trazado_10210" class="st7" d="M19.3,0.9l0.9,4.2H2.5L1.7,0.9H19.3 M20.7,0H0l1.1,6h20.8L20.7,0L20.7,0z"/>
		</g>
		<g id="Grupo_10753" transform="translate(60.704 12.518)">
			<path id="Trazado_10211" class="st5" d="M0,6h20.8l0.9-6H1L0,6z"/>
			<path id="Trazado_10212" class="st7" d="M20.1,0.9l-0.6,4.2H1.7l0.7-4.2H20.1 M21.7,0H1L0,6h20.9L21.7,0L21.7,0z"/>
		</g>
		<g id="Grupo_10754" transform="translate(86.869 12.518)">
			<path id="Trazado_10213" class="st5" d="M0,6h20.8l0.7-6H0.8L0,6z"/>
			<path id="Trazado_10214" class="st7" d="M19.9,0.9l-0.5,4.2H1.7l0.6-4.2H19.9 M21.5,0H0.8L0,6h20.8L21.5,0z"/>
		</g>
		<g id="Grupo_10755" transform="translate(113.846 12.518)">
			<path id="Trazado_10215" class="st5" d="M0,6h20.8l0.5-6H0.6L0,6z"/>
			<path id="Trazado_10216" class="st7" d="M19.7,0.9l-0.3,4.2H1.6l0.4-4.2H19.7 M21.3,0H0.6L0,6h20.9L21.3,0L21.3,0z"/>
		</g>
		<g id="Grupo_10756" transform="translate(140 12.518)">
			<path id="Trazado_10217" class="st5" d="M0,6h20.8l0.2-6H0.4L0,6z"/>
			<path id="Trazado_10218" class="st7" d="M19.5,0.9l-0.2,4.2H1.6l0.3-4.2H19.5 M21.1,0H0.4L0,6h20.9L21.1,0L21.1,0z"/>
		</g>
		<g id="Grupo_10757" transform="translate(166.396 12.518)">
			<path id="Trazado_10219" class="st5" d="M0,6h20.8l0-6H0.2L0,6z"/>
			<path id="Trazado_10220" class="st7" d="M19.3,0.9l0,4.2H1.6l0.1-4.2H19.3 M20.9,0H0.2L0,6h20.8L20.9,0L20.9,0z"/>
		</g>
		<g id="Grupo_10758" transform="translate(192.538 12.518)">
			<path id="Trazado_10221" class="st5" d="M0,6h20.9l-0.2-6H0L0,6z"/>
			<path id="Trazado_10222" class="st7" d="M19.2,0.9l0.1,4.2H1.6l0-4.2H19.2 M20.7,0H0l0,6h20.9L20.7,0z"/>
		</g>
		<g id="Grupo_10759" transform="translate(219.306 12.518)">
			<path id="Trazado_10223" class="st5" d="M0.2,6h20.9l-0.4-6H0L0.2,6z"/>
			<path id="Trazado_10224" class="st7" d="M19.2,0.9l0.3,4.2H1.7L1.6,0.9H19.2 M20.7,0H0l0.2,6h20.9L20.7,0L20.7,0z"/>
		</g>
		<g id="Grupo_10760" transform="translate(245.254 12.518)">
			<path id="Trazado_10225" class="st5" d="M0.4,6h20.9l-0.6-6H0L0.4,6z"/>
			<path id="Trazado_10226" class="st7" d="M19.2,0.9l0.4,4.2H1.9L1.6,0.9H19.2 M20.7,0H0l0.4,6h20.9L20.7,0L20.7,0z"/>
		</g>
		<g id="Grupo_10761" transform="translate(271.602 12.518)">
			<path id="Trazado_10227" class="st5" d="M0.7,6h20.8l-0.8-6H0L0.7,6z"/>
			<path id="Trazado_10228" class="st7" d="M19.3,0.9l0.5,4.2H2.1L1.7,0.9H19.3 M20.7,0H0l0.7,6h20.9L20.7,0L20.7,0z"/>
		</g>
		<g id="Grupo_10762" transform="translate(298.372 12.518)">
			<path id="Trazado_10229" class="st5" d="M0.9,6h20.8l-1-6H0L0.9,6z"/>
			<path id="Trazado_10230" class="st7" d="M19.3,0.9L20,5.1H2.3L1.7,0.9H19.3 M20.7,0H0l0.9,6h20.8L20.7,0L20.7,0z"/>
		</g>
		<g id="Grupo_10763" transform="translate(324.318 12.518)">
			<path id="Trazado_10231" class="st5" d="M1.1,6h20.8l-1.2-6H0L1.1,6z"/>
			<path id="Trazado_10232" class="st7" d="M19.3,0.9l0.9,4.2H2.5L1.7,0.9H19.3 M20.7,0H0l1.1,6h20.9L20.7,0L20.7,0z"/>
		</g>
		<g id="Grupo_10764" transform="translate(302.488 41.151)">
			<path id="Trazado_10233" class="st5" d="M1.8,12.4h21.8L21.5,0H0L1.8,12.4z"/>
			<path id="Trazado_10234" class="st7" d="M20.1,0.9l1.8,10.6H3.3L1.7,0.9H20.1 M21.5,0H0l1.8,12.4h21.8L21.5,0L21.5,0z"/>
		</g>
		<g id="Grupo_10765" transform="translate(329.443 41.151)">
			<path id="Trazado_10235" class="st5" d="M2.2,12.4H24L21.5,0H0L2.2,12.4z"/>
			<path id="Trazado_10236" class="st7" d="M20.1,0.9l2.2,10.6H3.7L1.8,0.9H20.1 M21.5,0H0l2.2,12.4h21.8L21.5,0L21.5,0z"/>
		</g>
		<g id="Grupo_10766" transform="translate(274.698 41.151)">
			<path id="Trazado_10237" class="st5" d="M1.3,12.4h21.8L21.5,0H0L1.3,12.4z"/>
			<path id="Trazado_10238" class="st7" d="M20,0.9l1.4,10.6H2.9L1.7,0.9H20 M21.5,0H0l1.4,12.4h21.8L21.5,0L21.5,0z"/>
		</g>
		<g id="Grupo_10767" transform="translate(221.248 58.276)">
			<path id="Trazado_10239" class="st5" d="M0.5,12.4h22.3L22,0H0L0.5,12.4z"/>
			<path id="Trazado_10240" class="st7" d="M20.4,0.9l0.7,10.6h-19L1.7,0.9H20.4 M21.9,0H0l0.5,12.4h22.3L21.9,0L21.9,0z"/>
		</g>
		<g id="Grupo_10768" transform="translate(248.794 58.276)">
			<path id="Trazado_10241" class="st5" d="M0.9,12.4h22.3L22,0H0L0.9,12.4z"/>
			<path id="Trazado_10242" class="st7" d="M20.4,0.9l1,10.6h-19L1.7,0.9H20.4 M22,0H0l0.9,12.4h22.3L22,0L22,0z"/>
		</g>
		<g id="Grupo_10769" transform="translate(164.89 58.276)">
			<path id="Trazado_10243" class="st5" d="M0,12.4h22.3L22.4,0h-22L0,12.4z"/>
			<path id="Trazado_10244" class="st7" d="M20.7,0.9l-0.1,10.6H1.7L2,0.9H20.7 M22.4,0h-22L0,12.4h22.3L22.4,0L22.4,0z"/>
		</g>
		<g id="Grupo_10770" transform="translate(192.84 58.276)">
			<path id="Trazado_10245" class="st5" d="M0,12.4h22.3L22,0H0L0,12.4z"/>
			<path id="Trazado_10246" class="st7" d="M20.4,0.9l0.3,10.6H1.7L1.6,0.9H20.4 M22,0H0l0,12.4h22.3L22,0L22,0z"/>
		</g>
		<g id="Grupo_10771" transform="translate(276.763 58.276)">
			<path id="Trazado_10247" class="st5" d="M1.3,12.4h22.3L22,0H0L1.3,12.4z"/>
			<path id="Trazado_10248" class="st7" d="M20.5,0.9l1.4,10.6h-19L1.7,0.9H20.5 M22,0H0l1.4,12.4h22.3L22,0L22,0z"/>
		</g>
		<g id="Grupo_10772" transform="translate(279.128 75.044)">
			<path id="Trazado_10249" class="st5" d="M1.4,12.4h22.8L22.4,0H0L1.4,12.4z"/>
			<path id="Trazado_10250" class="st7" d="M20.9,0.9l1.4,10.6H2.9L1.8,0.9H20.9 M22.4,0H0l1.4,12.4h22.8L22.4,0L22.4,0z"/>
		</g>
		<g id="Grupo_10773" transform="translate(307.257 75.044)">
			<path id="Trazado_10251" class="st5" d="M1.8,12.4h22.8L22.4,0H0L1.8,12.4z"/>
			<path id="Trazado_10252" class="st7" d="M20.9,0.9l1.8,10.6H3.3L1.8,0.9H20.9 M22.4,0H0l1.8,12.4h22.8L22.4,0L22.4,0z"/>
		</g>
		<g id="Grupo_10774" transform="translate(335.824 75.044)">
			<path id="Trazado_10253" class="st5" d="M2.2,12.4H25L22.4,0H0L2.2,12.4z"/>
			<path id="Trazado_10254" class="st7" d="M20.9,0.9l2.2,10.6H3.8L1.8,0.9H20.9 M22.4,0H0l2.2,12.4H25L22.4,0z"/>
		</g>
		<g id="Grupo_10775" transform="translate(77.41 75.044)">
			<path id="Trazado_10255" class="st5" d="M0,12.4h22.8L24.1,0H1.7L0,12.4z"/>
			<path id="Trazado_10256" class="st7" d="M22.4,0.9l-1.2,10.6H1.8L3.3,0.9L22.4,0.9 M24.1,0H1.7L0,12.4h22.8L24.1,0L24.1,0z"/>
		</g>
		<g id="Grupo_10776" transform="translate(48.837 75.044)">
			<path id="Trazado_10257" class="st5" d="M0,12.4h22.8L24.6,0H2.2L0,12.4z"/>
			<path id="Trazado_10258" class="st7" d="M22.8,0.9l-1.6,10.6H1.9L3.7,0.9L22.8,0.9 M24.6,0H2.2L0,12.4h22.8L24.6,0z"/>
		</g>
		<g id="Grupo_10777" transform="translate(51.646 58.276)">
			<path id="Trazado_10259" class="st5" d="M0,12.4h79.1L80.1,0H2.2L0,12.4z"/>
			<path id="Trazado_10260" class="st7" d="M78.4,0.9l-0.8,10.6H1.8L3.6,0.9H78.4 M80.1,0H2.2L0,12.4h79.1L80.1,0L80.1,0z"/>
		</g>
		<g id="Grupo_10778" transform="translate(304.957 58.276)">
			<path id="Trazado_10261" class="st5" d="M1.8,12.4h50.3L49.5,0H0L1.8,12.4z"/>
			<path id="Trazado_10262" class="st7" d="M48.1,0.9l2.2,10.6H3.3L1.8,0.9H48.1 M49.5,0H0l1.8,12.4h50.3L49.5,0L49.5,0z"/>
		</g>
		<g id="Grupo_10779" transform="translate(135.419 75.044)">
			<path id="Trazado_10263" class="st5" d="M0,12.4h138.4L137.1,0H0.8L0,12.4z"/>
			<path id="Trazado_10264" class="st7" d="M135.5,0.9l1,10.6H1.8L2.4,0.9H135.5 M137.1,0H0.8L0,12.4h138.4L137.1,0L137.1,0z"/>
		</g>
		<g id="Grupo_10780" transform="translate(155.264 94.06)">
			<path id="Trazado_10265" class="st6" d="M98.7,28.8H0L1.2,0h95.4L98.7,28.8z"/>
			<path id="Trazado_10266" class="st7" d="M95,0.9l1.9,26.9H1.8L2.9,0.9H95 M96.6,0H1.2L0,28.8h98.7L96.6,0L96.6,0z"/>
		</g>
		<g id="Grupo_10781" transform="translate(45.268)">
			<path id="Trazado_10267" class="st11" d="M37.2,0H3.1c-1,0-1.9,0.5-2,1.1L0,6.5c-0.1,0.6,0.6,1.1,1.6,1.1h34.5
				c1,0,1.8-0.5,1.9-1.1l0.8-5.5C38.9,0.5,38.2,0,37.2,0z"/>
			<path id="Trazado_10268" class="st7" d="M37.1,0.9c0.1,0,0.2,0.1,0.2,0.1l-0.8,5.5c-0.1,0.1-0.2,0.2-0.3,0.1H1.8
				c-0.1,0-0.2-0.1-0.2-0.1l1.1-5.5C2.7,1,2.8,0.9,2.9,0.9H37.1 M37.2,0H3.1c-1,0-1.9,0.5-2,1.1L0,6.5c-0.1,0.6,0.6,1.1,1.6,1.1
				h34.5c1,0,1.8-0.5,1.9-1.1l0.8-5.5C38.9,0.5,38.2,0,37.2,0L37.2,0z"/>
		</g>
		<g id="Grupo_10782" transform="translate(329.859)">
			<path id="Trazado_10269" class="st11" d="M35.7,0H1.6C0.6,0-0.1,0.5,0,1.1l1,5.5c0.1,0.6,1,1.1,2,1.1h34.5c1,0,1.7-0.5,1.5-1.1
				l-1.3-5.5C37.6,0.5,36.7,0,35.7,0z"/>
			<path id="Trazado_10270" class="st7" d="M35.9,0.9c0.1,0,0.3,0.1,0.3,0.1l1.3,5.5c0,0.1-0.1,0.1-0.2,0.1H2.8
				c-0.1,0-0.3-0.1-0.3-0.1l-1-5.5c0-0.1,0.1-0.1,0.2-0.1H35.9 M35.7,0H1.6C0.6,0-0.1,0.5,0,1.1l1,5.5c0.1,0.6,1,1.1,2,1.1h34.5
				c1,0,1.7-0.5,1.5-1.1l-1.3-5.5C37.6,0.5,36.7,0,35.7,0L35.7,0z"/>
		</g>
		<g id="Grupo_10783" transform="translate(45.831)">
			<path id="Trazado_10271" class="st5" d="M36.7,0H2.5c-1,0-1.9,0.5-2,1.1L0,3.8h37.9l0.4-2.7C38.4,0.5,37.6,0,36.7,0z"/>
			<path id="Trazado_10272" class="st7" d="M36.5,0.9c0.1,0,0.2,0.1,0.2,0.1l-0.3,1.8H1.7L2,1.1C2.1,1,2.2,0.9,2.3,0.9H36.5 M36.7,0
				H2.5c-1,0-1.9,0.5-2,1.1L0,3.8h37.9l0.4-2.7C38.4,0.5,37.6,0,36.7,0L36.7,0z"/>
		</g>
		<g id="Grupo_10784" transform="translate(329.859)">
			<path id="Trazado_10273" class="st5" d="M35.7,0H1.6C0.6,0-0.1,0.5,0,1.1l0.5,2.7h37.9l-0.7-2.7C37.6,0.5,36.7,0,35.7,0z"/>
			<path id="Trazado_10274" class="st7" d="M36,0.9c0.1,0,0.2,0.1,0.3,0.1l0.4,1.8H1.9L1.5,1.1c0-0.1,0.1-0.1,0.2-0.1H36 M35.7,0
				H1.6C0.6,0-0.1,0.5,0,1.1l0.5,2.7h37.9l-0.7-2.7C37.6,0.5,36.7,0,35.7,0L35.7,0z"/>
		</g>
	</g>
	<path id="Trazado_10275" class="st5" d="M507.4,756.7l7.1-7.1l7.1,7.1l1.6-1.6l-7.1-7.1l7.1-7.1l-1.6-1.6l-7.1,7.1l-7.1-7.1
		l-1.6,1.6l7.1,7.1l-7.1,7.1L507.4,756.7z"/>
	<path id="Trazado_10276" class="st5" d="M723,475.9h10v10h2.3v-10h10v-2.3h-10v-10H733v10h-10L723,475.9z"/>
	<g id="Grupo_10786" transform="translate(793.767 506.414)">
		<path id="Trazado_10277" class="st5" d="M10.9,5.4c0,3-2.4,5.4-5.4,5.4c0,0,0,0,0,0l0,0c-3,0-5.4-2.4-5.4-5.4l0,0
			C0,2.4,2.4,0,5.4,0c0,0,0,0,0,0l0,0C8.4,0,10.9,2.4,10.9,5.4C10.9,5.4,10.9,5.4,10.9,5.4z"/>
		<path id="Trazado_10278" class="st7" d="M5.4,1.5c2.2,0,3.9,1.8,3.9,3.9c0,2.2-1.8,3.9-3.9,3.9c-2.2,0-3.9-1.8-3.9-3.9
			C1.5,3.3,3.3,1.5,5.4,1.5C5.4,1.5,5.4,1.5,5.4,1.5 M5.4,0C2.4,0,0,2.4,0,5.4s2.4,5.4,5.4,5.4c3,0,5.4-2.4,5.4-5.4c0,0,0,0,0,0
			C10.9,2.4,8.4,0,5.4,0z"/>
	</g>
	<path id="Trazado_10279" class="st4" d="M497.3,546.1l6.1-1.6c1.3,3.9,3.4,7.6,6.1,10.7l-4.4,4.4l0.1,0l2.8,2.8l0.1,0l4.4-4.4
		c3.1,2.7,6.8,4.8,10.7,6.1l-1.6,6.1l3.9,1l1.6-6.1c3.9,0.8,7.9,0.7,11.8,0l1.6,6.1l3.8-1l-1.6-6.1c3.9-1.3,7.6-3.4,10.7-6.1
		l4.5,4.5l2.8-2.8l-4.5-4.5c2.7-3.1,4.8-6.7,6.1-10.7l6.1,1.6l1-3.8l-6.1-1.6c0.8-3.9,0.8-7.9,0-11.8l6.1-1.6l-1-3.9l-6.1,1.6
		c-1.3-3.9-3.4-7.6-6.1-10.7l4.5-4.4l-0.1-0.1l-2.8-2.8l-0.1-0.1l-4.4,4.4c-3.1-2.7-6.8-4.8-10.7-6.1l1.6-6.1l-3.9-1l-1.6,6.1
		c-3.9-0.7-7.9-0.7-11.8,0l-1.6-6.1l-3.8,1l1.6,6.1c-3.9,1.3-7.6,3.4-10.7,6.1l-4.5-4.5l-2.8,2.8l4.5,4.5c-2.7,3.1-4.8,6.7-6.1,10.7
		l-6.1-1.6l-1,3.8l6.1,1.6c-0.8,3.9-0.8,7.9,0,11.8l-6.1,1.6L497.3,546.1z M518.2,520c8.1-8.1,21.3-8.1,29.4,0s8.1,21.3,0,29.4
		s-21.3,8.1-29.4,0c0,0,0,0,0,0C510.1,541.3,510.1,528.1,518.2,520L518.2,520z"/>
	<g id="Grupo_10787" transform="translate(652.969 535.16)">
		<rect id="Rectángulo_3033" x="1.4" y="96.7" class="st12" width="103" height="3.2"/>
		<rect id="Rectángulo_3034" x="113.3" y="96.7" class="st13" width="52.3" height="3.2"/>
		<rect id="Rectángulo_3035" x="109.5" y="31.4" class="st12" width="52.3" height="3.2"/>
		<rect id="Rectángulo_3036" x="210.9" y="10.5" class="st12" width="52.3" height="3.2"/>
		<rect id="Rectángulo_3037" x="115.4" y="41.9" class="st13" width="88.1" height="3.2"/>
		<rect id="Rectángulo_3038" x="115.4" y="10.5" class="st12" width="88.1" height="3.2"/>
		<rect id="Rectángulo_3039" x="1.4" y="86.3" class="st12" width="103" height="3.2"/>
		<rect id="Rectángulo_3040" x="191.5" y="75.7" class="st12" width="103" height="3.2"/>
		<rect id="Rectángulo_3041" x="1.4" y="75.7" class="st12" width="182.3" height="3.2"/>
		<rect id="Rectángulo_3042" x="122.2" y="54.9" class="st12" width="182.3" height="3.2"/>
		<rect id="Rectángulo_3043" x="1.4" y="65.4" class="st13" width="118.6" height="3.2"/>
		<rect id="Rectángulo_3044" x="1.4" y="54.9" class="st12" width="103" height="3.2"/>
		<rect id="Rectángulo_3045" x="0" y="41.9" class="st12" width="103" height="3.2"/>
		<rect id="Rectángulo_3046" x="0" y="31.4" class="st12" width="103" height="3.2"/>
		<rect id="Rectángulo_3047" x="0" y="20.8" class="st12" width="54.7" height="3.2"/>
		<rect id="Rectángulo_3048" x="0" y="10.5" class="st13" width="103" height="3.2"/>
		<rect id="Rectángulo_3049" x="0" y="0" class="st12" width="103" height="3.2"/>
	</g>
	<g id="Grupo_10788" transform="translate(652.969 643.477)">
		<rect id="Rectángulo_3050" x="109.5" y="31.4" class="st12" width="52.3" height="3.2"/>
		<rect id="Rectángulo_3051" x="210.9" y="10.5" class="st12" width="52.3" height="3.2"/>
		<rect id="Rectángulo_3052" x="115.4" y="10.5" class="st12" width="88.1" height="3.2"/>
		<rect id="Rectángulo_3053" x="0" y="31.4" class="st12" width="103" height="3.2"/>
		<rect id="Rectángulo_3054" x="0" y="20.8" class="st12" width="54.7" height="3.2"/>
		<rect id="Rectángulo_3055" x="0" y="10.5" class="st13" width="103" height="3.2"/>
		<rect id="Rectángulo_3056" x="0" y="0" class="st12" width="103" height="3.2"/>
	</g>
	<g id="Grupo_10789" transform="translate(959.635 561.923)">
		<path id="Trazado_10280" class="st3" d="M17.8,58.4c0-22.4,18.2-40.6,40.6-40.7c0,0,0,0,0,0v-6.1c-0.8,0-1.7-0.1-2.5,0L52.9,0
			L36.3,4.3l2.9,11.4c-2.6,1.1-5.1,2.5-7.4,4.1l-8-8L11.8,23.9l8,8c-1.6,2.3-3,4.8-4.1,7.4L4.3,36.3L0,52.9l11.6,3
			c-0.1,2-0.1,4,0.1,6L0.3,65.3l4.9,16.4L16,78.4c1.1,2.3,2.3,4.5,3.7,6.5l-7.7,7.7l12.1,12.1l7.7-7.7c2.1,1.4,4.3,2.7,6.5,3.7
			l-3.2,10.7l16.4,4.9l3.4-11.3c1.1,0.1,2.3,0,3.5,0V99C36,99,17.8,80.9,17.8,58.4C17.8,58.4,17.8,58.4,17.8,58.4z"/>
		<path id="Trazado_10281" class="st1" d="M112.5,80.5l4.3-16.6l-11.6-3c0.1-2,0.1-4-0.1-6l11.3-3.4l-4.9-16.4l-10.7,3.2
			c-1.1-2.3-2.3-4.5-3.7-6.5l7.7-7.7L92.6,12.1l-7.7,7.7c-2.1-1.4-4.3-2.7-6.5-3.8l3.2-10.7L65.3,0.3l-3.4,11.3
			c-1.1-0.1-2.3,0-3.5,0v6.1l0,0C80.8,17.8,99,35.9,99,58.4S80.8,99,58.4,99l0,0l0,0v6.1c0.8,0,1.7,0.1,2.5,0l3,11.6l16.6-4.3
			l-2.9-11.4c2.6-1.2,5.1-2.5,7.4-4.1l8,8L105,92.9l-8-8c1.6-2.3,3-4.8,4.1-7.4L112.5,80.5z"/>
		<path id="Trazado_10282" class="st1" d="M82.4,58.4c0,1.5-0.2,3.1-0.4,4.6C82.2,61.5,82.4,59.9,82.4,58.4z"/>
		<path id="Trazado_10283" class="st1" d="M58.4,34.4L58.4,34.4c1.5,0,3.1,0.1,4.6,0.4C61.5,34.6,59.9,34.4,58.4,34.4z"/>
		<path id="Trazado_10284" class="st1" d="M34.4,58.8l0-0.4L34.4,58.8z"/>
		<path id="Trazado_10285" class="st2" d="M71.6,78.4c1.4-0.9,2.6-1.9,3.8-3.1C78.7,72,81,67.7,81.9,63c0.6-3,0.6-6.1,0-9.2
			c-0.9-4.7-3.2-9-6.6-12.4c-4.5-4.5-10.6-7-17-7c-13.3,0-24,10.7-24,24c0,0,0,0,0,0l0,0.4c0.1,6.2,2.6,12.2,7,16.6
			c1,0.9,2,1.8,3.1,2.5C52.5,83.7,63.3,83.9,71.6,78.4z M46.2,46.3c6.7-6.7,17.6-6.7,24.3,0c6.7,6.7,6.7,17.6,0,24.3
			s-17.6,6.7-24.3,0c0,0,0,0,0,0C39.5,63.9,39.5,53,46.2,46.3C46.2,46.3,46.2,46.3,46.2,46.3z"/>
		<path id="Trazado_10286" class="st1" d="M17.8,58.4C17.8,80.9,35.9,99,58.4,99c0,0,0,0,0,0V82.4c-5,0-9.8-1.6-13.9-4.5
			c-1.1-0.8-2.1-1.6-3.1-2.5C37,71,34.5,65,34.4,58.8l0-0.4c0-13.3,10.7-24,24-24c0,0,0,0,0,0l0,0V17.8C35.9,17.8,17.8,36,17.8,58.4
			C17.8,58.4,17.8,58.4,17.8,58.4z"/>
		<path id="Trazado_10287" class="st1" d="M58.4,34.4c-13.3,0-24,10.7-24,24c0,0,0,0,0,0C34.4,45.2,45.1,34.4,58.4,34.4
			C58.4,34.4,58.4,34.4,58.4,34.4z"/>
		<path id="Trazado_10288" class="st1" d="M34.4,58.8c0.1,6.2,2.6,12.2,7,16.6c1,0.9,2,1.8,3.1,2.5c-1.1-0.8-2.1-1.6-3.1-2.5
			C37,71,34.5,65,34.4,58.8z"/>
		<path id="Trazado_10289" class="st1" d="M63,34.9c4.7,0.9,9,3.2,12.4,6.6c3.4,3.4,5.7,7.7,6.6,12.4c0.6,3,0.6,6.1,0,9.2
			c-0.9,4.7-3.2,9-6.6,12.4c-1.2,1.1-2.4,2.2-3.8,3.1c-3.9,2.6-8.5,4-13.2,4V99l0,0C80.8,99,99,80.8,99,58.4S80.8,17.8,58.4,17.8
			l0,0v16.7C59.9,34.4,61.5,34.6,63,34.9z"/>
		<path id="Trazado_10290" class="st1" d="M63,34.9c3.1,0.6,6,1.8,8.6,3.5C69,36.6,66.1,35.4,63,34.9z"/>
		<path id="Trazado_10291" class="st1" d="M81.9,53.8c-0.9-4.7-3.2-9-6.6-12.4c-1.1-1.2-2.4-2.2-3.8-3.1c1.4,0.9,2.6,1.9,3.8,3.1
			C78.7,44.8,81,49.1,81.9,53.8z"/>
		<path id="Trazado_10292" class="st1" d="M81.9,53.8c0.3,1.5,0.4,3,0.4,4.6C82.4,56.9,82.2,55.3,81.9,53.8z"/>
	</g>
	<g id="Grupo_10792" transform="translate(540.222 597.524)">
		<path id="Trazado_10293" class="st11" d="M152.4,11.1H14.9c-3.4,0-6.2,2.8-6.2,6.2v118.4c0,3.4,2.8,6.2,6.2,6.2h137.5
			c3.4,0,6.2-2.8,6.2-6.2V17.3C158.6,13.9,155.8,11.1,152.4,11.1C152.4,11.1,152.4,11.1,152.4,11.1z"/>
		<path id="Trazado_10294" class="st1" d="M0,15.6v108.9c0,3.4,2.8,6.2,6.2,6.2l0,0h137.5c3.4,0,6.2-2.8,6.2-6.2c0,0,0,0,0,0V15.6H0
			z"/>
		<path id="Trazado_10295" class="st14" d="M143.7,0H6.2C2.8,0,0,2.8,0,6.2v9.5h149.9V6.2C149.9,2.8,147.1,0,143.7,0
			C143.7,0,143.7,0,143.7,0z"/>
		<path id="Trazado_10296" class="st5" d="M25.9,11.3L25.9,11.3c-1.6,0-2.9-1.3-2.9-2.9c0,0,0,0,0,0l0,0c0-1.6,1.3-2.9,2.9-2.9
			c0,0,0,0,0,0l0,0c1.6,0,2.9,1.3,2.9,2.9c0,0,0,0,0,0l0,0C28.8,10,27.5,11.3,25.9,11.3C25.9,11.3,25.9,11.3,25.9,11.3z"/>
		<path id="Trazado_10297" class="st5" d="M16.8,11.3L16.8,11.3c-1.6,0-2.9-1.3-2.9-2.9c0,0,0,0,0,0l0,0c0-1.6,1.3-2.9,2.9-2.9
			c0,0,0,0,0,0l0,0c1.6,0,2.8,1.3,2.8,2.9l0,0C19.7,10,18.4,11.3,16.8,11.3z"/>
		<path id="Trazado_10298" class="st5" d="M7.1,11.3L7.1,11.3c-1.6,0-2.9-1.3-2.9-2.9c0,0,0,0,0,0l0,0c0-1.6,1.3-2.9,2.9-2.9
			c0,0,0,0,0,0l0,0c1.6,0,2.9,1.3,2.9,2.9c0,0,0,0,0,0l0,0C9.9,10,8.7,11.3,7.1,11.3C7.1,11.3,7.1,11.3,7.1,11.3z"/>
	</g>
	<g id="Grupo_10795" transform="translate(759.714 477.468)">
		<path id="Trazado_10305" class="st11" d="M273.7,10H13.4c-3.1,0-5.6,2.5-5.6,5.6v137c0,3.1,2.5,5.6,5.6,5.6c0,0,0,0,0,0h260.3
			c3.1,0,5.6-2.5,5.6-5.6c0,0,0,0,0,0v-137C279.2,12.5,276.7,10,273.7,10z"/>
		<path id="Trazado_10306" class="st14" d="M271.4,142.5c0,3.1-2.5,5.6-5.6,5.6c0,0,0,0,0,0H5.6c-3.1,0-5.6-2.5-5.6-5.6c0,0,0,0,0,0
			V14.1h271.4V142.5z"/>
		<path id="Trazado_10307" class="st1" d="M265.8,0H5.6C2.5,0,0,2.5,0,5.6v8.5h271.4V5.6C271.4,2.5,268.9,0,265.8,0z"/>
		<path id="Trazado_10308" class="st5" d="M23.3,10.2L23.3,10.2c-1.4,0-2.6-1.1-2.6-2.6c0,0,0,0,0,0l0,0c0-1.4,1.1-2.6,2.6-2.6
			c0,0,0,0,0,0l0,0c1.4,0,2.6,1.2,2.6,2.6c0,0,0,0,0,0l0,0C25.9,9,24.8,10.2,23.3,10.2z"/>
		<path id="Trazado_10309" class="st5" d="M15.1,10.2L15.1,10.2c-1.4,0-2.6-1.1-2.6-2.6l0,0c0-1.4,1.2-2.6,2.6-2.6l0,0
			c1.4,0,2.6,1.2,2.6,2.6c0,0,0,0,0,0l0,0C17.7,9,16.5,10.2,15.1,10.2z"/>
		<path id="Trazado_10310" class="st5" d="M6.4,10.2L6.4,10.2C5,10.2,3.8,9,3.8,7.6l0,0C3.8,6.2,4.9,5,6.4,5c0,0,0,0,0,0l0,0
			c1.4,0,2.6,1.2,2.6,2.6l0,0C8.9,9,7.8,10.2,6.4,10.2z"/>
		<g id="Grupo_10793" transform="translate(17.464 25.084)">
			<rect id="Rectángulo_3057" x="0" y="0" class="st5" width="34.8" height="3.4"/>
			<rect id="Rectángulo_3058" x="37.8" y="0" class="st5" width="17.7" height="3.4"/>
			<rect id="Rectángulo_3059" x="49.1" y="68.8" class="st5" width="17.7" height="3.4"/>
			<rect id="Rectángulo_3060" x="83.4" y="90.8" class="st5" width="17.7" height="3.4"/>
			<rect id="Rectángulo_3061" x="51.1" y="57.8" class="st5" width="29.7" height="3.4"/>
			<rect id="Rectángulo_3062" x="51.1" y="90.8" class="st5" width="29.7" height="3.4"/>
			<rect id="Rectángulo_3063" x="0" y="11" class="st5" width="34.8" height="3.4"/>
			<rect id="Rectángulo_3064" x="64.2" y="22.2" class="st5" width="34.8" height="3.4"/>
			<rect id="Rectángulo_3065" x="0" y="22.2" class="st5" width="61.6" height="3.4"/>
			<rect id="Rectángulo_3066" x="40.8" y="44" class="st5" width="61.6" height="3.4"/>
			<rect id="Rectángulo_3067" x="0" y="33" class="st5" width="40" height="3.4"/>
			<rect id="Rectángulo_3068" x="0" y="44" class="st5" width="34.8" height="3.4"/>
			<rect id="Rectángulo_3069" x="12.1" y="57.8" class="st5" width="34.8" height="3.4"/>
			<rect id="Rectángulo_3070" x="12.1" y="68.8" class="st5" width="34.8" height="3.4"/>
			<rect id="Rectángulo_3071" x="12.1" y="79.9" class="st5" width="18.5" height="3.4"/>
			<rect id="Rectángulo_3072" x="12.1" y="90.8" class="st5" width="34.8" height="3.4"/>
			<rect id="Rectángulo_3073" x="12.1" y="101.8" class="st5" width="34.8" height="3.4"/>
		</g>
		<g id="Grupo_10794" transform="translate(156.43 25.666)">
			<rect id="Rectángulo_3074" x="0.5" y="101.8" class="st5" width="34.8" height="3.4"/>
			<rect id="Rectángulo_3075" x="38.2" y="101.8" class="st5" width="17.7" height="3.4"/>
			<rect id="Rectángulo_3076" x="37" y="33" class="st5" width="17.7" height="3.4"/>
			<rect id="Rectángulo_3077" x="71.2" y="11" class="st5" width="17.7" height="3.4"/>
			<rect id="Rectángulo_3078" x="39" y="44" class="st5" width="29.7" height="3.4"/>
			<rect id="Rectángulo_3079" x="39" y="11" class="st5" width="29.7" height="3.4"/>
			<rect id="Rectángulo_3080" x="0.5" y="90.8" class="st5" width="34.8" height="3.4"/>
			<rect id="Rectángulo_3081" x="64.7" y="79.6" class="st5" width="34.8" height="3.4"/>
			<rect id="Rectángulo_3082" x="0.5" y="79.6" class="st5" width="61.6" height="3.4"/>
			<rect id="Rectángulo_3083" x="41.3" y="57.8" class="st5" width="61.6" height="3.4"/>
			<rect id="Rectángulo_3084" x="0.5" y="68.8" class="st5" width="40" height="3.4"/>
			<rect id="Rectángulo_3085" x="0.5" y="57.8" class="st5" width="34.8" height="3.4"/>
			<rect id="Rectángulo_3086" x="0" y="44" class="st5" width="34.8" height="3.4"/>
			<rect id="Rectángulo_3087" x="0" y="33" class="st5" width="34.8" height="3.4"/>
			<rect id="Rectángulo_3088" x="0" y="21.9" class="st5" width="18.5" height="3.4"/>
			<rect id="Rectángulo_3089" x="0" y="11" class="st5" width="34.8" height="3.4"/>
			<rect id="Rectángulo_3090" x="0" y="0" class="st5" width="34.8" height="3.4"/>
		</g>
	</g>
	<g id="Grupo_10797" transform="translate(837.961 438.309)">
		<path id="Trazado_10311" class="st11" d="M238.1,9.2H12.3c-2.8,0-5.1,2.3-5.1,5.1c0,0,0,0,0,0v126c0,2.8,2.3,5.1,5.1,5.1h225.8
			c2.8,0,5.1-2.3,5.1-5.1v-126C243.3,11.5,241,9.2,238.1,9.2C238.1,9.2,238.1,9.2,238.1,9.2z"/>
		<path id="Trazado_10312" class="st5" d="M0,12.9v118.2c0,2.8,2.3,5.1,5.1,5.1h225.8c2.8,0,5.1-2.3,5.1-5.1V12.9H0z"/>
		<path id="Trazado_10313" class="st1" d="M230.9,0H5.1C2.3,0,0,2.3,0,5.1v7.8h236V5.1C236,2.3,233.7,0,230.9,0z"/>
		<path id="Trazado_10314" class="st5" d="M21.5,9.3L21.5,9.3c-1.3,0-2.4-1.1-2.4-2.4c0,0,0,0,0,0l0,0c0-1.3,1.1-2.4,2.4-2.4l0,0
			c1.3,0,2.4,1.1,2.4,2.4l0,0C23.8,8.3,22.8,9.3,21.5,9.3C21.5,9.3,21.5,9.3,21.5,9.3z"/>
		<path id="Trazado_10315" class="st5" d="M13.9,9.3L13.9,9.3c-1.3,0-2.4-1-2.4-2.3c0,0,0,0,0,0l0,0c0-1.3,1.1-2.4,2.4-2.4
			c0,0,0,0,0,0l0,0c1.3,0,2.4,1.1,2.4,2.4l0,0C16.3,8.3,15.2,9.3,13.9,9.3C13.9,9.3,13.9,9.3,13.9,9.3z"/>
		<path id="Trazado_10316" class="st5" d="M5.9,9.3L5.9,9.3c-1.3,0-2.4-1-2.4-2.3c0,0,0,0,0,0l0,0c0-1.3,1.1-2.4,2.4-2.4
			c0,0,0,0,0,0l0,0c1.3,0,2.4,1.1,2.4,2.4l0,0C8.2,8.3,7.2,9.3,5.9,9.3C5.9,9.3,5.9,9.3,5.9,9.3z"/>
		<g id="Grupo_10796" transform="translate(11.228 22.861)">
			<rect id="Rectángulo_3091" x="1" y="96.7" class="st12" width="72" height="3.2"/>
			<rect id="Rectángulo_3092" x="79.2" y="96.7" class="st13" width="36.6" height="3.2"/>
			<rect id="Rectángulo_3093" x="76.6" y="31.4" class="st12" width="36.6" height="3.2"/>
			<rect id="Rectángulo_3094" x="147.5" y="10.5" class="st12" width="36.6" height="3.2"/>
			<rect id="Rectángulo_3095" x="80.7" y="41.8" class="st13" width="61.6" height="3.2"/>
			<rect id="Rectángulo_3096" x="80.7" y="10.5" class="st12" width="61.6" height="3.2"/>
			<rect id="Rectángulo_3097" x="1" y="86.3" class="st12" width="72" height="3.2"/>
			<rect id="Rectángulo_3098" x="133.9" y="75.7" class="st12" width="72" height="3.2"/>
			<rect id="Rectángulo_3099" x="1" y="75.7" class="st12" width="127.5" height="3.2"/>
			<rect id="Rectángulo_3100" x="85.5" y="54.9" class="st12" width="127.5" height="3.2"/>
			<rect id="Rectángulo_3101" x="1" y="65.4" class="st13" width="82.9" height="3.2"/>
			<rect id="Rectángulo_3102" x="1" y="54.9" class="st12" width="72" height="3.2"/>
			<rect id="Rectángulo_3103" x="0" y="41.8" class="st12" width="72" height="3.2"/>
			<rect id="Rectángulo_3104" x="0" y="31.4" class="st12" width="72" height="3.2"/>
			<rect id="Rectángulo_3105" x="0" y="20.8" class="st12" width="38.2" height="3.2"/>
			<rect id="Rectángulo_3106" x="0" y="10.5" class="st13" width="72" height="3.2"/>
			<rect id="Rectángulo_3107" x="0" y="0" class="st12" width="72" height="3.2"/>
		</g>
	</g>
</g>
<g>
	<path class="st5" d="M67.9,214.9c1.5-0.2,3.4-0.5,5.8-0.5c3,0,5.2,0.7,6.6,2c1.3,1.1,2.1,2.8,2.1,4.9c0,2.1-0.6,3.8-1.8,5
		c-1.6,1.7-4.2,2.6-7.2,2.6c-0.9,0-1.7,0-2.4-0.2v9.4h-3V214.9z M71,226.3c0.7,0.2,1.5,0.2,2.5,0.2c3.7,0,5.9-1.8,5.9-5
		c0-3.1-2.2-4.6-5.6-4.6c-1.3,0-2.3,0.1-2.9,0.2V226.3z"/>
	<path class="st5" d="M87.7,221.3l3.7,10c0.4,1.1,0.8,2.4,1.1,3.5h0.1c0.3-1,0.7-2.3,1.1-3.5l3.4-9.9h3.3l-4.6,12.1
		c-2.2,5.8-3.7,8.8-5.8,10.6c-1.5,1.3-3,1.9-3.8,2l-0.8-2.6c0.8-0.2,1.8-0.7,2.7-1.5c0.8-0.7,1.9-1.9,2.6-3.4
		c0.1-0.3,0.2-0.6,0.2-0.7s-0.1-0.4-0.2-0.8l-6.3-15.6H87.7z"/>
	<path class="st5" d="M106.8,216.4v4.9h4.4v2.3h-4.4v9.1c0,2.1,0.6,3.3,2.3,3.3c0.8,0,1.4-0.1,1.8-0.2l0.1,2.3
		c-0.6,0.2-1.5,0.4-2.7,0.4c-1.4,0-2.6-0.5-3.3-1.3c-0.9-0.9-1.2-2.4-1.2-4.4v-9.2h-2.6v-2.3h2.6v-4.1L106.8,216.4z"/>
	<path class="st5" d="M114.6,213.4h3.1v10.6h0.1c0.5-0.9,1.3-1.6,2.2-2.2c0.9-0.5,2-0.9,3.1-0.9c2.3,0,5.9,1.4,5.9,7.2v10.1H126
		v-9.7c0-2.7-1-5-3.9-5c-2,0-3.6,1.4-4.1,3.1c-0.2,0.4-0.2,0.9-0.2,1.5v10.2h-3.1V213.4z"/>
	<path class="st5" d="M149.3,229.6c0,6.3-4.3,9-8.4,9c-4.6,0-8.1-3.4-8.1-8.7c0-5.7,3.7-9,8.4-9
		C146.1,220.9,149.3,224.4,149.3,229.6z M135.9,229.8c0,3.7,2.1,6.5,5.1,6.5c2.9,0,5.1-2.8,5.1-6.6c0-2.9-1.4-6.5-5.1-6.5
		C137.5,223.2,135.9,226.5,135.9,229.8z"/>
	<path class="st5" d="M153.2,225.8c0-1.7,0-3.2-0.1-4.6h2.7l0.2,2.8h0.1c0.8-1.6,2.8-3.2,5.6-3.2c2.3,0,6,1.4,6,7.2v10.1h-3.1v-9.8
		c0-2.7-1-5-3.9-5c-2,0-3.6,1.4-4.1,3.1c-0.1,0.4-0.2,0.9-0.2,1.4v10.2h-3.1V225.8z"/>
</g>
</svg>
