<svg id="Layer_1" data-name="Layer 1" xmlns="http://www.w3.org/2000/svg" xmlns:xlink="http://www.w3.org/1999/xlink" width="612.78" height="245.28" viewBox="0 0 612.78 245.28">
  <defs>
    <style>
      .cls-1 {
        fill: #646464;
      }

      .cls-2 {
        fill: url(#linear-gradient);
      }

      .cls-3 {
        fill: url(#linear-gradient-2);
      }

      .cls-4 {
        opacity: 0.44;
        isolation: isolate;
        fill: url(#radial-gradient);
      }
    </style>
    <linearGradient id="linear-gradient" x1="179.05" y1="-16.07" x2="288.07" y2="-109.86" gradientTransform="matrix(0.56, 0, 0, -0.57, -34.45, 50.95)" gradientUnits="userSpaceOnUse">
      <stop offset="0" stop-color="#5a9fd4"/>
      <stop offset="1" stop-color="#306998"/>
    </linearGradient>
    <linearGradient id="linear-gradient-2" x1="330.22" y1="-166.63" x2="291.29" y2="-111.55" gradientTransform="matrix(0.56, 0, 0, -0.57, -34.45, 50.95)" gradientUnits="userSpaceOnUse">
      <stop offset="0" stop-color="#ffd43b"/>
      <stop offset="1" stop-color="#ffe873"/>
    </linearGradient>
    <radialGradient id="radial-gradient" cx="-1022.22" cy="144.34" r="29.04" gradientTransform="matrix(0, -0.24, -1.05, 0, 277.04, -60.66)" gradientUnits="userSpaceOnUse">
      <stop offset="0" stop-color="#b8b8b8" stop-opacity="0.5"/>
      <stop offset="1" stop-color="#7f7f7f" stop-opacity="0"/>
    </radialGradient>
  </defs>
  <g id="g2303">
    <path id="path46" class="cls-1" d="M248,112.41Q248,90.56,235.55,90a23.33,23.33,0,0,0-9.67,1.59,14,14,0,0,0-5.07,2.68V129q8,5,14.14,4.64Q248,132.76,248,112.41Zm10.24.6q0,11.1-5.22,18.42A19.27,19.27,0,0,1,236.86,140q-7.8.25-16.05-4.87v31.59l-8.91-3.18V93.38a20,20,0,0,1,5.62-4.64q7.95-4.63,19.33-4.76l.13.13a17.72,17.72,0,0,1,16,8.53Q258.25,100.58,258.25,113Z"/>
    <path id="path48" class="cls-1" d="M312.7,133.74q0,14.89-3,20.62t-11.41,9.14a43.71,43.71,0,0,1-14.76,2.93l-1.47-5.61a70.83,70.83,0,0,0,11.34-2.19c4.32-1.47,7.28-3.71,8.91-6.71,1.31-2.45,1.95-7.12,1.95-14v-2.32a45.75,45.75,0,0,1-19.15,4.15,17.59,17.59,0,0,1-11.59-4.15,14.1,14.1,0,0,1-5.62-11.46V87l8.91-3v37.33q0,6,3.86,9.21a14.66,14.66,0,0,0,10,3.11q6.13-.13,13.11-4.76V85.33h8.91Z"/>
    <path id="path50" class="cls-1" d="M347.48,139.47c-1.06.09-2,.13-2.93.13q-7.56,0-11.78-3.61t-4.2-10V90.93h-6.1v-5.6h6.1V70.44l8.9-3.16v18h10v5.6h-10v34.85q0,5,2.69,7.1c1.54,1.14,4,1.79,7.32,2Z"/>
    <path id="path52" class="cls-1" d="M401.42,138.74h-8.91V104.36a16.24,16.24,0,0,0-2.45-9,8.89,8.89,0,0,0-7.84-4.27q-6.14,0-15.33,6.46v41.22H358V56.55l8.9-2.81V91.18A31,31,0,0,1,385.56,85,14.86,14.86,0,0,1,397,89.72a16.7,16.7,0,0,1,4.4,11.83v37.19Z"/>
    <path id="path54" class="cls-1" d="M448.77,111q0-8.39-3.18-13.87a13.29,13.29,0,0,0-11.7-7q-14.65.84-14.64,21,0,9.22,3.06,15.41c2.61,5.25,6.53,7.85,11.75,7.76Q448.78,134.11,448.77,111Zm9.76.06q0,11.94-6.1,19.89-6.72,8.88-18.54,8.89T415.58,131q-6-7.95-6-19.89,0-11.22,6.46-18.91A22.26,22.26,0,0,1,434,84a22.65,22.65,0,0,1,18.07,8.17Q458.52,99.85,458.53,111.06Z"/>
    <path id="path56" class="cls-1" d="M509.6,138.74h-8.91V102.41q0-6-3.59-9.34c-2.4-2.23-5.6-3.32-9.58-3.23A21.44,21.44,0,0,0,475.44,94v44.76h-8.91V92.88q7.7-5.59,14.15-7.31A43.32,43.32,0,0,1,491.42,84a27.85,27.85,0,0,1,6,.62,17.25,17.25,0,0,1,8.54,4.51,11.93,11.93,0,0,1,3.66,8.78Z"/>
    <path id="path1948" class="cls-2" d="M123.91,56.87A77.74,77.74,0,0,0,111.09,58c-11.34,2-13.4,6.2-13.4,13.94V82.12H124.5v3.41H87.63c-7.8,0-14.62,4.68-16.75,13.59-2.47,10.22-2.58,16.59,0,27.26,1.9,7.93,6.45,13.59,14.25,13.59h9.21V127.72a17,17,0,0,1,16.75-16.66h26.79a13.51,13.51,0,0,0,13.4-13.62V71.91c0-7.27-6.13-12.73-13.4-13.94A83.51,83.51,0,0,0,123.91,56.87Zm-14.5,8.22a5.11,5.11,0,1,1-5,5.13A5.09,5.09,0,0,1,109.41,65.09Z"/>
    <path id="path1950" class="cls-3" d="M154.63,85.53V97.44c0,9.23-7.83,17-16.75,17H111.09a13.68,13.68,0,0,0-13.4,13.62v25.53c0,7.27,6.32,11.54,13.4,13.63a44.91,44.91,0,0,0,26.79,0c6.75-2,13.4-5.89,13.4-13.63V143.38H124.5V140h40.19c7.79,0,10.69-5.44,13.4-13.59,2.8-8.4,2.68-16.48,0-27.26-1.92-7.75-5.6-13.59-13.4-13.59Zm-15.07,64.66a5.11,5.11,0,1,1-5,5.09A5.05,5.05,0,0,1,139.56,150.19Z"/>
    <path id="text3004" class="cls-1" d="M527,77.39h1.56v-9.8h3.7V66.42h-9v1.17H527v9.8m6.65,0h1.33v-9l2.9,9h1.48l3-8.92v8.92h1.46v-11h-1.93l-3.3,9.39-2.81-9.39H533.6v11"/>
    <path id="path1894" class="cls-4" d="M160.74,184.57c0,3.85-16.09,7-35.93,7s-35.94-3.12-35.94-7,16.09-7,35.94-7,35.93,3.12,35.93,7Z"/>
  </g>
</svg>
