<?xml version="1.0" encoding="utf-8"?>
<!-- Generator: Adobe Illustrator 25.0.1, SVG Export Plug-In . SVG Version: 6.00 Build 0)  -->
<svg version="1.1" id="Layer_1" xmlns="http://www.w3.org/2000/svg" xmlns:xlink="http://www.w3.org/1999/xlink" x="0px" y="0px"
	 viewBox="0 0 965 328" style="enable-background:new 0 0 965 328;" xml:space="preserve">
<style type="text/css">
	.st0{fill:none;stroke:#FF0000;stroke-width:3;}
	.st1{enable-background:new    ;}
	.st2{fill:#FF0000;}
	.st3{fill:none;}
	.st4{fill:none;stroke:#808080;stroke-dasharray:5,5;}
	.st5{fill:#FFFFFF;}
</style>
<line class="st0" x1="85" y1="109" x2="330" y2="109"/>
<line class="st0" x1="330" y1="104" x2="330" y2="114"/>
<g class="st1">
	<path class="st2" d="M11.1,114v-11.2h3.6c1.4,0,2.3,0.1,2.7,0.2c0.6,0.2,1.2,0.5,1.6,1.1s0.6,1.3,0.6,2.2c0,0.7-0.1,1.3-0.4,1.7
		c-0.2,0.5-0.6,0.8-0.9,1.1c-0.4,0.3-0.8,0.4-1.2,0.5c-0.5,0.1-1.3,0.2-2.3,0.2h-1.5v4.2H11.1z M13.4,104.7v3.2h1.2
		c0.9,0,1.5-0.1,1.8-0.2c0.3-0.1,0.5-0.3,0.7-0.5s0.3-0.5,0.3-0.9s-0.1-0.7-0.4-1c-0.2-0.3-0.5-0.4-0.9-0.5
		c-0.3-0.1-0.8-0.1-1.6-0.1H13.4z"/>
	<path class="st2" d="M20.5,105.9h2.3l1.9,5.7l1.9-5.7h2.2l-2.8,7.8l-0.5,1.4c-0.2,0.5-0.4,0.8-0.5,1.1c-0.2,0.2-0.4,0.5-0.6,0.6
		c-0.2,0.2-0.5,0.3-0.8,0.4s-0.7,0.1-1.1,0.1s-0.8,0-1.2-0.1l-0.3-1.7c0.3,0.1,0.6,0.1,0.9,0.1c0.5,0,0.9-0.1,1.1-0.4
		s0.4-0.7,0.5-1.1L20.5,105.9z"/>
	<path class="st2" d="M33.9,105.9v1.7h-1.5v3.3c0,0.7,0,1,0,1.2s0.1,0.2,0.2,0.3c0.1,0.1,0.2,0.1,0.4,0.1s0.5-0.1,0.9-0.2l0.2,1.7
		c-0.5,0.2-1.1,0.3-1.7,0.3c-0.4,0-0.7-0.1-1-0.2s-0.5-0.3-0.7-0.5c-0.1-0.2-0.2-0.5-0.3-0.8c0-0.2-0.1-0.8-0.1-1.5v-3.5h-1v-1.7h1
		v-1.6l2.1-1.2v2.9h1.5V105.9z"/>
	<path class="st2" d="M37.5,102.8v4.1c0.7-0.8,1.5-1.2,2.5-1.2c0.5,0,0.9,0.1,1.3,0.3s0.7,0.4,0.9,0.7c0.2,0.3,0.3,0.6,0.4,0.9
		c0.1,0.3,0.1,0.9,0.1,1.6v4.8h-2.1v-4.3c0-0.8,0-1.4-0.1-1.6s-0.2-0.4-0.4-0.5s-0.5-0.2-0.8-0.2c-0.4,0-0.7,0.1-1,0.3
		c-0.3,0.2-0.5,0.4-0.6,0.8s-0.2,0.9-0.2,1.5v4h-2.1v-11.2H37.5z"/>
	<path class="st2" d="M44.4,109.8c0-0.7,0.2-1.4,0.5-2.1c0.4-0.7,0.8-1.2,1.5-1.5c0.6-0.3,1.4-0.5,2.2-0.5c1.2,0,2.2,0.4,3,1.2
		c0.8,0.8,1.2,1.8,1.2,3s-0.4,2.2-1.2,3s-1.8,1.2-3,1.2c-0.7,0-1.4-0.2-2.1-0.5c-0.7-0.3-1.2-0.8-1.5-1.5
		C44.6,111.6,44.4,110.8,44.4,109.8z M46.6,110c0,0.8,0.2,1.4,0.6,1.8s0.9,0.6,1.4,0.6s1-0.2,1.4-0.6s0.6-1,0.6-1.9
		c0-0.8-0.2-1.4-0.6-1.8c-0.4-0.4-0.8-0.6-1.4-0.6s-1,0.2-1.4,0.6C46.8,108.5,46.6,109.2,46.6,110z"/>
	<path class="st2" d="M61.8,114h-2.1v-4.1c0-0.9,0-1.4-0.1-1.7c-0.1-0.3-0.2-0.5-0.4-0.6s-0.5-0.2-0.7-0.2c-0.4,0-0.7,0.1-1,0.3
		s-0.5,0.5-0.6,0.8s-0.2,1-0.2,1.9v3.6h-2.1v-8.1h2v1.2c0.7-0.9,1.6-1.4,2.7-1.4c0.5,0,0.9,0.1,1.3,0.3c0.4,0.2,0.7,0.4,0.9,0.7
		c0.2,0.3,0.3,0.6,0.4,0.9s0.1,0.8,0.1,1.4v5H61.8z"/>
	<path class="st2" d="M73.3,114h-2.1v-8.1c-0.8,0.7-1.7,1.3-2.8,1.6v-1.9c0.6-0.2,1.2-0.5,1.8-1c0.7-0.5,1.1-1.1,1.3-1.8h1.7
		L73.3,114L73.3,114z"/>
</g>
<line class="st0" x1="85" y1="169" x2="605" y2="169"/>
<line class="st0" x1="605" y1="169" x2="890" y2="169"/>
<line class="st0" x1="890" y1="164" x2="890" y2="174"/>
<g class="st1">
	<path class="st2" d="M11.1,174v-11.2h3.6c1.4,0,2.3,0.1,2.7,0.2c0.6,0.2,1.2,0.5,1.6,1.1c0.4,0.6,0.6,1.3,0.6,2.2
		c0,0.7-0.1,1.3-0.4,1.7c-0.2,0.5-0.6,0.8-0.9,1.1c-0.4,0.3-0.8,0.4-1.2,0.5c-0.5,0.1-1.3,0.2-2.3,0.2h-1.5v4.2H11.1z M13.4,164.7
		v3.2h1.2c0.9,0,1.5-0.1,1.8-0.2c0.3-0.1,0.5-0.3,0.7-0.5s0.3-0.5,0.3-0.9c0-0.4-0.1-0.7-0.4-1c-0.2-0.3-0.5-0.4-0.9-0.5
		c-0.3-0.1-0.8-0.1-1.6-0.1H13.4z"/>
	<path class="st2" d="M20.5,165.9h2.3l1.9,5.7l1.9-5.7h2.2l-2.9,7.8l-0.5,1.4c-0.2,0.5-0.4,0.8-0.5,1.1c-0.2,0.2-0.4,0.5-0.6,0.6
		c-0.2,0.2-0.5,0.3-0.8,0.4c-0.3,0.1-0.7,0.1-1.1,0.1s-0.8,0-1.2-0.1l-0.2-1.7c0.3,0.1,0.6,0.1,0.9,0.1c0.5,0,0.9-0.1,1.1-0.4
		c0.2-0.3,0.4-0.7,0.5-1.1L20.5,165.9z"/>
	<path class="st2" d="M33.9,165.9v1.7h-1.5v3.3c0,0.7,0,1,0,1.2s0.1,0.2,0.2,0.3c0.1,0.1,0.2,0.1,0.4,0.1s0.5-0.1,0.9-0.2l0.2,1.7
		c-0.5,0.2-1.1,0.3-1.7,0.3c-0.4,0-0.7-0.1-1-0.2c-0.3-0.1-0.5-0.3-0.7-0.5c-0.1-0.2-0.2-0.5-0.3-0.8c0-0.2-0.1-0.8-0.1-1.5v-3.5h-1
		v-1.7h1v-1.6l2.1-1.2v2.9h1.5V165.9z"/>
	<path class="st2" d="M37.5,162.8v4.1c0.7-0.8,1.5-1.2,2.5-1.2c0.5,0,0.9,0.1,1.3,0.3c0.4,0.2,0.7,0.4,0.9,0.7
		c0.2,0.3,0.3,0.6,0.4,0.9c0.1,0.3,0.1,0.9,0.1,1.6v4.7h-2.1v-4.3c0-0.8,0-1.4-0.1-1.6c-0.1-0.2-0.2-0.4-0.4-0.5s-0.5-0.2-0.8-0.2
		c-0.4,0-0.7,0.1-1,0.3s-0.5,0.4-0.6,0.8s-0.2,0.9-0.2,1.5v4.1h-2.1v-11.2L37.5,162.8L37.5,162.8z"/>
	<path class="st2" d="M44.4,169.8c0-0.7,0.2-1.4,0.5-2.1c0.4-0.7,0.8-1.2,1.5-1.5c0.6-0.3,1.4-0.5,2.2-0.5c1.2,0,2.2,0.4,3,1.2
		c0.8,0.8,1.2,1.8,1.2,3s-0.4,2.2-1.2,3s-1.8,1.2-3,1.2c-0.7,0-1.4-0.2-2.1-0.5c-0.7-0.3-1.2-0.8-1.5-1.5
		C44.6,171.6,44.4,170.8,44.4,169.8z M46.6,170c0,0.8,0.2,1.4,0.6,1.8s0.9,0.6,1.4,0.6s1-0.2,1.4-0.6s0.6-1,0.6-1.9
		c0-0.8-0.2-1.4-0.6-1.8c-0.4-0.4-0.8-0.6-1.4-0.6s-1,0.2-1.4,0.6C46.8,168.5,46.6,169.2,46.6,170z"/>
	<path class="st2" d="M61.8,174h-2.1v-4.1c0-0.9,0-1.4-0.1-1.7s-0.2-0.5-0.4-0.6s-0.5-0.2-0.7-0.2c-0.4,0-0.7,0.1-1,0.3
		s-0.5,0.5-0.6,0.8s-0.2,1-0.2,1.9v3.7h-2.1V166h2v1.2c0.7-0.9,1.6-1.4,2.7-1.4c0.5,0,0.9,0.1,1.3,0.3c0.4,0.2,0.7,0.4,0.9,0.7
		c0.2,0.3,0.3,0.6,0.4,0.9s0.1,0.8,0.1,1.4v4.9H61.8z"/>
	<path class="st2" d="M75.1,172v2h-7.5c0.1-0.8,0.3-1.5,0.7-2.1s1.2-1.6,2.4-2.7c1-0.9,1.6-1.5,1.8-1.8c0.3-0.4,0.4-0.9,0.4-1.3
		c0-0.5-0.1-0.8-0.4-1.1c-0.3-0.3-0.6-0.4-1.1-0.4c-0.4,0-0.8,0.1-1.1,0.4c-0.3,0.3-0.4,0.7-0.5,1.3l-2.1-0.2c0.1-1.2,0.5-2,1.2-2.5
		s1.5-0.8,2.5-0.8c1.1,0,2,0.3,2.6,0.9s0.9,1.3,0.9,2.2c0,0.5-0.1,1-0.3,1.4c-0.2,0.5-0.5,0.9-0.9,1.4c-0.3,0.3-0.7,0.8-1.4,1.4
		c-0.7,0.6-1.1,1-1.3,1.2s-0.3,0.4-0.4,0.6h4.5V172z"/>
</g>
<line class="st0" x1="85" y1="229" x2="800" y2="229"/>
<line class="st3" x1="800" y1="229" x2="970" y2="229"/>
<g class="st1">
	<path d="M11.1,234v-11.2h3.6c1.4,0,2.3,0.1,2.7,0.2c0.6,0.2,1.2,0.5,1.6,1.1s0.6,1.3,0.6,2.2c0,0.7-0.1,1.3-0.4,1.7
		c-0.2,0.5-0.6,0.8-0.9,1.1c-0.4,0.3-0.8,0.4-1.2,0.5c-0.5,0.1-1.3,0.2-2.3,0.2h-1.5v4.2H11.1z M13.4,224.7v3.2h1.2
		c0.9,0,1.5-0.1,1.8-0.2c0.3-0.1,0.5-0.3,0.7-0.5s0.3-0.5,0.3-0.9s-0.1-0.7-0.4-1c-0.2-0.3-0.5-0.4-0.9-0.5
		c-0.3-0.1-0.8-0.1-1.6-0.1H13.4z"/>
	<path d="M20.5,225.9h2.3l1.9,5.7l1.9-5.7h2.2l-2.9,7.8l-0.5,1.4c-0.2,0.5-0.4,0.8-0.5,1.1c-0.2,0.2-0.4,0.5-0.6,0.6
		c-0.2,0.2-0.5,0.3-0.8,0.4c-0.3,0.1-0.7,0.1-1.1,0.1s-0.8,0-1.2-0.1l-0.2-1.7c0.3,0.1,0.6,0.1,0.9,0.1c0.5,0,0.9-0.1,1.1-0.4
		c0.2-0.3,0.4-0.7,0.5-1.1L20.5,225.9z"/>
	<path d="M33.9,225.9v1.7h-1.5v3.3c0,0.7,0,1,0,1.2s0.1,0.2,0.2,0.3c0.1,0.1,0.2,0.1,0.4,0.1s0.5-0.1,0.9-0.2l0.2,1.7
		c-0.5,0.2-1.1,0.3-1.7,0.3c-0.4,0-0.7-0.1-1-0.2c-0.3-0.1-0.5-0.3-0.7-0.5c-0.1-0.2-0.2-0.5-0.3-0.8c0-0.2-0.1-0.8-0.1-1.5v-3.5h-1
		v-1.7h1v-1.6l2.1-1.2v2.9h1.5V225.9z"/>
	<path d="M37.5,222.8v4.1c0.7-0.8,1.5-1.2,2.5-1.2c0.5,0,0.9,0.1,1.3,0.3s0.7,0.4,0.9,0.7s0.3,0.6,0.4,0.9c0.1,0.3,0.1,0.9,0.1,1.6
		v4.7h-2.1v-4.3c0-0.8,0-1.4-0.1-1.6c-0.1-0.2-0.2-0.4-0.4-0.5s-0.5-0.2-0.8-0.2c-0.4,0-0.7,0.1-1,0.3s-0.5,0.4-0.6,0.8
		s-0.2,0.9-0.2,1.5v4.1h-2.1v-11.2L37.5,222.8L37.5,222.8z"/>
	<path d="M44.4,229.8c0-0.7,0.2-1.4,0.5-2.1c0.4-0.7,0.8-1.2,1.5-1.5c0.6-0.3,1.4-0.5,2.2-0.5c1.2,0,2.2,0.4,3,1.2s1.2,1.8,1.2,3
		s-0.4,2.2-1.2,3s-1.8,1.2-3,1.2c-0.7,0-1.4-0.2-2.1-0.5c-0.7-0.3-1.2-0.8-1.5-1.5C44.6,231.6,44.4,230.8,44.4,229.8z M46.6,230
		c0,0.8,0.2,1.4,0.6,1.8s0.9,0.6,1.4,0.6s1-0.2,1.4-0.6s0.6-1,0.6-1.9c0-0.8-0.2-1.4-0.6-1.8c-0.4-0.4-0.8-0.6-1.4-0.6
		s-1,0.2-1.4,0.6C46.8,228.5,46.6,229.2,46.6,230z"/>
	<path d="M61.8,234h-2.1v-4.1c0-0.9,0-1.4-0.1-1.7s-0.2-0.5-0.4-0.6s-0.5-0.2-0.7-0.2c-0.4,0-0.7,0.1-1,0.3s-0.5,0.5-0.6,0.8
		s-0.2,1-0.2,1.9v3.7h-2.1V226h2v1.2c0.7-0.9,1.6-1.4,2.7-1.4c0.5,0,0.9,0.1,1.3,0.3c0.4,0.2,0.7,0.4,0.9,0.7s0.3,0.6,0.4,0.9
		s0.1,0.8,0.1,1.4v4.9H61.8z"/>
	<path d="M67.8,231l2.1-0.3c0.1,0.5,0.2,0.9,0.5,1.2s0.6,0.4,1.1,0.4c0.4,0,0.8-0.2,1.1-0.5c0.3-0.3,0.5-0.8,0.5-1.4
		c0-0.5-0.1-1-0.4-1.3s-0.6-0.5-1.1-0.5c-0.3,0-0.6,0.1-1,0.2l0.2-1.7c0.6,0,1-0.1,1.3-0.4s0.5-0.6,0.5-1.1c0-0.4-0.1-0.7-0.3-0.9
		c-0.2-0.2-0.5-0.3-0.9-0.3s-0.7,0.1-0.9,0.4c-0.3,0.3-0.4,0.6-0.5,1.1l-2-0.3c0.1-0.7,0.3-1.2,0.6-1.6c0.3-0.4,0.7-0.7,1.2-1
		c0.5-0.2,1.1-0.3,1.7-0.3c1.1,0,1.9,0.3,2.5,1c0.5,0.5,0.8,1.2,0.8,1.9c0,1-0.5,1.8-1.6,2.3c0.6,0.1,1.2,0.4,1.5,0.9
		c0.4,0.5,0.6,1.1,0.6,1.7c0,1-0.4,1.8-1.1,2.5s-1.6,1-2.7,1c-1,0-1.8-0.3-2.5-0.9C68.3,232.7,67.9,232,67.8,231z"/>
</g>
<line class="st4" x1="110" y1="49" x2="110" y2="279"/>
<g class="st1">
	<path d="M119,57l1-0.1c0.1,0.5,0.2,0.8,0.5,1c0.3,0.2,0.6,0.3,0.9,0.3s0.6-0.1,0.9-0.2c0.3-0.1,0.4-0.3,0.6-0.6s0.3-0.6,0.4-1
		s0.2-0.9,0.2-1.3c0,0,0-0.1,0-0.2c-0.2,0.3-0.5,0.6-0.9,0.8c-0.4,0.2-0.8,0.3-1.2,0.3c-0.7,0-1.3-0.3-1.8-0.8s-0.7-1.2-0.7-2
		c0-0.9,0.3-1.6,0.8-2.1s1.2-0.8,1.9-0.8c0.6,0,1.1,0.2,1.5,0.5s0.8,0.7,1.1,1.3s0.4,1.4,0.4,2.4c0,1.1-0.1,2-0.4,2.6
		s-0.6,1.1-1.1,1.5s-1,0.5-1.7,0.5s-1.2-0.2-1.6-0.6C119.4,58.1,119.1,57.7,119,57z M123.3,53.2c0-0.6-0.2-1.1-0.5-1.4
		s-0.7-0.5-1.2-0.5s-0.9,0.2-1.2,0.6s-0.5,0.9-0.5,1.5c0,0.5,0.2,1,0.5,1.3s0.7,0.5,1.2,0.5s0.9-0.2,1.2-0.5S123.3,53.8,123.3,53.2z
		"/>
	<path d="M128.9,59v-2.1h-3.7v-1l3.9-5.6h0.9V56h1.2v1H130v2H128.9z M128.9,56v-3.9l-2.7,3.9H128.9z"/>
</g>
<g class="st1">
	<path d="M119,267l1-0.1c0.1,0.5,0.2,0.8,0.5,1s0.6,0.3,0.9,0.3s0.6-0.1,0.9-0.2s0.4-0.3,0.6-0.6s0.3-0.6,0.4-1s0.2-0.9,0.2-1.3
		c0,0,0-0.1,0-0.2c-0.2,0.3-0.5,0.6-0.9,0.8c-0.4,0.2-0.8,0.3-1.2,0.3c-0.7,0-1.3-0.3-1.8-0.8s-0.7-1.2-0.7-2c0-0.9,0.3-1.6,0.8-2.1
		s1.2-0.8,1.9-0.8c0.6,0,1.1,0.2,1.5,0.5s0.8,0.7,1.1,1.3c0.3,0.6,0.4,1.4,0.4,2.4c0,1.1-0.1,2-0.4,2.6c-0.3,0.6-0.6,1.1-1.1,1.5
		c-0.5,0.4-1,0.5-1.7,0.5s-1.2-0.2-1.6-0.6C119.4,268.1,119.1,267.7,119,267z M123.3,263.2c0-0.6-0.2-1.1-0.5-1.4s-0.7-0.5-1.2-0.5
		s-0.9,0.2-1.2,0.6c-0.3,0.4-0.5,0.9-0.5,1.5c0,0.5,0.2,1,0.5,1.3s0.7,0.5,1.2,0.5s0.9-0.2,1.2-0.5S123.3,263.8,123.3,263.2z"/>
	<path d="M128.9,269v-2.1h-3.7v-1l3.9-5.6h0.9v5.6h1.2v1H130v2.1H128.9z M128.9,266v-3.9l-2.7,3.9H128.9z"/>
</g>
<line class="st4" x1="140" y1="49" x2="140" y2="279"/>
<g class="st1">
	<path d="M149,57l1-0.1c0.1,0.5,0.2,0.8,0.5,1c0.3,0.2,0.6,0.3,0.9,0.3c0.3,0,0.6-0.1,0.9-0.2c0.3-0.1,0.4-0.3,0.6-0.6
		s0.3-0.6,0.4-1s0.2-0.9,0.2-1.3c0,0,0-0.1,0-0.2c-0.2,0.3-0.5,0.6-0.9,0.8c-0.4,0.2-0.8,0.3-1.2,0.3c-0.7,0-1.3-0.3-1.8-0.8
		s-0.7-1.2-0.7-2c0-0.9,0.3-1.6,0.8-2.1s1.2-0.8,1.9-0.8c0.6,0,1.1,0.2,1.5,0.5s0.8,0.7,1.1,1.3s0.4,1.4,0.4,2.4
		c0,1.1-0.1,2-0.4,2.6s-0.6,1.1-1.1,1.5s-1,0.5-1.7,0.5s-1.2-0.2-1.6-0.6C149.4,58.1,149.1,57.7,149,57z M153.3,53.2
		c0-0.6-0.2-1.1-0.5-1.4s-0.7-0.5-1.2-0.5s-0.9,0.2-1.2,0.6s-0.5,0.9-0.5,1.5c0,0.5,0.2,1,0.5,1.3s0.7,0.5,1.2,0.5s0.9-0.2,1.2-0.5
		S153.3,53.8,153.3,53.2z"/>
	<path d="M155.5,56.8l1.1-0.1c0.1,0.5,0.3,0.9,0.6,1.2c0.3,0.3,0.7,0.4,1.1,0.4c0.5,0,0.9-0.2,1.3-0.6c0.4-0.4,0.5-0.9,0.5-1.5
		c0-0.6-0.2-1.1-0.5-1.4s-0.8-0.5-1.3-0.5c-0.3,0-0.6,0.1-0.9,0.2s-0.5,0.4-0.6,0.6l-1-0.1l0.8-4.4h4.3v1h-3.4l-0.5,2.3
		c0.5-0.4,1.1-0.5,1.6-0.5c0.8,0,1.4,0.3,1.9,0.8s0.8,1.2,0.8,2c0,0.8-0.2,1.4-0.7,2c-0.6,0.7-1.3,1-2.3,1c-0.8,0-1.4-0.2-1.9-0.7
		S155.6,57.5,155.5,56.8z"/>
</g>
<g class="st1">
	<path d="M149,267l1-0.1c0.1,0.5,0.2,0.8,0.5,1s0.6,0.3,0.9,0.3c0.3,0,0.6-0.1,0.9-0.2s0.4-0.3,0.6-0.6s0.3-0.6,0.4-1
		s0.2-0.9,0.2-1.3c0,0,0-0.1,0-0.2c-0.2,0.3-0.5,0.6-0.9,0.8c-0.4,0.2-0.8,0.3-1.2,0.3c-0.7,0-1.3-0.3-1.8-0.8s-0.7-1.2-0.7-2
		c0-0.9,0.3-1.6,0.8-2.1s1.2-0.8,1.9-0.8c0.6,0,1.1,0.2,1.5,0.5s0.8,0.7,1.1,1.3c0.3,0.6,0.4,1.4,0.4,2.4c0,1.1-0.1,2-0.4,2.6
		c-0.3,0.6-0.6,1.1-1.1,1.5c-0.5,0.4-1,0.5-1.7,0.5s-1.2-0.2-1.6-0.6C149.4,268.1,149.1,267.7,149,267z M153.3,263.2
		c0-0.6-0.2-1.1-0.5-1.4s-0.7-0.5-1.2-0.5s-0.9,0.2-1.2,0.6c-0.3,0.4-0.5,0.9-0.5,1.5c0,0.5,0.2,1,0.5,1.3s0.7,0.5,1.2,0.5
		s0.9-0.2,1.2-0.5S153.3,263.8,153.3,263.2z"/>
	<path d="M155.5,266.8l1.1-0.1c0.1,0.5,0.3,0.9,0.6,1.2s0.7,0.4,1.1,0.4c0.5,0,0.9-0.2,1.3-0.6s0.5-0.9,0.5-1.5s-0.2-1.1-0.5-1.4
		s-0.8-0.5-1.3-0.5c-0.3,0-0.6,0.1-0.9,0.2c-0.3,0.1-0.5,0.4-0.6,0.6l-1-0.1l0.8-4.4h4.3v1h-3.4l-0.5,2.3c0.5-0.4,1.1-0.5,1.6-0.5
		c0.8,0,1.4,0.3,1.9,0.8s0.8,1.2,0.8,2c0,0.8-0.2,1.4-0.7,2c-0.6,0.7-1.3,1-2.3,1c-0.8,0-1.4-0.2-1.9-0.7S155.6,267.5,155.5,266.8z"
		/>
</g>
<line class="st4" x1="170" y1="49" x2="170" y2="279"/>
<g class="st1">
	<path d="M179,57l1-0.1c0.1,0.5,0.2,0.8,0.5,1c0.3,0.2,0.6,0.3,0.9,0.3c0.3,0,0.6-0.1,0.9-0.2c0.3-0.1,0.4-0.3,0.6-0.6
		s0.3-0.6,0.4-1s0.2-0.9,0.2-1.3c0,0,0-0.1,0-0.2c-0.2,0.3-0.5,0.6-0.9,0.8c-0.4,0.2-0.8,0.3-1.2,0.3c-0.7,0-1.3-0.3-1.8-0.8
		s-0.7-1.2-0.7-2c0-0.9,0.3-1.6,0.8-2.1s1.2-0.8,1.9-0.8c0.6,0,1.1,0.2,1.5,0.5s0.8,0.7,1.1,1.3s0.4,1.4,0.4,2.4
		c0,1.1-0.1,2-0.4,2.6s-0.6,1.1-1.1,1.5s-1,0.5-1.7,0.5s-1.2-0.2-1.6-0.6C179.4,58.1,179.1,57.7,179,57z M183.3,53.2
		c0-0.6-0.2-1.1-0.5-1.4s-0.7-0.5-1.2-0.5s-0.9,0.2-1.2,0.6s-0.5,0.9-0.5,1.5c0,0.5,0.2,1,0.5,1.3s0.7,0.5,1.2,0.5s0.9-0.2,1.2-0.5
		S183.3,53.8,183.3,53.2z"/>
	<path d="M191,52.5l-1,0.1c-0.1-0.4-0.2-0.7-0.4-0.9c-0.3-0.3-0.6-0.5-1.1-0.5c-0.3,0-0.6,0.1-0.9,0.3c-0.3,0.2-0.6,0.6-0.8,1.1
		s-0.3,1.1-0.3,2c0.3-0.4,0.6-0.7,0.9-0.9s0.8-0.3,1.2-0.3c0.7,0,1.3,0.3,1.8,0.8s0.7,1.2,0.7,2c0,0.5-0.1,1-0.3,1.5s-0.6,0.8-1,1.1
		c-0.4,0.3-0.9,0.4-1.4,0.4c-0.9,0-1.6-0.3-2.2-1s-0.8-1.7-0.8-3.2c0-1.7,0.3-2.9,0.9-3.6c0.5-0.7,1.3-1,2.2-1
		c0.7,0,1.2,0.2,1.7,0.6S190.9,51.8,191,52.5z M186.7,56.2c0,0.4,0.1,0.7,0.2,1s0.4,0.6,0.6,0.8s0.6,0.3,0.9,0.3
		c0.4,0,0.8-0.2,1.1-0.5s0.5-0.8,0.5-1.5c0-0.6-0.2-1.1-0.5-1.4c-0.3-0.3-0.7-0.5-1.2-0.5s-0.9,0.2-1.2,0.5
		C186.8,55.2,186.7,55.7,186.7,56.2z"/>
</g>
<g class="st1">
	<path d="M179,267l1-0.1c0.1,0.5,0.2,0.8,0.5,1s0.6,0.3,0.9,0.3c0.3,0,0.6-0.1,0.9-0.2s0.4-0.3,0.6-0.6s0.3-0.6,0.4-1
		s0.2-0.9,0.2-1.3c0,0,0-0.1,0-0.2c-0.2,0.3-0.5,0.6-0.9,0.8c-0.4,0.2-0.8,0.3-1.2,0.3c-0.7,0-1.3-0.3-1.8-0.8s-0.7-1.2-0.7-2
		c0-0.9,0.3-1.6,0.8-2.1s1.2-0.8,1.9-0.8c0.6,0,1.1,0.2,1.5,0.5s0.8,0.7,1.1,1.3c0.3,0.6,0.4,1.4,0.4,2.4c0,1.1-0.1,2-0.4,2.6
		c-0.3,0.6-0.6,1.1-1.1,1.5c-0.5,0.4-1,0.5-1.7,0.5s-1.2-0.2-1.6-0.6C179.4,268.1,179.1,267.7,179,267z M183.3,263.2
		c0-0.6-0.2-1.1-0.5-1.4s-0.7-0.5-1.2-0.5s-0.9,0.2-1.2,0.6c-0.3,0.4-0.5,0.9-0.5,1.5c0,0.5,0.2,1,0.5,1.3s0.7,0.5,1.2,0.5
		s0.9-0.2,1.2-0.5S183.3,263.8,183.3,263.2z"/>
	<path d="M191,262.5l-1,0.1c-0.1-0.4-0.2-0.7-0.4-0.9c-0.3-0.3-0.6-0.5-1.1-0.5c-0.3,0-0.6,0.1-0.9,0.3c-0.3,0.2-0.6,0.6-0.8,1.1
		s-0.3,1.1-0.3,2c0.3-0.4,0.6-0.7,0.9-0.9c0.3-0.2,0.8-0.3,1.2-0.3c0.7,0,1.3,0.3,1.8,0.8s0.7,1.2,0.7,2c0,0.5-0.1,1-0.3,1.5
		s-0.6,0.8-1,1.1c-0.4,0.3-0.9,0.4-1.4,0.4c-0.9,0-1.6-0.3-2.2-1c-0.6-0.7-0.8-1.7-0.8-3.2c0-1.7,0.3-2.9,0.9-3.6
		c0.5-0.7,1.3-1,2.2-1c0.7,0,1.2,0.2,1.7,0.6S190.9,261.8,191,262.5z M186.7,266.2c0,0.4,0.1,0.7,0.2,1c0.1,0.3,0.4,0.6,0.6,0.8
		s0.6,0.3,0.9,0.3c0.4,0,0.8-0.2,1.1-0.5c0.3-0.3,0.5-0.8,0.5-1.5c0-0.6-0.2-1.1-0.5-1.4s-0.7-0.5-1.2-0.5s-0.9,0.2-1.2,0.5
		C186.8,265.2,186.7,265.7,186.7,266.2z"/>
</g>
<line class="st4" x1="200" y1="49" x2="200" y2="279"/>
<g class="st1">
	<path d="M209,57l1-0.1c0.1,0.5,0.2,0.8,0.5,1c0.3,0.2,0.6,0.3,0.9,0.3c0.3,0,0.6-0.1,0.9-0.2c0.3-0.1,0.4-0.3,0.6-0.6
		s0.3-0.6,0.4-1s0.2-0.9,0.2-1.3c0,0,0-0.1,0-0.2c-0.2,0.3-0.5,0.6-0.9,0.8c-0.4,0.2-0.8,0.3-1.2,0.3c-0.7,0-1.3-0.3-1.8-0.8
		s-0.7-1.2-0.7-2c0-0.9,0.3-1.6,0.8-2.1s1.2-0.8,1.9-0.8c0.6,0,1.1,0.2,1.5,0.5s0.8,0.7,1.1,1.3s0.4,1.4,0.4,2.4
		c0,1.1-0.1,2-0.4,2.6s-0.6,1.1-1.1,1.5s-1,0.5-1.7,0.5s-1.2-0.2-1.6-0.6C209.4,58.1,209.1,57.7,209,57z M213.3,53.2
		c0-0.6-0.2-1.1-0.5-1.4s-0.7-0.5-1.2-0.5s-0.9,0.2-1.2,0.6s-0.5,0.9-0.5,1.5c0,0.5,0.2,1,0.5,1.3s0.7,0.5,1.2,0.5s0.9-0.2,1.2-0.5
		S213.3,53.8,213.3,53.2z"/>
	<path d="M215.6,51.5v-1h5.6v0.8c-0.5,0.6-1.1,1.4-1.6,2.3c-0.5,0.9-1,2-1.2,3c-0.2,0.7-0.3,1.5-0.4,2.4h-1.1c0-0.7,0.1-1.5,0.4-2.4
		c0.3-0.9,0.6-1.9,1.1-2.8c0.5-0.9,1-1.6,1.5-2.2L215.6,51.5L215.6,51.5z"/>
</g>
<g class="st1">
	<path d="M209,267l1-0.1c0.1,0.5,0.2,0.8,0.5,1s0.6,0.3,0.9,0.3c0.3,0,0.6-0.1,0.9-0.2s0.4-0.3,0.6-0.6s0.3-0.6,0.4-1
		s0.2-0.9,0.2-1.3c0,0,0-0.1,0-0.2c-0.2,0.3-0.5,0.6-0.9,0.8c-0.4,0.2-0.8,0.3-1.2,0.3c-0.7,0-1.3-0.3-1.8-0.8s-0.7-1.2-0.7-2
		c0-0.9,0.3-1.6,0.8-2.1s1.2-0.8,1.9-0.8c0.6,0,1.1,0.2,1.5,0.5s0.8,0.7,1.1,1.3c0.3,0.6,0.4,1.4,0.4,2.4c0,1.1-0.1,2-0.4,2.6
		c-0.3,0.6-0.6,1.1-1.1,1.5c-0.5,0.4-1,0.5-1.7,0.5s-1.2-0.2-1.6-0.6C209.4,268.1,209.1,267.7,209,267z M213.3,263.2
		c0-0.6-0.2-1.1-0.5-1.4s-0.7-0.5-1.2-0.5s-0.9,0.2-1.2,0.6c-0.3,0.4-0.5,0.9-0.5,1.5c0,0.5,0.2,1,0.5,1.3s0.7,0.5,1.2,0.5
		s0.9-0.2,1.2-0.5S213.3,263.8,213.3,263.2z"/>
	<path d="M215.6,261.5v-1h5.6v0.8c-0.5,0.6-1.1,1.4-1.6,2.3s-1,2-1.2,3c-0.2,0.7-0.3,1.5-0.4,2.4h-1.1c0-0.7,0.1-1.5,0.4-2.4
		s0.6-1.9,1.1-2.8c0.5-0.9,1-1.6,1.5-2.2h-4.3V261.5z"/>
</g>
<line class="st4" x1="230" y1="49" x2="230" y2="279"/>
<g class="st1">
	<path d="M239,57l1-0.1c0.1,0.5,0.2,0.8,0.5,1c0.3,0.2,0.6,0.3,0.9,0.3c0.3,0,0.6-0.1,0.9-0.2c0.3-0.1,0.4-0.3,0.6-0.6
		s0.3-0.6,0.4-1s0.2-0.9,0.2-1.3c0,0,0-0.1,0-0.2c-0.2,0.3-0.5,0.6-0.9,0.8c-0.4,0.2-0.8,0.3-1.2,0.3c-0.7,0-1.3-0.3-1.8-0.8
		s-0.7-1.2-0.7-2c0-0.9,0.3-1.6,0.8-2.1s1.2-0.8,1.9-0.8c0.6,0,1.1,0.2,1.5,0.5s0.8,0.7,1.1,1.3s0.4,1.4,0.4,2.4
		c0,1.1-0.1,2-0.4,2.6s-0.6,1.1-1.1,1.5s-1,0.5-1.7,0.5s-1.2-0.2-1.6-0.6C239.4,58.1,239.1,57.7,239,57z M243.3,53.2
		c0-0.6-0.2-1.1-0.5-1.4s-0.7-0.5-1.2-0.5s-0.9,0.2-1.2,0.6s-0.5,0.9-0.5,1.5c0,0.5,0.2,1,0.5,1.3s0.7,0.5,1.2,0.5s0.9-0.2,1.2-0.5
		S243.3,53.8,243.3,53.2z"/>
	<path d="M247.1,54.3c-0.4-0.2-0.8-0.4-1-0.7c-0.2-0.3-0.3-0.7-0.3-1.1c0-0.6,0.2-1.2,0.7-1.6c0.5-0.4,1-0.6,1.8-0.6
		s1.4,0.2,1.8,0.7s0.7,1,0.7,1.6c0,0.4-0.1,0.7-0.3,1c-0.2,0.3-0.5,0.5-1,0.7c0.5,0.2,0.9,0.4,1.2,0.8s0.4,0.8,0.4,1.4
		c0,0.7-0.3,1.4-0.8,1.9s-1.2,0.8-2.1,0.8s-1.5-0.3-2.1-0.8s-0.8-1.1-0.8-1.9c0-0.6,0.1-1,0.4-1.4S246.6,54.5,247.1,54.3z
		 M246.6,56.5c0,0.3,0.1,0.6,0.2,0.9c0.1,0.3,0.4,0.5,0.6,0.7c0.2,0.2,0.6,0.2,0.9,0.2c0.5,0,0.9-0.2,1.2-0.5
		c0.3-0.3,0.5-0.7,0.5-1.2s-0.2-0.9-0.5-1.3c-0.3-0.4-0.8-0.5-1.3-0.5s-0.9,0.2-1.2,0.5C246.7,55.6,246.6,56,246.6,56.5z
		 M246.9,52.6c0,0.4,0.1,0.7,0.4,1c0.3,0.3,0.6,0.4,1,0.4s0.7-0.1,1-0.4c0.3-0.3,0.4-0.6,0.4-0.9c0-0.4-0.1-0.7-0.4-1
		s-0.6-0.4-1-0.4s-0.7,0.1-1,0.4S246.9,52.2,246.9,52.6z"/>
</g>
<g class="st1">
	<path d="M239,267l1-0.1c0.1,0.5,0.2,0.8,0.5,1s0.6,0.3,0.9,0.3c0.3,0,0.6-0.1,0.9-0.2s0.4-0.3,0.6-0.6s0.3-0.6,0.4-1
		s0.2-0.9,0.2-1.3c0,0,0-0.1,0-0.2c-0.2,0.3-0.5,0.6-0.9,0.8c-0.4,0.2-0.8,0.3-1.2,0.3c-0.7,0-1.3-0.3-1.8-0.8s-0.7-1.2-0.7-2
		c0-0.9,0.3-1.6,0.8-2.1s1.2-0.8,1.9-0.8c0.6,0,1.1,0.2,1.5,0.5s0.8,0.7,1.1,1.3c0.3,0.6,0.4,1.4,0.4,2.4c0,1.1-0.1,2-0.4,2.6
		c-0.3,0.6-0.6,1.1-1.1,1.5c-0.5,0.4-1,0.5-1.7,0.5s-1.2-0.2-1.6-0.6C239.4,268.1,239.1,267.7,239,267z M243.3,263.2
		c0-0.6-0.2-1.1-0.5-1.4s-0.7-0.5-1.2-0.5s-0.9,0.2-1.2,0.6c-0.3,0.4-0.5,0.9-0.5,1.5c0,0.5,0.2,1,0.5,1.3s0.7,0.5,1.2,0.5
		s0.9-0.2,1.2-0.5S243.3,263.8,243.3,263.2z"/>
	<path d="M247.1,264.3c-0.4-0.2-0.8-0.4-1-0.7s-0.3-0.7-0.3-1.1c0-0.6,0.2-1.2,0.7-1.6s1-0.6,1.8-0.6s1.4,0.2,1.8,0.7s0.7,1,0.7,1.6
		c0,0.4-0.1,0.7-0.3,1c-0.2,0.3-0.5,0.5-1,0.7c0.5,0.2,0.9,0.4,1.2,0.8c0.3,0.4,0.4,0.8,0.4,1.4c0,0.7-0.3,1.4-0.8,1.9
		s-1.2,0.8-2.1,0.8s-1.5-0.3-2.1-0.8s-0.8-1.1-0.8-1.9c0-0.6,0.1-1,0.4-1.4C246,264.7,246.6,264.5,247.1,264.3z M246.6,266.5
		c0,0.3,0.1,0.6,0.2,0.9s0.4,0.5,0.6,0.7c0.2,0.2,0.6,0.2,0.9,0.2c0.5,0,0.9-0.2,1.2-0.5s0.5-0.7,0.5-1.2s-0.2-0.9-0.5-1.3
		s-0.8-0.5-1.3-0.5s-0.9,0.2-1.2,0.5S246.6,266,246.6,266.5z M246.9,262.6c0,0.4,0.1,0.7,0.4,1s0.6,0.4,1,0.4s0.7-0.1,1-0.4
		s0.4-0.6,0.4-0.9c0-0.4-0.1-0.7-0.4-1s-0.6-0.4-1-0.4s-0.7,0.1-1,0.4S246.9,262.2,246.9,262.6z"/>
</g>
<line class="st4" x1="260" y1="49" x2="260" y2="279"/>
<g class="st1">
	<path d="M269,57l1-0.1c0.1,0.5,0.2,0.8,0.5,1c0.3,0.2,0.6,0.3,0.9,0.3s0.6-0.1,0.9-0.2c0.3-0.1,0.4-0.3,0.6-0.6s0.3-0.6,0.4-1
		s0.2-0.9,0.2-1.3c0,0,0-0.1,0-0.2c-0.2,0.3-0.5,0.6-0.9,0.8c-0.4,0.2-0.8,0.3-1.2,0.3c-0.7,0-1.3-0.3-1.8-0.8s-0.7-1.2-0.7-2
		c0-0.9,0.3-1.6,0.8-2.1s1.2-0.8,1.9-0.8c0.6,0,1.1,0.2,1.5,0.5s0.8,0.7,1.1,1.3s0.4,1.4,0.4,2.4c0,1.1-0.1,2-0.4,2.6
		s-0.6,1.1-1.1,1.5s-1,0.5-1.7,0.5s-1.2-0.2-1.6-0.6C269.4,58.1,269.1,57.7,269,57z M273.3,53.2c0-0.6-0.2-1.1-0.5-1.4
		s-0.7-0.5-1.2-0.5s-0.9,0.2-1.2,0.6s-0.5,0.9-0.5,1.5c0,0.5,0.2,1,0.5,1.3s0.7,0.5,1.2,0.5s0.9-0.2,1.2-0.5S273.3,53.8,273.3,53.2z
		"/>
	<path d="M275.7,57l1-0.1c0.1,0.5,0.2,0.8,0.5,1c0.3,0.2,0.6,0.3,0.9,0.3s0.6-0.1,0.9-0.2c0.3-0.1,0.4-0.3,0.6-0.6s0.3-0.6,0.4-1
		s0.2-0.9,0.2-1.3c0,0,0-0.1,0-0.2c-0.2,0.3-0.5,0.6-0.9,0.8c-0.4,0.2-0.8,0.3-1.2,0.3c-0.7,0-1.3-0.3-1.8-0.8s-0.7-1.2-0.7-2
		c0-0.9,0.3-1.6,0.8-2.1s1.2-0.8,1.9-0.8c0.6,0,1.1,0.2,1.5,0.5s0.8,0.7,1.1,1.3s0.4,1.4,0.4,2.4c0,1.1-0.1,2-0.4,2.6
		s-0.6,1.1-1.1,1.5s-1,0.5-1.7,0.5s-1.2-0.2-1.6-0.6C276.1,58.1,275.7,57.7,275.7,57z M280,53.2c0-0.6-0.2-1.1-0.5-1.4
		s-0.7-0.5-1.2-0.5s-0.9,0.2-1.2,0.6s-0.5,0.9-0.5,1.5c0,0.5,0.2,1,0.5,1.3s0.7,0.5,1.2,0.5s0.9-0.2,1.2-0.5S280,53.8,280,53.2z"/>
</g>
<g class="st1">
	<path d="M269,267l1-0.1c0.1,0.5,0.2,0.8,0.5,1s0.6,0.3,0.9,0.3s0.6-0.1,0.9-0.2s0.4-0.3,0.6-0.6s0.3-0.6,0.4-1s0.2-0.9,0.2-1.3
		c0,0,0-0.1,0-0.2c-0.2,0.3-0.5,0.6-0.9,0.8c-0.4,0.2-0.8,0.3-1.2,0.3c-0.7,0-1.3-0.3-1.8-0.8s-0.7-1.2-0.7-2c0-0.9,0.3-1.6,0.8-2.1
		s1.2-0.8,1.9-0.8c0.6,0,1.1,0.2,1.5,0.5s0.8,0.7,1.1,1.3c0.3,0.6,0.4,1.4,0.4,2.4c0,1.1-0.1,2-0.4,2.6c-0.3,0.6-0.6,1.1-1.1,1.5
		c-0.5,0.4-1,0.5-1.7,0.5s-1.2-0.2-1.6-0.6C269.4,268.1,269.1,267.7,269,267z M273.3,263.2c0-0.6-0.2-1.1-0.5-1.4s-0.7-0.5-1.2-0.5
		s-0.9,0.2-1.2,0.6c-0.3,0.4-0.5,0.9-0.5,1.5c0,0.5,0.2,1,0.5,1.3s0.7,0.5,1.2,0.5s0.9-0.2,1.2-0.5S273.3,263.8,273.3,263.2z"/>
	<path d="M275.7,267l1-0.1c0.1,0.5,0.2,0.8,0.5,1s0.6,0.3,0.9,0.3s0.6-0.1,0.9-0.2s0.4-0.3,0.6-0.6s0.3-0.6,0.4-1s0.2-0.9,0.2-1.3
		c0,0,0-0.1,0-0.2c-0.2,0.3-0.5,0.6-0.9,0.8c-0.4,0.2-0.8,0.3-1.2,0.3c-0.7,0-1.3-0.3-1.8-0.8s-0.7-1.2-0.7-2c0-0.9,0.3-1.6,0.8-2.1
		s1.2-0.8,1.9-0.8c0.6,0,1.1,0.2,1.5,0.5s0.8,0.7,1.1,1.3c0.3,0.6,0.4,1.4,0.4,2.4c0,1.1-0.1,2-0.4,2.6c-0.3,0.6-0.6,1.1-1.1,1.5
		c-0.5,0.4-1,0.5-1.7,0.5s-1.2-0.2-1.6-0.6C276.1,268.1,275.7,267.7,275.7,267z M280,263.2c0-0.6-0.2-1.1-0.5-1.4s-0.7-0.5-1.2-0.5
		s-0.9,0.2-1.2,0.6c-0.3,0.4-0.5,0.9-0.5,1.5c0,0.5,0.2,1,0.5,1.3s0.7,0.5,1.2,0.5s0.9-0.2,1.2-0.5S280,263.8,280,263.2z"/>
</g>
<line class="st4" x1="290" y1="49" x2="290" y2="279"/>
<g class="st1">
	<path d="M298.8,54.8c0-1,0.1-1.8,0.3-2.5s0.5-1.1,0.9-1.4s0.9-0.5,1.6-0.5c0.5,0,0.9,0.1,1.2,0.3s0.6,0.5,0.9,0.8
		c0.3,0.3,0.4,0.8,0.5,1.3s0.2,1.2,0.2,2c0,1-0.1,1.8-0.3,2.4s-0.5,1.1-0.9,1.4c-0.4,0.3-0.9,0.5-1.6,0.5c-0.8,0-1.5-0.3-2-0.9
		C299.1,57.5,298.8,56.4,298.8,54.8z M299.9,54.8c0,1.4,0.2,2.3,0.5,2.8s0.7,0.7,1.2,0.7s0.9-0.2,1.2-0.7s0.5-1.4,0.5-2.8
		c0-1.4-0.2-2.4-0.5-2.8s-0.7-0.7-1.2-0.7s-0.9,0.2-1.2,0.6C300.1,52.4,299.9,53.4,299.9,54.8z"/>
	<path d="M305.5,54.8c0-1,0.1-1.8,0.3-2.5s0.5-1.1,0.9-1.4s0.9-0.5,1.6-0.5c0.5,0,0.9,0.1,1.2,0.3s0.6,0.5,0.9,0.8
		c0.3,0.3,0.4,0.8,0.5,1.3s0.2,1.2,0.2,2c0,1-0.1,1.8-0.3,2.4s-0.5,1.1-0.9,1.4c-0.4,0.3-0.9,0.5-1.6,0.5c-0.8,0-1.5-0.3-2-0.9
		C305.8,57.5,305.5,56.4,305.5,54.8z M306.6,54.8c0,1.4,0.2,2.3,0.5,2.8s0.7,0.7,1.2,0.7s0.9-0.2,1.2-0.7s0.5-1.4,0.5-2.8
		c0-1.4-0.2-2.4-0.5-2.8s-0.7-0.7-1.2-0.7s-0.9,0.2-1.2,0.6C306.8,52.4,306.6,53.4,306.6,54.8z"/>
</g>
<g class="st1">
	<path d="M298.8,264.8c0-1,0.1-1.8,0.3-2.5c0.2-0.7,0.5-1.1,0.9-1.4s0.9-0.5,1.6-0.5c0.5,0,0.9,0.1,1.2,0.3s0.6,0.5,0.9,0.8
		c0.3,0.3,0.4,0.8,0.5,1.3s0.2,1.2,0.2,2c0,1-0.1,1.8-0.3,2.4s-0.5,1.1-0.9,1.4s-0.9,0.5-1.6,0.5c-0.8,0-1.5-0.3-2-0.9
		C299.1,267.5,298.8,266.4,298.8,264.8z M299.9,264.8c0,1.4,0.2,2.3,0.5,2.8s0.7,0.7,1.2,0.7s0.9-0.2,1.2-0.7s0.5-1.4,0.5-2.8
		c0-1.4-0.2-2.4-0.5-2.8s-0.7-0.7-1.2-0.7s-0.9,0.2-1.2,0.6C300.1,262.4,299.9,263.4,299.9,264.8z"/>
	<path d="M305.5,264.8c0-1,0.1-1.8,0.3-2.5c0.2-0.7,0.5-1.1,0.9-1.4s0.9-0.5,1.6-0.5c0.5,0,0.9,0.1,1.2,0.3s0.6,0.5,0.9,0.8
		c0.3,0.3,0.4,0.8,0.5,1.3s0.2,1.2,0.2,2c0,1-0.1,1.8-0.3,2.4s-0.5,1.1-0.9,1.4s-0.9,0.5-1.6,0.5c-0.8,0-1.5-0.3-2-0.9
		C305.8,267.5,305.5,266.4,305.5,264.8z M306.6,264.8c0,1.4,0.2,2.3,0.5,2.8s0.7,0.7,1.2,0.7s0.9-0.2,1.2-0.7s0.5-1.4,0.5-2.8
		c0-1.4-0.2-2.4-0.5-2.8s-0.7-0.7-1.2-0.7s-0.9,0.2-1.2,0.6C306.8,262.4,306.6,263.4,306.6,264.8z"/>
</g>
<line class="st4" x1="320" y1="49" x2="320" y2="279"/>
<g class="st1">
	<path d="M328.8,54.8c0-1,0.1-1.8,0.3-2.5s0.5-1.1,0.9-1.4s0.9-0.5,1.6-0.5c0.5,0,0.9,0.1,1.2,0.3s0.6,0.5,0.9,0.8
		c0.3,0.3,0.4,0.8,0.5,1.3s0.2,1.2,0.2,2c0,1-0.1,1.8-0.3,2.4s-0.5,1.1-0.9,1.4c-0.4,0.3-0.9,0.5-1.6,0.5c-0.8,0-1.5-0.3-2-0.9
		C329.1,57.5,328.8,56.4,328.8,54.8z M329.9,54.8c0,1.4,0.2,2.3,0.5,2.8s0.7,0.7,1.2,0.7s0.9-0.2,1.2-0.7s0.5-1.4,0.5-2.8
		c0-1.4-0.2-2.4-0.5-2.8s-0.7-0.7-1.2-0.7s-0.9,0.2-1.2,0.6C330.1,52.4,329.9,53.4,329.9,54.8z"/>
	<path d="M339.5,59h-1.1v-6.7c-0.3,0.2-0.6,0.5-1,0.7s-0.8,0.4-1.1,0.5v-1c0.6-0.3,1.1-0.6,1.5-1s0.8-0.8,0.9-1.1h0.7V59H339.5z"/>
</g>
<g class="st1">
	<path d="M328.8,264.8c0-1,0.1-1.8,0.3-2.5c0.2-0.7,0.5-1.1,0.9-1.4s0.9-0.5,1.6-0.5c0.5,0,0.9,0.1,1.2,0.3s0.6,0.5,0.9,0.8
		c0.3,0.3,0.4,0.8,0.5,1.3s0.2,1.2,0.2,2c0,1-0.1,1.8-0.3,2.4s-0.5,1.1-0.9,1.4s-0.9,0.5-1.6,0.5c-0.8,0-1.5-0.3-2-0.9
		C329.1,267.5,328.8,266.4,328.8,264.8z M329.9,264.8c0,1.4,0.2,2.3,0.5,2.8s0.7,0.7,1.2,0.7s0.9-0.2,1.2-0.7s0.5-1.4,0.5-2.8
		c0-1.4-0.2-2.4-0.5-2.8s-0.7-0.7-1.2-0.7s-0.9,0.2-1.2,0.6C330.1,262.4,329.9,263.4,329.9,264.8z"/>
	<path d="M339.5,269h-1.1v-6.7c-0.3,0.2-0.6,0.5-1,0.7s-0.8,0.4-1.1,0.5v-1c0.6-0.3,1.1-0.6,1.5-1s0.8-0.8,0.9-1.1h0.7v8.6H339.5z"
		/>
</g>
<line class="st4" x1="350" y1="49" x2="350" y2="279"/>
<g class="st1">
	<path d="M358.8,54.8c0-1,0.1-1.8,0.3-2.5s0.5-1.1,0.9-1.4s0.9-0.5,1.6-0.5c0.5,0,0.9,0.1,1.2,0.3s0.6,0.5,0.9,0.8
		c0.3,0.3,0.4,0.8,0.5,1.3s0.2,1.2,0.2,2c0,1-0.1,1.8-0.3,2.4s-0.5,1.1-0.9,1.4c-0.4,0.3-0.9,0.5-1.6,0.5c-0.8,0-1.5-0.3-2-0.9
		C359.1,57.5,358.8,56.4,358.8,54.8z M359.9,54.8c0,1.4,0.2,2.3,0.5,2.8s0.7,0.7,1.2,0.7s0.9-0.2,1.2-0.7s0.5-1.4,0.5-2.8
		c0-1.4-0.2-2.4-0.5-2.8s-0.7-0.7-1.2-0.7s-0.9,0.2-1.2,0.6C360.1,52.4,359.9,53.4,359.9,54.8z"/>
	<path d="M371,58v1h-5.7c0-0.3,0-0.5,0.1-0.7c0.1-0.4,0.4-0.8,0.7-1.1c0.3-0.3,0.8-0.8,1.4-1.3c0.9-0.8,1.6-1.4,1.9-1.8
		s0.5-0.9,0.5-1.3c0-0.4-0.1-0.8-0.4-1.1c-0.3-0.3-0.7-0.4-1.2-0.4s-0.9,0.2-1.2,0.5s-0.5,0.7-0.5,1.3l-1.1-0.1
		c0.1-0.8,0.4-1.4,0.8-1.8c0.4-0.4,1.1-0.6,2-0.6c0.8,0,1.5,0.2,2,0.7s0.7,1,0.7,1.7c0,0.3-0.1,0.7-0.2,1c-0.1,0.3-0.4,0.7-0.7,1
		c-0.3,0.3-0.9,0.9-1.6,1.5c-0.6,0.5-1,0.9-1.2,1.1s-0.3,0.4-0.4,0.6h4.1V58z"/>
</g>
<g class="st1">
	<path d="M358.8,264.8c0-1,0.1-1.8,0.3-2.5c0.2-0.7,0.5-1.1,0.9-1.4s0.9-0.5,1.6-0.5c0.5,0,0.9,0.1,1.2,0.3s0.6,0.5,0.9,0.8
		c0.3,0.3,0.4,0.8,0.5,1.3s0.2,1.2,0.2,2c0,1-0.1,1.8-0.3,2.4s-0.5,1.1-0.9,1.4s-0.9,0.5-1.6,0.5c-0.8,0-1.5-0.3-2-0.9
		C359.1,267.5,358.8,266.4,358.8,264.8z M359.9,264.8c0,1.4,0.2,2.3,0.5,2.8s0.7,0.7,1.2,0.7s0.9-0.2,1.2-0.7s0.5-1.4,0.5-2.8
		c0-1.4-0.2-2.4-0.5-2.8s-0.7-0.7-1.2-0.7s-0.9,0.2-1.2,0.6C360.1,262.4,359.9,263.4,359.9,264.8z"/>
	<path d="M371,268v1h-5.7c0-0.3,0-0.5,0.1-0.7c0.1-0.4,0.4-0.8,0.7-1.1c0.3-0.3,0.8-0.8,1.4-1.3c0.9-0.8,1.6-1.4,1.9-1.8
		c0.3-0.4,0.5-0.9,0.5-1.3c0-0.4-0.1-0.8-0.4-1.1s-0.7-0.4-1.2-0.4s-0.9,0.2-1.2,0.5s-0.5,0.7-0.5,1.3l-1.1-0.1
		c0.1-0.8,0.4-1.4,0.8-1.8s1.1-0.6,2-0.6c0.8,0,1.5,0.2,2,0.7s0.7,1,0.7,1.7c0,0.3-0.1,0.7-0.2,1s-0.4,0.7-0.7,1s-0.9,0.9-1.6,1.5
		c-0.6,0.5-1,0.9-1.2,1.1s-0.3,0.4-0.4,0.6h4.1V268z"/>
</g>
<line class="st4" x1="380" y1="49" x2="380" y2="279"/>
<g class="st1">
	<path d="M388.8,54.8c0-1,0.1-1.8,0.3-2.5s0.5-1.1,0.9-1.4s0.9-0.5,1.6-0.5c0.5,0,0.9,0.1,1.2,0.3s0.6,0.5,0.9,0.8
		c0.3,0.3,0.4,0.8,0.5,1.3s0.2,1.2,0.2,2c0,1-0.1,1.8-0.3,2.4s-0.5,1.1-0.9,1.4c-0.4,0.3-0.9,0.5-1.6,0.5c-0.8,0-1.5-0.3-2-0.9
		C389.1,57.5,388.8,56.4,388.8,54.8z M389.9,54.8c0,1.4,0.2,2.3,0.5,2.8s0.7,0.7,1.2,0.7s0.9-0.2,1.2-0.7s0.5-1.4,0.5-2.8
		c0-1.4-0.2-2.4-0.5-2.8s-0.7-0.7-1.2-0.7s-0.9,0.2-1.2,0.6C390.1,52.4,389.9,53.4,389.9,54.8z"/>
	<path d="M395.5,56.7l1.1-0.1c0.1,0.6,0.3,1,0.6,1.3c0.3,0.3,0.6,0.4,1.1,0.4s0.9-0.2,1.3-0.5s0.5-0.8,0.5-1.3s-0.2-0.9-0.5-1.2
		s-0.7-0.5-1.2-0.5c-0.2,0-0.4,0-0.7,0.1l0.1-0.9c0.1,0,0.1,0,0.2,0c0.4,0,0.9-0.1,1.2-0.4c0.3-0.3,0.5-0.6,0.5-1.1
		c0-0.4-0.1-0.7-0.4-1s-0.6-0.4-1-0.4s-0.8,0.1-1,0.4s-0.4,0.6-0.5,1.2l-1.1-0.2c0.1-0.7,0.4-1.3,0.9-1.6c0.5-0.3,1-0.6,1.7-0.6
		c0.5,0,0.9,0.1,1.3,0.3c0.4,0.2,0.7,0.5,0.9,0.8c0.2,0.3,0.3,0.7,0.3,1.1s-0.1,0.7-0.3,1s-0.5,0.5-0.9,0.7c0.5,0.1,0.9,0.4,1.2,0.7
		c0.3,0.3,0.4,0.8,0.4,1.4c0,0.8-0.3,1.4-0.8,1.9s-1.2,0.8-2.1,0.8c-0.8,0-1.4-0.2-1.9-0.7S395.6,57.4,395.5,56.7z"/>
</g>
<g class="st1">
	<path d="M388.8,264.8c0-1,0.1-1.8,0.3-2.5c0.2-0.7,0.5-1.1,0.9-1.4s0.9-0.5,1.6-0.5c0.5,0,0.9,0.1,1.2,0.3s0.6,0.5,0.9,0.8
		c0.3,0.3,0.4,0.8,0.5,1.3s0.2,1.2,0.2,2c0,1-0.1,1.8-0.3,2.4s-0.5,1.1-0.9,1.4s-0.9,0.5-1.6,0.5c-0.8,0-1.5-0.3-2-0.9
		C389.1,267.5,388.8,266.4,388.8,264.8z M389.9,264.8c0,1.4,0.2,2.3,0.5,2.8s0.7,0.7,1.2,0.7s0.9-0.2,1.2-0.7s0.5-1.4,0.5-2.8
		c0-1.4-0.2-2.4-0.5-2.8s-0.7-0.7-1.2-0.7s-0.9,0.2-1.2,0.6C390.1,262.4,389.9,263.4,389.9,264.8z"/>
	<path d="M395.5,266.7l1.1-0.1c0.1,0.6,0.3,1,0.6,1.3s0.6,0.4,1.1,0.4s0.9-0.2,1.3-0.5s0.5-0.8,0.5-1.3s-0.2-0.9-0.5-1.2
		s-0.7-0.5-1.2-0.5c-0.2,0-0.4,0-0.7,0.1l0.1-0.9c0.1,0,0.1,0,0.2,0c0.4,0,0.9-0.1,1.2-0.4s0.5-0.6,0.5-1.1c0-0.4-0.1-0.7-0.4-1
		s-0.6-0.4-1-0.4s-0.8,0.1-1,0.4s-0.4,0.6-0.5,1.2l-1.1-0.2c0.1-0.7,0.4-1.3,0.9-1.6s1-0.6,1.7-0.6c0.5,0,0.9,0.1,1.3,0.3
		c0.4,0.2,0.7,0.5,0.9,0.8s0.3,0.7,0.3,1.1c0,0.4-0.1,0.7-0.3,1s-0.5,0.5-0.9,0.7c0.5,0.1,0.9,0.4,1.2,0.7s0.4,0.8,0.4,1.4
		c0,0.8-0.3,1.4-0.8,1.9s-1.2,0.8-2.1,0.8c-0.8,0-1.4-0.2-1.9-0.7S395.6,267.4,395.5,266.7z"/>
</g>
<line class="st4" x1="410" y1="49" x2="410" y2="279"/>
<g class="st1">
	<path d="M418.8,54.8c0-1,0.1-1.8,0.3-2.5s0.5-1.1,0.9-1.4s0.9-0.5,1.6-0.5c0.5,0,0.9,0.1,1.2,0.3s0.6,0.5,0.9,0.8
		c0.3,0.3,0.4,0.8,0.5,1.3s0.2,1.2,0.2,2c0,1-0.1,1.8-0.3,2.4s-0.5,1.1-0.9,1.4c-0.4,0.3-0.9,0.5-1.6,0.5c-0.8,0-1.5-0.3-2-0.9
		C419.1,57.5,418.8,56.4,418.8,54.8z M419.9,54.8c0,1.4,0.2,2.3,0.5,2.8s0.7,0.7,1.2,0.7s0.9-0.2,1.2-0.7s0.5-1.4,0.5-2.8
		c0-1.4-0.2-2.4-0.5-2.8s-0.7-0.7-1.2-0.7s-0.9,0.2-1.2,0.6C420.1,52.4,419.9,53.4,419.9,54.8z"/>
	<path d="M428.9,59v-2.1h-3.7v-1l3.9-5.6h0.9V56h1.2v1H430v2H428.9z M428.9,56v-3.9l-2.7,3.9H428.9z"/>
</g>
<g class="st1">
	<path d="M418.8,264.8c0-1,0.1-1.8,0.3-2.5c0.2-0.7,0.5-1.1,0.9-1.4s0.9-0.5,1.6-0.5c0.5,0,0.9,0.1,1.2,0.3s0.6,0.5,0.9,0.8
		c0.3,0.3,0.4,0.8,0.5,1.3s0.2,1.2,0.2,2c0,1-0.1,1.8-0.3,2.4s-0.5,1.1-0.9,1.4s-0.9,0.5-1.6,0.5c-0.8,0-1.5-0.3-2-0.9
		C419.1,267.5,418.8,266.4,418.8,264.8z M419.9,264.8c0,1.4,0.2,2.3,0.5,2.8s0.7,0.7,1.2,0.7s0.9-0.2,1.2-0.7s0.5-1.4,0.5-2.8
		c0-1.4-0.2-2.4-0.5-2.8s-0.7-0.7-1.2-0.7s-0.9,0.2-1.2,0.6C420.1,262.4,419.9,263.4,419.9,264.8z"/>
	<path d="M428.9,269v-2.1h-3.7v-1l3.9-5.6h0.9v5.6h1.2v1H430v2.1H428.9z M428.9,266v-3.9l-2.7,3.9H428.9z"/>
</g>
<line class="st4" x1="440" y1="49" x2="440" y2="279"/>
<g class="st1">
	<path d="M448.8,54.8c0-1,0.1-1.8,0.3-2.5s0.5-1.1,0.9-1.4s0.9-0.5,1.6-0.5c0.5,0,0.9,0.1,1.2,0.3s0.6,0.5,0.9,0.8
		c0.3,0.3,0.4,0.8,0.5,1.3s0.2,1.2,0.2,2c0,1-0.1,1.8-0.3,2.4s-0.5,1.1-0.9,1.4c-0.4,0.3-0.9,0.5-1.6,0.5c-0.8,0-1.5-0.3-2-0.9
		C449.1,57.5,448.8,56.4,448.8,54.8z M449.9,54.8c0,1.4,0.2,2.3,0.5,2.8s0.7,0.7,1.2,0.7s0.9-0.2,1.2-0.7s0.5-1.4,0.5-2.8
		c0-1.4-0.2-2.4-0.5-2.8s-0.7-0.7-1.2-0.7s-0.9,0.2-1.2,0.6C450.1,52.4,449.9,53.4,449.9,54.8z"/>
	<path d="M455.5,56.8l1.1-0.1c0.1,0.5,0.3,0.9,0.6,1.2c0.3,0.3,0.7,0.4,1.1,0.4c0.5,0,0.9-0.2,1.3-0.6c0.4-0.4,0.5-0.9,0.5-1.5
		c0-0.6-0.2-1.1-0.5-1.4s-0.8-0.5-1.3-0.5c-0.3,0-0.6,0.1-0.9,0.2s-0.5,0.4-0.6,0.6l-1-0.1l0.8-4.4h4.3v1h-3.4l-0.5,2.3
		c0.5-0.4,1.1-0.5,1.6-0.5c0.8,0,1.4,0.3,1.9,0.8s0.8,1.2,0.8,2c0,0.8-0.2,1.4-0.7,2c-0.6,0.7-1.3,1-2.3,1c-0.8,0-1.4-0.2-1.9-0.7
		S455.6,57.5,455.5,56.8z"/>
</g>
<g class="st1">
	<path d="M448.8,264.8c0-1,0.1-1.8,0.3-2.5c0.2-0.7,0.5-1.1,0.9-1.4s0.9-0.5,1.6-0.5c0.5,0,0.9,0.1,1.2,0.3s0.6,0.5,0.9,0.8
		c0.3,0.3,0.4,0.8,0.5,1.3s0.2,1.2,0.2,2c0,1-0.1,1.8-0.3,2.4s-0.5,1.1-0.9,1.4s-0.9,0.5-1.6,0.5c-0.8,0-1.5-0.3-2-0.9
		C449.1,267.5,448.8,266.4,448.8,264.8z M449.9,264.8c0,1.4,0.2,2.3,0.5,2.8s0.7,0.7,1.2,0.7s0.9-0.2,1.2-0.7s0.5-1.4,0.5-2.8
		c0-1.4-0.2-2.4-0.5-2.8s-0.7-0.7-1.2-0.7s-0.9,0.2-1.2,0.6C450.1,262.4,449.9,263.4,449.9,264.8z"/>
	<path d="M455.5,266.8l1.1-0.1c0.1,0.5,0.3,0.9,0.6,1.2s0.7,0.4,1.1,0.4c0.5,0,0.9-0.2,1.3-0.6s0.5-0.9,0.5-1.5s-0.2-1.1-0.5-1.4
		s-0.8-0.5-1.3-0.5c-0.3,0-0.6,0.1-0.9,0.2c-0.3,0.1-0.5,0.4-0.6,0.6l-1-0.1l0.8-4.4h4.3v1h-3.4l-0.5,2.3c0.5-0.4,1.1-0.5,1.6-0.5
		c0.8,0,1.4,0.3,1.9,0.8s0.8,1.2,0.8,2c0,0.8-0.2,1.4-0.7,2c-0.6,0.7-1.3,1-2.3,1c-0.8,0-1.4-0.2-1.9-0.7S455.6,267.5,455.5,266.8z"
		/>
</g>
<line class="st4" x1="470" y1="49" x2="470" y2="279"/>
<g class="st1">
	<path d="M478.8,54.8c0-1,0.1-1.8,0.3-2.5s0.5-1.1,0.9-1.4s0.9-0.5,1.6-0.5c0.5,0,0.9,0.1,1.2,0.3s0.6,0.5,0.9,0.8
		c0.3,0.3,0.4,0.8,0.5,1.3s0.2,1.2,0.2,2c0,1-0.1,1.8-0.3,2.4s-0.5,1.1-0.9,1.4c-0.4,0.3-0.9,0.5-1.6,0.5c-0.8,0-1.5-0.3-2-0.9
		C479.1,57.5,478.8,56.4,478.8,54.8z M479.9,54.8c0,1.4,0.2,2.3,0.5,2.8s0.7,0.7,1.2,0.7s0.9-0.2,1.2-0.7s0.5-1.4,0.5-2.8
		c0-1.4-0.2-2.4-0.5-2.8s-0.7-0.7-1.2-0.7s-0.9,0.2-1.2,0.6C480.1,52.4,479.9,53.4,479.9,54.8z"/>
	<path d="M491,52.5l-1,0.1c-0.1-0.4-0.2-0.7-0.4-0.9c-0.3-0.3-0.6-0.5-1.1-0.5c-0.3,0-0.6,0.1-0.9,0.3c-0.3,0.2-0.6,0.6-0.8,1.1
		s-0.3,1.1-0.3,2c0.3-0.4,0.6-0.7,0.9-0.9s0.8-0.3,1.2-0.3c0.7,0,1.3,0.3,1.8,0.8s0.7,1.2,0.7,2c0,0.5-0.1,1-0.3,1.5s-0.6,0.8-1,1.1
		c-0.4,0.3-0.9,0.4-1.4,0.4c-0.9,0-1.6-0.3-2.2-1s-0.8-1.7-0.8-3.2c0-1.7,0.3-2.9,0.9-3.6c0.5-0.7,1.3-1,2.2-1
		c0.7,0,1.2,0.2,1.7,0.6S490.9,51.8,491,52.5z M486.7,56.2c0,0.4,0.1,0.7,0.2,1s0.4,0.6,0.6,0.8s0.6,0.3,0.9,0.3
		c0.4,0,0.8-0.2,1.1-0.5s0.5-0.8,0.5-1.5c0-0.6-0.2-1.1-0.5-1.4c-0.3-0.3-0.7-0.5-1.2-0.5s-0.9,0.2-1.2,0.5
		C486.8,55.2,486.7,55.7,486.7,56.2z"/>
</g>
<g class="st1">
	<path d="M478.8,264.8c0-1,0.1-1.8,0.3-2.5c0.2-0.7,0.5-1.1,0.9-1.4s0.9-0.5,1.6-0.5c0.5,0,0.9,0.1,1.2,0.3s0.6,0.5,0.9,0.8
		c0.3,0.3,0.4,0.8,0.5,1.3s0.2,1.2,0.2,2c0,1-0.1,1.8-0.3,2.4s-0.5,1.1-0.9,1.4s-0.9,0.5-1.6,0.5c-0.8,0-1.5-0.3-2-0.9
		C479.1,267.5,478.8,266.4,478.8,264.8z M479.9,264.8c0,1.4,0.2,2.3,0.5,2.8s0.7,0.7,1.2,0.7s0.9-0.2,1.2-0.7s0.5-1.4,0.5-2.8
		c0-1.4-0.2-2.4-0.5-2.8s-0.7-0.7-1.2-0.7s-0.9,0.2-1.2,0.6C480.1,262.4,479.9,263.4,479.9,264.8z"/>
	<path d="M491,262.5l-1,0.1c-0.1-0.4-0.2-0.7-0.4-0.9c-0.3-0.3-0.6-0.5-1.1-0.5c-0.3,0-0.6,0.1-0.9,0.3c-0.3,0.2-0.6,0.6-0.8,1.1
		s-0.3,1.1-0.3,2c0.3-0.4,0.6-0.7,0.9-0.9c0.3-0.2,0.8-0.3,1.2-0.3c0.7,0,1.3,0.3,1.8,0.8s0.7,1.2,0.7,2c0,0.5-0.1,1-0.3,1.5
		s-0.6,0.8-1,1.1c-0.4,0.3-0.9,0.4-1.4,0.4c-0.9,0-1.6-0.3-2.2-1c-0.6-0.7-0.8-1.7-0.8-3.2c0-1.7,0.3-2.9,0.9-3.6
		c0.5-0.7,1.3-1,2.2-1c0.7,0,1.2,0.2,1.7,0.6S490.9,261.8,491,262.5z M486.7,266.2c0,0.4,0.1,0.7,0.2,1c0.1,0.3,0.4,0.6,0.6,0.8
		s0.6,0.3,0.9,0.3c0.4,0,0.8-0.2,1.1-0.5c0.3-0.3,0.5-0.8,0.5-1.5c0-0.6-0.2-1.1-0.5-1.4s-0.7-0.5-1.2-0.5s-0.9,0.2-1.2,0.5
		C486.8,265.2,486.7,265.7,486.7,266.2z"/>
</g>
<line class="st4" x1="500" y1="49" x2="500" y2="279"/>
<g class="st1">
	<path d="M508.8,54.8c0-1,0.1-1.8,0.3-2.5s0.5-1.1,0.9-1.4s0.9-0.5,1.6-0.5c0.5,0,0.9,0.1,1.2,0.3s0.6,0.5,0.9,0.8
		c0.3,0.3,0.4,0.8,0.5,1.3s0.2,1.2,0.2,2c0,1-0.1,1.8-0.3,2.4s-0.5,1.1-0.9,1.4c-0.4,0.3-0.9,0.5-1.6,0.5c-0.8,0-1.5-0.3-2-0.9
		C509.1,57.5,508.8,56.4,508.8,54.8z M509.9,54.8c0,1.4,0.2,2.3,0.5,2.8s0.7,0.7,1.2,0.7c0.5,0,0.9-0.2,1.2-0.7s0.5-1.4,0.5-2.8
		c0-1.4-0.2-2.4-0.5-2.8s-0.7-0.7-1.2-0.7s-0.9,0.2-1.2,0.6C510.1,52.4,509.9,53.4,509.9,54.8z"/>
	<path d="M515.6,51.5v-1h5.6v0.8c-0.5,0.6-1.1,1.4-1.6,2.3c-0.5,0.9-1,2-1.2,3c-0.2,0.7-0.3,1.5-0.4,2.4h-1.1c0-0.7,0.1-1.5,0.4-2.4
		c0.3-0.9,0.6-1.9,1.1-2.8c0.5-0.9,1-1.6,1.5-2.2L515.6,51.5L515.6,51.5z"/>
</g>
<g class="st1">
	<path d="M508.8,264.8c0-1,0.1-1.8,0.3-2.5c0.2-0.7,0.5-1.1,0.9-1.4s0.9-0.5,1.6-0.5c0.5,0,0.9,0.1,1.2,0.3s0.6,0.5,0.9,0.8
		c0.3,0.3,0.4,0.8,0.5,1.3s0.2,1.2,0.2,2c0,1-0.1,1.8-0.3,2.4s-0.5,1.1-0.9,1.4s-0.9,0.5-1.6,0.5c-0.8,0-1.5-0.3-2-0.9
		C509.1,267.5,508.8,266.4,508.8,264.8z M509.9,264.8c0,1.4,0.2,2.3,0.5,2.8s0.7,0.7,1.2,0.7c0.5,0,0.9-0.2,1.2-0.7s0.5-1.4,0.5-2.8
		c0-1.4-0.2-2.4-0.5-2.8s-0.7-0.7-1.2-0.7s-0.9,0.2-1.2,0.6C510.1,262.4,509.9,263.4,509.9,264.8z"/>
	<path d="M515.6,261.5v-1h5.6v0.8c-0.5,0.6-1.1,1.4-1.6,2.3s-1,2-1.2,3c-0.2,0.7-0.3,1.5-0.4,2.4h-1.1c0-0.7,0.1-1.5,0.4-2.4
		s0.6-1.9,1.1-2.8c0.5-0.9,1-1.6,1.5-2.2h-4.3V261.5z"/>
</g>
<line class="st4" x1="530" y1="49" x2="530" y2="279"/>
<g class="st1">
	<path d="M538.8,54.8c0-1,0.1-1.8,0.3-2.5s0.5-1.1,0.9-1.4s0.9-0.5,1.6-0.5c0.5,0,0.9,0.1,1.2,0.3s0.6,0.5,0.9,0.8
		c0.3,0.3,0.4,0.8,0.5,1.3s0.2,1.2,0.2,2c0,1-0.1,1.8-0.3,2.4s-0.5,1.1-0.9,1.4c-0.4,0.3-0.9,0.5-1.6,0.5c-0.8,0-1.5-0.3-2-0.9
		C539.1,57.5,538.8,56.4,538.8,54.8z M539.9,54.8c0,1.4,0.2,2.3,0.5,2.8s0.7,0.7,1.2,0.7s0.9-0.2,1.2-0.7s0.5-1.4,0.5-2.8
		c0-1.4-0.2-2.4-0.5-2.8s-0.7-0.7-1.2-0.7s-0.9,0.2-1.2,0.6C540.1,52.4,539.9,53.4,539.9,54.8z"/>
	<path d="M547.1,54.3c-0.4-0.2-0.8-0.4-1-0.7c-0.2-0.3-0.3-0.7-0.3-1.1c0-0.6,0.2-1.2,0.7-1.6c0.5-0.4,1-0.6,1.8-0.6
		s1.4,0.2,1.8,0.7s0.7,1,0.7,1.6c0,0.4-0.1,0.7-0.3,1c-0.2,0.3-0.5,0.5-1,0.7c0.5,0.2,0.9,0.4,1.2,0.8s0.4,0.8,0.4,1.4
		c0,0.7-0.3,1.4-0.8,1.9s-1.2,0.8-2.1,0.8s-1.5-0.3-2.1-0.8s-0.8-1.1-0.8-1.9c0-0.6,0.1-1,0.4-1.4S546.6,54.5,547.1,54.3z
		 M546.6,56.5c0,0.3,0.1,0.6,0.2,0.9c0.1,0.3,0.4,0.5,0.6,0.7c0.2,0.2,0.6,0.2,0.9,0.2c0.5,0,0.9-0.2,1.2-0.5
		c0.3-0.3,0.5-0.7,0.5-1.2s-0.2-0.9-0.5-1.3c-0.3-0.4-0.8-0.5-1.3-0.5s-0.9,0.2-1.2,0.5C546.7,55.6,546.6,56,546.6,56.5z
		 M546.9,52.6c0,0.4,0.1,0.7,0.4,1c0.3,0.3,0.6,0.4,1,0.4s0.7-0.1,1-0.4c0.3-0.3,0.4-0.6,0.4-0.9c0-0.4-0.1-0.7-0.4-1
		s-0.6-0.4-1-0.4s-0.7,0.1-1,0.4S546.9,52.2,546.9,52.6z"/>
</g>
<g class="st1">
	<path d="M538.8,264.8c0-1,0.1-1.8,0.3-2.5c0.2-0.7,0.5-1.1,0.9-1.4s0.9-0.5,1.6-0.5c0.5,0,0.9,0.1,1.2,0.3s0.6,0.5,0.9,0.8
		c0.3,0.3,0.4,0.8,0.5,1.3s0.2,1.2,0.2,2c0,1-0.1,1.8-0.3,2.4s-0.5,1.1-0.9,1.4s-0.9,0.5-1.6,0.5c-0.8,0-1.5-0.3-2-0.9
		C539.1,267.5,538.8,266.4,538.8,264.8z M539.9,264.8c0,1.4,0.2,2.3,0.5,2.8s0.7,0.7,1.2,0.7s0.9-0.2,1.2-0.7s0.5-1.4,0.5-2.8
		c0-1.4-0.2-2.4-0.5-2.8s-0.7-0.7-1.2-0.7s-0.9,0.2-1.2,0.6C540.1,262.4,539.9,263.4,539.9,264.8z"/>
	<path d="M547.1,264.3c-0.4-0.2-0.8-0.4-1-0.7s-0.3-0.7-0.3-1.1c0-0.6,0.2-1.2,0.7-1.6s1-0.6,1.8-0.6s1.4,0.2,1.8,0.7s0.7,1,0.7,1.6
		c0,0.4-0.1,0.7-0.3,1c-0.2,0.3-0.5,0.5-1,0.7c0.5,0.2,0.9,0.4,1.2,0.8c0.3,0.4,0.4,0.8,0.4,1.4c0,0.7-0.3,1.4-0.8,1.9
		s-1.2,0.8-2.1,0.8s-1.5-0.3-2.1-0.8s-0.8-1.1-0.8-1.9c0-0.6,0.1-1,0.4-1.4C546,264.7,546.6,264.5,547.1,264.3z M546.6,266.5
		c0,0.3,0.1,0.6,0.2,0.9s0.4,0.5,0.6,0.7c0.2,0.2,0.6,0.2,0.9,0.2c0.5,0,0.9-0.2,1.2-0.5s0.5-0.7,0.5-1.2s-0.2-0.9-0.5-1.3
		s-0.8-0.5-1.3-0.5s-0.9,0.2-1.2,0.5S546.6,266,546.6,266.5z M546.9,262.6c0,0.4,0.1,0.7,0.4,1s0.6,0.4,1,0.4s0.7-0.1,1-0.4
		s0.4-0.6,0.4-0.9c0-0.4-0.1-0.7-0.4-1s-0.6-0.4-1-0.4s-0.7,0.1-1,0.4S546.9,262.2,546.9,262.6z"/>
</g>
<line class="st4" x1="560" y1="49" x2="560" y2="279"/>
<g class="st1">
	<path d="M568.8,54.8c0-1,0.1-1.8,0.3-2.5s0.5-1.1,0.9-1.4s0.9-0.5,1.6-0.5c0.5,0,0.9,0.1,1.2,0.3s0.6,0.5,0.9,0.8
		c0.3,0.3,0.4,0.8,0.5,1.3s0.2,1.2,0.2,2c0,1-0.1,1.8-0.3,2.4s-0.5,1.1-0.9,1.4c-0.4,0.3-0.9,0.5-1.6,0.5c-0.8,0-1.5-0.3-2-0.9
		C569.1,57.5,568.8,56.4,568.8,54.8z M569.9,54.8c0,1.4,0.2,2.3,0.5,2.8s0.7,0.7,1.2,0.7s0.9-0.2,1.2-0.7s0.5-1.4,0.5-2.8
		c0-1.4-0.2-2.4-0.5-2.8s-0.7-0.7-1.2-0.7s-0.9,0.2-1.2,0.6C570.1,52.4,569.9,53.4,569.9,54.8z"/>
	<path d="M575.7,57l1-0.1c0.1,0.5,0.2,0.8,0.5,1c0.3,0.2,0.6,0.3,0.9,0.3c0.3,0,0.6-0.1,0.9-0.2c0.3-0.1,0.4-0.3,0.6-0.6
		s0.3-0.6,0.4-1s0.2-0.9,0.2-1.3c0,0,0-0.1,0-0.2c-0.2,0.3-0.5,0.6-0.9,0.8c-0.4,0.2-0.8,0.3-1.2,0.3c-0.7,0-1.3-0.3-1.8-0.8
		s-0.7-1.2-0.7-2c0-0.9,0.3-1.6,0.8-2.1s1.2-0.8,1.9-0.8c0.6,0,1.1,0.2,1.5,0.5s0.8,0.7,1.1,1.3s0.4,1.4,0.4,2.4
		c0,1.1-0.1,2-0.4,2.6s-0.6,1.1-1.1,1.5s-1,0.5-1.7,0.5s-1.2-0.2-1.6-0.6C576.1,58.1,575.7,57.7,575.7,57z M580,53.2
		c0-0.6-0.2-1.1-0.5-1.4s-0.7-0.5-1.2-0.5s-0.9,0.2-1.2,0.6s-0.5,0.9-0.5,1.5c0,0.5,0.2,1,0.5,1.3s0.7,0.5,1.2,0.5s0.9-0.2,1.2-0.5
		S580,53.8,580,53.2z"/>
</g>
<g class="st1">
	<path d="M568.8,264.8c0-1,0.1-1.8,0.3-2.5c0.2-0.7,0.5-1.1,0.9-1.4s0.9-0.5,1.6-0.5c0.5,0,0.9,0.1,1.2,0.3s0.6,0.5,0.9,0.8
		c0.3,0.3,0.4,0.8,0.5,1.3s0.2,1.2,0.2,2c0,1-0.1,1.8-0.3,2.4s-0.5,1.1-0.9,1.4s-0.9,0.5-1.6,0.5c-0.8,0-1.5-0.3-2-0.9
		C569.1,267.5,568.8,266.4,568.8,264.8z M569.9,264.8c0,1.4,0.2,2.3,0.5,2.8s0.7,0.7,1.2,0.7s0.9-0.2,1.2-0.7s0.5-1.4,0.5-2.8
		c0-1.4-0.2-2.4-0.5-2.8s-0.7-0.7-1.2-0.7s-0.9,0.2-1.2,0.6C570.1,262.4,569.9,263.4,569.9,264.8z"/>
	<path d="M575.7,267l1-0.1c0.1,0.5,0.2,0.8,0.5,1s0.6,0.3,0.9,0.3c0.3,0,0.6-0.1,0.9-0.2s0.4-0.3,0.6-0.6s0.3-0.6,0.4-1
		s0.2-0.9,0.2-1.3c0,0,0-0.1,0-0.2c-0.2,0.3-0.5,0.6-0.9,0.8c-0.4,0.2-0.8,0.3-1.2,0.3c-0.7,0-1.3-0.3-1.8-0.8s-0.7-1.2-0.7-2
		c0-0.9,0.3-1.6,0.8-2.1s1.2-0.8,1.9-0.8c0.6,0,1.1,0.2,1.5,0.5s0.8,0.7,1.1,1.3c0.3,0.6,0.4,1.4,0.4,2.4c0,1.1-0.1,2-0.4,2.6
		c-0.3,0.6-0.6,1.1-1.1,1.5c-0.5,0.4-1,0.5-1.7,0.5s-1.2-0.2-1.6-0.6C576.1,268.1,575.7,267.7,575.7,267z M580,263.2
		c0-0.6-0.2-1.1-0.5-1.4s-0.7-0.5-1.2-0.5s-0.9,0.2-1.2,0.6c-0.3,0.4-0.5,0.9-0.5,1.5c0,0.5,0.2,1,0.5,1.3s0.7,0.5,1.2,0.5
		s0.9-0.2,1.2-0.5S580,263.8,580,263.2z"/>
</g>
<line class="st4" x1="590" y1="49" x2="590" y2="279"/>
<g class="st1">
	<path d="M602.8,59h-1.1v-6.7c-0.3,0.2-0.6,0.5-1,0.7s-0.8,0.4-1.1,0.5v-1c0.6-0.3,1.1-0.6,1.5-1s0.8-0.8,0.9-1.1h0.7L602.8,59
		L602.8,59z"/>
	<path d="M605.5,54.8c0-1,0.1-1.8,0.3-2.5s0.5-1.1,0.9-1.4s0.9-0.5,1.6-0.5c0.5,0,0.9,0.1,1.2,0.3s0.6,0.5,0.9,0.8
		c0.3,0.3,0.4,0.8,0.5,1.3s0.2,1.2,0.2,2c0,1-0.1,1.8-0.3,2.4s-0.5,1.1-0.9,1.4c-0.4,0.3-0.9,0.5-1.6,0.5c-0.8,0-1.5-0.3-2-0.9
		C605.8,57.5,605.5,56.4,605.5,54.8z M606.6,54.8c0,1.4,0.2,2.3,0.5,2.8s0.7,0.7,1.2,0.7s0.9-0.2,1.2-0.7s0.5-1.4,0.5-2.8
		c0-1.4-0.2-2.4-0.5-2.8s-0.7-0.7-1.2-0.7s-0.9,0.2-1.2,0.6C606.8,52.4,606.6,53.4,606.6,54.8z"/>
</g>
<g class="st1">
	<path d="M602.8,269h-1.1v-6.7c-0.3,0.2-0.6,0.5-1,0.7s-0.8,0.4-1.1,0.5v-1c0.6-0.3,1.1-0.6,1.5-1s0.8-0.8,0.9-1.1h0.7L602.8,269
		L602.8,269z"/>
	<path d="M605.5,264.8c0-1,0.1-1.8,0.3-2.5c0.2-0.7,0.5-1.1,0.9-1.4s0.9-0.5,1.6-0.5c0.5,0,0.9,0.1,1.2,0.3s0.6,0.5,0.9,0.8
		c0.3,0.3,0.4,0.8,0.5,1.3s0.2,1.2,0.2,2c0,1-0.1,1.8-0.3,2.4s-0.5,1.1-0.9,1.4s-0.9,0.5-1.6,0.5c-0.8,0-1.5-0.3-2-0.9
		C605.8,267.5,605.5,266.4,605.5,264.8z M606.6,264.8c0,1.4,0.2,2.3,0.5,2.8s0.7,0.7,1.2,0.7s0.9-0.2,1.2-0.7s0.5-1.4,0.5-2.8
		c0-1.4-0.2-2.4-0.5-2.8s-0.7-0.7-1.2-0.7s-0.9,0.2-1.2,0.6C606.8,262.4,606.6,263.4,606.6,264.8z"/>
</g>
<line class="st4" x1="620" y1="49" x2="620" y2="279"/>
<g class="st1">
	<path d="M633.2,59h-1.1v-6.7c-0.3,0.2-0.6,0.5-1,0.7s-0.8,0.4-1.1,0.5v-1c0.6-0.3,1.1-0.6,1.5-1s0.8-0.8,0.9-1.1h0.7L633.2,59
		L633.2,59z"/>
	<path d="M639,59h-1v-6.7c-0.3,0.2-0.6,0.5-1,0.7s-0.8,0.4-1.1,0.5v-1c0.6-0.3,1.1-0.6,1.5-1s0.8-0.8,0.9-1.1h0.7L639,59L639,59z"/>
</g>
<g class="st1">
	<path d="M633.2,269h-1.1v-6.7c-0.3,0.2-0.6,0.5-1,0.7s-0.8,0.4-1.1,0.5v-1c0.6-0.3,1.1-0.6,1.5-1s0.8-0.8,0.9-1.1h0.7L633.2,269
		L633.2,269z"/>
	<path d="M639,269h-1v-6.7c-0.3,0.2-0.6,0.5-1,0.7s-0.8,0.4-1.1,0.5v-1c0.6-0.3,1.1-0.6,1.5-1s0.8-0.8,0.9-1.1h0.7L639,269L639,269z
		"/>
</g>
<line class="st4" x1="650" y1="49" x2="650" y2="279"/>
<g class="st1">
	<path d="M662.8,59h-1.1v-6.7c-0.3,0.2-0.6,0.5-1,0.7s-0.8,0.4-1.1,0.5v-1c0.6-0.3,1.1-0.6,1.5-1s0.8-0.8,0.9-1.1h0.7L662.8,59
		L662.8,59z"/>
	<path d="M671,58v1h-5.7c0-0.3,0-0.5,0.1-0.7c0.1-0.4,0.4-0.8,0.7-1.1c0.3-0.3,0.8-0.8,1.4-1.3c0.9-0.8,1.6-1.4,1.9-1.8
		s0.5-0.9,0.5-1.3c0-0.4-0.1-0.8-0.4-1.1c-0.3-0.3-0.7-0.4-1.2-0.4s-0.9,0.2-1.2,0.5s-0.5,0.7-0.5,1.3l-1.1-0.1
		c0.1-0.8,0.4-1.4,0.8-1.8c0.4-0.4,1.1-0.6,2-0.6c0.8,0,1.5,0.2,2,0.7s0.7,1,0.7,1.7c0,0.3-0.1,0.7-0.2,1c-0.1,0.3-0.4,0.7-0.7,1
		c-0.3,0.3-0.9,0.9-1.6,1.5c-0.6,0.5-1,0.9-1.2,1.1s-0.3,0.4-0.4,0.6h4.1V58z"/>
</g>
<g class="st1">
	<path d="M662.8,269h-1.1v-6.7c-0.3,0.2-0.6,0.5-1,0.7s-0.8,0.4-1.1,0.5v-1c0.6-0.3,1.1-0.6,1.5-1s0.8-0.8,0.9-1.1h0.7L662.8,269
		L662.8,269z"/>
	<path d="M671,268v1h-5.7c0-0.3,0-0.5,0.1-0.7c0.1-0.4,0.4-0.8,0.7-1.1c0.3-0.3,0.8-0.8,1.4-1.3c0.9-0.8,1.6-1.4,1.9-1.8
		c0.3-0.4,0.5-0.9,0.5-1.3c0-0.4-0.1-0.8-0.4-1.1s-0.7-0.4-1.2-0.4s-0.9,0.2-1.2,0.5s-0.5,0.7-0.5,1.3l-1.1-0.1
		c0.1-0.8,0.4-1.4,0.8-1.8s1.1-0.6,2-0.6c0.8,0,1.5,0.2,2,0.7s0.7,1,0.7,1.7c0,0.3-0.1,0.7-0.2,1s-0.4,0.7-0.7,1s-0.9,0.9-1.6,1.5
		c-0.6,0.5-1,0.9-1.2,1.1s-0.3,0.4-0.4,0.6h4.1V268z"/>
</g>
<line class="st4" x1="680" y1="49" x2="680" y2="279"/>
<g class="st1">
	<path d="M692.8,59h-1.1v-6.7c-0.3,0.2-0.6,0.5-1,0.7s-0.8,0.4-1.1,0.5v-1c0.6-0.3,1.1-0.6,1.5-1s0.8-0.8,0.9-1.1h0.7L692.8,59
		L692.8,59z"/>
	<path d="M695.5,56.7l1.1-0.1c0.1,0.6,0.3,1,0.6,1.3c0.3,0.3,0.6,0.4,1.1,0.4s0.9-0.2,1.3-0.5s0.5-0.8,0.5-1.3s-0.2-0.9-0.5-1.2
		s-0.7-0.5-1.2-0.5c-0.2,0-0.4,0-0.7,0.1l0.1-0.9c0.1,0,0.1,0,0.2,0c0.4,0,0.9-0.1,1.2-0.4c0.3-0.3,0.5-0.6,0.5-1.1
		c0-0.4-0.1-0.7-0.4-1s-0.6-0.4-1-0.4s-0.8,0.1-1,0.4s-0.4,0.6-0.5,1.2l-1.1-0.2c0.1-0.7,0.4-1.3,0.9-1.6c0.5-0.3,1-0.6,1.7-0.6
		c0.5,0,0.9,0.1,1.3,0.3c0.4,0.2,0.7,0.5,0.9,0.8c0.2,0.3,0.3,0.7,0.3,1.1s-0.1,0.7-0.3,1s-0.5,0.5-0.9,0.7c0.5,0.1,0.9,0.4,1.2,0.7
		c0.3,0.3,0.4,0.8,0.4,1.4c0,0.8-0.3,1.4-0.8,1.9s-1.2,0.8-2.1,0.8c-0.8,0-1.4-0.2-1.9-0.7S695.6,57.4,695.5,56.7z"/>
</g>
<g class="st1">
	<path d="M692.8,269h-1.1v-6.7c-0.3,0.2-0.6,0.5-1,0.7s-0.8,0.4-1.1,0.5v-1c0.6-0.3,1.1-0.6,1.5-1s0.8-0.8,0.9-1.1h0.7L692.8,269
		L692.8,269z"/>
	<path d="M695.5,266.7l1.1-0.1c0.1,0.6,0.3,1,0.6,1.3s0.6,0.4,1.1,0.4s0.9-0.2,1.3-0.5s0.5-0.8,0.5-1.3s-0.2-0.9-0.5-1.2
		s-0.7-0.5-1.2-0.5c-0.2,0-0.4,0-0.7,0.1l0.1-0.9c0.1,0,0.1,0,0.2,0c0.4,0,0.9-0.1,1.2-0.4s0.5-0.6,0.5-1.1c0-0.4-0.1-0.7-0.4-1
		s-0.6-0.4-1-0.4s-0.8,0.1-1,0.4s-0.4,0.6-0.5,1.2l-1.1-0.2c0.1-0.7,0.4-1.3,0.9-1.6s1-0.6,1.7-0.6c0.5,0,0.9,0.1,1.3,0.3
		c0.4,0.2,0.7,0.5,0.9,0.8s0.3,0.7,0.3,1.1c0,0.4-0.1,0.7-0.3,1s-0.5,0.5-0.9,0.7c0.5,0.1,0.9,0.4,1.2,0.7s0.4,0.8,0.4,1.4
		c0,0.8-0.3,1.4-0.8,1.9s-1.2,0.8-2.1,0.8c-0.8,0-1.4-0.2-1.9-0.7S695.6,267.4,695.5,266.7z"/>
</g>
<line class="st4" x1="710" y1="49" x2="710" y2="279"/>
<g class="st1">
	<path d="M722.8,59h-1.1v-6.7c-0.3,0.2-0.6,0.5-1,0.7s-0.8,0.4-1.1,0.5v-1c0.6-0.3,1.1-0.6,1.5-1s0.8-0.8,0.9-1.1h0.7L722.8,59
		L722.8,59z"/>
	<path d="M728.9,59v-2.1h-3.7v-1l3.9-5.6h0.9V56h1.2v1H730v2H728.9z M728.9,56v-3.9l-2.7,3.9H728.9z"/>
</g>
<g class="st1">
	<path d="M722.8,269h-1.1v-6.7c-0.3,0.2-0.6,0.5-1,0.7s-0.8,0.4-1.1,0.5v-1c0.6-0.3,1.1-0.6,1.5-1s0.8-0.8,0.9-1.1h0.7L722.8,269
		L722.8,269z"/>
	<path d="M728.9,269v-2.1h-3.7v-1l3.9-5.6h0.9v5.6h1.2v1H730v2.1H728.9z M728.9,266v-3.9l-2.7,3.9H728.9z"/>
</g>
<line class="st4" x1="740" y1="49" x2="740" y2="279"/>
<g class="st1">
	<path d="M752.8,59h-1.1v-6.7c-0.3,0.2-0.6,0.5-1,0.7s-0.8,0.4-1.1,0.5v-1c0.6-0.3,1.1-0.6,1.5-1s0.8-0.8,0.9-1.1h0.7L752.8,59
		L752.8,59z"/>
	<path d="M755.5,56.8l1.1-0.1c0.1,0.5,0.3,0.9,0.6,1.2c0.3,0.3,0.7,0.4,1.1,0.4c0.5,0,0.9-0.2,1.3-0.6c0.4-0.4,0.5-0.9,0.5-1.5
		c0-0.6-0.2-1.1-0.5-1.4s-0.8-0.5-1.3-0.5c-0.3,0-0.6,0.1-0.9,0.2s-0.5,0.4-0.6,0.6l-1-0.1l0.8-4.4h4.3v1h-3.4l-0.5,2.3
		c0.5-0.4,1.1-0.5,1.6-0.5c0.8,0,1.4,0.3,1.9,0.8s0.8,1.2,0.8,2c0,0.8-0.2,1.4-0.7,2c-0.6,0.7-1.3,1-2.3,1c-0.8,0-1.4-0.2-1.9-0.7
		S755.6,57.5,755.5,56.8z"/>
</g>
<g class="st1">
	<path d="M752.8,269h-1.1v-6.7c-0.3,0.2-0.6,0.5-1,0.7s-0.8,0.4-1.1,0.5v-1c0.6-0.3,1.1-0.6,1.5-1s0.8-0.8,0.9-1.1h0.7L752.8,269
		L752.8,269z"/>
	<path d="M755.5,266.8l1.1-0.1c0.1,0.5,0.3,0.9,0.6,1.2s0.7,0.4,1.1,0.4c0.5,0,0.9-0.2,1.3-0.6s0.5-0.9,0.5-1.5s-0.2-1.1-0.5-1.4
		s-0.8-0.5-1.3-0.5c-0.3,0-0.6,0.1-0.9,0.2c-0.3,0.1-0.5,0.4-0.6,0.6l-1-0.1l0.8-4.4h4.3v1h-3.4l-0.5,2.3c0.5-0.4,1.1-0.5,1.6-0.5
		c0.8,0,1.4,0.3,1.9,0.8s0.8,1.2,0.8,2c0,0.8-0.2,1.4-0.7,2c-0.6,0.7-1.3,1-2.3,1c-0.8,0-1.4-0.2-1.9-0.7S755.6,267.5,755.5,266.8z"
		/>
</g>
<line class="st4" x1="770" y1="49" x2="770" y2="279"/>
<g class="st1">
	<path d="M782.8,59h-1.1v-6.7c-0.3,0.2-0.6,0.5-1,0.7s-0.8,0.4-1.1,0.5v-1c0.6-0.3,1.1-0.6,1.5-1s0.8-0.8,0.9-1.1h0.7L782.8,59
		L782.8,59z"/>
	<path d="M791,52.5l-1,0.1c-0.1-0.4-0.2-0.7-0.4-0.9c-0.3-0.3-0.6-0.5-1.1-0.5c-0.3,0-0.6,0.1-0.9,0.3c-0.3,0.2-0.6,0.6-0.8,1.1
		s-0.3,1.1-0.3,2c0.3-0.4,0.6-0.7,0.9-0.9s0.8-0.3,1.2-0.3c0.7,0,1.3,0.3,1.8,0.8s0.7,1.2,0.7,2c0,0.5-0.1,1-0.3,1.5s-0.6,0.8-1,1.1
		c-0.4,0.3-0.9,0.4-1.4,0.4c-0.9,0-1.6-0.3-2.2-1s-0.8-1.7-0.8-3.2c0-1.7,0.3-2.9,0.9-3.6c0.5-0.7,1.3-1,2.2-1
		c0.7,0,1.2,0.2,1.7,0.6S790.9,51.8,791,52.5z M786.7,56.2c0,0.4,0.1,0.7,0.2,1s0.4,0.6,0.6,0.8s0.6,0.3,0.9,0.3
		c0.4,0,0.8-0.2,1.1-0.5s0.5-0.8,0.5-1.5c0-0.6-0.2-1.1-0.5-1.4c-0.3-0.3-0.7-0.5-1.2-0.5s-0.9,0.2-1.2,0.5
		C786.8,55.2,786.7,55.7,786.7,56.2z"/>
</g>
<g class="st1">
	<path d="M782.8,269h-1.1v-6.7c-0.3,0.2-0.6,0.5-1,0.7s-0.8,0.4-1.1,0.5v-1c0.6-0.3,1.1-0.6,1.5-1s0.8-0.8,0.9-1.1h0.7L782.8,269
		L782.8,269z"/>
	<path d="M791,262.5l-1,0.1c-0.1-0.4-0.2-0.7-0.4-0.9c-0.3-0.3-0.6-0.5-1.1-0.5c-0.3,0-0.6,0.1-0.9,0.3c-0.3,0.2-0.6,0.6-0.8,1.1
		s-0.3,1.1-0.3,2c0.3-0.4,0.6-0.7,0.9-0.9c0.3-0.2,0.8-0.3,1.2-0.3c0.7,0,1.3,0.3,1.8,0.8s0.7,1.2,0.7,2c0,0.5-0.1,1-0.3,1.5
		s-0.6,0.8-1,1.1c-0.4,0.3-0.9,0.4-1.4,0.4c-0.9,0-1.6-0.3-2.2-1c-0.6-0.7-0.8-1.7-0.8-3.2c0-1.7,0.3-2.9,0.9-3.6
		c0.5-0.7,1.3-1,2.2-1c0.7,0,1.2,0.2,1.7,0.6S790.9,261.8,791,262.5z M786.7,266.2c0,0.4,0.1,0.7,0.2,1c0.1,0.3,0.4,0.6,0.6,0.8
		s0.6,0.3,0.9,0.3c0.4,0,0.8-0.2,1.1-0.5c0.3-0.3,0.5-0.8,0.5-1.5c0-0.6-0.2-1.1-0.5-1.4s-0.7-0.5-1.2-0.5s-0.9,0.2-1.2,0.5
		C786.8,265.2,786.7,265.7,786.7,266.2z"/>
</g>
<line class="st4" x1="800" y1="49" x2="800" y2="279"/>
<g class="st1">
	<path d="M812.8,59h-1.1v-6.7c-0.3,0.2-0.6,0.5-1,0.7s-0.8,0.4-1.1,0.5v-1c0.6-0.3,1.1-0.6,1.5-1s0.8-0.8,0.9-1.1h0.7L812.8,59
		L812.8,59z"/>
	<path d="M815.6,51.5v-1h5.6v0.8c-0.5,0.6-1.1,1.4-1.6,2.3c-0.5,0.9-1,2-1.2,3c-0.2,0.7-0.3,1.5-0.4,2.4h-1.1c0-0.7,0.1-1.5,0.4-2.4
		c0.3-0.9,0.6-1.9,1.1-2.8c0.5-0.9,1-1.6,1.5-2.2L815.6,51.5L815.6,51.5z"/>
</g>
<g class="st1">
	<path d="M812.8,269h-1.1v-6.7c-0.3,0.2-0.6,0.5-1,0.7s-0.8,0.4-1.1,0.5v-1c0.6-0.3,1.1-0.6,1.5-1s0.8-0.8,0.9-1.1h0.7L812.8,269
		L812.8,269z"/>
	<path d="M815.6,261.5v-1h5.6v0.8c-0.5,0.6-1.1,1.4-1.6,2.3s-1,2-1.2,3c-0.2,0.7-0.3,1.5-0.4,2.4h-1.1c0-0.7,0.1-1.5,0.4-2.4
		s0.6-1.9,1.1-2.8c0.5-0.9,1-1.6,1.5-2.2h-4.3V261.5z"/>
</g>
<line class="st4" x1="830" y1="49" x2="830" y2="279"/>
<g class="st1">
	<path d="M842.8,59h-1.1v-6.7c-0.3,0.2-0.6,0.5-1,0.7s-0.8,0.4-1.1,0.5v-1c0.6-0.3,1.1-0.6,1.5-1s0.8-0.8,0.9-1.1h0.7L842.8,59
		L842.8,59z"/>
	<path d="M847.1,54.3c-0.4-0.2-0.8-0.4-1-0.7c-0.2-0.3-0.3-0.7-0.3-1.1c0-0.6,0.2-1.2,0.7-1.6c0.5-0.4,1-0.6,1.8-0.6
		s1.4,0.2,1.8,0.7s0.7,1,0.7,1.6c0,0.4-0.1,0.7-0.3,1c-0.2,0.3-0.5,0.5-1,0.7c0.5,0.2,0.9,0.4,1.2,0.8s0.4,0.8,0.4,1.4
		c0,0.7-0.3,1.4-0.8,1.9s-1.2,0.8-2.1,0.8s-1.5-0.3-2.1-0.8s-0.8-1.1-0.8-1.9c0-0.6,0.1-1,0.4-1.4S846.6,54.5,847.1,54.3z
		 M846.6,56.5c0,0.3,0.1,0.6,0.2,0.9c0.1,0.3,0.4,0.5,0.6,0.7c0.2,0.2,0.6,0.2,0.9,0.2c0.5,0,0.9-0.2,1.2-0.5
		c0.3-0.3,0.5-0.7,0.5-1.2s-0.2-0.9-0.5-1.3c-0.3-0.4-0.8-0.5-1.3-0.5s-0.9,0.2-1.2,0.5C846.7,55.6,846.6,56,846.6,56.5z
		 M846.9,52.6c0,0.4,0.1,0.7,0.4,1c0.3,0.3,0.6,0.4,1,0.4s0.7-0.1,1-0.4c0.3-0.3,0.4-0.6,0.4-0.9c0-0.4-0.1-0.7-0.4-1
		s-0.6-0.4-1-0.4s-0.7,0.1-1,0.4S846.9,52.2,846.9,52.6z"/>
</g>
<g class="st1">
	<path d="M842.8,269h-1.1v-6.7c-0.3,0.2-0.6,0.5-1,0.7s-0.8,0.4-1.1,0.5v-1c0.6-0.3,1.1-0.6,1.5-1s0.8-0.8,0.9-1.1h0.7L842.8,269
		L842.8,269z"/>
	<path d="M847.1,264.3c-0.4-0.2-0.8-0.4-1-0.7s-0.3-0.7-0.3-1.1c0-0.6,0.2-1.2,0.7-1.6s1-0.6,1.8-0.6s1.4,0.2,1.8,0.7s0.7,1,0.7,1.6
		c0,0.4-0.1,0.7-0.3,1c-0.2,0.3-0.5,0.5-1,0.7c0.5,0.2,0.9,0.4,1.2,0.8c0.3,0.4,0.4,0.8,0.4,1.4c0,0.7-0.3,1.4-0.8,1.9
		s-1.2,0.8-2.1,0.8s-1.5-0.3-2.1-0.8s-0.8-1.1-0.8-1.9c0-0.6,0.1-1,0.4-1.4C846,264.7,846.6,264.5,847.1,264.3z M846.6,266.5
		c0,0.3,0.1,0.6,0.2,0.9s0.4,0.5,0.6,0.7c0.2,0.2,0.6,0.2,0.9,0.2c0.5,0,0.9-0.2,1.2-0.5s0.5-0.7,0.5-1.2s-0.2-0.9-0.5-1.3
		s-0.8-0.5-1.3-0.5s-0.9,0.2-1.2,0.5S846.6,266,846.6,266.5z M846.9,262.6c0,0.4,0.1,0.7,0.4,1s0.6,0.4,1,0.4s0.7-0.1,1-0.4
		s0.4-0.6,0.4-0.9c0-0.4-0.1-0.7-0.4-1s-0.6-0.4-1-0.4s-0.7,0.1-1,0.4S846.9,262.2,846.9,262.6z"/>
</g>
<line class="st4" x1="860" y1="49" x2="860" y2="279"/>
<g class="st1">
	<path d="M872.8,59h-1.1v-6.7c-0.3,0.2-0.6,0.5-1,0.7s-0.8,0.4-1.1,0.5v-1c0.6-0.3,1.1-0.6,1.5-1s0.8-0.8,0.9-1.1h0.7L872.8,59
		L872.8,59z"/>
	<path d="M875.7,57l1-0.1c0.1,0.5,0.2,0.8,0.5,1c0.3,0.2,0.6,0.3,0.9,0.3c0.3,0,0.6-0.1,0.9-0.2c0.3-0.1,0.4-0.3,0.6-0.6
		s0.3-0.6,0.4-1s0.2-0.9,0.2-1.3c0,0,0-0.1,0-0.2c-0.2,0.3-0.5,0.6-0.9,0.8c-0.4,0.2-0.8,0.3-1.2,0.3c-0.7,0-1.3-0.3-1.8-0.8
		s-0.7-1.2-0.7-2c0-0.9,0.3-1.6,0.8-2.1s1.2-0.8,1.9-0.8c0.6,0,1.1,0.2,1.5,0.5s0.8,0.7,1.1,1.3s0.4,1.4,0.4,2.4
		c0,1.1-0.1,2-0.4,2.6s-0.6,1.1-1.1,1.5s-1,0.5-1.7,0.5s-1.2-0.2-1.6-0.6C876.1,58.1,875.7,57.7,875.7,57z M880,53.2
		c0-0.6-0.2-1.1-0.5-1.4s-0.7-0.5-1.2-0.5s-0.9,0.2-1.2,0.6s-0.5,0.9-0.5,1.5c0,0.5,0.2,1,0.5,1.3s0.7,0.5,1.2,0.5s0.9-0.2,1.2-0.5
		S880,53.8,880,53.2z"/>
</g>
<g class="st1">
	<path d="M872.8,269h-1.1v-6.7c-0.3,0.2-0.6,0.5-1,0.7s-0.8,0.4-1.1,0.5v-1c0.6-0.3,1.1-0.6,1.5-1s0.8-0.8,0.9-1.1h0.7L872.8,269
		L872.8,269z"/>
	<path d="M875.7,267l1-0.1c0.1,0.5,0.2,0.8,0.5,1s0.6,0.3,0.9,0.3c0.3,0,0.6-0.1,0.9-0.2s0.4-0.3,0.6-0.6s0.3-0.6,0.4-1
		s0.2-0.9,0.2-1.3c0,0,0-0.1,0-0.2c-0.2,0.3-0.5,0.6-0.9,0.8c-0.4,0.2-0.8,0.3-1.2,0.3c-0.7,0-1.3-0.3-1.8-0.8s-0.7-1.2-0.7-2
		c0-0.9,0.3-1.6,0.8-2.1s1.2-0.8,1.9-0.8c0.6,0,1.1,0.2,1.5,0.5s0.8,0.7,1.1,1.3c0.3,0.6,0.4,1.4,0.4,2.4c0,1.1-0.1,2-0.4,2.6
		c-0.3,0.6-0.6,1.1-1.1,1.5c-0.5,0.4-1,0.5-1.7,0.5s-1.2-0.2-1.6-0.6C876.1,268.1,875.7,267.7,875.7,267z M880,263.2
		c0-0.6-0.2-1.1-0.5-1.4s-0.7-0.5-1.2-0.5s-0.9,0.2-1.2,0.6c-0.3,0.4-0.5,0.9-0.5,1.5c0,0.5,0.2,1,0.5,1.3s0.7,0.5,1.2,0.5
		s0.9-0.2,1.2-0.5S880,263.8,880,263.2z"/>
</g>
<line class="st4" x1="890" y1="49" x2="890" y2="279"/>
<g class="st1">
	<path d="M904.4,58v1h-5.7c0-0.3,0-0.5,0.1-0.7c0.1-0.4,0.4-0.8,0.7-1.1c0.3-0.3,0.8-0.8,1.4-1.3c0.9-0.8,1.6-1.4,1.9-1.8
		s0.5-0.9,0.5-1.3c0-0.4-0.1-0.8-0.4-1.1c-0.3-0.3-0.7-0.4-1.2-0.4s-0.9,0.2-1.2,0.5S900,52.4,900,53l-1.1-0.1
		c0.1-0.8,0.4-1.4,0.8-1.8s1.1-0.6,2-0.6c0.8,0,1.5,0.2,2,0.7s0.7,1,0.7,1.7c0,0.3-0.1,0.7-0.2,1s-0.4,0.7-0.7,1s-0.9,0.9-1.6,1.5
		c-0.6,0.5-1,0.9-1.2,1.1c-0.2,0.2-0.3,0.4-0.4,0.6L904.4,58L904.4,58z"/>
	<path d="M905.5,54.8c0-1,0.1-1.8,0.3-2.5s0.5-1.1,0.9-1.4s0.9-0.5,1.6-0.5c0.5,0,0.9,0.1,1.2,0.3s0.6,0.5,0.9,0.8
		c0.3,0.3,0.4,0.8,0.5,1.3s0.2,1.2,0.2,2c0,1-0.1,1.8-0.3,2.4s-0.5,1.1-0.9,1.4c-0.4,0.3-0.9,0.5-1.6,0.5c-0.8,0-1.5-0.3-2-0.9
		C905.8,57.5,905.5,56.4,905.5,54.8z M906.6,54.8c0,1.4,0.2,2.3,0.5,2.8s0.7,0.7,1.2,0.7s0.9-0.2,1.2-0.7s0.5-1.4,0.5-2.8
		c0-1.4-0.2-2.4-0.5-2.8s-0.7-0.7-1.2-0.7s-0.9,0.2-1.2,0.6C906.8,52.4,906.6,53.4,906.6,54.8z"/>
</g>
<g class="st1">
	<path d="M904.4,268v1h-5.7c0-0.3,0-0.5,0.1-0.7c0.1-0.4,0.4-0.8,0.7-1.1c0.3-0.3,0.8-0.8,1.4-1.3c0.9-0.8,1.6-1.4,1.9-1.8
		c0.3-0.4,0.5-0.9,0.5-1.3c0-0.4-0.1-0.8-0.4-1.1s-0.7-0.4-1.2-0.4s-0.9,0.2-1.2,0.5s-0.5,0.7-0.5,1.3l-1.1-0.1
		c0.1-0.8,0.4-1.4,0.8-1.8s1.1-0.6,2-0.6c0.8,0,1.5,0.2,2,0.7s0.7,1,0.7,1.7c0,0.3-0.1,0.7-0.2,1s-0.4,0.7-0.7,1s-0.9,0.9-1.6,1.5
		c-0.6,0.5-1,0.9-1.2,1.1s-0.3,0.4-0.4,0.6h4.1V268z"/>
	<path d="M905.5,264.8c0-1,0.1-1.8,0.3-2.5c0.2-0.7,0.5-1.1,0.9-1.4s0.9-0.5,1.6-0.5c0.5,0,0.9,0.1,1.2,0.3s0.6,0.5,0.9,0.8
		c0.3,0.3,0.4,0.8,0.5,1.3s0.2,1.2,0.2,2c0,1-0.1,1.8-0.3,2.4s-0.5,1.1-0.9,1.4s-0.9,0.5-1.6,0.5c-0.8,0-1.5-0.3-2-0.9
		C905.8,267.5,905.5,266.4,905.5,264.8z M906.6,264.8c0,1.4,0.2,2.3,0.5,2.8s0.7,0.7,1.2,0.7s0.9-0.2,1.2-0.7s0.5-1.4,0.5-2.8
		c0-1.4-0.2-2.4-0.5-2.8s-0.7-0.7-1.2-0.7s-0.9,0.2-1.2,0.6C906.8,262.4,906.6,263.4,906.6,264.8z"/>
</g>
<line class="st4" x1="920" y1="49" x2="920" y2="279"/>
<g class="st1">
	<path d="M934.4,58v1h-5.7c0-0.3,0-0.5,0.1-0.7c0.1-0.4,0.4-0.8,0.7-1.1c0.3-0.3,0.8-0.8,1.4-1.3c0.9-0.8,1.6-1.4,1.9-1.8
		s0.5-0.9,0.5-1.3c0-0.4-0.1-0.8-0.4-1.1c-0.3-0.3-0.7-0.4-1.2-0.4s-0.9,0.2-1.2,0.5S930,52.4,930,53l-1.1-0.1
		c0.1-0.8,0.4-1.4,0.8-1.8s1.1-0.6,2-0.6c0.8,0,1.5,0.2,2,0.7s0.7,1,0.7,1.7c0,0.3-0.1,0.7-0.2,1s-0.4,0.7-0.7,1s-0.9,0.9-1.6,1.5
		c-0.6,0.5-1,0.9-1.2,1.1c-0.2,0.2-0.3,0.4-0.4,0.6L934.4,58L934.4,58z"/>
	<path d="M939.5,59h-1.1v-6.7c-0.3,0.2-0.6,0.5-1,0.7s-0.8,0.4-1.1,0.5v-1c0.6-0.3,1.1-0.6,1.5-1s0.8-0.8,0.9-1.1h0.7L939.5,59
		L939.5,59z"/>
</g>
<g class="st1">
	<path d="M934.4,268v1h-5.7c0-0.3,0-0.5,0.1-0.7c0.1-0.4,0.4-0.8,0.7-1.1c0.3-0.3,0.8-0.8,1.4-1.3c0.9-0.8,1.6-1.4,1.9-1.8
		c0.3-0.4,0.5-0.9,0.5-1.3c0-0.4-0.1-0.8-0.4-1.1s-0.7-0.4-1.2-0.4s-0.9,0.2-1.2,0.5s-0.5,0.7-0.5,1.3l-1.1-0.1
		c0.1-0.8,0.4-1.4,0.8-1.8s1.1-0.6,2-0.6c0.8,0,1.5,0.2,2,0.7s0.7,1,0.7,1.7c0,0.3-0.1,0.7-0.2,1s-0.4,0.7-0.7,1s-0.9,0.9-1.6,1.5
		c-0.6,0.5-1,0.9-1.2,1.1s-0.3,0.4-0.4,0.6h4.1V268z"/>
	<path d="M939.5,269h-1.1v-6.7c-0.3,0.2-0.6,0.5-1,0.7s-0.8,0.4-1.1,0.5v-1c0.6-0.3,1.1-0.6,1.5-1s0.8-0.8,0.9-1.1h0.7L939.5,269
		L939.5,269z"/>
</g>
<line class="st4" x1="950" y1="49" x2="950" y2="279"/>
<circle class="st2" cx="111" cy="109" r="5"/>
<g class="st1">
	<path class="st2" d="M107.4,99h-1.6v-6.2c-0.6,0.6-1.3,1-2.1,1.2v-1.5c0.4-0.1,0.9-0.4,1.4-0.8c0.5-0.4,0.8-0.9,1-1.4h1.3
		C107.4,90.3,107.4,99,107.4,99z"/>
	<path class="st2" d="M110.2,99v-1.6h1.6V99H110.2z"/>
	<path class="st2" d="M116,90.4c0.8,0,1.5,0.3,2,0.9c0.6,0.7,0.8,1.9,0.8,3.5s-0.3,2.8-0.8,3.5c-0.5,0.6-1.1,0.9-1.9,0.9
		s-1.5-0.3-2-1s-0.8-1.8-0.8-3.4c0-1.6,0.3-2.8,0.8-3.5C114.5,90.7,115.1,90.4,116,90.4z M116,91.7c-0.2,0-0.4,0.1-0.5,0.2
		s-0.3,0.4-0.4,0.7c-0.1,0.4-0.2,1.1-0.2,2.2s0.1,1.7,0.2,2.1s0.2,0.6,0.4,0.8c0.2,0.2,0.3,0.2,0.5,0.2s0.4-0.1,0.5-0.2
		c0.1-0.1,0.3-0.4,0.4-0.7c0.1-0.4,0.2-1.1,0.2-2.1s-0.1-1.7-0.2-2.1s-0.2-0.6-0.4-0.8C116.3,91.8,116.2,91.7,116,91.7z"/>
</g>
<circle class="st2" cx="133" cy="109" r="5"/>
<g class="st1">
	<path class="st2" d="M129.4,129h-1.6v-6.2c-0.6,0.6-1.3,1-2.1,1.2v-1.5c0.4-0.1,0.9-0.4,1.4-0.8s0.8-0.9,1-1.4h1.3L129.4,129
		L129.4,129z"/>
	<path class="st2" d="M132.2,129v-1.6h1.6v1.6H132.2z"/>
	<path class="st2" d="M139.4,129h-1.6v-6.2c-0.6,0.6-1.3,1-2.1,1.2v-1.5c0.4-0.1,0.9-0.4,1.4-0.8s0.8-0.9,1-1.4h1.3L139.4,129
		L139.4,129z"/>
</g>
<circle class="st2" cx="148" cy="109" r="5"/>
<g class="st1">
	<path class="st2" d="M144.4,99h-1.6v-6.2c-0.6,0.6-1.3,1-2.1,1.2v-1.5c0.4-0.1,0.9-0.4,1.4-0.8c0.5-0.4,0.8-0.9,1-1.4h1.3L144.4,99
		L144.4,99z"/>
	<path class="st2" d="M147.2,99v-1.6h1.6V99H147.2z"/>
	<path class="st2" d="M155.7,97.5V99H150c0.1-0.6,0.2-1.1,0.6-1.6s0.9-1.2,1.9-2.1c0.7-0.7,1.2-1.2,1.4-1.4c0.2-0.3,0.3-0.7,0.3-1
		c0-0.4-0.1-0.6-0.3-0.8c-0.2-0.2-0.5-0.3-0.8-0.3s-0.6,0.1-0.8,0.3c-0.2,0.2-0.3,0.6-0.4,1l-1.6-0.2c0.1-0.9,0.4-1.6,0.9-2
		s1.2-0.6,1.9-0.6c0.8,0,1.5,0.2,2,0.7s0.7,1,0.7,1.7c0,0.4-0.1,0.8-0.2,1.1s-0.4,0.7-0.7,1.1c-0.2,0.3-0.6,0.6-1.1,1.1
		s-0.8,0.8-1,0.9s-0.3,0.3-0.3,0.5L155.7,97.5L155.7,97.5z"/>
</g>
<circle class="st2" cx="163" cy="109" r="5"/>
<g class="st1">
	<path class="st2" d="M159.4,129h-1.6v-6.2c-0.6,0.6-1.3,1-2.1,1.2v-1.5c0.4-0.1,0.9-0.4,1.4-0.8s0.8-0.9,1-1.4h1.3L159.4,129
		L159.4,129z"/>
	<path class="st2" d="M162.2,129v-1.6h1.6v1.6H162.2z"/>
	<path class="st2" d="M165.1,126.7l1.6-0.2c0.1,0.4,0.2,0.7,0.4,0.9s0.5,0.3,0.8,0.3s0.6-0.1,0.9-0.4s0.3-0.6,0.3-1s-0.1-0.7-0.3-1
		s-0.5-0.3-0.8-0.3c-0.2,0-0.5,0-0.8,0.1l0.2-1.3c0.4,0,0.8-0.1,1-0.3s0.4-0.5,0.4-0.8s-0.1-0.5-0.3-0.7s-0.4-0.3-0.7-0.3
		s-0.5,0.1-0.7,0.3s-0.3,0.5-0.4,0.9l-1.5-0.3c0.1-0.5,0.3-0.9,0.5-1.2s0.5-0.6,0.9-0.7s0.8-0.3,1.3-0.3c0.8,0,1.5,0.3,1.9,0.8
		c0.4,0.4,0.6,0.9,0.6,1.4c0,0.8-0.4,1.4-1.2,1.8c0.5,0.1,0.9,0.3,1.2,0.7s0.4,0.8,0.4,1.3c0,0.8-0.3,1.4-0.8,1.9s-1.2,0.8-2.1,0.8
		c-0.8,0-1.4-0.2-1.9-0.7S165.2,127.4,165.1,126.7z"/>
</g>
<circle class="st2" cx="194" cy="109" r="5"/>
<g class="st1">
	<path class="st2" d="M190.4,99h-1.6v-6.2c-0.6,0.6-1.3,1-2.1,1.2v-1.5c0.4-0.1,0.9-0.4,1.4-0.8c0.5-0.4,0.8-0.9,1-1.4h1.3L190.4,99
		L190.4,99z"/>
	<path class="st2" d="M193.2,99v-1.6h1.6V99H193.2z"/>
	<path class="st2" d="M199.4,99v-1.7h-3.5v-1.4l3.7-5.5h1.4v5.4h1.1v1.4H201V99H199.4z M199.4,95.8v-2.9l-2,2.9H199.4z"/>
</g>
<circle class="st2" cx="230" cy="109" r="5"/>
<g class="st1">
	<path class="st2" d="M226.4,99h-1.6v-6.2c-0.6,0.6-1.3,1-2.1,1.2v-1.5c0.4-0.1,0.9-0.4,1.4-0.8c0.5-0.4,0.8-0.9,1-1.4h1.3L226.4,99
		L226.4,99z"/>
	<path class="st2" d="M229.2,99v-1.6h1.6V99H229.2z"/>
	<path class="st2" d="M232.2,96.8l1.6-0.2c0,0.4,0.2,0.7,0.4,0.9s0.5,0.3,0.8,0.3s0.6-0.1,0.9-0.4s0.4-0.7,0.4-1.3
		c0-0.5-0.1-0.9-0.4-1.2c-0.3-0.3-0.5-0.4-0.9-0.4c-0.5,0-0.9,0.2-1.3,0.6l-1.3-0.2l0.8-4.5h4.4v1.5h-3.1l-0.3,1.5
		c0.4-0.2,0.7-0.3,1.1-0.3c0.7,0,1.3,0.3,1.9,0.8s0.8,1.2,0.8,2.1c0,0.7-0.2,1.3-0.6,1.9c-0.6,0.8-1.3,1.1-2.3,1.1
		c-0.8,0-1.4-0.2-1.9-0.6S232.3,97.5,232.2,96.8z"/>
</g>
<circle class="st2" cx="310" cy="109" r="5"/>
<g class="st1">
	<path class="st2" d="M306.4,99h-1.6v-6.2c-0.6,0.6-1.3,1-2.1,1.2v-1.5c0.4-0.1,0.9-0.4,1.4-0.8c0.5-0.4,0.8-0.9,1-1.4h1.3L306.4,99
		L306.4,99z"/>
	<path class="st2" d="M309.2,99v-1.6h1.6V99H309.2z"/>
	<path class="st2" d="M317.8,92.5l-1.6,0.2c0-0.3-0.1-0.6-0.3-0.7s-0.4-0.2-0.6-0.2c-0.3,0-0.6,0.2-0.9,0.5c-0.3,0.3-0.4,1-0.5,2
		c0.4-0.5,0.9-0.7,1.5-0.7c0.7,0,1.3,0.3,1.8,0.8s0.7,1.2,0.7,2c0,0.9-0.3,1.6-0.8,2.1s-1.2,0.8-2,0.8c-0.9,0-1.6-0.3-2.1-1
		s-0.8-1.8-0.8-3.3c0-1.6,0.3-2.7,0.9-3.4c0.6-0.7,1.3-1,2.3-1c0.7,0,1.2,0.2,1.6,0.5C317.4,91.4,317.6,91.8,317.8,92.5z M314,96.1
		c0,0.5,0.1,0.9,0.4,1.2c0.3,0.3,0.5,0.4,0.8,0.4s0.6-0.1,0.8-0.4s0.3-0.6,0.3-1.2s-0.1-1-0.3-1.2c-0.2-0.2-0.5-0.4-0.8-0.4
		s-0.6,0.1-0.8,0.4S314,95.6,314,96.1z"/>
</g>
<circle class="st2" cx="314" cy="169" r="5"/>
<g class="st1">
	<path class="st2" d="M311.7,157.5v1.5H306c0.1-0.6,0.2-1.1,0.6-1.6s0.9-1.2,1.9-2.1c0.7-0.7,1.2-1.2,1.4-1.4c0.2-0.3,0.3-0.7,0.3-1
		c0-0.4-0.1-0.6-0.3-0.8c-0.2-0.2-0.5-0.3-0.8-0.3s-0.6,0.1-0.8,0.3c-0.2,0.2-0.3,0.6-0.4,1l-1.6-0.2c0.1-0.9,0.4-1.6,0.9-2
		c0.5-0.4,1.2-0.6,1.9-0.6c0.8,0,1.5,0.2,2,0.7s0.7,1,0.7,1.7c0,0.4-0.1,0.8-0.2,1.1c-0.1,0.3-0.4,0.7-0.7,1.1
		c-0.2,0.3-0.6,0.6-1.1,1.1s-0.8,0.8-1,0.9s-0.3,0.3-0.3,0.5h3.2V157.5z"/>
	<path class="st2" d="M313.2,159v-1.6h1.6v1.6H313.2z"/>
	<path class="st2" d="M319,150.4c0.8,0,1.5,0.3,2,0.9c0.6,0.7,0.8,1.9,0.8,3.5s-0.3,2.8-0.8,3.5c-0.5,0.6-1.1,0.9-1.9,0.9
		s-1.5-0.3-2-1c-0.5-0.7-0.8-1.8-0.8-3.4s0.3-2.8,0.8-3.5C317.5,150.7,318.1,150.4,319,150.4z M319,151.7c-0.2,0-0.4,0.1-0.5,0.2
		s-0.3,0.4-0.4,0.7c-0.1,0.4-0.2,1.1-0.2,2.2s0.1,1.7,0.2,2.1c0.1,0.4,0.2,0.6,0.4,0.8c0.2,0.2,0.3,0.2,0.5,0.2s0.4-0.1,0.5-0.2
		c0.1-0.1,0.3-0.4,0.4-0.7c0.1-0.4,0.2-1.1,0.2-2.1s-0.1-1.7-0.2-2.1c-0.1-0.4-0.2-0.6-0.4-0.8C319.3,151.8,319.2,151.7,319,151.7z"
		/>
</g>
<circle class="st2" cx="329" cy="169" r="5"/>
<g class="st1">
	<path class="st2" d="M326.7,187.5v1.5H321c0.1-0.6,0.2-1.1,0.6-1.6s0.9-1.2,1.9-2.1c0.7-0.7,1.2-1.2,1.4-1.4c0.2-0.3,0.3-0.7,0.3-1
		c0-0.4-0.1-0.6-0.3-0.8s-0.5-0.3-0.8-0.3s-0.6,0.1-0.8,0.3s-0.3,0.6-0.4,1l-1.6-0.2c0.1-0.9,0.4-1.6,0.9-2s1.2-0.6,1.9-0.6
		c0.8,0,1.5,0.2,2,0.7s0.7,1,0.7,1.7c0,0.4-0.1,0.8-0.2,1.1s-0.4,0.7-0.7,1.1c-0.2,0.3-0.6,0.6-1.1,1.1s-0.8,0.8-1,0.9
		s-0.3,0.3-0.3,0.5h3.2V187.5z"/>
	<path class="st2" d="M328.2,189v-1.6h1.6v1.6H328.2z"/>
	<path class="st2" d="M335.4,189h-1.6v-6.2c-0.6,0.6-1.3,1-2.1,1.2v-1.5c0.4-0.1,0.9-0.4,1.4-0.8s0.8-0.9,1-1.4h1.3L335.4,189
		L335.4,189z"/>
</g>
<circle class="st2" cx="349" cy="169" r="5"/>
<g class="st1">
	<path class="st2" d="M346.7,157.5v1.5H341c0.1-0.6,0.2-1.1,0.6-1.6s0.9-1.2,1.9-2.1c0.7-0.7,1.2-1.2,1.4-1.4c0.2-0.3,0.3-0.7,0.3-1
		c0-0.4-0.1-0.6-0.3-0.8c-0.2-0.2-0.5-0.3-0.8-0.3s-0.6,0.1-0.8,0.3c-0.2,0.2-0.3,0.6-0.4,1l-1.6-0.2c0.1-0.9,0.4-1.6,0.9-2
		c0.5-0.4,1.2-0.6,1.9-0.6c0.8,0,1.5,0.2,2,0.7s0.7,1,0.7,1.7c0,0.4-0.1,0.8-0.2,1.1c-0.1,0.3-0.4,0.7-0.7,1.1
		c-0.2,0.3-0.6,0.6-1.1,1.1s-0.8,0.8-1,0.9s-0.3,0.3-0.3,0.5h3.2V157.5z"/>
	<path class="st2" d="M348.2,159v-1.6h1.6v1.6H348.2z"/>
	<path class="st2" d="M356.7,157.5v1.5H351c0.1-0.6,0.2-1.1,0.6-1.6s0.9-1.2,1.9-2.1c0.7-0.7,1.2-1.2,1.4-1.4c0.2-0.3,0.3-0.7,0.3-1
		c0-0.4-0.1-0.6-0.3-0.8c-0.2-0.2-0.5-0.3-0.8-0.3s-0.6,0.1-0.8,0.3c-0.2,0.2-0.3,0.6-0.4,1l-1.6-0.2c0.1-0.9,0.4-1.6,0.9-2
		c0.5-0.4,1.2-0.6,1.9-0.6c0.8,0,1.5,0.2,2,0.7s0.7,1,0.7,1.7c0,0.4-0.1,0.8-0.2,1.1c-0.1,0.3-0.4,0.7-0.7,1.1
		c-0.2,0.3-0.6,0.6-1.1,1.1s-0.8,0.8-1,0.9s-0.3,0.3-0.3,0.5h3.2V157.5z"/>
</g>
<circle class="st2" cx="397" cy="169" r="5"/>
<g class="st1">
	<path class="st2" d="M394.7,157.5v1.5H389c0.1-0.6,0.2-1.1,0.6-1.6s0.9-1.2,1.9-2.1c0.7-0.7,1.2-1.2,1.4-1.4c0.2-0.3,0.3-0.7,0.3-1
		c0-0.4-0.1-0.6-0.3-0.8c-0.2-0.2-0.5-0.3-0.8-0.3s-0.6,0.1-0.8,0.3c-0.2,0.2-0.3,0.6-0.4,1l-1.6-0.2c0.1-0.9,0.4-1.6,0.9-2
		c0.5-0.4,1.2-0.6,1.9-0.6c0.8,0,1.5,0.2,2,0.7s0.7,1,0.7,1.7c0,0.4-0.1,0.8-0.2,1.1c-0.1,0.3-0.4,0.7-0.7,1.1
		c-0.2,0.3-0.6,0.6-1.1,1.1s-0.8,0.8-1,0.9s-0.3,0.3-0.3,0.5h3.2V157.5z"/>
	<path class="st2" d="M396.2,159v-1.6h1.6v1.6H396.2z"/>
	<path class="st2" d="M399.1,156.7l1.6-0.2c0.1,0.4,0.2,0.7,0.4,0.9c0.2,0.2,0.5,0.3,0.8,0.3s0.6-0.1,0.9-0.4s0.3-0.6,0.3-1
		s-0.1-0.7-0.3-1s-0.5-0.4-0.8-0.4c-0.2,0-0.5,0-0.8,0.1l0.2-1.3c0.4,0,0.8-0.1,1-0.3s0.4-0.5,0.4-0.8s-0.1-0.5-0.3-0.7
		s-0.4-0.3-0.7-0.3c-0.3,0-0.5,0.1-0.7,0.3s-0.3,0.5-0.4,0.9l-1.5-0.3c0.1-0.5,0.3-0.9,0.5-1.2c0.2-0.3,0.5-0.6,0.9-0.7
		c0.4-0.1,0.8-0.3,1.3-0.3c0.8,0,1.5,0.3,1.9,0.8c0.4,0.4,0.6,0.9,0.6,1.4c0,0.8-0.4,1.4-1.2,1.8c0.5,0.1,0.9,0.3,1.2,0.7
		s0.4,0.8,0.4,1.3c0,0.8-0.3,1.4-0.8,1.9s-1.2,0.8-2.1,0.8c-0.8,0-1.4-0.2-1.9-0.7S399.2,157.4,399.1,156.7z"/>
</g>
<circle class="st2" cx="438" cy="169" r="5"/>
<g class="st1">
	<path class="st2" d="M435.7,157.5v1.5H430c0.1-0.6,0.2-1.1,0.6-1.6s0.9-1.2,1.9-2.1c0.7-0.7,1.2-1.2,1.4-1.4c0.2-0.3,0.3-0.7,0.3-1
		c0-0.4-0.1-0.6-0.3-0.8c-0.2-0.2-0.5-0.3-0.8-0.3s-0.6,0.1-0.8,0.3c-0.2,0.2-0.3,0.6-0.4,1l-1.6-0.2c0.1-0.9,0.4-1.6,0.9-2
		c0.5-0.4,1.2-0.6,1.9-0.6c0.8,0,1.5,0.2,2,0.7s0.7,1,0.7,1.7c0,0.4-0.1,0.8-0.2,1.1c-0.1,0.3-0.4,0.7-0.7,1.1
		c-0.2,0.3-0.6,0.6-1.1,1.1s-0.8,0.8-1,0.9s-0.3,0.3-0.3,0.5h3.2V157.5z"/>
	<path class="st2" d="M437.2,159v-1.6h1.6v1.6H437.2z"/>
	<path class="st2" d="M443.4,159v-1.7h-3.5v-1.4l3.7-5.5h1.4v5.4h1.1v1.4H445v1.7h-1.6V159z M443.4,155.8v-2.9l-2,2.9H443.4z"/>
</g>
<circle class="st2" cx="492" cy="169" r="5"/>
<g class="st1">
	<path class="st2" d="M489.7,157.5v1.5H484c0.1-0.6,0.2-1.1,0.6-1.6s0.9-1.2,1.9-2.1c0.7-0.7,1.2-1.2,1.4-1.4c0.2-0.3,0.3-0.7,0.3-1
		c0-0.4-0.1-0.6-0.3-0.8c-0.2-0.2-0.5-0.3-0.8-0.3s-0.6,0.1-0.8,0.3c-0.2,0.2-0.3,0.6-0.4,1l-1.6-0.2c0.1-0.9,0.4-1.6,0.9-2
		c0.5-0.4,1.2-0.6,1.9-0.6c0.8,0,1.5,0.2,2,0.7s0.7,1,0.7,1.7c0,0.4-0.1,0.8-0.2,1.1c-0.1,0.3-0.4,0.7-0.7,1.1
		c-0.2,0.3-0.6,0.6-1.1,1.1s-0.8,0.8-1,0.9s-0.3,0.3-0.3,0.5h3.2V157.5z"/>
	<path class="st2" d="M491.2,159v-1.6h1.6v1.6H491.2z"/>
	<path class="st2" d="M494.2,156.8l1.6-0.2c0,0.4,0.2,0.7,0.4,0.9c0.2,0.2,0.5,0.3,0.8,0.3s0.6-0.1,0.9-0.4s0.4-0.7,0.4-1.3
		c0-0.5-0.1-0.9-0.4-1.2s-0.5-0.4-0.9-0.4c-0.5,0-0.9,0.2-1.3,0.6l-1.3-0.2l0.8-4.5h4.4v1.5h-3.1l-0.3,1.5c0.4-0.2,0.7-0.3,1.1-0.3
		c0.7,0,1.3,0.3,1.9,0.8s0.8,1.2,0.8,2.1c0,0.7-0.2,1.3-0.6,1.9c-0.6,0.8-1.3,1.1-2.3,1.1c-0.8,0-1.4-0.2-1.9-0.6
		S494.3,157.5,494.2,156.8z"/>
</g>
<circle class="st2" cx="553" cy="169" r="5"/>
<g class="st1">
	<path class="st2" d="M550.7,157.5v1.5H545c0.1-0.6,0.2-1.1,0.6-1.6s0.9-1.2,1.9-2.1c0.7-0.7,1.2-1.2,1.4-1.4c0.2-0.3,0.3-0.7,0.3-1
		c0-0.4-0.1-0.6-0.3-0.8c-0.2-0.2-0.5-0.3-0.8-0.3s-0.6,0.1-0.8,0.3c-0.2,0.2-0.3,0.6-0.4,1l-1.6-0.2c0.1-0.9,0.4-1.6,0.9-2
		c0.5-0.4,1.2-0.6,1.9-0.6c0.8,0,1.5,0.2,2,0.7s0.7,1,0.7,1.7c0,0.4-0.1,0.8-0.2,1.1c-0.1,0.3-0.4,0.7-0.7,1.1
		c-0.2,0.3-0.6,0.6-1.1,1.1s-0.8,0.8-1,0.9s-0.3,0.3-0.3,0.5h3.2V157.5z"/>
	<path class="st2" d="M552.2,159v-1.6h1.6v1.6H552.2z"/>
	<path class="st2" d="M560.8,152.5l-1.6,0.2c0-0.3-0.1-0.6-0.3-0.7s-0.4-0.2-0.6-0.2c-0.3,0-0.6,0.2-0.9,0.5s-0.4,1-0.5,2
		c0.4-0.5,0.9-0.7,1.5-0.7c0.7,0,1.3,0.3,1.8,0.8s0.7,1.2,0.7,2c0,0.9-0.3,1.6-0.8,2.1s-1.2,0.8-2,0.8c-0.9,0-1.6-0.3-2.1-1
		c-0.5-0.7-0.8-1.8-0.8-3.3c0-1.6,0.3-2.7,0.9-3.4s1.3-1,2.3-1c0.7,0,1.2,0.2,1.6,0.5S560.6,151.8,560.8,152.5z M557,156.1
		c0,0.5,0.1,0.9,0.4,1.2c0.3,0.3,0.5,0.4,0.8,0.4s0.6-0.1,0.8-0.4c0.2-0.3,0.3-0.6,0.3-1.2c0-0.6-0.1-1-0.3-1.2
		c-0.2-0.2-0.5-0.4-0.8-0.4s-0.6,0.1-0.8,0.4C557.2,155.2,557,155.6,557,156.1z"/>
</g>
<circle class="st2" cx="605" cy="169" r="5"/>
<g class="st1">
	<path class="st2" d="M602.7,157.5v1.5H597c0.1-0.6,0.2-1.1,0.6-1.6s0.9-1.2,1.9-2.1c0.7-0.7,1.2-1.2,1.4-1.4c0.2-0.3,0.3-0.7,0.3-1
		c0-0.4-0.1-0.6-0.3-0.8c-0.2-0.2-0.5-0.3-0.8-0.3s-0.6,0.1-0.8,0.3c-0.2,0.2-0.3,0.6-0.4,1l-1.6-0.2c0.1-0.9,0.4-1.6,0.9-2
		c0.5-0.4,1.2-0.6,1.9-0.6c0.8,0,1.5,0.2,2,0.7s0.7,1,0.7,1.7c0,0.4-0.1,0.8-0.2,1.1c-0.1,0.3-0.4,0.7-0.7,1.1
		c-0.2,0.3-0.6,0.6-1.1,1.1s-0.8,0.8-1,0.9s-0.3,0.3-0.3,0.5h3.2V157.5z"/>
	<path class="st2" d="M604.2,159v-1.6h1.6v1.6H604.2z"/>
	<path class="st2" d="M607.2,152.1v-1.5h5.6v1.2c-0.5,0.5-0.9,1.1-1.4,2c-0.5,0.9-0.8,1.8-1.1,2.7s-0.4,1.8-0.4,2.6h-1.6
		c0-1.2,0.3-2.4,0.7-3.6c0.4-1.2,1.1-2.3,1.9-3.3L607.2,152.1L607.2,152.1z"/>
</g>
<circle class="st2" cx="558" cy="229" r="5"/>
<g class="st1">
	<path class="st2" d="M550.1,216.7l1.6-0.2c0.1,0.4,0.2,0.7,0.4,0.9s0.5,0.3,0.8,0.3s0.6-0.1,0.9-0.4s0.3-0.6,0.3-1s-0.1-0.7-0.3-1
		s-0.5-0.4-0.8-0.4c-0.2,0-0.5,0-0.8,0.1l0.2-1.3c0.4,0,0.8-0.1,1-0.3s0.4-0.5,0.4-0.8s-0.1-0.5-0.3-0.7s-0.4-0.3-0.7-0.3
		s-0.5,0.1-0.7,0.3s-0.3,0.5-0.4,0.9l-1.5-0.3c0.1-0.5,0.3-0.9,0.5-1.2s0.5-0.6,0.9-0.7s0.8-0.3,1.3-0.3c0.8,0,1.5,0.3,1.9,0.8
		c0.4,0.4,0.6,0.9,0.6,1.4c0,0.8-0.4,1.4-1.2,1.8c0.5,0.1,0.9,0.3,1.2,0.7s0.4,0.8,0.4,1.3c0,0.8-0.3,1.4-0.8,1.9s-1.2,0.8-2.1,0.8
		c-0.8,0-1.4-0.2-1.9-0.7S550.2,217.4,550.1,216.7z"/>
	<path class="st2" d="M557.2,219v-1.6h1.6v1.6H557.2z"/>
	<path class="st2" d="M563,210.4c0.8,0,1.5,0.3,2,0.9c0.6,0.7,0.8,1.9,0.8,3.5s-0.3,2.8-0.8,3.5c-0.5,0.6-1.1,0.9-1.9,0.9
		c-0.8,0-1.5-0.3-2-1s-0.8-1.8-0.8-3.4c0-1.6,0.3-2.8,0.8-3.5C561.5,210.7,562.1,210.4,563,210.4z M563,211.7
		c-0.2,0-0.4,0.1-0.5,0.2s-0.3,0.4-0.4,0.7c-0.1,0.4-0.2,1.1-0.2,2.2s0.1,1.7,0.2,2.1s0.2,0.6,0.4,0.8s0.3,0.2,0.5,0.2
		s0.4-0.1,0.5-0.2s0.3-0.4,0.4-0.7c0.1-0.4,0.2-1.1,0.2-2.1s-0.1-1.7-0.2-2.1s-0.2-0.6-0.4-0.8S563.2,211.7,563,211.7z"/>
</g>
<circle class="st2" cx="575" cy="229" r="5"/>
<g class="st1">
	<path class="st2" d="M567.1,246.7l1.6-0.2c0.1,0.4,0.2,0.7,0.4,0.9s0.5,0.3,0.8,0.3s0.6-0.1,0.9-0.4s0.3-0.6,0.3-1s-0.1-0.7-0.3-1
		s-0.5-0.4-0.8-0.4c-0.2,0-0.5,0-0.8,0.1l0.2-1.3c0.4,0,0.8-0.1,1-0.3s0.4-0.5,0.4-0.8s-0.1-0.5-0.3-0.7s-0.4-0.3-0.7-0.3
		s-0.5,0.1-0.7,0.3s-0.3,0.5-0.4,0.9l-1.5-0.3c0.1-0.5,0.3-0.9,0.5-1.2s0.5-0.6,0.9-0.7s0.8-0.3,1.3-0.3c0.8,0,1.5,0.3,1.9,0.8
		c0.4,0.4,0.6,0.9,0.6,1.4c0,0.8-0.4,1.4-1.2,1.8c0.5,0.1,0.9,0.3,1.2,0.7s0.4,0.8,0.4,1.3c0,0.8-0.3,1.4-0.8,1.9s-1.2,0.8-2.1,0.8
		c-0.8,0-1.4-0.2-1.9-0.7S567.2,247.4,567.1,246.7z"/>
	<path class="st2" d="M574.2,249v-1.6h1.6v1.6H574.2z"/>
	<path class="st2" d="M581.4,249h-1.6v-6.2c-0.6,0.6-1.3,1-2.1,1.2v-1.5c0.4-0.1,0.9-0.4,1.4-0.8s0.8-0.9,1-1.4h1.3L581.4,249
		L581.4,249z"/>
</g>
<circle class="st2" cx="624" cy="229" r="5"/>
<g class="st1">
	<path class="st2" d="M616.1,216.7l1.6-0.2c0.1,0.4,0.2,0.7,0.4,0.9s0.5,0.3,0.8,0.3s0.6-0.1,0.9-0.4s0.3-0.6,0.3-1s-0.1-0.7-0.3-1
		s-0.5-0.4-0.8-0.4c-0.2,0-0.5,0-0.8,0.1l0.2-1.3c0.4,0,0.8-0.1,1-0.3s0.4-0.5,0.4-0.8s-0.1-0.5-0.3-0.7s-0.4-0.3-0.7-0.3
		s-0.5,0.1-0.7,0.3s-0.3,0.5-0.4,0.9l-1.5-0.3c0.1-0.5,0.3-0.9,0.5-1.2s0.5-0.6,0.9-0.7s0.8-0.3,1.3-0.3c0.8,0,1.5,0.3,1.9,0.8
		c0.4,0.4,0.6,0.9,0.6,1.4c0,0.8-0.4,1.4-1.2,1.8c0.5,0.1,0.9,0.3,1.2,0.7s0.4,0.8,0.4,1.3c0,0.8-0.3,1.4-0.8,1.9s-1.2,0.8-2.1,0.8
		c-0.8,0-1.4-0.2-1.9-0.7S616.2,217.4,616.1,216.7z"/>
	<path class="st2" d="M623.2,219v-1.6h1.6v1.6H623.2z"/>
	<path class="st2" d="M631.7,217.5v1.5H626c0.1-0.6,0.2-1.1,0.6-1.6s0.9-1.2,1.9-2.1c0.7-0.7,1.2-1.2,1.4-1.4c0.2-0.3,0.3-0.7,0.3-1
		c0-0.4-0.1-0.6-0.3-0.8s-0.5-0.3-0.8-0.3s-0.6,0.1-0.8,0.3s-0.3,0.6-0.4,1l-1.6-0.2c0.1-0.9,0.4-1.6,0.9-2s1.2-0.6,1.9-0.6
		c0.8,0,1.5,0.2,2,0.7s0.7,1,0.7,1.7c0,0.4-0.1,0.8-0.2,1.1s-0.4,0.7-0.7,1.1c-0.2,0.3-0.6,0.6-1.1,1.1s-0.8,0.8-1,0.9
		s-0.3,0.3-0.3,0.5h3.2V217.5z"/>
</g>
<circle class="st2" cx="673" cy="229" r="5"/>
<g class="st1">
	<path class="st2" d="M665.1,216.7l1.6-0.2c0.1,0.4,0.2,0.7,0.4,0.9s0.5,0.3,0.8,0.3s0.6-0.1,0.9-0.4s0.3-0.6,0.3-1s-0.1-0.7-0.3-1
		s-0.5-0.4-0.8-0.4c-0.2,0-0.5,0-0.8,0.1l0.2-1.3c0.4,0,0.8-0.1,1-0.3s0.4-0.5,0.4-0.8s-0.1-0.5-0.3-0.7s-0.4-0.3-0.7-0.3
		s-0.5,0.1-0.7,0.3s-0.3,0.5-0.4,0.9l-1.5-0.3c0.1-0.5,0.3-0.9,0.5-1.2s0.5-0.6,0.9-0.7s0.8-0.3,1.3-0.3c0.8,0,1.5,0.3,1.9,0.8
		c0.4,0.4,0.6,0.9,0.6,1.4c0,0.8-0.4,1.4-1.2,1.8c0.5,0.1,0.9,0.3,1.2,0.7s0.4,0.8,0.4,1.3c0,0.8-0.3,1.4-0.8,1.9s-1.2,0.8-2.1,0.8
		c-0.8,0-1.4-0.2-1.9-0.7S665.2,217.4,665.1,216.7z"/>
	<path class="st2" d="M672.2,219v-1.6h1.6v1.6H672.2z"/>
	<path class="st2" d="M675.1,216.7l1.6-0.2c0.1,0.4,0.2,0.7,0.4,0.9s0.5,0.3,0.8,0.3s0.6-0.1,0.9-0.4s0.3-0.6,0.3-1s-0.1-0.7-0.3-1
		s-0.5-0.4-0.8-0.4c-0.2,0-0.5,0-0.8,0.1l0.2-1.3c0.4,0,0.8-0.1,1-0.3s0.4-0.5,0.4-0.8s-0.1-0.5-0.3-0.7s-0.4-0.3-0.7-0.3
		s-0.5,0.1-0.7,0.3s-0.3,0.5-0.4,0.9l-1.5-0.3c0.1-0.5,0.3-0.9,0.5-1.2s0.5-0.6,0.9-0.7s0.8-0.3,1.3-0.3c0.8,0,1.5,0.3,1.9,0.8
		c0.4,0.4,0.6,0.9,0.6,1.4c0,0.8-0.4,1.4-1.2,1.8c0.5,0.1,0.9,0.3,1.2,0.7s0.4,0.8,0.4,1.3c0,0.8-0.3,1.4-0.8,1.9s-1.2,0.8-2.1,0.8
		c-0.8,0-1.4-0.2-1.9-0.7S675.2,217.4,675.1,216.7z"/>
</g>
<circle class="st2" cx="716" cy="229" r="5"/>
<g class="st1">
	<path class="st2" d="M708.1,216.7l1.6-0.2c0.1,0.4,0.2,0.7,0.4,0.9s0.5,0.3,0.8,0.3s0.6-0.1,0.9-0.4s0.3-0.6,0.3-1s-0.1-0.7-0.3-1
		s-0.5-0.4-0.8-0.4c-0.2,0-0.5,0-0.8,0.1l0.2-1.3c0.4,0,0.8-0.1,1-0.3s0.4-0.5,0.4-0.8s-0.1-0.5-0.3-0.7s-0.4-0.3-0.7-0.3
		s-0.5,0.1-0.7,0.3s-0.3,0.5-0.4,0.9l-1.5-0.3c0.1-0.5,0.3-0.9,0.5-1.2s0.5-0.6,0.9-0.7s0.8-0.3,1.3-0.3c0.8,0,1.5,0.3,1.9,0.8
		c0.4,0.4,0.6,0.9,0.6,1.4c0,0.8-0.4,1.4-1.2,1.8c0.5,0.1,0.9,0.3,1.2,0.7s0.4,0.8,0.4,1.3c0,0.8-0.3,1.4-0.8,1.9s-1.2,0.8-2.1,0.8
		c-0.8,0-1.4-0.2-1.9-0.7S708.2,217.4,708.1,216.7z"/>
	<path class="st2" d="M715.2,219v-1.6h1.6v1.6H715.2z"/>
	<path class="st2" d="M721.4,219v-1.7h-3.5v-1.4l3.7-5.5h1.4v5.4h1.1v1.4H723v1.7h-1.6V219z M721.4,215.8v-2.9l-2,2.9H721.4z"/>
</g>
<circle class="st2" cx="761" cy="229" r="5"/>
<g class="st1">
	<path class="st2" d="M753.1,216.7l1.6-0.2c0.1,0.4,0.2,0.7,0.4,0.9s0.5,0.3,0.8,0.3s0.6-0.1,0.9-0.4s0.3-0.6,0.3-1s-0.1-0.7-0.3-1
		s-0.5-0.4-0.8-0.4c-0.2,0-0.5,0-0.8,0.1l0.2-1.3c0.4,0,0.8-0.1,1-0.3s0.4-0.5,0.4-0.8s-0.1-0.5-0.3-0.7s-0.4-0.3-0.7-0.3
		s-0.5,0.1-0.7,0.3s-0.3,0.5-0.4,0.9l-1.5-0.3c0.1-0.5,0.3-0.9,0.5-1.2s0.5-0.6,0.9-0.7s0.8-0.3,1.3-0.3c0.8,0,1.5,0.3,1.9,0.8
		c0.4,0.4,0.6,0.9,0.6,1.4c0,0.8-0.4,1.4-1.2,1.8c0.5,0.1,0.9,0.3,1.2,0.7s0.4,0.8,0.4,1.3c0,0.8-0.3,1.4-0.8,1.9s-1.2,0.8-2.1,0.8
		c-0.8,0-1.4-0.2-1.9-0.7S753.2,217.4,753.1,216.7z"/>
	<path class="st2" d="M760.2,219v-1.6h1.6v1.6H760.2z"/>
	<path class="st2" d="M763.2,216.8l1.6-0.2c0,0.4,0.2,0.7,0.4,0.9s0.5,0.3,0.8,0.3s0.6-0.1,0.9-0.4s0.4-0.7,0.4-1.3
		c0-0.5-0.1-0.9-0.4-1.2s-0.5-0.4-0.9-0.4c-0.5,0-0.9,0.2-1.3,0.6l-1.3-0.2l0.8-4.5h4.4v1.5h-3.1l-0.3,1.5c0.4-0.2,0.7-0.3,1.1-0.3
		c0.7,0,1.3,0.3,1.9,0.8s0.8,1.2,0.8,2.1c0,0.7-0.2,1.3-0.6,1.9c-0.6,0.8-1.3,1.1-2.3,1.1c-0.8,0-1.4-0.2-1.9-0.6
		S763.3,217.5,763.2,216.8z"/>
</g>
<circle cx="800" cy="229" r="5"/>
<g class="st1">
	<path d="M792.1,216.7l1.6-0.2c0.1,0.4,0.2,0.7,0.4,0.9s0.5,0.3,0.8,0.3s0.6-0.1,0.9-0.4s0.3-0.6,0.3-1s-0.1-0.7-0.3-1
		s-0.5-0.4-0.8-0.4c-0.2,0-0.5,0-0.8,0.1l0.2-1.3c0.4,0,0.8-0.1,1-0.3s0.4-0.5,0.4-0.8s-0.1-0.5-0.3-0.7s-0.4-0.3-0.7-0.3
		s-0.5,0.1-0.7,0.3s-0.3,0.5-0.4,0.9l-1.5-0.3c0.1-0.5,0.3-0.9,0.5-1.2s0.5-0.6,0.9-0.7s0.8-0.3,1.3-0.3c0.8,0,1.5,0.3,1.9,0.8
		c0.4,0.4,0.6,0.9,0.6,1.4c0,0.8-0.4,1.4-1.2,1.8c0.5,0.1,0.9,0.3,1.2,0.7s0.4,0.8,0.4,1.3c0,0.8-0.3,1.4-0.8,1.9s-1.2,0.8-2.1,0.8
		c-0.8,0-1.4-0.2-1.9-0.7S792.2,217.4,792.1,216.7z"/>
	<path d="M799.2,219v-1.6h1.6v1.6H799.2z"/>
	<path d="M807.8,212.5l-1.6,0.2c0-0.3-0.1-0.6-0.3-0.7s-0.4-0.2-0.6-0.2c-0.3,0-0.6,0.2-0.9,0.5s-0.4,1-0.5,2
		c0.4-0.5,0.9-0.7,1.5-0.7c0.7,0,1.3,0.3,1.8,0.8s0.7,1.2,0.7,2c0,0.9-0.3,1.6-0.8,2.1s-1.2,0.8-2,0.8c-0.9,0-1.6-0.3-2.1-1
		s-0.8-1.8-0.8-3.3c0-1.6,0.3-2.7,0.9-3.4s1.3-1,2.3-1c0.7,0,1.2,0.2,1.6,0.5S807.6,211.8,807.8,212.5z M804,216.1
		c0,0.5,0.1,0.9,0.4,1.2s0.5,0.4,0.8,0.4s0.6-0.1,0.8-0.4s0.3-0.6,0.3-1.2c0-0.6-0.1-1-0.3-1.2s-0.5-0.4-0.8-0.4s-0.6,0.1-0.8,0.4
		S804,215.6,804,216.1z"/>
</g>
<circle cx="845" cy="229" r="5"/>
<g class="st1">
	<path d="M837.1,216.7l1.6-0.2c0.1,0.4,0.2,0.7,0.4,0.9s0.5,0.3,0.8,0.3s0.6-0.1,0.9-0.4s0.3-0.6,0.3-1s-0.1-0.7-0.3-1
		s-0.5-0.4-0.8-0.4c-0.2,0-0.5,0-0.8,0.1l0.2-1.3c0.4,0,0.8-0.1,1-0.3s0.4-0.5,0.4-0.8s-0.1-0.5-0.3-0.7s-0.4-0.3-0.7-0.3
		s-0.5,0.1-0.7,0.3s-0.3,0.5-0.4,0.9l-1.5-0.3c0.1-0.5,0.3-0.9,0.5-1.2s0.5-0.6,0.9-0.7s0.8-0.3,1.3-0.3c0.8,0,1.5,0.3,1.9,0.8
		c0.4,0.4,0.6,0.9,0.6,1.4c0,0.8-0.4,1.4-1.2,1.8c0.5,0.1,0.9,0.3,1.2,0.7s0.4,0.8,0.4,1.3c0,0.8-0.3,1.4-0.8,1.9s-1.2,0.8-2.1,0.8
		c-0.8,0-1.4-0.2-1.9-0.7S837.2,217.4,837.1,216.7z"/>
	<path d="M844.2,219v-1.6h1.6v1.6H844.2z"/>
	<path d="M847.2,212.1v-1.5h5.6v1.2c-0.5,0.5-0.9,1.1-1.4,2s-0.8,1.8-1.1,2.7s-0.4,1.8-0.4,2.6h-1.6c0-1.2,0.3-2.4,0.7-3.6
		s1.1-2.3,1.9-3.3L847.2,212.1L847.2,212.1z"/>
</g>
<circle cx="884" cy="229" r="5"/>
<g class="st1">
	<path d="M876.1,216.7l1.6-0.2c0.1,0.4,0.2,0.7,0.4,0.9s0.5,0.3,0.8,0.3s0.6-0.1,0.9-0.4s0.3-0.6,0.3-1s-0.1-0.7-0.3-1
		s-0.5-0.4-0.8-0.4c-0.2,0-0.5,0-0.8,0.1l0.2-1.3c0.4,0,0.8-0.1,1-0.3s0.4-0.5,0.4-0.8s-0.1-0.5-0.3-0.7s-0.4-0.3-0.7-0.3
		s-0.5,0.1-0.7,0.3s-0.3,0.5-0.4,0.9l-1.5-0.3c0.1-0.5,0.3-0.9,0.5-1.2s0.5-0.6,0.9-0.7s0.8-0.3,1.3-0.3c0.8,0,1.5,0.3,1.9,0.8
		c0.4,0.4,0.6,0.9,0.6,1.4c0,0.8-0.4,1.4-1.2,1.8c0.5,0.1,0.9,0.3,1.2,0.7s0.4,0.8,0.4,1.3c0,0.8-0.3,1.4-0.8,1.9s-1.2,0.8-2.1,0.8
		c-0.8,0-1.4-0.2-1.9-0.7S876.2,217.4,876.1,216.7z"/>
	<path d="M883.2,219v-1.6h1.6v1.6H883.2z"/>
	<path d="M887.6,214.4c-0.4-0.2-0.7-0.4-0.9-0.7s-0.3-0.7-0.3-1c0-0.6,0.2-1.2,0.7-1.6s1.1-0.6,1.9-0.6c0.8,0,1.5,0.2,1.9,0.6
		s0.7,0.9,0.7,1.6c0,0.4-0.1,0.8-0.3,1.1s-0.5,0.5-0.9,0.7c0.5,0.2,0.8,0.5,1.1,0.8s0.4,0.8,0.4,1.3c0,0.8-0.3,1.4-0.8,1.9
		s-1.2,0.7-2,0.7s-1.4-0.2-2-0.6c-0.6-0.5-0.9-1.1-0.9-2c0-0.5,0.1-0.9,0.3-1.3S887.1,214.6,887.6,214.4z M887.8,216.4
		c0,0.5,0.1,0.8,0.3,1.1s0.5,0.4,0.9,0.4c0.3,0,0.6-0.1,0.8-0.4s0.3-0.6,0.3-1.1c0-0.4-0.1-0.7-0.3-1s-0.5-0.4-0.9-0.4
		s-0.7,0.1-0.9,0.4S887.8,216.1,887.8,216.4z M887.9,212.7c0,0.3,0.1,0.6,0.3,0.8s0.4,0.3,0.7,0.3s0.6-0.1,0.8-0.3s0.3-0.4,0.3-0.8
		c0-0.3-0.1-0.6-0.3-0.7s-0.4-0.3-0.7-0.3s-0.6,0.1-0.8,0.3S887.9,212.4,887.9,212.7z"/>
</g>
<circle cx="913" cy="229" r="5"/>
<g class="st1">
	<path d="M905.1,216.7l1.6-0.2c0.1,0.4,0.2,0.7,0.4,0.9s0.5,0.3,0.8,0.3s0.6-0.1,0.9-0.4s0.3-0.6,0.3-1s-0.1-0.7-0.3-1
		s-0.5-0.4-0.8-0.4c-0.2,0-0.5,0-0.8,0.1l0.2-1.3c0.4,0,0.8-0.1,1-0.3s0.4-0.5,0.4-0.8s-0.1-0.5-0.3-0.7s-0.4-0.3-0.7-0.3
		s-0.5,0.1-0.7,0.3s-0.3,0.5-0.4,0.9l-1.5-0.3c0.1-0.5,0.3-0.9,0.5-1.2s0.5-0.6,0.9-0.7s0.8-0.3,1.3-0.3c0.8,0,1.5,0.3,1.9,0.8
		c0.4,0.4,0.6,0.9,0.6,1.4c0,0.8-0.4,1.4-1.2,1.8c0.5,0.1,0.9,0.3,1.2,0.7s0.4,0.8,0.4,1.3c0,0.8-0.3,1.4-0.8,1.9s-1.2,0.8-2.1,0.8
		c-0.8,0-1.4-0.2-1.9-0.7S905.2,217.4,905.1,216.7z"/>
	<path d="M912.2,219v-1.6h1.6v1.6H912.2z"/>
	<path d="M915.2,217l1.6-0.2c0,0.3,0.1,0.6,0.3,0.7s0.4,0.2,0.7,0.2s0.6-0.2,0.9-0.5s0.4-1,0.5-1.9c-0.4,0.5-0.9,0.7-1.6,0.7
		c-0.7,0-1.3-0.3-1.7-0.8s-0.7-1.2-0.7-2c0-0.9,0.3-1.6,0.8-2.1s1.2-0.8,2-0.8c0.9,0,1.6,0.3,2.1,1s0.8,1.8,0.8,3.3
		c0,1.6-0.3,2.7-0.9,3.4s-1.3,1-2.3,1c-0.7,0-1.2-0.2-1.6-0.5S915.3,217.7,915.2,217z M918.9,213.4c0-0.5-0.1-0.9-0.4-1.2
		s-0.5-0.4-0.8-0.4s-0.6,0.1-0.8,0.4s-0.3,0.6-0.3,1.2c0,0.6,0.1,1,0.3,1.2s0.5,0.4,0.8,0.4s0.6-0.1,0.8-0.4
		S918.9,213.9,918.9,213.4z"/>
</g>
<circle class="st5" cx="943" cy="229" r="5"/>
<g class="st1">
	<path d="M931.8,216.7l1.6-0.2c0.1,0.4,0.2,0.7,0.4,0.9s0.5,0.3,0.8,0.3s0.6-0.1,0.9-0.4s0.3-0.6,0.3-1s-0.1-0.7-0.3-1
		s-0.5-0.4-0.8-0.4c-0.2,0-0.5,0-0.8,0.1l0.2-1.3c0.4,0,0.8-0.1,1-0.3s0.4-0.5,0.4-0.8s-0.1-0.5-0.3-0.7s-0.4-0.3-0.7-0.3
		s-0.5,0.1-0.7,0.3s-0.3,0.5-0.4,0.9l-1.5-0.3c0.1-0.5,0.3-0.9,0.5-1.2s0.5-0.6,0.9-0.7s0.8-0.3,1.3-0.3c0.8,0,1.5,0.3,1.9,0.8
		c0.4,0.4,0.6,0.9,0.6,1.4c0,0.8-0.4,1.4-1.2,1.8c0.5,0.1,0.9,0.3,1.2,0.7s0.4,0.8,0.4,1.3c0,0.8-0.3,1.4-0.8,1.9s-1.2,0.8-2.1,0.8
		c-0.8,0-1.4-0.2-1.9-0.7S931.9,217.4,931.8,216.7z"/>
	<path d="M938.9,219v-1.6h1.6v1.6H938.9z"/>
	<path d="M946.1,219h-1.6v-6.2c-0.6,0.6-1.3,1-2.1,1.2v-1.5c0.4-0.1,0.9-0.4,1.4-0.8s0.8-0.9,1-1.4h1.3L946.1,219L946.1,219z"/>
	<path d="M951.3,210.4c0.8,0,1.5,0.3,2,0.9c0.6,0.7,0.8,1.9,0.8,3.5s-0.3,2.8-0.8,3.5c-0.5,0.6-1.1,0.9-1.9,0.9c-0.8,0-1.5-0.3-2-1
		s-0.8-1.8-0.8-3.4c0-1.6,0.3-2.8,0.8-3.5C949.8,210.7,950.5,210.4,951.3,210.4z M951.3,211.7c-0.2,0-0.4,0.1-0.5,0.2
		s-0.3,0.4-0.4,0.7c-0.1,0.4-0.2,1.1-0.2,2.2s0.1,1.7,0.2,2.1s0.2,0.6,0.4,0.8s0.3,0.2,0.5,0.2s0.4-0.1,0.5-0.2s0.3-0.4,0.4-0.7
		c0.1-0.4,0.2-1.1,0.2-2.1s-0.1-1.7-0.2-2.1s-0.2-0.6-0.4-0.8S951.5,211.7,951.3,211.7z"/>
</g>
</svg>
