<svg xmlns="http://www.w3.org/2000/svg" width="504" height="350.533" viewBox="0 0 504 350.533">
  <g id="Grupo_10838" data-name="Grupo 10838" transform="translate(-8673 7334.794)">
    <ellipse id="Elipse_622" data-name="Elipse 622" cx="24.687" cy="8.641" rx="24.687" ry="8.641" transform="translate(8943.844 -7045.67)" fill="#71b6f3" opacity="0.25"/>
    <ellipse id="Elipse_623" data-name="Elipse 623" cx="40.753" cy="14.264" rx="40.753" ry="14.264" transform="translate(8784.847 -7012.789)" fill="#98b6e9" opacity="0.25"/>
    <g id="Grupo_10143" data-name="Grupo 10143" transform="translate(8698.377 -7327.546)">
      <g id="Grupo_10090" data-name="Grupo 10090">
        <g id="Grupo_10089" data-name="Grupo 10089">
          <path id="Trazado_9274" data-name="Trazado 9274" d="M1461.755,739.677a1128.733,1128.733,0,0,0-445.043,0,5.071,5.071,0,0,1-6.374-5.138V500.214a5.071,5.071,0,0,1,6.374-5.138,1128.735,1128.735,0,0,0,445.043,0,5.071,5.071,0,0,1,6.374,5.138V734.539A5.071,5.071,0,0,1,1461.755,739.677Z" transform="translate(-1009.454 -494.06)" fill="#2948bd"/>
          <path id="Trazado_9275" data-name="Trazado 9275" d="M1015.026,740.287a5.939,5.939,0,0,1-3.813-1.319,6.088,6.088,0,0,1-2.164-4.835V499.809a6.088,6.088,0,0,1,2.164-4.835,6.206,6.206,0,0,1,5.27-1.169,1126.644,1126.644,0,0,0,222.345,22.251A1126.363,1126.363,0,0,0,1461.176,493.8a6.206,6.206,0,0,1,5.269,1.169,6.09,6.09,0,0,1,2.164,4.835V734.133a6.091,6.091,0,0,1-2.164,4.836,6.21,6.21,0,0,1-5.27,1.168h0a1122.05,1122.05,0,0,0-444.693,0A7.321,7.321,0,0,1,1015.026,740.287Zm223.8-24.051a1132.11,1132.11,0,0,1,222.7,22.168h0a4.474,4.474,0,0,0,3.8-.805,4.357,4.357,0,0,0,1.514-3.467V499.809a4.357,4.357,0,0,0-1.514-3.467,4.477,4.477,0,0,0-3.8-.805,1132.092,1132.092,0,0,1-222.7,22.169,1132.108,1132.108,0,0,1-222.7-22.168,4.478,4.478,0,0,0-3.8.8,4.357,4.357,0,0,0-1.514,3.467V734.133a4.358,4.358,0,0,0,1.514,3.467,4.483,4.483,0,0,0,3.8.805A1132.083,1132.083,0,0,1,1238.828,716.236Z" transform="translate(-1009.049 -493.655)" fill="#fff"/>
        </g>
      </g>
      <g id="Grupo_10142" data-name="Grupo 10142" transform="translate(15.265 11.967)">
        <g id="Grupo_10091" data-name="Grupo 10091">
          <path id="Trazado_9276" data-name="Trazado 9276" d="M1040.326,521.434q-4.511-.709-9.017-1.45v-8.878q4.505.805,9.017,1.575Z" transform="translate(-1031.309 -511.106)" fill="#91beff"/>
        </g>
        <g id="Grupo_10092" data-name="Grupo 10092" transform="translate(18.17 3.102)">
          <path id="Trazado_9277" data-name="Trazado 9277" d="M1092.247,528.96q-17.251-2.122-34.441-4.7V515.63q17.187,2.8,34.441,5.107Z" transform="translate(-1057.806 -515.63)" fill="#df4640"/>
        </g>
        <g id="Grupo_10093" data-name="Grupo 10093" transform="translate(18.17 20.364)">
          <path id="Trazado_9278" data-name="Trazado 9278" d="M1092.247,553.318q-17.251-1.755-34.441-3.885V540.8q17.187,2.355,34.441,4.293Z" transform="translate(-1057.806 -540.802)" fill="#6197ed"/>
        </g>
        <g id="Grupo_10094" data-name="Grupo 10094" transform="translate(18.17 89.412)">
          <path id="Trazado_9279" data-name="Trazado 9279" d="M1092.247,650.749q-17.251-.283-34.441-.627v-8.631q17.187.568,34.441,1.035Z" transform="translate(-1057.806 -641.491)" fill="#df4640"/>
        </g>
        <g id="Grupo_10095" data-name="Grupo 10095" transform="translate(18.17 106.674)">
          <path id="Trazado_9280" data-name="Trazado 9280" d="M1092.247,675.107q-17.251.084-34.441.186v-8.631q17.187.121,34.441.221Z" transform="translate(-1057.806 -666.663)" fill="#6197ed"/>
        </g>
        <g id="Grupo_10096" data-name="Grupo 10096" transform="translate(18.17 189.132)">
          <path id="Trazado_9281" data-name="Trazado 9281" d="M1092.247,795.132q-17.251,1.924-34.441,4.259v-8.631q17.187-2.112,34.441-3.851Z" transform="translate(-1057.806 -786.908)" fill="#df4640"/>
        </g>
        <g id="Grupo_10097" data-name="Grupo 10097" transform="translate(18.17 205.58)">
          <path id="Trazado_9282" data-name="Trazado 9282" d="M1092.247,819.116q-17.251,2.291-34.441,5.073v-8.631q17.187-2.558,34.441-4.666Z" transform="translate(-1057.806 -810.892)" fill="#6197ed"/>
        </g>
        <g id="Grupo_10098" data-name="Grupo 10098" transform="translate(18.17 122.876)">
          <path id="Trazado_9283" data-name="Trazado 9283" d="M1125.794,698.193q-34.1.706-67.988,1.787v-8.631q33.874-.642,67.988-1.06Z" transform="translate(-1057.806 -690.289)" fill="#6197ed"/>
        </g>
        <g id="Grupo_10099" data-name="Grupo 10099" transform="translate(49.842 138.568)">
          <path id="Trazado_9284" data-name="Trazado 9284" d="M1144.35,721.042q-20.214.734-40.359,1.708V714.5q20.143-.755,40.359-1.325Z" transform="translate(-1103.991 -713.172)" fill="#91beff"/>
        </g>
        <g id="Grupo_10100" data-name="Grupo 10100" transform="translate(105.117 137.356)">
          <path id="Trazado_9285" data-name="Trazado 9285" d="M1225.11,718.925q-20.278.407-40.515,1.053v-7.756q20.234-.5,40.515-.817Z" transform="translate(-1184.595 -711.405)" fill="#91beff"/>
        </g>
        <g id="Grupo_10101" data-name="Grupo 10101" transform="translate(160.591 136.841)">
          <path id="Trazado_9286" data-name="Trazado 9286" d="M1306.088,718.025q-20.305.079-40.6.4v-7.46q20.289-.247,40.6-.308Z" transform="translate(-1265.491 -710.654)" fill="#91beff"/>
        </g>
        <g id="Grupo_10102" data-name="Grupo 10102" transform="translate(216.164 136.821)">
          <path id="Trazado_9287" data-name="Trazado 9287" d="M1387.135,718.25q-20.3-.249-40.606-.259v-7.366q20.307.008,40.606.2Z" transform="translate(-1346.53 -710.625)" fill="#91beff"/>
        </g>
        <g id="Grupo_10103" data-name="Grupo 10103" transform="translate(271.735 137.19)">
          <path id="Trazado_9288" data-name="Trazado 9288" d="M1468.1,719.55q-20.25-.578-40.539-.915v-7.473q20.287.262,40.539.71Z" transform="translate(-1427.566 -711.163)" fill="#91beff"/>
        </g>
        <g id="Grupo_10104" data-name="Grupo 10104" transform="translate(327.2 138.255)">
          <path id="Trazado_9289" data-name="Trazado 9289" d="M1595.618,724.5q-43.39-2.56-87.17-4v-7.781q43.748,1.117,87.17,3.1Z" transform="translate(-1508.448 -712.716)" fill="#91beff"/>
        </g>
        <g id="Grupo_10105" data-name="Grupo 10105" transform="translate(52.612 57.552)">
          <path id="Trazado_9290" data-name="Trazado 9290" d="M1142.588,605.075q-17.3-.8-34.558-1.82v-8.224q17.252,1.2,34.558,2.148Z" transform="translate(-1108.03 -595.031)" fill="#91beff"/>
        </g>
        <g id="Grupo_10106" data-name="Grupo 10106" transform="translate(52.612 74)">
          <path id="Trazado_9291" data-name="Trazado 9291" d="M1129.711,628q-10.851-.354-21.681-.763v-8.224q10.829.524,21.681.978Z" transform="translate(-1108.03 -619.016)" fill="#91beff"/>
        </g>
        <g id="Grupo_10107" data-name="Grupo 10107" transform="translate(82.371 75.305)">
          <path id="Trazado_9292" data-name="Trazado 9292" d="M1173.16,629.468q-10.875-.279-21.734-.612V620.92q10.858.428,21.734.785Z" transform="translate(-1151.426 -620.92)" fill="#91beff"/>
        </g>
        <g id="Grupo_10108" data-name="Grupo 10108" transform="translate(112.2 76.346)">
          <path id="Trazado_9293" data-name="Trazado 9293" d="M1216.7,630.605q-10.894-.2-21.776-.461v-7.707q10.881.331,21.776.591Z" transform="translate(-1194.924 -622.437)" fill="#91beff"/>
        </g>
        <g id="Grupo_10109" data-name="Grupo 10109" transform="translate(142.083 77.121)">
          <path id="Trazado_9294" data-name="Trazado 9294" d="M1260.307,631.414q-10.907-.128-21.805-.311v-7.536q10.9.235,21.805.4Z" transform="translate(-1238.502 -623.567)" fill="#91beff"/>
        </g>
        <g id="Grupo_10110" data-name="Grupo 10110" transform="translate(172.006 77.63)">
          <path id="Trazado_9295" data-name="Trazado 9295" d="M1348.376,631.878q-33.119.182-66.24-.143V624.31q33.106.418,66.24.185Z" transform="translate(-1282.136 -624.31)" fill="#91beff"/>
        </g>
        <g id="Grupo_10111" data-name="Grupo 10111" transform="translate(242.307 77.226)">
          <path id="Trazado_9296" data-name="Trazado 9296" d="M1424.222,631.234q-19.772.308-39.57.435v-7.39q19.795-.164,39.57-.557Z" transform="translate(-1384.652 -623.721)" fill="#91beff"/>
        </g>
        <g id="Grupo_10112" data-name="Grupo 10112" transform="translate(103.346 60.527)">
          <path id="Trazado_9297" data-name="Trazado 9297" d="M1240.526,608.874q-29.293-.557-58.513-1.736v-7.769q29.21,1.391,58.513,2.049Z" transform="translate(-1182.013 -599.369)" fill="#91beff"/>
        </g>
        <g id="Grupo_10113" data-name="Grupo 10113" transform="translate(179.617 62.908)">
          <path id="Trazado_9298" data-name="Trazado 9298" d="M1351.864,610.364q-29.312.251-58.629-.119v-7.4q29.307.436,58.629.139Z" transform="translate(-1293.235 -602.841)" fill="#91beff"/>
        </g>
        <g id="Grupo_10114" data-name="Grupo 10114" transform="translate(245.859 62.684)">
          <path id="Trazado_9299" data-name="Trazado 9299" d="M1406.071,609.955q-8.118.139-16.238.231v-7.4q8.12-.109,16.238-.274Z" transform="translate(-1389.833 -602.515)" fill="#91beff"/>
        </g>
        <g id="Grupo_10115" data-name="Grupo 10115" transform="translate(49.842 154.572)">
          <path id="Trazado_9300" data-name="Trazado 9300" d="M1138.54,744.43q-17.3.954-34.549,2.161v-8.253q17.247-1.022,34.549-1.828Z" transform="translate(-1103.991 -736.511)" fill="#91beff"/>
        </g>
        <g id="Grupo_10116" data-name="Grupo 10116" transform="translate(49.842 171.271)">
          <path id="Trazado_9301" data-name="Trazado 9301" d="M1125.666,768.9q-10.848.862-21.675,1.855V762.5q10.826-.875,21.675-1.635Z" transform="translate(-1103.991 -760.862)" fill="#91beff"/>
        </g>
        <g id="Grupo_10117" data-name="Grupo 10117" transform="translate(79.593 169.403)">
          <path id="Trazado_9302" data-name="Trazado 9302" d="M1169.105,765.922q-10.874.682-21.729,1.495v-7.961q10.856-.717,21.729-1.318Z" transform="translate(-1147.376 -758.138)" fill="#91beff"/>
        </g>
        <g id="Grupo_10118" data-name="Grupo 10118" transform="translate(109.417 167.972)">
          <path id="Trazado_9303" data-name="Trazado 9303" d="M1212.637,763.643q-10.892.5-21.771,1.134v-7.726q10.879-.558,21.771-1Z" transform="translate(-1190.866 -756.051)" fill="#91beff"/>
        </g>
        <g id="Grupo_10119" data-name="Grupo 10119" transform="translate(139.296 166.976)">
          <path id="Trazado_9304" data-name="Trazado 9304" d="M1256.239,762.057q-10.905.321-21.8.774v-7.55q10.9-.4,21.8-.682Z" transform="translate(-1234.437 -754.599)" fill="#91beff"/>
        </g>
        <g id="Grupo_10120" data-name="Grupo 10120" transform="translate(169.215 166.287)">
          <path id="Trazado_9305" data-name="Trazado 9305" d="M1318.924,760.96q-20.434.05-40.858.56v-7.432q20.422-.451,40.858-.495Z" transform="translate(-1278.066 -753.594)" fill="#91beff"/>
        </g>
        <g id="Grupo_10121" data-name="Grupo 10121" transform="translate(218.449 166.287)">
          <path id="Trazado_9306" data-name="Trazado 9306" d="M1389.451,761.476q-19.788-.474-39.589-.518v-7.366q19.8.038,39.589.457Z" transform="translate(-1349.862 -753.593)" fill="#91beff"/>
        </g>
        <g id="Grupo_10122" data-name="Grupo 10122" transform="translate(100.565 152.099)">
          <path id="Trazado_9307" data-name="Trazado 9307" d="M1236.462,740.37q-29.291.684-58.505,2.092v-7.789q29.2-1.19,58.505-1.768Z" transform="translate(-1177.957 -732.904)" fill="#91beff"/>
        </g>
        <g id="Grupo_10123" data-name="Grupo 10123" transform="translate(176.826 151.555)">
          <path id="Trazado_9308" data-name="Trazado 9308" d="M1322.412,739.477q-16.626.031-33.247.295v-7.412q16.619-.223,33.247-.25Z" transform="translate(-1289.165 -732.111)" fill="#91beff"/>
        </g>
        <g id="Grupo_10124" data-name="Grupo 10124" transform="translate(243.068 151.697)">
          <path id="Trazado_9309" data-name="Trazado 9309" d="M1402,739.961q-8.117-.153-16.238-.251v-7.392q8.12.082,16.238.212Z" transform="translate(-1385.763 -732.318)" fill="#91beff"/>
        </g>
        <g id="Grupo_10125" data-name="Grupo 10125" transform="translate(52.612 41.104)">
          <path id="Trazado_9310" data-name="Trazado 9310" d="M1119.874,580.186q-5.925-.44-11.844-.916v-8.224q5.919.539,11.844,1.038Z" transform="translate(-1108.03 -571.046)" fill="#91beff"/>
        </g>
        <g id="Grupo_10126" data-name="Grupo 10126" transform="translate(74.798 42.983)">
          <path id="Trazado_9311" data-name="Trazado 9311" d="M1171.46,583.7q-15.556-.834-31.077-1.908v-8q15.52,1.217,31.077,2.161Z" transform="translate(-1140.383 -573.786)" fill="#91beff"/>
        </g>
        <g id="Grupo_10127" data-name="Grupo 10127" transform="translate(115.49 45.702)">
          <path id="Trazado_9312" data-name="Trazado 9312" d="M1230.878,586.718q-15.589-.52-31.156-1.281v-7.686q15.565.862,31.156,1.451Z" transform="translate(-1199.722 -577.751)" fill="#91beff"/>
        </g>
        <g id="Grupo_10128" data-name="Grupo 10128" transform="translate(156.28 47.492)">
          <path id="Trazado_9313" data-name="Trazado 9313" d="M1306.4,588.641q-23.605-.127-47.193-.8v-7.476q23.583.765,47.193.911Z" transform="translate(-1259.204 -580.361)" fill="#91beff"/>
        </g>
        <g id="Grupo_10129" data-name="Grupo 10129" transform="translate(215.149 46.345)">
          <path id="Trazado_9314" data-name="Trazado 9314" d="M1431.034,586.3q-42.929,1.832-85.984,1.846V580.78q43.023-.015,85.984-2.091Z" transform="translate(-1345.05 -578.689)" fill="#91beff"/>
        </g>
        <g id="Grupo_10130" data-name="Grupo 10130" transform="translate(0 17.757)">
          <path id="Trazado_9315" data-name="Trazado 9315" d="M1040.326,547.076q-4.511-.586-9.017-1.2V537q4.505.676,9.017,1.324Z" transform="translate(-1031.309 -537)" fill="#91beff"/>
        </g>
        <g id="Grupo_10131" data-name="Grupo 10131" transform="translate(0 35.514)">
          <path id="Trazado_9316" data-name="Trazado 9316" d="M1040.326,572.719q-4.511-.463-9.017-.947v-8.878q4.505.547,9.017,1.073Z" transform="translate(-1031.309 -562.894)" fill="#91beff"/>
        </g>
        <g id="Grupo_10132" data-name="Grupo 10132" transform="translate(0 53.27)">
          <path id="Trazado_9317" data-name="Trazado 9317" d="M1040.326,598.361q-4.511-.34-9.017-.7v-8.879q4.505.42,9.017.822Z" transform="translate(-1031.309 -588.787)" fill="#91beff"/>
        </g>
        <g id="Grupo_10133" data-name="Grupo 10133" transform="translate(0 71.027)">
          <path id="Trazado_9318" data-name="Trazado 9318" d="M1040.326,624q-4.511-.218-9.017-.445v-8.878q4.505.291,9.017.57Z" transform="translate(-1031.309 -614.681)" fill="#91beff"/>
        </g>
        <g id="Grupo_10134" data-name="Grupo 10134" transform="translate(0 88.783)">
          <path id="Trazado_9319" data-name="Trazado 9319" d="M1040.326,649.646q-4.511-.095-9.017-.193v-8.879q4.505.164,9.017.32Z" transform="translate(-1031.309 -640.574)" fill="#91beff"/>
        </g>
        <g id="Grupo_10135" data-name="Grupo 10135" transform="translate(0 106.54)">
          <path id="Trazado_9320" data-name="Trazado 9320" d="M1040.326,675.289l-9.017.057v-8.878l9.017.068Z" transform="translate(-1031.309 -666.468)" fill="#91beff"/>
        </g>
        <g id="Grupo_10136" data-name="Grupo 10136" transform="translate(0 124.113)">
          <path id="Trazado_9321" data-name="Trazado 9321" d="M1040.326,700.847q-4.511.151-9.017.309v-8.878q4.505-.094,9.017-.183Z" transform="translate(-1031.309 -692.094)" fill="#91beff"/>
        </g>
        <g id="Grupo_10137" data-name="Grupo 10137" transform="translate(0 141.619)">
          <path id="Trazado_9322" data-name="Trazado 9322" d="M1040.326,726.374q-4.511.274-9.017.56v-8.878q4.505-.222,9.017-.435Z" transform="translate(-1031.309 -717.621)" fill="#91beff"/>
        </g>
        <g id="Grupo_10138" data-name="Grupo 10138" transform="translate(0 159.124)">
          <path id="Trazado_9323" data-name="Trazado 9323" d="M1040.326,751.9q-4.511.4-9.017.811v-8.878q4.505-.35,9.017-.685Z" transform="translate(-1031.309 -743.149)" fill="#91beff"/>
        </g>
        <g id="Grupo_10139" data-name="Grupo 10139" transform="translate(0 176.63)">
          <path id="Trazado_9324" data-name="Trazado 9324" d="M1040.326,777.429q-4.511.519-9.017,1.062v-8.878q4.505-.478,9.017-.937Z" transform="translate(-1031.309 -768.676)" fill="#91beff"/>
        </g>
        <g id="Grupo_10140" data-name="Grupo 10140" transform="translate(0 194.135)">
          <path id="Trazado_9325" data-name="Trazado 9325" d="M1040.326,802.956q-4.511.642-9.017,1.313v-8.879q4.505-.607,9.017-1.188Z" transform="translate(-1031.309 -794.203)" fill="#91beff"/>
        </g>
        <g id="Grupo_10141" data-name="Grupo 10141" transform="translate(0 211.641)">
          <path id="Trazado_9326" data-name="Trazado 9326" d="M1040.326,828.483q-4.511.765-9.017,1.565V821.17q4.505-.735,9.017-1.439Z" transform="translate(-1031.309 -819.731)" fill="#91beff"/>
        </g>
      </g>
    </g>
    <g id="Grupo_10167" data-name="Grupo 10167" transform="translate(8993.277 -7268.729)">
      <g id="Grupo_10145" data-name="Grupo 10145">
        <g id="Grupo_10144" data-name="Grupo 10144">
          <path id="Trazado_9327" data-name="Trazado 9327" d="M1607.938,585.291v64.615a6.077,6.077,0,0,1-6.375,6.147c-51.612-2.109-103.727-3.523-156.013-4.24-3.568-.051-6.462-2.42-6.462-5.294v-52.5c0-2.875,2.895-5.285,6.462-5.393,52.286-1.552,104.4-4.61,156.013-9.173A5.745,5.745,0,0,1,1607.938,585.291Z" transform="translate(-1439.087 -579.425)" fill="#fff"/>
        </g>
        <path id="Trazado_9328" data-name="Trazado 9328" d="M1607.938,585.291v7.92c-55.818,3.7-112.242,6.115-168.851,7.242v-6.435c0-2.875,2.895-5.285,6.462-5.393,52.286-1.552,104.4-4.61,156.013-9.173A5.745,5.745,0,0,1,1607.938,585.291Z" transform="translate(-1439.087 -579.425)" fill="#cae0ff"/>
        <path id="Trazado_9329" data-name="Trazado 9329" d="M1453.346,600.318a2.644,2.644,0,0,1-2.787,2.335,2.492,2.492,0,0,1-2.788-2.188,2.653,2.653,0,0,1,2.788-2.333A2.482,2.482,0,0,1,1453.346,600.318Z" transform="translate(-1441.816 -585.304)" fill="#eaf3ff"/>
        <path id="Trazado_9330" data-name="Trazado 9330" d="M1467.568,599.906a2.659,2.659,0,0,1-2.786,2.36,2.487,2.487,0,0,1-2.786-2.2,2.667,2.667,0,0,1,2.786-2.358A2.476,2.476,0,0,1,1467.568,599.906Z" transform="translate(-1446.286 -585.172)" fill="#7f91d7"/>
        <path id="Trazado_9331" data-name="Trazado 9331" d="M1481.783,599.448a2.675,2.675,0,0,1-2.784,2.387,2.484,2.484,0,0,1-2.785-2.206,2.683,2.683,0,0,1,2.785-2.384A2.473,2.473,0,0,1,1481.783,599.448Z" transform="translate(-1450.754 -585.025)" fill="#aecaf6"/>
      </g>
      <g id="Grupo_10166" data-name="Grupo 10166" transform="translate(5.956 26.077)">
        <g id="Grupo_10146" data-name="Grupo 10146" transform="translate(0 0.483)">
          <path id="Trazado_9332" data-name="Trazado 9332" d="M1452.519,622.012q-2.373.038-4.747.073v-3.842l4.747-.086Z" transform="translate(-1447.772 -618.157)" fill="#91beff"/>
        </g>
        <path id="Trazado_9333" data-name="Trazado 9333" d="M1479.761,621.379q-9.021.182-18.05.333v-3.868q9.028-.178,18.05-.391Z" transform="translate(-1452.152 -617.452)" fill="#6197ed"/>
        <path id="Trazado_9334" data-name="Trazado 9334" d="M1479.761,632.832q-9.021.118-18.05.217v-3.869q9.028-.125,18.05-.274Z" transform="translate(-1452.152 -621.051)" fill="#91beff"/>
        <g id="Grupo_10147" data-name="Grupo 10147" transform="translate(27.608 23.512)">
          <path id="Trazado_9335" data-name="Trazado 9335" d="M1506.064,655.735l-18.032-.02v-3.927q9.021-.023,18.032-.049Z" transform="translate(-1488.032 -651.739)" fill="#91beff"/>
        </g>
        <g id="Grupo_10148" data-name="Grupo 10148" transform="translate(27.608 31.415)">
          <path id="Trazado_9336" data-name="Trazado 9336" d="M1499.354,667.286q-5.66-.05-11.322-.1v-3.927q5.663.026,11.322.055Z" transform="translate(-1488.032 -663.263)" fill="#91beff"/>
        </g>
        <g id="Grupo_10149" data-name="Grupo 10149" transform="translate(43.141 31.491)">
          <path id="Trazado_9337" data-name="Trazado 9337" d="M1521.993,667.469q-5.653-.057-11.311-.11v-3.985l11.311.062Q1521.992,665.453,1521.993,667.469Z" transform="translate(-1510.682 -663.374)" fill="#91beff"/>
        </g>
        <g id="Grupo_10150" data-name="Grupo 10150" transform="translate(58.657 31.578)">
          <path id="Trazado_9338" data-name="Trazado 9338" d="M1544.608,667.675q-5.647-.065-11.3-.123V663.5q5.651.033,11.3.069Z" transform="translate(-1533.309 -663.5)" fill="#91beff"/>
        </g>
        <g id="Grupo_10151" data-name="Grupo 10151" transform="translate(74.157 31.674)">
          <path id="Trazado_9339" data-name="Trazado 9339" d="M1567.2,667.9q-5.64-.07-11.285-.136v-4.127q5.645.037,11.285.077Z" transform="translate(-1555.911 -663.641)" fill="#91beff"/>
        </g>
        <g id="Grupo_10152" data-name="Grupo 10152" transform="translate(89.637 31.781)">
          <path id="Trazado_9340" data-name="Trazado 9340" d="M1612.647,668.489q-17.052-.263-34.162-.483V663.8q17.109.123,34.162.272Z" transform="translate(-1578.485 -663.796)" fill="#91beff"/>
        </g>
        <g id="Grupo_10153" data-name="Grupo 10153" transform="translate(125.889 32.071)">
          <path id="Trazado_9341" data-name="Trazado 9341" d="M1651.705,668.989q-10.165-.175-20.355-.334V664.22q10.189.091,20.355.189Z" transform="translate(-1631.35 -664.22)" fill="#91beff"/>
        </g>
        <g id="Grupo_10154" data-name="Grupo 10154" transform="translate(54.057 23.382)">
          <path id="Trazado_9342" data-name="Trazado 9342" d="M1556.936,655.729q-15.15-.024-30.336-.043v-4.032q15.186-.047,30.336-.1Z" transform="translate(-1526.6 -651.549)" fill="#91beff"/>
        </g>
        <g id="Grupo_10155" data-name="Grupo 10155" transform="translate(93.57 23.213)">
          <path id="Trazado_9343" data-name="Trazado 9343" d="M1614.449,655.722q-15.092-.03-30.229-.056v-4.232q15.136-.061,30.229-.133Z" transform="translate(-1584.22 -651.302)" fill="#91beff"/>
        </g>
        <g id="Grupo_10156" data-name="Grupo 10156" transform="translate(127.718 23.152)">
          <path id="Trazado_9344" data-name="Trazado 9344" d="M1642.372,655.719l-8.355-.017v-4.447l8.355-.041Z" transform="translate(-1634.017 -651.214)" fill="#91beff"/>
        </g>
        <g id="Grupo_10157" data-name="Grupo 10157" transform="translate(27.608 15.647)">
          <path id="Trazado_9345" data-name="Trazado 9345" d="M1494.22,644.218l-6.188.038V640.33l6.188-.061Z" transform="translate(-1488.032 -640.269)" fill="#91beff"/>
        </g>
        <g id="Grupo_10158" data-name="Grupo 10158" transform="translate(39.194 15.408)">
          <path id="Trazado_9346" data-name="Trazado 9346" d="M1521.1,643.958q-8.084.062-16.177.116V640.1q8.093-.085,16.177-.182Z" transform="translate(-1504.926 -639.921)" fill="#91beff"/>
        </g>
        <g id="Grupo_10159" data-name="Grupo 10159" transform="translate(60.366 15.133)">
          <path id="Trazado_9347" data-name="Trazado 9347" d="M1551.955,643.659q-8.072.071-16.154.134v-4.06q8.082-.1,16.154-.213Z" transform="translate(-1535.801 -639.52)" fill="#91beff"/>
        </g>
        <g id="Grupo_10160" data-name="Grupo 10160" transform="translate(81.506 14.685)">
          <path id="Trazado_9348" data-name="Trazado 9348" d="M1591,643.17q-12.174.128-24.376.239v-4.165q12.2-.176,24.376-.378Z" transform="translate(-1566.628 -638.866)" fill="#91beff"/>
        </g>
        <g id="Grupo_10161" data-name="Grupo 10161" transform="translate(111.901 13.734)">
          <path id="Trazado_9349" data-name="Trazado 9349" d="M1655.195,642.135q-22.064.3-44.243.536v-4.342q22.174-.381,44.243-.85Z" transform="translate(-1610.952 -637.479)" fill="#91beff"/>
        </g>
        <g id="Grupo_10162" data-name="Grupo 10162" transform="translate(0 8.193)">
          <path id="Trazado_9350" data-name="Trazado 9350" d="M1452.519,633.255l-4.747.047V629.46l4.747-.06Z" transform="translate(-1447.772 -629.4)" fill="#91beff"/>
        </g>
        <g id="Grupo_10163" data-name="Grupo 10163" transform="translate(0 15.903)">
          <path id="Trazado_9351" data-name="Trazado 9351" d="M1452.519,644.5l-4.747.022v-3.842l4.747-.035Z" transform="translate(-1447.772 -640.642)" fill="#91beff"/>
        </g>
        <g id="Grupo_10164" data-name="Grupo 10164" transform="translate(0 23.613)">
          <path id="Trazado_9352" data-name="Trazado 9352" d="M1452.519,655.74l-4.747,0v-3.842l4.747-.009Z" transform="translate(-1447.772 -651.885)" fill="#91beff"/>
        </g>
        <g id="Grupo_10165" data-name="Grupo 10165" transform="translate(0 31.305)">
          <path id="Trazado_9353" data-name="Trazado 9353" d="M1452.519,666.974l-4.747-.029V663.1l4.747.016Z" transform="translate(-1447.772 -663.103)" fill="#91beff"/>
        </g>
      </g>
    </g>
    <g id="Grupo_10191" data-name="Grupo 10191" transform="translate(8713.075 -7217.182)">
      <g id="Grupo_10169" data-name="Grupo 10169">
        <g id="Grupo_10168" data-name="Grupo 10168">
          <path id="Trazado_9354" data-name="Trazado 9354" d="M1123.77,657.649v29.871c0,1.635-1.6,3.015-3.562,3.082q-43.234,1.456-86.188,4a3.2,3.2,0,0,1-3.536-3.119V657.919a3.43,3.43,0,0,1,3.536-3.325q42.926.056,86.188.089C1122.174,654.685,1123.77,656.014,1123.77,657.649Z" transform="translate(-1030.483 -654.594)" fill="#fff"/>
        </g>
        <path id="Trazado_9355" data-name="Trazado 9355" d="M1123.77,657.649v3.661q-46.806.255-93.286.724v-4.115a3.43,3.43,0,0,1,3.536-3.325q42.926.056,86.188.089C1122.174,654.685,1123.77,656.014,1123.77,657.649Z" transform="translate(-1030.483 -654.594)" fill="#cae0ff"/>
        <path id="Trazado_9356" data-name="Trazado 9356" d="M1038.287,659.419a1.489,1.489,0,0,1-1.526,1.432,1.468,1.468,0,0,1-1.526-1.42,1.53,1.53,0,0,1,3.052-.013Z" transform="translate(-1031.976 -655.664)" fill="#eaf3ff"/>
        <path id="Trazado_9357" data-name="Trazado 9357" d="M1046.078,659.391a1.484,1.484,0,0,1-1.527,1.422,1.464,1.464,0,0,1-1.526-1.409,1.531,1.531,0,0,1,3.054-.013Z" transform="translate(-1034.424 -655.659)" fill="#7f91d7"/>
        <path id="Trazado_9358" data-name="Trazado 9358" d="M1053.872,659.364a1.48,1.48,0,0,1-1.528,1.41,1.459,1.459,0,0,1-1.527-1.4,1.533,1.533,0,0,1,3.055-.012Z" transform="translate(-1036.873 -655.654)" fill="#aecaf6"/>
      </g>
      <g id="Grupo_10190" data-name="Grupo 10190" transform="translate(3.259 10.821)">
        <g id="Grupo_10170" data-name="Grupo 10170" transform="translate(0 0.185)">
          <path id="Trazado_9359" data-name="Trazado 9359" d="M1037.834,673.069l-2.6.049v-2.434l2.6-.04Z" transform="translate(-1035.235 -670.644)" fill="#91beff"/>
        </g>
        <path id="Trazado_9360" data-name="Trazado 9360" d="M1052.766,672.755q-4.952.087-9.9.18v-2.416q4.946-.074,9.9-.145Z" transform="translate(-1037.634 -670.374)" fill="#6197ed"/>
        <path id="Trazado_9361" data-name="Trazado 9361" d="M1052.766,679.7q-4.952.122-9.9.249v-2.416q4.946-.11,9.9-.214Z" transform="translate(-1037.634 -672.556)" fill="#91beff"/>
        <g id="Grupo_10171" data-name="Grupo 10171" transform="translate(15.132 13.95)">
          <path id="Trazado_9362" data-name="Trazado 9362" d="M1067.208,693.065q-4.956.179-9.907.368v-2.381q4.951-.172,9.907-.335Z" transform="translate(-1057.301 -690.717)" fill="#91beff"/>
        </g>
        <g id="Grupo_10172" data-name="Grupo 10172" transform="translate(15.132 18.793)">
          <path id="Trazado_9363" data-name="Trazado 9363" d="M1063.519,700.139q-3.109.136-6.218.275v-2.381q3.108-.129,6.218-.254Z" transform="translate(-1057.301 -697.779)" fill="#91beff"/>
        </g>
        <g id="Grupo_10173" data-name="Grupo 10173" transform="translate(23.665 18.459)">
          <path id="Trazado_9364" data-name="Trazado 9364" d="M1075.967,699.624q-3.113.129-6.223.262v-2.353q3.11-.122,6.223-.241Z" transform="translate(-1069.744 -697.292)" fill="#91beff"/>
        </g>
        <g id="Grupo_10174" data-name="Grupo 10174" transform="translate(32.204 18.141)">
          <path id="Trazado_9365" data-name="Trazado 9365" d="M1088.425,699.134q-3.116.122-6.228.249v-2.325q3.113-.117,6.228-.23Z" transform="translate(-1082.197 -696.828)" fill="#91beff"/>
        </g>
        <g id="Grupo_10175" data-name="Grupo 10175" transform="translate(40.75 17.839)">
          <path id="Trazado_9366" data-name="Trazado 9366" d="M1100.891,698.669q-3.117.116-6.232.237v-2.3q3.116-.111,6.232-.218Z" transform="translate(-1094.659 -696.388)" fill="#91beff"/>
        </g>
        <g id="Grupo_10176" data-name="Grupo 10176" transform="translate(49.302 17.16)">
          <path id="Trazado_9367" data-name="Trazado 9367" d="M1126.067,697.624q-9.475.3-18.937.649V696q9.461-.32,18.937-.6Z" transform="translate(-1107.13 -695.398)" fill="#91beff"/>
        </g>
        <g id="Grupo_10177" data-name="Grupo 10177" transform="translate(69.401 16.808)">
          <path id="Trazado_9368" data-name="Trazado 9368" d="M1147.77,697.081q-5.668.165-11.331.344V695.2q5.663-.167,11.331-.318Z" transform="translate(-1136.439 -694.884)" fill="#91beff"/>
        </g>
        <g id="Grupo_10178" data-name="Grupo 10178" transform="translate(29.671 13.293)">
          <path id="Trazado_9369" data-name="Trazado 9369" d="M1095.234,692.041q-8.372.265-16.732.558v-2.333q8.36-.267,16.732-.508Z" transform="translate(-1078.502 -689.758)" fill="#91beff"/>
        </g>
        <g id="Grupo_10179" data-name="Grupo 10179" transform="translate(51.478 12.708)">
          <path id="Trazado_9370" data-name="Trazado 9370" d="M1127.064,691.132q-8.386.227-16.762.483v-2.269q8.376-.234,16.762-.44Z" transform="translate(-1110.302 -688.906)" fill="#91beff"/>
        </g>
        <g id="Grupo_10180" data-name="Grupo 10180" transform="translate(70.417 12.544)">
          <path id="Trazado_9371" data-name="Trazado 9371" d="M1142.569,690.875l-4.648.122v-2.221l4.648-.111Z" transform="translate(-1137.921 -688.666)" fill="#91beff"/>
        </g>
        <g id="Grupo_10181" data-name="Grupo 10181" transform="translate(15.132 9.43)">
          <path id="Trazado_9372" data-name="Trazado 9372" d="M1060.7,686.494l-3.4.1v-2.38l3.4-.094Z" transform="translate(-1057.301 -684.125)" fill="#91beff"/>
        </g>
        <g id="Grupo_10182" data-name="Grupo 10182" transform="translate(21.494 9.116)">
          <path id="Trazado_9373" data-name="Trazado 9373" d="M1075.479,686q-4.452.128-8.9.262V683.9q4.449-.119,8.9-.233Z" transform="translate(-1066.579 -683.667)" fill="#91beff"/>
        </g>
        <g id="Grupo_10183" data-name="Grupo 10183" transform="translate(33.145 8.828)">
          <path id="Trazado_9374" data-name="Trazado 9374" d="M1092.478,685.543q-4.456.119-8.909.245v-2.323q4.453-.112,8.909-.218Z" transform="translate(-1083.569 -683.247)" fill="#91beff"/>
        </g>
        <g id="Grupo_10184" data-name="Grupo 10184" transform="translate(44.809 8.461)">
          <path id="Trazado_9375" data-name="Trazado 9375" d="M1114.064,684.963q-6.747.161-13.487.339v-2.288q6.74-.157,13.487-.3Z" transform="translate(-1100.577 -682.712)" fill="#91beff"/>
        </g>
        <g id="Grupo_10185" data-name="Grupo 10185" transform="translate(61.634 7.923)">
          <path id="Trazado_9376" data-name="Trazado 9376" d="M1149.734,684.112q-12.32.238-24.622.525V682.4q12.3-.257,24.622-.468Z" transform="translate(-1125.112 -681.927)" fill="#91beff"/>
        </g>
        <g id="Grupo_10186" data-name="Grupo 10186" transform="translate(0 5.035)">
          <path id="Trazado_9377" data-name="Trazado 9377" d="M1037.834,680.141l-2.6.069v-2.434l2.6-.059Z" transform="translate(-1035.235 -677.716)" fill="#91beff"/>
        </g>
        <g id="Grupo_10187" data-name="Grupo 10187" transform="translate(0 9.885)">
          <path id="Trazado_9378" data-name="Trazado 9378" d="M1037.834,687.214l-2.6.088v-2.435l2.6-.078Z" transform="translate(-1035.235 -684.789)" fill="#91beff"/>
        </g>
        <g id="Grupo_10188" data-name="Grupo 10188" transform="translate(0 14.735)">
          <path id="Trazado_9379" data-name="Trazado 9379" d="M1037.834,694.286l-2.6.106v-2.434l2.6-.1Z" transform="translate(-1035.235 -691.861)" fill="#91beff"/>
        </g>
        <g id="Grupo_10189" data-name="Grupo 10189" transform="translate(0 19.585)">
          <path id="Trazado_9380" data-name="Trazado 9380" d="M1037.834,701.359l-2.6.126V699.05l2.6-.116Z" transform="translate(-1035.235 -698.934)" fill="#91beff"/>
        </g>
      </g>
    </g>
    <g id="Grupo_10215" data-name="Grupo 10215" transform="translate(8673 -7291.117)">
      <g id="Grupo_10193" data-name="Grupo 10193">
        <g id="Grupo_10192" data-name="Grupo 10192">
          <path id="Trazado_9381" data-name="Trazado 9381" d="M1075.326,560.236v34.238a3.587,3.587,0,0,1-3.949,3.288q-47.926-1.341-95.425-3.564a4.159,4.159,0,0,1-3.91-4.134V550.256a3.378,3.378,0,0,1,3.91-3.446q47.461,6.068,95.425,9.731A4.068,4.068,0,0,1,1075.326,560.236Z" transform="translate(-972.043 -546.777)" fill="#fff"/>
        </g>
        <path id="Trazado_9382" data-name="Trazado 9382" d="M1075.326,560.236v4.2q-51.889-3.4-103.284-9.3v-4.879a3.378,3.378,0,0,1,3.91-3.446q47.461,6.068,95.425,9.731A4.068,4.068,0,0,1,1075.326,560.236Z" transform="translate(-972.043 -546.777)" fill="#cae0ff"/>
        <path id="Trazado_9383" data-name="Trazado 9383" d="M980.672,552.994a1.471,1.471,0,0,1-1.688,1.487,1.951,1.951,0,0,1-1.687-1.891,1.464,1.464,0,0,1,1.687-1.487A1.961,1.961,0,0,1,980.672,552.994Z" transform="translate(-973.694 -548.133)" fill="#eaf3ff"/>
        <path id="Trazado_9384" data-name="Trazado 9384" d="M989.286,554.013a1.47,1.47,0,0,1-1.688,1.476,1.935,1.935,0,0,1-1.688-1.869,1.462,1.462,0,0,1,1.688-1.474A1.944,1.944,0,0,1,989.286,554.013Z" transform="translate(-976.4 -548.46)" fill="#7f91d7"/>
        <path id="Trazado_9385" data-name="Trazado 9385" d="M997.907,555.007a1.468,1.468,0,0,1-1.69,1.465,1.92,1.92,0,0,1-1.689-1.848,1.46,1.46,0,0,1,1.689-1.463A1.927,1.927,0,0,1,997.907,555.007Z" transform="translate(-979.109 -548.78)" fill="#aecaf6"/>
      </g>
      <g id="Grupo_10214" data-name="Grupo 10214" transform="translate(3.603 13.078)">
        <g id="Grupo_10194" data-name="Grupo 10194">
          <path id="Trazado_9386" data-name="Trazado 9386" d="M980.17,569.02l-2.873-.287v-2.884q1.436.152,2.873.3Z" transform="translate(-977.297 -565.848)" fill="#91beff"/>
        </g>
        <path id="Trazado_9387" data-name="Trazado 9387" d="M996.683,570.634q-5.478-.512-10.948-1.049v-2.855q5.47.564,10.948,1.1Z" transform="translate(-979.949 -566.125)" fill="#6197ed"/>
        <path id="Trazado_9388" data-name="Trazado 9388" d="M996.683,578.859q-5.478-.462-10.948-.946v-2.855q5.47.511,10.948,1Z" transform="translate(-979.949 -568.742)" fill="#91beff"/>
        <g id="Grupo_10195" data-name="Grupo 10195" transform="translate(16.734 18.53)">
          <path id="Trazado_9389" data-name="Trazado 9389" d="M1012.661,596.378q-5.484-.344-10.961-.7v-2.8q5.477.386,10.961.754Z" transform="translate(-1001.7 -592.869)" fill="#91beff"/>
        </g>
        <g id="Grupo_10196" data-name="Grupo 10196" transform="translate(16.734 24.138)">
          <path id="Trazado_9390" data-name="Trazado 9390" d="M1008.579,604.236q-3.442-.189-6.879-.385v-2.8q3.438.211,6.879.416Z" transform="translate(-1001.7 -601.047)" fill="#91beff"/>
        </g>
        <g id="Grupo_10197" data-name="Grupo 10197" transform="translate(26.175 24.705)">
          <path id="Trazado_9391" data-name="Trazado 9391" d="M1022.353,605q-3.445-.181-6.887-.368v-2.761q3.443.2,6.887.4Z" transform="translate(-1015.466 -601.874)" fill="#91beff"/>
        </g>
        <g id="Grupo_10198" data-name="Grupo 10198" transform="translate(35.626 25.247)">
          <path id="Trazado_9392" data-name="Trazado 9392" d="M1036.142,605.739q-3.448-.173-6.894-.352v-2.722q3.446.193,6.894.381Z" transform="translate(-1029.248 -602.665)" fill="#91beff"/>
        </g>
        <g id="Grupo_10199" data-name="Grupo 10199" transform="translate(45.086 25.766)">
          <path id="Trazado_9393" data-name="Trazado 9393" d="M1049.944,606.439q-3.451-.165-6.9-.335v-2.683q3.449.184,6.9.363Z" transform="translate(-1043.043 -603.421)" fill="#91beff"/>
        </g>
        <g id="Grupo_10200" data-name="Grupo 10200" transform="translate(54.555 26.26)">
          <path id="Trazado_9394" data-name="Trazado 9394" d="M1077.828,607.717q-10.5-.437-20.976-.93v-2.646q10.478.533,20.976,1.005Z" transform="translate(-1056.852 -604.141)" fill="#91beff"/>
        </g>
        <g id="Grupo_10201" data-name="Grupo 10201" transform="translate(76.819 27.323)">
          <path id="Trazado_9395" data-name="Trazado 9395" d="M1101.875,608.757q-6.282-.24-12.557-.5v-2.566q6.275.28,12.557.539Z" transform="translate(-1089.318 -605.692)" fill="#91beff"/>
        </g>
        <g id="Grupo_10202" data-name="Grupo 10202" transform="translate(32.822 19.623)">
          <path id="Trazado_9396" data-name="Trazado 9396" d="M1043.682,598.277q-9.271-.515-18.523-1.081v-2.733q9.251.6,18.523,1.156Z" transform="translate(-1025.159 -594.463)" fill="#91beff"/>
        </g>
        <g id="Grupo_10203" data-name="Grupo 10203" transform="translate(56.964 21.108)">
          <path id="Trazado_9397" data-name="Trazado 9397" d="M1078.932,600.216q-9.292-.451-18.567-.95v-2.637q9.276.534,18.567,1.016Z" transform="translate(-1060.365 -596.629)" fill="#91beff"/>
        </g>
        <g id="Grupo_10204" data-name="Grupo 10204" transform="translate(77.946 22.247)">
          <path id="Trazado_9398" data-name="Trazado 9398" d="M1096.112,601.095q-2.577-.119-5.151-.241V598.29q2.574.132,5.151.259Z" transform="translate(-1090.961 -598.29)" fill="#91beff"/>
        </g>
        <g id="Grupo_10205" data-name="Grupo 10205" transform="translate(16.734 12.921)">
          <path id="Trazado_9399" data-name="Trazado 9399" d="M1005.458,587.774q-1.879-.139-3.759-.281v-2.8l3.759.3Z" transform="translate(-1001.7 -584.69)" fill="#91beff"/>
        </g>
        <g id="Grupo_10206" data-name="Grupo 10206" transform="translate(23.774 13.474)">
          <path id="Trazado_9400" data-name="Trazado 9400" d="M1021.814,588.968q-4.927-.341-9.849-.7V585.5q4.922.38,9.849.742Z" transform="translate(-1011.965 -585.496)" fill="#91beff"/>
        </g>
        <g id="Grupo_10207" data-name="Grupo 10207" transform="translate(36.667 14.438)">
          <path id="Trazado_9401" data-name="Trazado 9401" d="M1040.63,590.277q-4.935-.321-9.863-.658V586.9q4.928.358,9.863.7Z" transform="translate(-1030.767 -586.902)" fill="#91beff"/>
        </g>
        <g id="Grupo_10208" data-name="Grupo 10208" transform="translate(49.579 15.344)">
          <path id="Trazado_9402" data-name="Trazado 9402" d="M1064.532,591.8q-7.473-.44-14.937-.917v-2.665q7.464.506,14.937.972Z" transform="translate(-1049.595 -588.223)" fill="#91beff"/>
        </g>
        <g id="Grupo_10209" data-name="Grupo 10209" transform="translate(68.213 16.544)">
          <path id="Trazado_9403" data-name="Trazado 9403" d="M1104.054,594.016q-13.658-.661-27.285-1.446v-2.6q13.627.832,27.285,1.534Z" transform="translate(-1076.769 -589.974)" fill="#91beff"/>
        </g>
        <g id="Grupo_10210" data-name="Grupo 10210" transform="translate(0 5.768)">
          <path id="Trazado_9404" data-name="Trazado 9404" d="M980.17,577.4l-2.873-.259v-2.884l2.873.274Z" transform="translate(-977.297 -574.259)" fill="#91beff"/>
        </g>
        <g id="Grupo_10211" data-name="Grupo 10211" transform="translate(0 11.535)">
          <path id="Trazado_9405" data-name="Trazado 9405" d="M980.17,585.784l-2.873-.231v-2.884l2.873.245Z" transform="translate(-977.297 -582.669)" fill="#91beff"/>
        </g>
        <g id="Grupo_10212" data-name="Grupo 10212" transform="translate(0 17.303)">
          <path id="Trazado_9406" data-name="Trazado 9406" d="M980.17,594.167l-2.873-.2V591.08l2.873.217Z" transform="translate(-977.297 -591.08)" fill="#91beff"/>
        </g>
        <g id="Grupo_10213" data-name="Grupo 10213" transform="translate(0 23.07)">
          <path id="Trazado_9407" data-name="Trazado 9407" d="M980.17,602.549l-2.873-.175V599.49l2.873.189Z" transform="translate(-977.297 -599.49)" fill="#91beff"/>
        </g>
      </g>
    </g>
    <g id="Grupo_10239" data-name="Grupo 10239" transform="translate(8920.718 -7304.358)">
      <g id="Grupo_10217" data-name="Grupo 10217">
        <g id="Grupo_10216" data-name="Grupo 10216">
          <path id="Trazado_9408" data-name="Trazado 9408" d="M1437.5,530.453v32.991c0,1.809-1.773,3.351-3.959,3.441q-48.063,2-96.292,2.111c-2.193.005-3.971-1.391-3.971-3.113V534.435c0-1.723,1.778-3.122,3.971-3.132q48.19-.207,96.292-3.821C1435.725,527.317,1437.5,528.643,1437.5,530.453Z" transform="translate(-1333.277 -527.469)" fill="#fff"/>
        </g>
        <path id="Trazado_9409" data-name="Trazado 9409" d="M1437.5,530.453V534.5q-52.012,3.728-104.222,3.794v-3.855c0-1.723,1.778-3.122,3.971-3.132q48.19-.207,96.292-3.821C1435.725,527.317,1437.5,528.643,1437.5,530.453Z" transform="translate(-1333.277 -527.469)" fill="#cae0ff"/>
        <path id="Trazado_9410" data-name="Trazado 9410" d="M1342.038,537.6a1.573,1.573,0,0,1-1.713,1.356,1.554,1.554,0,0,1-1.713-1.338,1.572,1.572,0,0,1,1.713-1.354A1.553,1.553,0,0,1,1342.038,537.6Z" transform="translate(-1334.953 -530.232)" fill="#eaf3ff"/>
        <path id="Trazado_9411" data-name="Trazado 9411" d="M1350.779,537.53a1.58,1.58,0,0,1-1.712,1.364,1.547,1.547,0,0,1-1.713-1.332,1.58,1.58,0,0,1,1.713-1.362A1.545,1.545,0,0,1,1350.779,537.53Z" transform="translate(-1337.701 -530.212)" fill="#7f91d7"/>
        <path id="Trazado_9412" data-name="Trazado 9412" d="M1359.521,537.422a1.589,1.589,0,0,1-1.712,1.372,1.539,1.539,0,0,1-1.712-1.326,1.589,1.589,0,0,1,1.712-1.371A1.538,1.538,0,0,1,1359.521,537.422Z" transform="translate(-1340.448 -530.18)" fill="#aecaf6"/>
      </g>
      <g id="Grupo_10238" data-name="Grupo 10238" transform="translate(3.659 14.085)">
        <g id="Grupo_10218" data-name="Grupo 10218" transform="translate(0 0.141)">
          <path id="Trazado_9413" data-name="Trazado 9413" d="M1341.529,550.505q-1.459.008-2.917.013v-2.292l2.917-.013Z" transform="translate(-1338.612 -548.213)" fill="#91beff"/>
        </g>
        <path id="Trazado_9414" data-name="Trazado 9414" d="M1358.278,550.305q-5.549.078-11.1.117v-2.293q5.55-.041,11.1-.121Z" transform="translate(-1341.304 -548.008)" fill="#6197ed"/>
        <path id="Trazado_9415" data-name="Trazado 9415" d="M1358.278,557.005q-5.549.073-11.1.11v-2.293q5.55-.038,11.1-.114Z" transform="translate(-1341.304 -550.113)" fill="#91beff"/>
        <g id="Grupo_10219" data-name="Grupo 10219" transform="translate(16.974 13.62)">
          <path id="Trazado_9416" data-name="Trazado 9416" d="M1374.463,570.173q-5.55.094-11.1.157v-2.3q5.55-.066,11.1-.163Z" transform="translate(-1363.365 -567.87)" fill="#91beff"/>
        </g>
        <g id="Grupo_10220" data-name="Grupo 10220" transform="translate(16.974 18.29)">
          <path id="Trazado_9417" data-name="Trazado 9417" d="M1370.332,576.981q-3.483.047-6.967.084v-2.3q3.483-.038,6.967-.088Z" transform="translate(-1363.365 -574.68)" fill="#91beff"/>
        </g>
        <g id="Grupo_10221" data-name="Grupo 10221" transform="translate(26.533 18.132)">
          <path id="Trazado_9418" data-name="Trazado 9418" d="M1384.27,576.757q-3.482.063-6.966.115v-2.3q3.483-.055,6.966-.12Z" transform="translate(-1377.304 -574.449)" fill="#91beff"/>
        </g>
        <g id="Grupo_10222" data-name="Grupo 10222" transform="translate(36.091 17.93)">
          <path id="Trazado_9419" data-name="Trazado 9419" d="M1398.206,576.47q-3.482.078-6.964.145v-2.31q3.482-.07,6.964-.152Z" transform="translate(-1391.242 -574.154)" fill="#91beff"/>
        </g>
        <g id="Grupo_10223" data-name="Grupo 10223" transform="translate(45.647 17.683)">
          <path id="Trazado_9420" data-name="Trazado 9420" d="M1412.139,576.12q-3.481.094-6.963.176v-2.318q3.482-.086,6.963-.185Z" transform="translate(-1405.176 -573.794)" fill="#91beff"/>
        </g>
        <g id="Grupo_10224" data-name="Grupo 10224" transform="translate(55.2 16.88)">
          <path id="Trazado_9421" data-name="Trazado 9421" d="M1440.227,574.982q-10.555.4-21.12.7v-2.329q10.564-.31,21.12-.728Z" transform="translate(-1419.107 -572.623)" fill="#91beff"/>
        </g>
        <g id="Grupo_10225" data-name="Grupo 10225" transform="translate(77.614 16.281)">
          <path id="Trazado_9422" data-name="Trazado 9422" d="M1464.407,574.134q-6.305.281-12.614.525V572.3q6.309-.254,12.614-.547Z" transform="translate(-1451.793 -571.75)" fill="#91beff"/>
        </g>
        <g id="Grupo_10226" data-name="Grupo 10226" transform="translate(33.256 13.051)">
          <path id="Trazado_9423" data-name="Trazado 9423" d="M1405.813,569.364q-9.35.271-18.705.453v-2.307q9.354-.19,18.705-.472Q1405.814,568.2,1405.813,569.364Z" transform="translate(-1387.108 -567.039)" fill="#91beff"/>
        </g>
        <g id="Grupo_10227" data-name="Grupo 10227" transform="translate(57.629 12.161)">
          <path id="Trazado_9424" data-name="Trazado 9424" d="M1441.34,568.1q-9.342.386-18.691.684v-2.332q9.348-.31,18.691-.71Z" transform="translate(-1422.649 -565.742)" fill="#91beff"/>
        </g>
        <g id="Grupo_10228" data-name="Grupo 10228" transform="translate(78.746 11.82)">
          <path id="Trazado_9425" data-name="Trazado 9425" d="M1458.619,567.616q-2.587.117-5.176.227V565.48q2.588-.114,5.176-.236Z" transform="translate(-1453.444 -565.244)" fill="#91beff"/>
        </g>
        <g id="Grupo_10229" data-name="Grupo 10229" transform="translate(16.974 9.137)">
          <path id="Trazado_9426" data-name="Trazado 9426" d="M1367.172,563.631q-1.9.028-3.807.051v-2.3q1.9-.024,3.807-.052Z" transform="translate(-1363.365 -561.332)" fill="#91beff"/>
        </g>
        <g id="Grupo_10230" data-name="Grupo 10230" transform="translate(24.103 8.89)">
          <path id="Trazado_9427" data-name="Trazado 9427" d="M1383.723,563.28q-4.981.107-9.963.188v-2.3q4.983-.083,9.963-.194Z" transform="translate(-1373.76 -560.972)" fill="#91beff"/>
        </g>
        <g id="Grupo_10231" data-name="Grupo 10231" transform="translate(37.144 8.551)">
          <path id="Trazado_9428" data-name="Trazado 9428" d="M1402.738,562.8q-4.98.143-9.961.259v-2.31q4.981-.12,9.961-.267Z" transform="translate(-1392.777 -560.478)" fill="#91beff"/>
        </g>
        <g id="Grupo_10232" data-name="Grupo 10232" transform="translate(50.181 7.92)">
          <path id="Trazado_9429" data-name="Trazado 9429" d="M1426.843,561.9q-7.525.29-15.055.518v-2.323q7.529-.236,15.055-.537Z" transform="translate(-1411.788 -559.557)" fill="#91beff"/>
        </g>
        <g id="Grupo_10233" data-name="Grupo 10233" transform="translate(68.958 6.402)">
          <path id="Trazado_9430" data-name="Trazado 9430" d="M1466.582,559.741q-13.7.76-27.412,1.317v-2.348q13.715-.576,27.412-1.365Z" transform="translate(-1439.17 -557.344)" fill="#91beff"/>
        </g>
        <g id="Grupo_10234" data-name="Grupo 10234" transform="translate(0 4.726)">
          <path id="Trazado_9431" data-name="Trazado 9431" d="M1341.529,557.193l-2.917.012v-2.292l2.917-.012Z" transform="translate(-1338.612 -554.9)" fill="#91beff"/>
        </g>
        <g id="Grupo_10235" data-name="Grupo 10235" transform="translate(0 9.312)">
          <path id="Trazado_9432" data-name="Trazado 9432" d="M1341.529,563.88l-2.917.011V561.6l2.917-.012Z" transform="translate(-1338.612 -561.587)" fill="#91beff"/>
        </g>
        <g id="Grupo_10236" data-name="Grupo 10236" transform="translate(0 13.897)">
          <path id="Trazado_9433" data-name="Trazado 9433" d="M1341.529,570.567l-2.917.01v-2.292l2.917-.011Z" transform="translate(-1338.612 -568.274)" fill="#91beff"/>
        </g>
        <g id="Grupo_10237" data-name="Grupo 10237" transform="translate(0 18.483)">
          <path id="Trazado_9434" data-name="Trazado 9434" d="M1341.529,577.254l-2.917.009v-2.292l2.917-.01Z" transform="translate(-1338.612 -574.961)" fill="#91beff"/>
        </g>
      </g>
    </g>
    <g id="Grupo_10263" data-name="Grupo 10263" transform="translate(9037.084 -7155.58)">
      <g id="Grupo_10241" data-name="Grupo 10241">
        <g id="Grupo_10240" data-name="Grupo 10240">
          <path id="Trazado_9435" data-name="Trazado 9435" d="M1606.488,756.83v38.24a3.124,3.124,0,0,1-3.921,3.072q-47.6-8.7-95.644-13.563c-2.184-.222-3.956-1.878-3.956-3.7V747.507c0-1.827,1.772-3.205,3.956-3.073q48.006,2.93,95.644,8.166A4.42,4.42,0,0,1,1606.488,756.83Z" transform="translate(-1502.967 -744.425)" fill="#fff"/>
        </g>
        <path id="Trazado_9436" data-name="Trazado 9436" d="M1606.488,756.83v4.687q-51.5-6.477-103.521-9.92v-4.089c0-1.827,1.772-3.205,3.956-3.073q48.006,2.93,95.644,8.166A4.42,4.42,0,0,1,1606.488,756.83Z" transform="translate(-1502.967 -744.425)" fill="#cae0ff"/>
        <path id="Trazado_9437" data-name="Trazado 9437" d="M1511.7,749.535a1.467,1.467,0,0,1-1.706,1.323,1.722,1.722,0,0,1-1.706-1.546,1.473,1.473,0,0,1,1.706-1.325A1.719,1.719,0,0,1,1511.7,749.535Z" transform="translate(-1504.637 -745.543)" fill="#eaf3ff"/>
        <path id="Trazado_9438" data-name="Trazado 9438" d="M1520.4,750.122a1.465,1.465,0,0,1-1.705,1.326,1.733,1.733,0,0,1-1.705-1.561,1.471,1.471,0,0,1,1.705-1.328A1.729,1.729,0,0,1,1520.4,750.122Z" transform="translate(-1507.374 -745.723)" fill="#7f91d7"/>
        <path id="Trazado_9439" data-name="Trazado 9439" d="M1529.1,750.735a1.462,1.462,0,0,1-1.7,1.33,1.743,1.743,0,0,1-1.7-1.576,1.467,1.467,0,0,1,1.7-1.332A1.739,1.739,0,0,1,1529.1,750.735Z" transform="translate(-1510.108 -745.911)" fill="#aecaf6"/>
      </g>
      <g id="Grupo_10262" data-name="Grupo 10262" transform="translate(3.645 11.065)">
        <g id="Grupo_10242" data-name="Grupo 10242">
          <path id="Trazado_9440" data-name="Trazado 9440" d="M1511.188,763.221q-1.452-.111-2.906-.219v-2.441l2.906.212Z" transform="translate(-1508.283 -760.561)" fill="#91beff"/>
        </g>
        <path id="Trazado_9441" data-name="Trazado 9441" d="M1527.864,764.545q-5.522-.468-11.049-.9V761.19q5.527.416,11.049.87Z" transform="translate(-1510.964 -760.759)" fill="#6197ed"/>
        <path id="Trazado_9442" data-name="Trazado 9442" d="M1527.864,771.766q-5.522-.5-11.049-.959v-2.456q5.527.445,11.049.929Z" transform="translate(-1510.964 -763.009)" fill="#91beff"/>
        <g id="Grupo_10243" data-name="Grupo 10243" transform="translate(16.9 16.213)">
          <path id="Trazado_9443" data-name="Trazado 9443" d="M1543.969,787.855q-5.519-.606-11.041-1.167V784.2q5.524.545,11.041,1.135Z" transform="translate(-1532.928 -784.203)" fill="#91beff"/>
        </g>
        <g id="Grupo_10244" data-name="Grupo 10244" transform="translate(16.9 21.183)">
          <path id="Trazado_9444" data-name="Trazado 9444" d="M1539.86,794.7q-3.465-.391-6.932-.762v-2.485q3.467.362,6.932.742Z" transform="translate(-1532.928 -791.451)" fill="#91beff"/>
        </g>
        <g id="Grupo_10245" data-name="Grupo 10245" transform="translate(26.411 22.21)">
          <path id="Trazado_9445" data-name="Trazado 9445" d="M1553.724,796.274q-3.463-.416-6.927-.813v-2.513q3.464.387,6.927.791Z" transform="translate(-1546.797 -792.949)" fill="#91beff"/>
        </g>
        <g id="Grupo_10246" data-name="Grupo 10246" transform="translate(35.914 23.305)">
          <path id="Trazado_9446" data-name="Trazado 9446" d="M1567.576,797.952q-3.46-.441-6.921-.864v-2.542q3.461.413,6.921.841Z" transform="translate(-1560.655 -794.546)" fill="#91beff"/>
        </g>
        <g id="Grupo_10247" data-name="Grupo 10247" transform="translate(45.41 24.469)">
          <path id="Trazado_9447" data-name="Trazado 9447" d="M1581.418,799.731q-3.456-.467-6.916-.915v-2.574q3.459.437,6.916.892Z" transform="translate(-1574.502 -796.243)" fill="#91beff"/>
        </g>
        <g id="Grupo_10248" data-name="Grupo 10248" transform="translate(54.898 25.701)">
          <path id="Trazado_9448" data-name="Trazado 9448" d="M1609.294,803.693q-10.466-1.61-20.956-3.047V798.04q10.489,1.4,20.956,2.968Z" transform="translate(-1588.338 -798.04)" fill="#91beff"/>
        </g>
        <g id="Grupo_10249" data-name="Grupo 10249" transform="translate(77.138 28.862)">
          <path id="Trazado_9449" data-name="Trazado 9449" d="M1633.271,807.337q-6.247-1.03-12.5-2v-2.69q6.255.943,12.5,1.946Z" transform="translate(-1620.769 -802.649)" fill="#91beff"/>
        </g>
        <g id="Grupo_10250" data-name="Grupo 10250" transform="translate(33.097 17.908)">
          <path id="Trazado_9450" data-name="Trazado 9450" d="M1575.132,791.448q-9.286-1.184-18.586-2.241v-2.532q9.3,1.028,18.586,2.179Z" transform="translate(-1556.546 -786.675)" fill="#91beff"/>
        </g>
        <g id="Grupo_10251" data-name="Grupo 10251" transform="translate(57.309 20.796)">
          <path id="Trazado_9451" data-name="Trazado 9451" d="M1610.4,796.075q-9.264-1.351-18.545-2.573v-2.615q9.281,1.19,18.545,2.5Z" transform="translate(-1591.854 -790.887)" fill="#91beff"/>
        </g>
        <g id="Grupo_10252" data-name="Grupo 10252" transform="translate(78.26 23.642)">
          <path id="Trazado_9452" data-name="Trazado 9452" d="M1627.536,798.5q-2.564-.388-5.13-.767v-2.7q2.565.368,5.13.746Z" transform="translate(-1622.406 -795.037)" fill="#91beff"/>
        </g>
        <g id="Grupo_10253" data-name="Grupo 10253" transform="translate(16.9 11.242)">
          <path id="Trazado_9453" data-name="Trazado 9453" d="M1536.717,779.809q-1.893-.187-3.789-.369v-2.485q1.895.177,3.789.358Z" transform="translate(-1532.928 -776.955)" fill="#91beff"/>
        </g>
        <g id="Grupo_10254" data-name="Grupo 10254" transform="translate(23.994 11.92)">
          <path id="Trazado_9454" data-name="Trazado 9454" d="M1553.18,781.484q-4.952-.534-9.908-1.035v-2.506q4.956.487,9.908,1.005Z" transform="translate(-1543.272 -777.944)" fill="#91beff"/>
        </g>
        <g id="Grupo_10255" data-name="Grupo 10255" transform="translate(36.961 13.249)">
          <path id="Trazado_9455" data-name="Trazado 9455" d="M1572.078,783.551q-4.946-.579-9.9-1.124v-2.546q4.951.53,9.9,1.092Z" transform="translate(-1562.181 -779.882)" fill="#91beff"/>
        </g>
        <g id="Grupo_10256" data-name="Grupo 10256" transform="translate(49.914 14.692)">
          <path id="Trazado_9456" data-name="Trazado 9456" d="M1596.015,786.436q-7.467-.97-14.945-1.862v-2.588q7.478.866,14.945,1.808Z" transform="translate(-1581.07 -781.986)" fill="#91beff"/>
        </g>
        <g id="Grupo_10257" data-name="Grupo 10257" transform="translate(68.553 16.97)">
          <path id="Trazado_9457" data-name="Trazado 9457" d="M1635.422,791.829q-13.566-2.062-27.172-3.865v-2.657q13.6,1.751,27.172,3.753Z" transform="translate(-1608.25 -785.308)" fill="#91beff"/>
        </g>
        <g id="Grupo_10258" data-name="Grupo 10258" transform="translate(0 4.882)">
          <path id="Trazado_9458" data-name="Trazado 9458" d="M1511.188,770.354q-1.452-.118-2.906-.233V767.68q1.454.112,2.906.226Z" transform="translate(-1508.283 -767.68)" fill="#91beff"/>
        </g>
        <g id="Grupo_10259" data-name="Grupo 10259" transform="translate(0 9.764)">
          <path id="Trazado_9459" data-name="Trazado 9459" d="M1511.188,777.487l-2.906-.248V774.8q1.454.118,2.906.241Z" transform="translate(-1508.283 -774.799)" fill="#91beff"/>
        </g>
        <g id="Grupo_10260" data-name="Grupo 10260" transform="translate(0 14.646)">
          <path id="Trazado_9460" data-name="Trazado 9460" d="M1511.188,784.621q-1.452-.133-2.906-.262v-2.441q1.454.126,2.906.254Z" transform="translate(-1508.283 -781.918)" fill="#91beff"/>
        </g>
        <g id="Grupo_10261" data-name="Grupo 10261" transform="translate(0 19.528)">
          <path id="Trazado_9461" data-name="Trazado 9461" d="M1511.188,791.754q-1.452-.14-2.906-.276v-2.441q1.454.133,2.906.269Z" transform="translate(-1508.283 -789.037)" fill="#91beff"/>
        </g>
      </g>
    </g>
    <g id="Grupo_10267" data-name="Grupo 10267" transform="translate(9045.428 -7334.794)">
      <g id="Grupo_10265" data-name="Grupo 10265">
        <g id="Grupo_10264" data-name="Grupo 10264">
          <path id="Trazado_9462" data-name="Trazado 9462" d="M1631.335,486.7v44.517a5.05,5.05,0,0,1-4.4,4.909q-53.375,5.918-107.36,9.16c-2.454.145-4.444-1.42-4.444-3.49V503.975c0-2.07,1.991-3.959,4.444-4.228q53.932-5.865,107.36-16.573A3.5,3.5,0,0,1,1631.335,486.7Z" transform="translate(-1515.135 -483.086)" fill="#fff"/>
        </g>
        <path id="Trazado_9463" data-name="Trazado 9463" d="M1631.335,486.7v5.457q-57.738,10.827-116.2,16.453v-4.636c0-2.07,1.991-3.959,4.444-4.228q53.932-5.865,107.36-16.573A3.5,3.5,0,0,1,1631.335,486.7Z" transform="translate(-1515.135 -483.086)" fill="#cae0ff"/>
        <path id="Trazado_9464" data-name="Trazado 9464" d="M1524.94,512.44a2.036,2.036,0,0,1-1.916,1.833,1.588,1.588,0,0,1-1.917-1.428,2.043,2.043,0,0,1,1.917-1.83A1.581,1.581,0,0,1,1524.94,512.44Z" transform="translate(-1517.012 -491.858)" fill="#eaf3ff"/>
        <path id="Trazado_9465" data-name="Trazado 9465" d="M1534.72,511.366a2.055,2.055,0,0,1-1.916,1.855,1.581,1.581,0,0,1-1.916-1.43,2.06,2.06,0,0,1,1.916-1.852A1.575,1.575,0,0,1,1534.72,511.366Z" transform="translate(-1520.085 -491.519)" fill="#7f91d7"/>
        <path id="Trazado_9466" data-name="Trazado 9466" d="M1544.494,510.24a2.074,2.074,0,0,1-1.915,1.878,1.576,1.576,0,0,1-1.915-1.433,2.079,2.079,0,0,1,1.915-1.875A1.568,1.568,0,0,1,1544.494,510.24Z" transform="translate(-1523.158 -491.164)" fill="#aecaf6"/>
      </g>
    </g>
    <g id="Grupo_10271" data-name="Grupo 10271" transform="translate(9070.939 -7201.012)">
      <g id="Grupo_10269" data-name="Grupo 10269">
        <g id="Grupo_10268" data-name="Grupo 10268">
          <path id="Trazado_9470" data-name="Trazado 9470" d="M1658.4,684.692v40.874a3.526,3.526,0,0,1-4.014,3.6q-48.732-5.524-97.991-8.8c-2.239-.151-4.056-1.825-4.056-3.744V681.58a3.724,3.724,0,0,1,4.056-3.406q49.218.871,97.991,2.341A4.183,4.183,0,0,1,1658.4,684.692Z" transform="translate(-1552.337 -678.173)" fill="#fff"/>
        </g>
        <path id="Trazado_9471" data-name="Trazado 9471" d="M1658.4,684.692v5.01q-52.719-2.443-106.061-3.828V681.58a3.724,3.724,0,0,1,4.056-3.406q49.218.871,97.991,2.341A4.183,4.183,0,0,1,1658.4,684.692Z" transform="translate(-1552.337 -678.173)" fill="#cae0ff"/>
        <path id="Trazado_9472" data-name="Trazado 9472" d="M1561.286,683.361a1.6,1.6,0,0,1-1.749,1.47,1.691,1.691,0,0,1-1.749-1.549,1.6,1.6,0,0,1,1.749-1.47A1.685,1.685,0,0,1,1561.286,683.361Z" transform="translate(-1554.05 -679.317)" fill="#eaf3ff"/>
        <path id="Trazado_9473" data-name="Trazado 9473" d="M1570.21,683.563a1.6,1.6,0,0,1-1.749,1.479,1.7,1.7,0,0,1-1.748-1.561,1.6,1.6,0,0,1,1.748-1.479A1.691,1.691,0,0,1,1570.21,683.563Z" transform="translate(-1556.855 -679.376)" fill="#7f91d7"/>
        <path id="Trazado_9474" data-name="Trazado 9474" d="M1579.131,683.774a1.6,1.6,0,0,1-1.747,1.489,1.7,1.7,0,0,1-1.747-1.575,1.606,1.606,0,0,1,1.747-1.49A1.7,1.7,0,0,1,1579.131,683.774Z" transform="translate(-1559.659 -679.438)" fill="#aecaf6"/>
      </g>
    </g>
    <g id="Grupo_10295" data-name="Grupo 10295" transform="translate(8800.544 -7244.725)">
      <g id="Grupo_10273" data-name="Grupo 10273">
        <g id="Grupo_10272" data-name="Grupo 10272">
          <path id="Trazado_9479" data-name="Trazado 9479" d="M1260.693,619.015v31.019c0,1.7-1.752,3.08-3.912,3.084q-47.484.083-94.849.569c-2.153.023-3.9-1.419-3.9-3.222V617.586c0-1.8,1.746-3.214,3.9-3.155q47.328,1.272,94.849,1.49C1258.941,615.931,1260.693,617.315,1260.693,619.015Z" transform="translate(-1158.034 -614.429)" fill="#fff"/>
        </g>
        <path id="Trazado_9480" data-name="Trazado 9480" d="M1260.693,619.015v3.8q-51.4-.14-102.659-1.2v-4.03c0-1.8,1.746-3.214,3.9-3.155q47.328,1.272,94.849,1.49C1258.941,615.931,1260.693,617.315,1260.693,619.015Z" transform="translate(-1158.034 -614.429)" fill="#cae0ff"/>
        <path id="Trazado_9481" data-name="Trazado 9481" d="M1166.638,619.265a1.521,1.521,0,0,1-1.683,1.361,1.6,1.6,0,0,1-1.682-1.44,1.516,1.516,0,0,1,1.682-1.36A1.607,1.607,0,0,1,1166.638,619.265Z" transform="translate(-1159.68 -615.497)" fill="#eaf3ff"/>
        <path id="Trazado_9482" data-name="Trazado 9482" d="M1175.226,619.46a1.52,1.52,0,0,1-1.683,1.356,1.6,1.6,0,0,1-1.683-1.43,1.516,1.516,0,0,1,1.683-1.355A1.6,1.6,0,0,1,1175.226,619.46Z" transform="translate(-1162.379 -615.561)" fill="#7f91d7"/>
        <path id="Trazado_9483" data-name="Trazado 9483" d="M1183.816,619.644a1.521,1.521,0,0,1-1.683,1.351,1.594,1.594,0,0,1-1.684-1.421,1.516,1.516,0,0,1,1.684-1.35A1.6,1.6,0,0,1,1183.816,619.644Z" transform="translate(-1165.078 -615.622)" fill="#aecaf6"/>
      </g>
      <g id="Grupo_10294" data-name="Grupo 10294" transform="translate(8.278 12.174)">
        <g id="Grupo_10274" data-name="Grupo 10274" transform="translate(0 0.185)">
          <path id="Trazado_9484" data-name="Trazado 9484" d="M1172.7,634.877l-2.6.049v-2.434l2.6-.04Z" transform="translate(-1170.105 -632.452)" fill="#91beff"/>
        </g>
        <path id="Trazado_9485" data-name="Trazado 9485" d="M1187.635,634.563q-4.951.088-9.9.18v-2.415q4.946-.075,9.9-.145Z" transform="translate(-1172.503 -632.182)" fill="#6197ed"/>
        <path id="Trazado_9486" data-name="Trazado 9486" d="M1187.635,641.507q-4.951.121-9.9.249V639.34q4.946-.109,9.9-.214Z" transform="translate(-1172.503 -634.364)" fill="#91beff"/>
        <g id="Grupo_10275" data-name="Grupo 10275" transform="translate(15.131 13.951)">
          <path id="Trazado_9487" data-name="Trazado 9487" d="M1202.077,654.874q-4.956.178-9.907.367V652.86q4.952-.172,9.907-.334Z" transform="translate(-1192.17 -652.526)" fill="#91beff"/>
        </g>
        <g id="Grupo_10276" data-name="Grupo 10276" transform="translate(15.131 18.793)">
          <path id="Trazado_9488" data-name="Trazado 9488" d="M1198.388,661.947q-3.111.135-6.219.274v-2.381q3.109-.129,6.219-.254Z" transform="translate(-1192.17 -659.587)" fill="#91beff"/>
        </g>
        <g id="Grupo_10277" data-name="Grupo 10277" transform="translate(23.664 18.459)">
          <path id="Trazado_9489" data-name="Trazado 9489" d="M1210.836,661.432q-3.113.129-6.223.262v-2.352q3.111-.123,6.223-.242Z" transform="translate(-1204.613 -659.1)" fill="#91beff"/>
        </g>
        <g id="Grupo_10278" data-name="Grupo 10278" transform="translate(32.204 18.141)">
          <path id="Trazado_9490" data-name="Trazado 9490" d="M1223.294,660.942q-3.115.122-6.228.25v-2.326q3.113-.117,6.228-.23Z" transform="translate(-1217.066 -658.636)" fill="#91beff"/>
        </g>
        <g id="Grupo_10279" data-name="Grupo 10279" transform="translate(40.75 17.839)">
          <path id="Trazado_9491" data-name="Trazado 9491" d="M1235.761,660.477q-3.118.116-6.233.237v-2.3q3.116-.111,6.233-.218Z" transform="translate(-1229.528 -658.196)" fill="#91beff"/>
        </g>
        <g id="Grupo_10280" data-name="Grupo 10280" transform="translate(49.302 17.16)">
          <path id="Trazado_9492" data-name="Trazado 9492" d="M1260.936,659.432q-9.475.3-18.936.649v-2.275q9.461-.32,18.936-.6Z" transform="translate(-1242 -657.206)" fill="#91beff"/>
        </g>
        <g id="Grupo_10281" data-name="Grupo 10281" transform="translate(69.4 16.808)">
          <path id="Trazado_9493" data-name="Trazado 9493" d="M1282.639,658.889q-5.668.165-11.332.344V657.01q5.664-.167,11.332-.318Z" transform="translate(-1271.308 -656.692)" fill="#91beff"/>
        </g>
        <g id="Grupo_10282" data-name="Grupo 10282" transform="translate(29.67 13.293)">
          <path id="Trazado_9494" data-name="Trazado 9494" d="M1230.1,653.849q-8.372.265-16.732.558v-2.333q8.361-.267,16.732-.508Z" transform="translate(-1213.371 -651.566)" fill="#91beff"/>
        </g>
        <g id="Grupo_10283" data-name="Grupo 10283" transform="translate(51.478 12.708)">
          <path id="Trazado_9495" data-name="Trazado 9495" d="M1261.933,652.94q-8.386.227-16.761.483v-2.269q8.375-.233,16.761-.44Z" transform="translate(-1245.172 -650.714)" fill="#91beff"/>
        </g>
        <g id="Grupo_10284" data-name="Grupo 10284" transform="translate(70.417 12.544)">
          <path id="Trazado_9496" data-name="Trazado 9496" d="M1277.438,652.684l-4.648.121v-2.221l4.648-.111Z" transform="translate(-1272.79 -650.474)" fill="#91beff"/>
        </g>
        <g id="Grupo_10285" data-name="Grupo 10285" transform="translate(15.131 9.43)">
          <path id="Trazado_9497" data-name="Trazado 9497" d="M1195.568,648.3l-3.4.106v-2.381l3.4-.094Z" transform="translate(-1192.17 -645.933)" fill="#91beff"/>
        </g>
        <g id="Grupo_10286" data-name="Grupo 10286" transform="translate(21.494 9.116)">
          <path id="Trazado_9498" data-name="Trazado 9498" d="M1210.349,647.806q-4.452.128-8.9.262v-2.36q4.448-.119,8.9-.233Z" transform="translate(-1201.449 -645.475)" fill="#91beff"/>
        </g>
        <g id="Grupo_10287" data-name="Grupo 10287" transform="translate(33.145 8.828)">
          <path id="Trazado_9499" data-name="Trazado 9499" d="M1227.347,647.351q-4.456.119-8.909.245v-2.323q4.453-.112,8.909-.218Z" transform="translate(-1218.438 -645.055)" fill="#91beff"/>
        </g>
        <g id="Grupo_10288" data-name="Grupo 10288" transform="translate(44.808 8.462)">
          <path id="Trazado_9500" data-name="Trazado 9500" d="M1248.933,646.772q-6.747.162-13.487.339v-2.288q6.74-.158,13.487-.3Z" transform="translate(-1235.446 -644.521)" fill="#91beff"/>
        </g>
        <g id="Grupo_10289" data-name="Grupo 10289" transform="translate(61.633 7.923)">
          <path id="Trazado_9501" data-name="Trazado 9501" d="M1284.6,645.92q-12.321.238-24.623.525V644.2q12.3-.256,24.623-.468Z" transform="translate(-1259.981 -643.735)" fill="#91beff"/>
        </g>
        <g id="Grupo_10290" data-name="Grupo 10290" transform="translate(0 5.035)">
          <path id="Trazado_9502" data-name="Trazado 9502" d="M1172.7,641.949l-2.6.068v-2.434l2.6-.059Z" transform="translate(-1170.105 -639.524)" fill="#91beff"/>
        </g>
        <g id="Grupo_10291" data-name="Grupo 10291" transform="translate(0 9.885)">
          <path id="Trazado_9503" data-name="Trazado 9503" d="M1172.7,649.022l-2.6.088v-2.435l2.6-.077Z" transform="translate(-1170.105 -646.597)" fill="#91beff"/>
        </g>
        <g id="Grupo_10292" data-name="Grupo 10292" transform="translate(0 14.735)">
          <path id="Trazado_9504" data-name="Trazado 9504" d="M1172.7,656.094l-2.6.106v-2.434l2.6-.1Z" transform="translate(-1170.105 -653.669)" fill="#91beff"/>
        </g>
        <g id="Grupo_10293" data-name="Grupo 10293" transform="translate(0 19.585)">
          <path id="Trazado_9505" data-name="Trazado 9505" d="M1172.7,663.167l-2.6.125v-2.434l2.6-.116Z" transform="translate(-1170.105 -660.742)" fill="#91beff"/>
        </g>
      </g>
    </g>
    <g id="Grupo_10319" data-name="Grupo 10319" transform="translate(8745.812 -7267.303)">
      <g id="Grupo_10297" data-name="Grupo 10297">
        <g id="Grupo_10296" data-name="Grupo 10296">
          <path id="Trazado_9506" data-name="Trazado 9506" d="M1175.763,589.074v30.258c0,1.657-1.667,2.991-3.722,2.978q-45.176-.31-90.121-.972a3.584,3.584,0,0,1-3.7-3.368V584.576a3.249,3.249,0,0,1,3.7-3.061q44.914,3.029,90.121,4.444C1174.1,586.023,1175.763,587.417,1175.763,589.074Z" transform="translate(-1078.22 -581.505)" fill="#fff"/>
        </g>
        <path id="Trazado_9507" data-name="Trazado 9507" d="M1175.763,589.074v3.709q-48.9-1.248-97.543-4.115v-4.093a3.249,3.249,0,0,1,3.7-3.061q44.914,3.029,90.121,4.444C1174.1,586.023,1175.763,587.417,1175.763,589.074Z" transform="translate(-1078.22 -581.505)" fill="#cae0ff"/>
        <path id="Trazado_9508" data-name="Trazado 9508" d="M1086.385,586.552a1.411,1.411,0,0,1-1.6,1.321,1.633,1.633,0,0,1-1.6-1.52,1.406,1.406,0,0,1,1.6-1.32A1.637,1.637,0,0,1,1086.385,586.552Z" transform="translate(-1079.782 -582.612)" fill="#eaf3ff"/>
        <path id="Trazado_9509" data-name="Trazado 9509" d="M1094.535,587.05a1.412,1.412,0,0,1-1.6,1.315,1.625,1.625,0,0,1-1.6-1.506,1.406,1.406,0,0,1,1.6-1.313A1.629,1.629,0,0,1,1094.535,587.05Z" transform="translate(-1082.343 -582.773)" fill="#7f91d7"/>
        <path id="Trazado_9510" data-name="Trazado 9510" d="M1102.69,587.531a1.411,1.411,0,0,1-1.6,1.308,1.616,1.616,0,0,1-1.6-1.492,1.407,1.407,0,0,1,1.6-1.307A1.621,1.621,0,0,1,1102.69,587.531Z" transform="translate(-1084.905 -582.929)" fill="#aecaf6"/>
      </g>
      <g id="Grupo_10318" data-name="Grupo 10318" transform="translate(4.471 12.233)">
        <g id="Grupo_10298" data-name="Grupo 10298" transform="translate(0.343)">
          <path id="Trazado_9511" data-name="Trazado 9511" d="M1087.91,601.84l-2.67,0,.042-2.5,2.671,0Z" transform="translate(-1085.24 -599.344)" fill="#91beff"/>
        </g>
        <path id="Trazado_9512" data-name="Trazado 9512" d="M1103.256,601.83q-5.089,0-10.172.01l.042-2.482q5.083.011,10.172.025Z" transform="translate(-1087.362 -599.348)" fill="#6197ed"/>
        <path id="Trazado_9513" data-name="Trazado 9513" d="M1103.133,608.976q-5.089.037-10.173.081l.042-2.482q5.084-.026,10.172-.045Z" transform="translate(-1087.323 -601.602)" fill="#91beff"/>
        <g id="Grupo_10299" data-name="Grupo 10299" transform="translate(15.643 14.543)">
          <path id="Trazado_9514" data-name="Trazado 9514" d="M1117.736,622.963q-5.095.1-10.185.2l.042-2.446q5.09-.09,10.185-.169Z" transform="translate(-1107.551 -620.551)" fill="#91beff"/>
        </g>
        <g id="Grupo_10300" data-name="Grupo 10300" transform="translate(15.559 19.453)">
          <path id="Trazado_9515" data-name="Trazado 9515" d="M1113.822,630.136q-3.2.084-6.393.173l.042-2.446q3.195-.078,6.393-.152Z" transform="translate(-1107.429 -627.711)" fill="#91beff"/>
        </g>
        <g id="Grupo_10301" data-name="Grupo 10301" transform="translate(24.332 19.26)">
          <path id="Trazado_9516" data-name="Trazado 9516" d="M1126.621,629.826q-3.2.078-6.4.16l.042-2.417q3.2-.071,6.4-.139Z" transform="translate(-1120.222 -627.43)" fill="#91beff"/>
        </g>
        <g id="Grupo_10302" data-name="Grupo 10302" transform="translate(33.112 19.084)">
          <path id="Trazado_9517" data-name="Trazado 9517" d="M1139.429,629.542q-3.2.071-6.4.146l.041-2.388q3.2-.066,6.4-.127Z" transform="translate(-1133.026 -627.173)" fill="#91beff"/>
        </g>
        <g id="Grupo_10303" data-name="Grupo 10303" transform="translate(41.899 18.924)">
          <path id="Trazado_9518" data-name="Trazado 9518" d="M1152.246,629.284q-3.2.065-6.407.133l.04-2.362q3.2-.06,6.407-.115Z" transform="translate(-1145.839 -626.94)" fill="#91beff"/>
        </g>
        <g id="Grupo_10304" data-name="Grupo 10304" transform="translate(50.691 18.6)">
          <path id="Trazado_9519" data-name="Trazado 9519" d="M1178.127,628.755q-9.74.145-19.467.334l.041-2.338q9.726-.162,19.467-.283Z" transform="translate(-1158.66 -626.468)" fill="#91beff"/>
        </g>
        <g id="Grupo_10305" data-name="Grupo 10305" transform="translate(71.353 18.458)">
          <path id="Trazado_9520" data-name="Trazado 9520" d="M1200.438,628.518q-5.826.069-11.648.154l.039-2.284q5.822-.071,11.647-.128Z" transform="translate(-1188.79 -626.261)" fill="#91beff"/>
        </g>
        <g id="Grupo_10306" data-name="Grupo 10306" transform="translate(30.589 14.242)">
          <path id="Trazado_9521" data-name="Trazado 9521" d="M1146.548,622.459q-8.607.125-17.2.279l.041-2.4q8.594-.128,17.2-.228Z" transform="translate(-1129.347 -620.113)" fill="#91beff"/>
        </g>
        <g id="Grupo_10307" data-name="Grupo 10307" transform="translate(53.007 14.026)">
          <path id="Trazado_9522" data-name="Trazado 9522" d="M1179.268,622.085q-8.62.086-17.23.2l.04-2.332q8.609-.093,17.229-.158Z" transform="translate(-1162.038 -619.798)" fill="#91beff"/>
        </g>
        <g id="Grupo_10308" data-name="Grupo 10308" transform="translate(72.476 13.978)">
          <path id="Trazado_9523" data-name="Trazado 9523" d="M1195.206,622l-4.778.043.039-2.281,4.778-.032Z" transform="translate(-1190.428 -619.727)" fill="#91beff"/>
        </g>
        <g id="Grupo_10309" data-name="Grupo 10309" transform="translate(15.726 9.783)">
          <path id="Trazado_9524" data-name="Trazado 9524" d="M1111.165,616.044l-3.493.049.042-2.446,3.492-.037Z" transform="translate(-1107.673 -613.61)" fill="#91beff"/>
        </g>
        <g id="Grupo_10310" data-name="Grupo 10310" transform="translate(22.267 9.669)">
          <path id="Trazado_9525" data-name="Trazado 9525" d="M1126.36,615.839q-4.576.053-9.149.113l.042-2.424q4.571-.045,9.148-.084Z" transform="translate(-1117.211 -613.444)" fill="#91beff"/>
        </g>
        <g id="Grupo_10311" data-name="Grupo 10311" transform="translate(34.243 9.579)">
          <path id="Trazado_9526" data-name="Trazado 9526" d="M1143.833,615.671q-4.58.044-9.158.095l.041-2.387q4.577-.036,9.157-.067Z" transform="translate(-1134.675 -613.312)" fill="#91beff"/>
        </g>
        <g id="Grupo_10312" data-name="Grupo 10312" transform="translate(46.231 9.488)">
          <path id="Trazado_9527" data-name="Trazado 9527" d="M1166.021,615.492q-6.936.047-13.864.11l.041-2.35q6.928-.043,13.863-.073Z" transform="translate(-1152.157 -613.18)" fill="#91beff"/>
        </g>
        <g id="Grupo_10313" data-name="Grupo 10313" transform="translate(63.526 9.427)">
          <path id="Trazado_9528" data-name="Trazado 9528" d="M1202.683,615.336q-12.664.027-25.306.106l.039-2.3q12.643-.047,25.306-.047Z" transform="translate(-1177.377 -613.091)" fill="#91beff"/>
        </g>
        <g id="Grupo_10314" data-name="Grupo 10314" transform="translate(0.257 4.987)">
          <path id="Trazado_9529" data-name="Trazado 9529" d="M1087.786,609.108l-2.671.025.042-2.5,2.671-.015Z" transform="translate(-1085.115 -606.617)" fill="#91beff"/>
        </g>
        <g id="Grupo_10315" data-name="Grupo 10315" transform="translate(0.171 9.971)">
          <path id="Trazado_9530" data-name="Trazado 9530" d="M1087.661,616.375l-2.671.044.042-2.5,2.671-.034Z" transform="translate(-1084.99 -613.884)" fill="#91beff"/>
        </g>
        <g id="Grupo_10316" data-name="Grupo 10316" transform="translate(0.086 14.954)">
          <path id="Trazado_9531" data-name="Trazado 9531" d="M1087.537,623.641l-2.672.064.042-2.5,2.672-.054Z" transform="translate(-1084.865 -621.15)" fill="#91beff"/>
        </g>
        <g id="Grupo_10317" data-name="Grupo 10317" transform="translate(0 19.937)">
          <path id="Trazado_9532" data-name="Trazado 9532" d="M1087.412,630.908l-2.672.083.042-2.5,2.672-.073Z" transform="translate(-1084.74 -628.417)" fill="#91beff"/>
        </g>
      </g>
    </g>
    <g id="Grupo_10320" data-name="Grupo 10320" transform="translate(8941.021 -7234.404)">
      <path id="Trazado_9533" data-name="Trazado 9533" d="M1366.811,735.156l4.292,3.535-1.515,5.3,7.323,7.07-1.01,5.555s-11.868-8.838-12.878-11.363S1366.811,735.156,1366.811,735.156Z" transform="translate(-1362.883 -662.688)" fill="#fdb17f"/>
      <path id="Trazado_9534" data-name="Trazado 9534" d="M1430.839,666.092s6.312-5.3,7.575-8.585,3.788-23.736,3.788-23.736-1.01,0-1.01-1.515v-1.515s-.505-1.262,1.01-1.262h4.8a1.347,1.347,0,0,1,1.01,1.262c0,1.01,0,2.777-1.01,2.777l-2.778,21.716s.253,7.827-8.585,16.413Z" transform="translate(-1384.238 -629.479)" fill="#fdb17f"/>
      <rect id="Rectngulo_2814" data-name="Rectngulo 2814" width="4.376" height="5.196" transform="translate(28.773 192.932)" fill="#fdb17f"/>
      <rect id="Rectngulo_2815" data-name="Rectngulo 2815" width="4.376" height="5.197" transform="translate(15.643 190.196)" fill="#fdb17f"/>
      <path id="Trazado_9535" data-name="Trazado 9535" d="M1408.462,915.646a14.642,14.642,0,0,1,5.536-.7c2.423.343,2.77,1.381,2.77,1.381l-12.627,3.644s-1.387-2.421.171-2.942l4.151-1.387Z" transform="translate(-1375.67 -719.165)" fill="#1b2d4c"/>
      <path id="Trazado_9536" data-name="Trazado 9536" d="M1389.8,911.931a14.64,14.64,0,0,1,5.535-.7c2.423.344,2.769,1.382,2.769,1.382l-12.626,3.644s-1.387-2.42.17-2.941l4.151-1.388Z" transform="translate(-1369.804 -717.997)" fill="#1b2d4c"/>
      <path id="Trazado_9537" data-name="Trazado 9537" d="M1380.13,766.36a36.007,36.007,0,0,0-4.545,15.907c-.252,8.838.5,15.908,2.273,28.028s2.272,53.026,2.272,53.026h8.333a84.236,84.236,0,0,1,0-17.422c1.01-9.343.757-36.614.757-36.614l1.516-18.432.5-.252,2.777,40.653v34.594h7.07l3.03-32.573,2.525-33.836a76.765,76.765,0,0,0,1.262-15.908,86.011,86.011,0,0,0-3.03-18.181Z" transform="translate(-1366.86 -672.176)" fill="#1b2d4c"/>
      <path id="Trazado_9538" data-name="Trazado 9538" d="M1409.832,681.4l-15.907,14.14-20.2,9.848-7.323,12.877,6.313,4.8,4.8-11.615-.505,28.533s.253,1.515,12.373,1.515,12.625-2.02,12.625-2.02l.252-16.16.5-12.373s.505-4.04,5.555-11.362a74.251,74.251,0,0,1,9.09-11.111Z" transform="translate(-1363.989 -645.794)" fill="#e2eefd"/>
      <path id="Trazado_9539" data-name="Trazado 9539" d="M1408.192,667.1s5.471,11.49.548,15.866a14.71,14.71,0,0,1-10.395,3.829l-5.472-16.413Z" transform="translate(-1372.308 -641.3)" fill="#fdb17f"/>
      <path id="Trazado_9540" data-name="Trazado 9540" d="M1401.954,658.761s3.283,3.283,0,5.47-7.111,6.019-9.3,5.472,0,7.111,2.188,10.393,8.206,19.149,1.093,24.072-10.941,11.489-14.223,12.036-5.472-8.754-4.377-10.942-2.188-6.018-3.282-9.848-2.189-8.206,1.641-16.959,2.188-13.129,3.283-16.412S1388.277,648.914,1401.954,658.761Z" transform="translate(-1366.069 -637.341)" fill="#442761"/>
    </g>
    <g id="Grupo_10321" data-name="Grupo 10321" transform="translate(8797.794 -7221.778)">
      <path id="Trazado_9541" data-name="Trazado 9541" d="M1216.869,669.562s2.087,13.753-2.189,17.859-8.3,2.93-8.662,1.987-.208-12.751-.208-12.751l1.927-7.095Z" transform="translate(-1170.288 -654.701)" fill="#fdb282"/>
      <path id="Trazado_9542" data-name="Trazado 9542" d="M1154.875,776.671s1.613,10.43,8.172,17.612l-.427-17.575s-3.581,1.267-5.782,1.031S1154.875,776.671,1154.875,776.671Z" transform="translate(-1154.289 -688.359)" fill="#fdb282"/>
      <path id="Trazado_9543" data-name="Trazado 9543" d="M1180.938,673.086a23.327,23.327,0,0,1-2.777-11.11s.027-13.411,13.943-14.026,14.5,3.742,15.043,5.114,2.582,6.189.859,10.144a5.5,5.5,0,0,1-5.531,3.481s-2.712.03-3.272,1.6.942,4.183.942,4.183,1.828,2.595,1.256,4.107-2.6,5.576-4.064,6.016-13.053,0-13.053,0-2.5.2-3.031-.746C1180.085,679.768,1180.938,673.086,1180.938,673.086Z" transform="translate(-1161.604 -647.891)" fill="#442761"/>
      <path id="Trazado_9544" data-name="Trazado 9544" d="M1173.708,698.5a12.179,12.179,0,0,1-3.952,7.008s-11.74,6.573-14.51,42.55l7.493.647.7,34.609s6.035,5.06,18.979,5.06,21.615-9.5,21.615-9.5l.179-32.613s-.931-28.745-2.717-33.587-13.158-14.009-13.158-14.009Z" transform="translate(-1154.408 -663.795)" fill="#91beff"/>
      <path id="Trazado_9545" data-name="Trazado 9545" d="M1163.368,820.147l-4.139,33.971s-3.662,22.653-4.057,37.077.058,24.928.058,24.928l8.988-1.586v-8.423l2.8-13.153.344-4,5.759-15.791,3.128-25.962s1.131-6.556,4.012-6.432.679,26.363,2.207,37.2,4.274,36.833,4.274,36.833l12.528-.915s.033-10.531-2.416-15.182,1.844-13.169,1.762-16.005-2.417-11.211-1.19-19.359,4.377-21.88,4.377-21.88,4.808-18.744,2.163-25.759c0,0-8.968,9.09-20.924,9.5C1170.484,825.638,1163.368,820.147,1163.368,820.147Z" transform="translate(-1154.334 -700.626)" fill="#213a5e"/>
      <path id="Trazado_9546" data-name="Trazado 9546" d="M1201.189,732.976s-1.138,19.772.576,28.484c0,0-1.141.926-.946,1.331s2.726,6.915,2.726,6.915,1.9-5.894,6.833-7.189a10.435,10.435,0,0,1,8.151.9.773.773,0,0,0,.854-.734c.069-.807.4-4.16.4-4.16s.45-1.052-.566-1.255-6.214-.771-9.042-.11a38.061,38.061,0,0,0-6.653,2.58S1201.164,739.578,1201.189,732.976Z" transform="translate(-1168.722 -674.629)" fill="#d3e5ff"/>
      <path id="Trazado_9547" data-name="Trazado 9547" d="M1154.862,763.747l-.838,2.956a3.063,3.063,0,0,0,2.549,2.159c2.039.232,5.782-1.031,5.782-1.031l.126,2.786.752-1.282V748.42l-.725,15.982Z" transform="translate(-1154.024 -679.482)" fill="#d3e5ff"/>
      <path id="Trazado_9548" data-name="Trazado 9548" d="M1201.2,959.8l-.162,9.376h26.183s.641-2.382-1.137-3.045a57.322,57.322,0,0,0-6.864-1.474s-4.924-1.946-5.491-5.771Z" transform="translate(-1168.798 -745.62)" fill="#1b2d4c"/>
      <path id="Trazado_9549" data-name="Trazado 9549" d="M1155.331,961.459l.339,7.684h19.523s.747-2.053-.108-2.629a43.721,43.721,0,0,0-5.846-1.9s-4.93-1.295-5.4-4.642Z" transform="translate(-1154.435 -745.961)" fill="#1b2d4c"/>
      <path id="Trazado_9550" data-name="Trazado 9550" d="M1205.373,781.936s9.769,12.066,10.309,16.506-1.048,7.381-.419,9.864,3.405,7.359,5.574,7.193,4.435-7.608,4.224-9.651a15.63,15.63,0,0,0-2.308-6.522c-1.395-2.3-2.787-22.705-2.787-22.705a10.379,10.379,0,0,0-8.685-1.121A8.8,8.8,0,0,0,1205.373,781.936Z" transform="translate(-1170.16 -687.835)" fill="#fdb282"/>
    </g>
    <g id="Grupo_10166-2" data-name="Grupo 10166" transform="translate(9083.194 -7186.067) rotate(3)">
      <g id="Grupo_10146-2" data-name="Grupo 10146" transform="translate(0 0.233)">
        <path id="Trazado_9332-2" data-name="Trazado 9332" d="M1450.06,620.015l-2.288.035V618.2l2.288-.042Z" transform="translate(-1447.772 -618.157)" fill="#91beff"/>
      </g>
      <path id="Trazado_9333-2" data-name="Trazado 9333" d="M1470.41,619.344q-4.348.088-8.7.161v-1.864q4.351-.086,8.7-.189Z" transform="translate(-1457.104 -617.452)" fill="#6197ed"/>
      <path id="Trazado_9334-2" data-name="Trazado 9334" d="M1470.41,630.8q-4.348.057-8.7.1v-1.865q4.351-.06,8.7-.132Z" transform="translate(-1457.104 -625.12)" fill="#91beff"/>
      <g id="Grupo_10147-2" data-name="Grupo 10147" transform="translate(13.306 11.332)">
        <path id="Trazado_9335-2" data-name="Trazado 9335" d="M1496.723,653.665l-8.691-.01v-1.893l8.691-.023Z" transform="translate(-1488.032 -651.739)" fill="#91beff"/>
      </g>
      <g id="Grupo_10148-2" data-name="Grupo 10148" transform="translate(13.306 15.141)">
        <path id="Trazado_9336-2" data-name="Trazado 9336" d="M1493.489,665.2l-5.457-.046v-1.893l5.457.026Z" transform="translate(-1488.032 -663.263)" fill="#91beff"/>
      </g>
      <g id="Grupo_10149-2" data-name="Grupo 10149" transform="translate(20.792 15.178)">
        <path id="Trazado_9337-2" data-name="Trazado 9337" d="M1516.133,665.348l-5.451-.053v-1.921l5.451.03Q1516.133,664.376,1516.133,665.348Z" transform="translate(-1510.682 -663.374)" fill="#91beff"/>
      </g>
      <g id="Grupo_10150-2" data-name="Grupo 10150" transform="translate(28.271 15.219)">
        <path id="Trazado_9338-2" data-name="Trazado 9338" d="M1538.754,665.512q-2.722-.031-5.446-.06V663.5l5.446.033Z" transform="translate(-1533.309 -663.5)" fill="#91beff"/>
      </g>
      <g id="Grupo_10151-2" data-name="Grupo 10151" transform="translate(35.741 15.266)">
        <path id="Trazado_9339-2" data-name="Trazado 9339" d="M1561.35,665.7l-5.439-.065v-1.989l5.439.037Z" transform="translate(-1555.911 -663.641)" fill="#91beff"/>
      </g>
      <g id="Grupo_10152-2" data-name="Grupo 10152" transform="translate(43.202 15.317)">
        <path id="Trazado_9340-2" data-name="Trazado 9340" d="M1594.95,666.058q-8.219-.127-16.465-.233V663.8q8.246.059,16.465.131Z" transform="translate(-1578.485 -663.796)" fill="#91beff"/>
      </g>
      <g id="Grupo_10153-2" data-name="Grupo 10153" transform="translate(60.674 15.457)">
        <path id="Trazado_9341-2" data-name="Trazado 9341" d="M1641.16,666.518q-4.9-.084-9.81-.161V664.22q4.911.044,9.81.091Z" transform="translate(-1631.35 -664.22)" fill="#91beff"/>
      </g>
      <g id="Grupo_10154-2" data-name="Grupo 10154" transform="translate(26.053 11.269)">
        <path id="Trazado_9342-2" data-name="Trazado 9342" d="M1541.221,653.564l-14.621-.021V651.6q7.319-.023,14.621-.051Z" transform="translate(-1526.6 -651.549)" fill="#91beff"/>
      </g>
      <g id="Grupo_10155-2" data-name="Grupo 10155" transform="translate(45.097 11.188)">
        <path id="Trazado_9343-2" data-name="Trazado 9343" d="M1598.789,653.432l-14.569-.027v-2.04q7.3-.029,14.569-.064Z" transform="translate(-1584.22 -651.302)" fill="#91beff"/>
      </g>
      <g id="Grupo_10156-2" data-name="Grupo 10156" transform="translate(61.556 11.159)">
        <path id="Trazado_9344-2" data-name="Trazado 9344" d="M1638.043,653.385l-4.027-.008v-2.143l4.027-.02Z" transform="translate(-1634.017 -651.214)" fill="#91beff"/>
      </g>
      <g id="Grupo_10157-2" data-name="Grupo 10157" transform="translate(13.306 7.541)">
        <path id="Trazado_9345-2" data-name="Trazado 9345" d="M1491.014,642.172l-2.982.018V640.3l2.982-.029Z" transform="translate(-1488.032 -640.269)" fill="#91beff"/>
      </g>
      <g id="Grupo_10158-2" data-name="Grupo 10158" transform="translate(18.89 7.426)">
        <path id="Trazado_9346-2" data-name="Trazado 9346" d="M1512.723,641.867q-3.9.03-7.8.056v-1.914q3.9-.041,7.8-.088Z" transform="translate(-1504.926 -639.921)" fill="#91beff"/>
      </g>
      <g id="Grupo_10159-2" data-name="Grupo 10159" transform="translate(29.094 7.294)">
        <path id="Trazado_9347-2" data-name="Trazado 9347" d="M1543.586,641.515q-3.89.034-7.785.065v-1.957q3.9-.049,7.785-.1Z" transform="translate(-1535.801 -639.52)" fill="#91beff"/>
      </g>
      <g id="Grupo_10160-2" data-name="Grupo 10160" transform="translate(39.283 7.078)">
        <path id="Trazado_9348-2" data-name="Trazado 9348" d="M1578.376,640.941q-5.867.062-11.748.115v-2.008q5.881-.085,11.748-.182Z" transform="translate(-1566.628 -638.866)" fill="#91beff"/>
      </g>
      <g id="Grupo_10161-2" data-name="Grupo 10161" transform="translate(53.933 6.619)">
        <path id="Trazado_9349-2" data-name="Trazado 9349" d="M1632.275,639.723q-10.634.142-21.323.258v-2.093q10.687-.183,21.323-.409Z" transform="translate(-1610.952 -637.479)" fill="#91beff"/>
      </g>
      <g id="Grupo_10162-2" data-name="Grupo 10162" transform="translate(0 3.949)">
        <path id="Trazado_9350-2" data-name="Trazado 9350" d="M1450.06,631.258l-2.288.023v-1.852l2.288-.029Z" transform="translate(-1447.772 -629.4)" fill="#91beff"/>
      </g>
      <g id="Grupo_10163-2" data-name="Grupo 10163" transform="translate(0 7.665)">
        <path id="Trazado_9351-2" data-name="Trazado 9351" d="M1450.06,642.5l-2.288.011v-1.852l2.288-.017Z" transform="translate(-1447.772 -640.642)" fill="#91beff"/>
      </g>
      <g id="Grupo_10164-2" data-name="Grupo 10164" transform="translate(0 11.38)">
        <path id="Trazado_9352-2" data-name="Trazado 9352" d="M1450.06,653.743l-2.288,0v-1.852l2.288,0Z" transform="translate(-1447.772 -651.885)" fill="#91beff"/>
      </g>
      <g id="Grupo_10165-2" data-name="Grupo 10165" transform="translate(0 15.088)">
        <path id="Trazado_9353-2" data-name="Trazado 9353" d="M1450.06,664.969l-2.288-.014V663.1l2.288.008Z" transform="translate(-1447.772 -663.103)" fill="#91beff"/>
      </g>
    </g>
    <g id="Grupo_10837" data-name="Grupo 10837" transform="translate(9055.043 -7304.585) rotate(-2)">
      <g id="Grupo_10218-2" data-name="Grupo 10218" transform="translate(0 0.141)">
        <path id="Trazado_9413-2" data-name="Trazado 9413" d="M1341.529,550.505q-1.459.008-2.917.013v-2.292l2.917-.013Z" transform="translate(-1338.612 -548.213)" fill="#91beff"/>
      </g>
      <path id="Trazado_9414-2" data-name="Trazado 9414" d="M1358.278,550.305q-5.549.078-11.1.117v-2.293q5.55-.041,11.1-.121Z" transform="translate(-1341.304 -548.008)" fill="#6197ed"/>
      <path id="Trazado_9415-2" data-name="Trazado 9415" d="M1358.278,557.005q-5.549.073-11.1.11v-2.293q5.55-.038,11.1-.114Z" transform="translate(-1341.304 -550.113)" fill="#91beff"/>
      <g id="Grupo_10219-2" data-name="Grupo 10219" transform="translate(16.974 13.62)">
        <path id="Trazado_9416-2" data-name="Trazado 9416" d="M1374.463,570.173q-5.55.094-11.1.157v-2.3q5.55-.066,11.1-.163Z" transform="translate(-1363.365 -567.87)" fill="#91beff"/>
      </g>
      <g id="Grupo_10220-2" data-name="Grupo 10220" transform="translate(16.974 18.29)">
        <path id="Trazado_9417-2" data-name="Trazado 9417" d="M1370.332,576.981q-3.483.047-6.967.084v-2.3q3.483-.038,6.967-.088Z" transform="translate(-1363.365 -574.68)" fill="#91beff"/>
      </g>
      <g id="Grupo_10221-2" data-name="Grupo 10221" transform="translate(26.533 18.132)">
        <path id="Trazado_9418-2" data-name="Trazado 9418" d="M1384.27,576.757q-3.482.063-6.966.115v-2.3q3.483-.055,6.966-.12Z" transform="translate(-1377.304 -574.449)" fill="#91beff"/>
      </g>
      <g id="Grupo_10222-2" data-name="Grupo 10222" transform="translate(36.091 17.93)">
        <path id="Trazado_9419-2" data-name="Trazado 9419" d="M1398.206,576.47q-3.482.078-6.964.145v-2.31q3.482-.07,6.964-.152Z" transform="translate(-1391.242 -574.154)" fill="#91beff"/>
      </g>
      <g id="Grupo_10223-2" data-name="Grupo 10223" transform="translate(45.647 17.683)">
        <path id="Trazado_9420-2" data-name="Trazado 9420" d="M1412.139,576.12q-3.481.094-6.963.176v-2.318q3.482-.086,6.963-.185Z" transform="translate(-1405.176 -573.794)" fill="#91beff"/>
      </g>
      <g id="Grupo_10224-2" data-name="Grupo 10224" transform="translate(55.2 16.88)">
        <path id="Trazado_9421-2" data-name="Trazado 9421" d="M1440.227,574.982q-10.555.4-21.12.7v-2.329q10.564-.31,21.12-.728Z" transform="translate(-1419.107 -572.623)" fill="#91beff"/>
      </g>
      <g id="Grupo_10225-2" data-name="Grupo 10225" transform="translate(77.614 16.281)">
        <path id="Trazado_9422-2" data-name="Trazado 9422" d="M1464.407,574.134q-6.305.281-12.614.525V572.3q6.309-.254,12.614-.547Z" transform="translate(-1451.793 -571.75)" fill="#91beff"/>
      </g>
      <g id="Grupo_10226-2" data-name="Grupo 10226" transform="translate(33.256 13.051)">
        <path id="Trazado_9423-2" data-name="Trazado 9423" d="M1405.813,569.364q-9.35.271-18.705.453v-2.307q9.354-.19,18.705-.472Q1405.814,568.2,1405.813,569.364Z" transform="translate(-1387.108 -567.039)" fill="#91beff"/>
      </g>
      <g id="Grupo_10227-2" data-name="Grupo 10227" transform="translate(57.629 12.161)">
        <path id="Trazado_9424-2" data-name="Trazado 9424" d="M1441.34,568.1q-9.342.386-18.691.684v-2.332q9.348-.31,18.691-.71Z" transform="translate(-1422.649 -565.742)" fill="#91beff"/>
      </g>
      <g id="Grupo_10228-2" data-name="Grupo 10228" transform="translate(78.746 11.82)">
        <path id="Trazado_9425-2" data-name="Trazado 9425" d="M1458.619,567.616q-2.587.117-5.176.227V565.48q2.588-.114,5.176-.236Z" transform="translate(-1453.444 -565.244)" fill="#91beff"/>
      </g>
      <g id="Grupo_10229-2" data-name="Grupo 10229" transform="translate(16.974 9.137)">
        <path id="Trazado_9426-2" data-name="Trazado 9426" d="M1367.172,563.631q-1.9.028-3.807.051v-2.3q1.9-.024,3.807-.052Z" transform="translate(-1363.365 -561.332)" fill="#91beff"/>
      </g>
      <g id="Grupo_10230-2" data-name="Grupo 10230" transform="translate(24.103 8.89)">
        <path id="Trazado_9427-2" data-name="Trazado 9427" d="M1383.723,563.28q-4.981.107-9.963.188v-2.3q4.983-.083,9.963-.194Z" transform="translate(-1373.76 -560.972)" fill="#91beff"/>
      </g>
      <g id="Grupo_10231-2" data-name="Grupo 10231" transform="translate(37.144 8.551)">
        <path id="Trazado_9428-2" data-name="Trazado 9428" d="M1402.738,562.8q-4.98.143-9.961.259v-2.31q4.981-.12,9.961-.267Z" transform="translate(-1392.777 -560.478)" fill="#91beff"/>
      </g>
      <g id="Grupo_10232-2" data-name="Grupo 10232" transform="translate(50.181 7.92)">
        <path id="Trazado_9429-2" data-name="Trazado 9429" d="M1426.843,561.9q-7.525.29-15.055.518v-2.323q7.529-.236,15.055-.537Z" transform="translate(-1411.788 -559.557)" fill="#91beff"/>
      </g>
      <g id="Grupo_10233-2" data-name="Grupo 10233" transform="translate(68.958 6.402)">
        <path id="Trazado_9430-2" data-name="Trazado 9430" d="M1466.582,559.741q-13.7.76-27.412,1.317v-2.348q13.715-.576,27.412-1.365Z" transform="translate(-1439.17 -557.344)" fill="#91beff"/>
      </g>
      <g id="Grupo_10234-2" data-name="Grupo 10234" transform="translate(0 4.726)">
        <path id="Trazado_9431-2" data-name="Trazado 9431" d="M1341.529,557.193l-2.917.012v-2.292l2.917-.012Z" transform="translate(-1338.612 -554.9)" fill="#91beff"/>
      </g>
      <g id="Grupo_10235-2" data-name="Grupo 10235" transform="translate(0 9.312)">
        <path id="Trazado_9432-2" data-name="Trazado 9432" d="M1341.529,563.88l-2.917.011V561.6l2.917-.012Z" transform="translate(-1338.612 -561.587)" fill="#91beff"/>
      </g>
      <g id="Grupo_10236-2" data-name="Grupo 10236" transform="translate(0 13.897)">
        <path id="Trazado_9433-2" data-name="Trazado 9433" d="M1341.529,570.567l-2.917.01v-2.292l2.917-.011Z" transform="translate(-1338.612 -568.274)" fill="#91beff"/>
      </g>
      <g id="Grupo_10237-2" data-name="Grupo 10237" transform="translate(0 18.483)">
        <path id="Trazado_9434-2" data-name="Trazado 9434" d="M1341.529,577.254l-2.917.009v-2.292l2.917-.01Z" transform="translate(-1338.612 -574.961)" fill="#91beff"/>
      </g>
    </g>
  </g>
</svg>
